G04 (created by PCBNEW (2013-07-07 BZR 4022)-stable) date 2015/2/26 10:28:25*
%MOIN*%
G04 Gerber Fmt 3.4, Leading zero omitted, Abs format*
%FSLAX34Y34*%
G01*
G70*
G90*
G04 APERTURE LIST*
%ADD10C,0.00590551*%
%ADD11O,0.129X0.0645*%
%ADD12C,0.126*%
%ADD13C,0.052*%
%ADD14C,0.032*%
%ADD15C,0.01*%
G04 APERTURE END LIST*
G54D10*
G54D11*
X24559Y-14354D03*
X24559Y-15354D03*
X24559Y-16354D03*
G54D12*
X16929Y-11811D03*
X28740Y-11811D03*
X16929Y-18897D03*
X28740Y-18897D03*
G54D13*
X19185Y-15354D03*
X20185Y-15354D03*
G54D14*
X21400Y-16250D03*
G54D10*
G36*
X29701Y-19270D02*
X29654Y-19506D01*
X29570Y-19632D01*
X29570Y-18733D01*
X29570Y-11646D01*
X29444Y-11341D01*
X29210Y-11107D01*
X28905Y-10981D01*
X28575Y-10980D01*
X28270Y-11106D01*
X28036Y-11340D01*
X27910Y-11645D01*
X27910Y-11975D01*
X28036Y-12280D01*
X28269Y-12514D01*
X28574Y-12640D01*
X28904Y-12641D01*
X29209Y-12515D01*
X29443Y-12281D01*
X29570Y-11976D01*
X29570Y-11646D01*
X29570Y-18733D01*
X29444Y-18428D01*
X29210Y-18194D01*
X28905Y-18067D01*
X28575Y-18067D01*
X28270Y-18193D01*
X28036Y-18426D01*
X27910Y-18731D01*
X27910Y-19062D01*
X28036Y-19367D01*
X28269Y-19600D01*
X28574Y-19727D01*
X28904Y-19727D01*
X29209Y-19601D01*
X29443Y-19368D01*
X29570Y-19063D01*
X29570Y-18733D01*
X29570Y-19632D01*
X29531Y-19690D01*
X29350Y-19811D01*
X29112Y-19859D01*
X25420Y-19859D01*
X25420Y-16354D01*
X25380Y-16154D01*
X25267Y-15984D01*
X25098Y-15871D01*
X25011Y-15854D01*
X25098Y-15837D01*
X25267Y-15723D01*
X25380Y-15554D01*
X25420Y-15354D01*
X25380Y-15154D01*
X25267Y-14984D01*
X25098Y-14871D01*
X25008Y-14853D01*
X25127Y-14817D01*
X25286Y-14688D01*
X25383Y-14508D01*
X25387Y-14485D01*
X25387Y-14223D01*
X25383Y-14200D01*
X25286Y-14020D01*
X25127Y-13890D01*
X24931Y-13831D01*
X24609Y-13831D01*
X24609Y-14304D01*
X25351Y-14304D01*
X25387Y-14223D01*
X25387Y-14485D01*
X25351Y-14404D01*
X24609Y-14404D01*
X24609Y-14412D01*
X24509Y-14412D01*
X24509Y-14404D01*
X24509Y-14304D01*
X24509Y-13831D01*
X24186Y-13831D01*
X23990Y-13890D01*
X23831Y-14020D01*
X23734Y-14200D01*
X23730Y-14223D01*
X23766Y-14304D01*
X24509Y-14304D01*
X24509Y-14404D01*
X23766Y-14404D01*
X23730Y-14485D01*
X23734Y-14508D01*
X23831Y-14688D01*
X23990Y-14817D01*
X24109Y-14853D01*
X24020Y-14871D01*
X23850Y-14984D01*
X23737Y-15154D01*
X23697Y-15354D01*
X23737Y-15554D01*
X23850Y-15723D01*
X24020Y-15837D01*
X24106Y-15854D01*
X24020Y-15871D01*
X23850Y-15984D01*
X23737Y-16154D01*
X23697Y-16354D01*
X23737Y-16554D01*
X23850Y-16723D01*
X24020Y-16837D01*
X24220Y-16876D01*
X24898Y-16876D01*
X25098Y-16837D01*
X25267Y-16723D01*
X25380Y-16554D01*
X25420Y-16354D01*
X25420Y-19859D01*
X20645Y-19859D01*
X20645Y-15263D01*
X20575Y-15094D01*
X20445Y-14964D01*
X20276Y-14894D01*
X20093Y-14894D01*
X19924Y-14964D01*
X19795Y-15093D01*
X19725Y-15262D01*
X19724Y-15445D01*
X19794Y-15614D01*
X19924Y-15744D01*
X20093Y-15814D01*
X20276Y-15814D01*
X20445Y-15744D01*
X20574Y-15615D01*
X20644Y-15446D01*
X20645Y-15263D01*
X20645Y-19859D01*
X19645Y-19859D01*
X19645Y-15263D01*
X19575Y-15094D01*
X19445Y-14964D01*
X19276Y-14894D01*
X19093Y-14894D01*
X18924Y-14964D01*
X18795Y-15093D01*
X18725Y-15262D01*
X18724Y-15445D01*
X18794Y-15614D01*
X18924Y-15744D01*
X19093Y-15814D01*
X19276Y-15814D01*
X19445Y-15744D01*
X19574Y-15615D01*
X19644Y-15446D01*
X19645Y-15263D01*
X19645Y-19859D01*
X17759Y-19859D01*
X17759Y-18733D01*
X17759Y-11646D01*
X17633Y-11341D01*
X17399Y-11107D01*
X17094Y-10981D01*
X16764Y-10980D01*
X16459Y-11106D01*
X16225Y-11340D01*
X16099Y-11645D01*
X16098Y-11975D01*
X16225Y-12280D01*
X16458Y-12514D01*
X16763Y-12640D01*
X17093Y-12641D01*
X17398Y-12515D01*
X17632Y-12281D01*
X17758Y-11976D01*
X17759Y-11646D01*
X17759Y-18733D01*
X17633Y-18428D01*
X17399Y-18194D01*
X17094Y-18067D01*
X16764Y-18067D01*
X16459Y-18193D01*
X16225Y-18426D01*
X16099Y-18731D01*
X16098Y-19062D01*
X16225Y-19367D01*
X16458Y-19600D01*
X16763Y-19727D01*
X17093Y-19727D01*
X17398Y-19601D01*
X17632Y-19368D01*
X17758Y-19063D01*
X17759Y-18733D01*
X17759Y-19859D01*
X16555Y-19859D01*
X16320Y-19812D01*
X16136Y-19689D01*
X16015Y-19507D01*
X15967Y-19269D01*
X15967Y-11439D01*
X16015Y-11201D01*
X16136Y-11019D01*
X16320Y-10896D01*
X16555Y-10849D01*
X29112Y-10849D01*
X29350Y-10897D01*
X29531Y-11018D01*
X29654Y-11202D01*
X29701Y-11437D01*
X29701Y-19270D01*
X29701Y-19270D01*
G37*
G54D15*
X29701Y-19270D02*
X29654Y-19506D01*
X29570Y-19632D01*
X29570Y-18733D01*
X29570Y-11646D01*
X29444Y-11341D01*
X29210Y-11107D01*
X28905Y-10981D01*
X28575Y-10980D01*
X28270Y-11106D01*
X28036Y-11340D01*
X27910Y-11645D01*
X27910Y-11975D01*
X28036Y-12280D01*
X28269Y-12514D01*
X28574Y-12640D01*
X28904Y-12641D01*
X29209Y-12515D01*
X29443Y-12281D01*
X29570Y-11976D01*
X29570Y-11646D01*
X29570Y-18733D01*
X29444Y-18428D01*
X29210Y-18194D01*
X28905Y-18067D01*
X28575Y-18067D01*
X28270Y-18193D01*
X28036Y-18426D01*
X27910Y-18731D01*
X27910Y-19062D01*
X28036Y-19367D01*
X28269Y-19600D01*
X28574Y-19727D01*
X28904Y-19727D01*
X29209Y-19601D01*
X29443Y-19368D01*
X29570Y-19063D01*
X29570Y-18733D01*
X29570Y-19632D01*
X29531Y-19690D01*
X29350Y-19811D01*
X29112Y-19859D01*
X25420Y-19859D01*
X25420Y-16354D01*
X25380Y-16154D01*
X25267Y-15984D01*
X25098Y-15871D01*
X25011Y-15854D01*
X25098Y-15837D01*
X25267Y-15723D01*
X25380Y-15554D01*
X25420Y-15354D01*
X25380Y-15154D01*
X25267Y-14984D01*
X25098Y-14871D01*
X25008Y-14853D01*
X25127Y-14817D01*
X25286Y-14688D01*
X25383Y-14508D01*
X25387Y-14485D01*
X25387Y-14223D01*
X25383Y-14200D01*
X25286Y-14020D01*
X25127Y-13890D01*
X24931Y-13831D01*
X24609Y-13831D01*
X24609Y-14304D01*
X25351Y-14304D01*
X25387Y-14223D01*
X25387Y-14485D01*
X25351Y-14404D01*
X24609Y-14404D01*
X24609Y-14412D01*
X24509Y-14412D01*
X24509Y-14404D01*
X24509Y-14304D01*
X24509Y-13831D01*
X24186Y-13831D01*
X23990Y-13890D01*
X23831Y-14020D01*
X23734Y-14200D01*
X23730Y-14223D01*
X23766Y-14304D01*
X24509Y-14304D01*
X24509Y-14404D01*
X23766Y-14404D01*
X23730Y-14485D01*
X23734Y-14508D01*
X23831Y-14688D01*
X23990Y-14817D01*
X24109Y-14853D01*
X24020Y-14871D01*
X23850Y-14984D01*
X23737Y-15154D01*
X23697Y-15354D01*
X23737Y-15554D01*
X23850Y-15723D01*
X24020Y-15837D01*
X24106Y-15854D01*
X24020Y-15871D01*
X23850Y-15984D01*
X23737Y-16154D01*
X23697Y-16354D01*
X23737Y-16554D01*
X23850Y-16723D01*
X24020Y-16837D01*
X24220Y-16876D01*
X24898Y-16876D01*
X25098Y-16837D01*
X25267Y-16723D01*
X25380Y-16554D01*
X25420Y-16354D01*
X25420Y-19859D01*
X20645Y-19859D01*
X20645Y-15263D01*
X20575Y-15094D01*
X20445Y-14964D01*
X20276Y-14894D01*
X20093Y-14894D01*
X19924Y-14964D01*
X19795Y-15093D01*
X19725Y-15262D01*
X19724Y-15445D01*
X19794Y-15614D01*
X19924Y-15744D01*
X20093Y-15814D01*
X20276Y-15814D01*
X20445Y-15744D01*
X20574Y-15615D01*
X20644Y-15446D01*
X20645Y-15263D01*
X20645Y-19859D01*
X19645Y-19859D01*
X19645Y-15263D01*
X19575Y-15094D01*
X19445Y-14964D01*
X19276Y-14894D01*
X19093Y-14894D01*
X18924Y-14964D01*
X18795Y-15093D01*
X18725Y-15262D01*
X18724Y-15445D01*
X18794Y-15614D01*
X18924Y-15744D01*
X19093Y-15814D01*
X19276Y-15814D01*
X19445Y-15744D01*
X19574Y-15615D01*
X19644Y-15446D01*
X19645Y-15263D01*
X19645Y-19859D01*
X17759Y-19859D01*
X17759Y-18733D01*
X17759Y-11646D01*
X17633Y-11341D01*
X17399Y-11107D01*
X17094Y-10981D01*
X16764Y-10980D01*
X16459Y-11106D01*
X16225Y-11340D01*
X16099Y-11645D01*
X16098Y-11975D01*
X16225Y-12280D01*
X16458Y-12514D01*
X16763Y-12640D01*
X17093Y-12641D01*
X17398Y-12515D01*
X17632Y-12281D01*
X17758Y-11976D01*
X17759Y-11646D01*
X17759Y-18733D01*
X17633Y-18428D01*
X17399Y-18194D01*
X17094Y-18067D01*
X16764Y-18067D01*
X16459Y-18193D01*
X16225Y-18426D01*
X16099Y-18731D01*
X16098Y-19062D01*
X16225Y-19367D01*
X16458Y-19600D01*
X16763Y-19727D01*
X17093Y-19727D01*
X17398Y-19601D01*
X17632Y-19368D01*
X17758Y-19063D01*
X17759Y-18733D01*
X17759Y-19859D01*
X16555Y-19859D01*
X16320Y-19812D01*
X16136Y-19689D01*
X16015Y-19507D01*
X15967Y-19269D01*
X15967Y-11439D01*
X16015Y-11201D01*
X16136Y-11019D01*
X16320Y-10896D01*
X16555Y-10849D01*
X29112Y-10849D01*
X29350Y-10897D01*
X29531Y-11018D01*
X29654Y-11202D01*
X29701Y-11437D01*
X29701Y-19270D01*
M02*
