G04 (created by PCBNEW (2013-07-07 BZR 4022)-stable) date 2015/2/26 10:28:25*
%MOIN*%
G04 Gerber Fmt 3.4, Leading zero omitted, Abs format*
%FSLAX34Y34*%
G01*
G70*
G90*
G04 APERTURE LIST*
%ADD10C,0.00590551*%
%ADD11C,0.008*%
%ADD12C,0.0001*%
G04 APERTURE END LIST*
G54D10*
G54D11*
X26400Y-16130D02*
X26438Y-16111D01*
X26495Y-16111D01*
X26552Y-16130D01*
X26590Y-16169D01*
X26609Y-16207D01*
X26628Y-16283D01*
X26628Y-16340D01*
X26609Y-16416D01*
X26590Y-16454D01*
X26552Y-16492D01*
X26495Y-16511D01*
X26457Y-16511D01*
X26400Y-16492D01*
X26380Y-16473D01*
X26380Y-16340D01*
X26457Y-16340D01*
X26209Y-16511D02*
X26209Y-16111D01*
X26057Y-16111D01*
X26019Y-16130D01*
X26000Y-16150D01*
X25980Y-16188D01*
X25980Y-16245D01*
X26000Y-16283D01*
X26019Y-16302D01*
X26057Y-16321D01*
X26209Y-16321D01*
X25809Y-16511D02*
X25809Y-16111D01*
X25542Y-16111D02*
X25466Y-16111D01*
X25428Y-16130D01*
X25390Y-16169D01*
X25371Y-16245D01*
X25371Y-16378D01*
X25390Y-16454D01*
X25428Y-16492D01*
X25466Y-16511D01*
X25542Y-16511D01*
X25580Y-16492D01*
X25619Y-16454D01*
X25638Y-16378D01*
X25638Y-16245D01*
X25619Y-16169D01*
X25580Y-16130D01*
X25542Y-16111D01*
X26590Y-15111D02*
X26342Y-15111D01*
X26476Y-15264D01*
X26419Y-15264D01*
X26380Y-15283D01*
X26361Y-15302D01*
X26342Y-15340D01*
X26342Y-15435D01*
X26361Y-15473D01*
X26380Y-15492D01*
X26419Y-15511D01*
X26533Y-15511D01*
X26571Y-15492D01*
X26590Y-15473D01*
X26171Y-15473D02*
X26152Y-15492D01*
X26171Y-15511D01*
X26190Y-15492D01*
X26171Y-15473D01*
X26171Y-15511D01*
X26019Y-15111D02*
X25771Y-15111D01*
X25904Y-15264D01*
X25847Y-15264D01*
X25809Y-15283D01*
X25790Y-15302D01*
X25771Y-15340D01*
X25771Y-15435D01*
X25790Y-15473D01*
X25809Y-15492D01*
X25847Y-15511D01*
X25961Y-15511D01*
X25999Y-15492D01*
X26019Y-15473D01*
X25657Y-15111D02*
X25523Y-15511D01*
X25390Y-15111D01*
X26304Y-14130D02*
X26342Y-14111D01*
X26400Y-14111D01*
X26457Y-14130D01*
X26495Y-14169D01*
X26514Y-14207D01*
X26533Y-14283D01*
X26533Y-14340D01*
X26514Y-14416D01*
X26495Y-14454D01*
X26457Y-14492D01*
X26400Y-14511D01*
X26361Y-14511D01*
X26304Y-14492D01*
X26285Y-14473D01*
X26285Y-14340D01*
X26361Y-14340D01*
X26114Y-14511D02*
X26114Y-14111D01*
X25885Y-14511D01*
X25885Y-14111D01*
X25695Y-14511D02*
X25695Y-14111D01*
X25599Y-14111D01*
X25542Y-14130D01*
X25504Y-14169D01*
X25485Y-14207D01*
X25466Y-14283D01*
X25466Y-14340D01*
X25485Y-14416D01*
X25504Y-14454D01*
X25542Y-14492D01*
X25599Y-14511D01*
X25695Y-14511D01*
G54D12*
G36*
X19287Y-17460D02*
X19214Y-17460D01*
X19140Y-17460D01*
X19140Y-17374D01*
X19140Y-17287D01*
X19140Y-17134D01*
X19136Y-17125D01*
X19120Y-17119D01*
X19089Y-17115D01*
X19037Y-17114D01*
X19000Y-17114D01*
X18936Y-17114D01*
X18895Y-17117D01*
X18871Y-17121D01*
X18861Y-17128D01*
X18860Y-17134D01*
X18865Y-17143D01*
X18880Y-17149D01*
X18912Y-17152D01*
X18963Y-17154D01*
X19000Y-17154D01*
X19064Y-17153D01*
X19106Y-17151D01*
X19129Y-17146D01*
X19139Y-17139D01*
X19140Y-17134D01*
X19140Y-17287D01*
X19000Y-17287D01*
X18860Y-17287D01*
X18860Y-17374D01*
X18860Y-17460D01*
X18787Y-17460D01*
X18714Y-17460D01*
X18714Y-17214D01*
X18714Y-16967D01*
X19000Y-16967D01*
X19287Y-16967D01*
X19287Y-17214D01*
X19287Y-17460D01*
X19287Y-17460D01*
X19287Y-17460D01*
G37*
G36*
X19940Y-17460D02*
X19794Y-17460D01*
X19794Y-17327D01*
X19794Y-17220D01*
X19794Y-17114D01*
X19686Y-17114D01*
X19631Y-17115D01*
X19595Y-17118D01*
X19571Y-17126D01*
X19552Y-17141D01*
X19546Y-17146D01*
X19519Y-17186D01*
X19516Y-17229D01*
X19529Y-17265D01*
X19548Y-17294D01*
X19578Y-17312D01*
X19624Y-17322D01*
X19691Y-17326D01*
X19697Y-17326D01*
X19794Y-17327D01*
X19794Y-17460D01*
X19744Y-17460D01*
X19663Y-17459D01*
X19605Y-17457D01*
X19563Y-17454D01*
X19533Y-17448D01*
X19508Y-17438D01*
X19499Y-17434D01*
X19440Y-17392D01*
X19396Y-17338D01*
X19373Y-17280D01*
X19373Y-17279D01*
X19368Y-17201D01*
X19382Y-17128D01*
X19413Y-17067D01*
X19440Y-17034D01*
X19468Y-17010D01*
X19501Y-16993D01*
X19545Y-16982D01*
X19603Y-16975D01*
X19680Y-16971D01*
X19737Y-16970D01*
X19940Y-16965D01*
X19940Y-17213D01*
X19940Y-17460D01*
X19940Y-17460D01*
X19940Y-17460D01*
G37*
G36*
X20594Y-17460D02*
X20307Y-17460D01*
X20020Y-17460D01*
X20020Y-17394D01*
X20020Y-17327D01*
X20234Y-17327D01*
X20315Y-17327D01*
X20373Y-17326D01*
X20411Y-17323D01*
X20434Y-17319D01*
X20445Y-17313D01*
X20447Y-17307D01*
X20443Y-17300D01*
X20431Y-17294D01*
X20404Y-17290D01*
X20361Y-17288D01*
X20299Y-17287D01*
X20234Y-17287D01*
X20020Y-17287D01*
X20020Y-17220D01*
X20020Y-17154D01*
X20234Y-17154D01*
X20315Y-17154D01*
X20373Y-17152D01*
X20411Y-17150D01*
X20434Y-17146D01*
X20445Y-17140D01*
X20447Y-17134D01*
X20443Y-17126D01*
X20431Y-17121D01*
X20404Y-17117D01*
X20361Y-17115D01*
X20299Y-17114D01*
X20234Y-17114D01*
X20020Y-17114D01*
X20020Y-17040D01*
X20020Y-16967D01*
X20307Y-16967D01*
X20594Y-16967D01*
X20594Y-17214D01*
X20594Y-17460D01*
X20594Y-17460D01*
X20594Y-17460D01*
G37*
G36*
X21247Y-17460D02*
X21100Y-17460D01*
X21100Y-17327D01*
X21100Y-17114D01*
X20820Y-17114D01*
X20820Y-17327D01*
X21100Y-17327D01*
X21100Y-17460D01*
X20674Y-17460D01*
X20674Y-16967D01*
X21247Y-16967D01*
X21247Y-17460D01*
X21247Y-17460D01*
X21247Y-17460D01*
G37*
G36*
X21900Y-17460D02*
X21614Y-17460D01*
X21327Y-17460D01*
X21327Y-17307D01*
X21327Y-17154D01*
X21521Y-17154D01*
X21715Y-17154D01*
X21711Y-17217D01*
X21707Y-17280D01*
X21590Y-17284D01*
X21532Y-17287D01*
X21496Y-17292D01*
X21478Y-17299D01*
X21474Y-17308D01*
X21478Y-17316D01*
X21495Y-17322D01*
X21528Y-17326D01*
X21582Y-17327D01*
X21614Y-17327D01*
X21754Y-17327D01*
X21754Y-17220D01*
X21754Y-17114D01*
X21540Y-17114D01*
X21327Y-17114D01*
X21327Y-17040D01*
X21327Y-16967D01*
X21614Y-16967D01*
X21900Y-16967D01*
X21900Y-17214D01*
X21900Y-17460D01*
X21900Y-17460D01*
X21900Y-17460D01*
G37*
G36*
X22554Y-17460D02*
X22407Y-17460D01*
X22407Y-17114D01*
X22127Y-17114D01*
X22127Y-17460D01*
X21980Y-17460D01*
X21980Y-16967D01*
X22554Y-16967D01*
X22554Y-17460D01*
X22554Y-17460D01*
X22554Y-17460D01*
G37*
G36*
X22780Y-17460D02*
X22700Y-17460D01*
X22620Y-17460D01*
X22623Y-17217D01*
X22627Y-16974D01*
X22704Y-16970D01*
X22780Y-16966D01*
X22780Y-17213D01*
X22780Y-17460D01*
X22780Y-17460D01*
X22780Y-17460D01*
G37*
G36*
X23434Y-17460D02*
X23287Y-17460D01*
X23287Y-17114D01*
X23220Y-17114D01*
X23220Y-17460D01*
X23074Y-17460D01*
X23074Y-17114D01*
X23007Y-17114D01*
X23007Y-17460D01*
X22860Y-17460D01*
X22860Y-16967D01*
X23434Y-16967D01*
X23434Y-17460D01*
X23434Y-17460D01*
X23434Y-17460D01*
G37*
G36*
X24087Y-17460D02*
X24014Y-17460D01*
X23940Y-17460D01*
X23940Y-17374D01*
X23940Y-17287D01*
X23940Y-17134D01*
X23936Y-17125D01*
X23920Y-17119D01*
X23889Y-17115D01*
X23837Y-17114D01*
X23800Y-17114D01*
X23736Y-17114D01*
X23695Y-17117D01*
X23671Y-17121D01*
X23661Y-17128D01*
X23660Y-17134D01*
X23665Y-17143D01*
X23680Y-17149D01*
X23712Y-17152D01*
X23763Y-17154D01*
X23800Y-17154D01*
X23864Y-17153D01*
X23906Y-17151D01*
X23929Y-17146D01*
X23939Y-17139D01*
X23940Y-17134D01*
X23940Y-17287D01*
X23800Y-17287D01*
X23660Y-17287D01*
X23660Y-17374D01*
X23660Y-17460D01*
X23587Y-17460D01*
X23514Y-17460D01*
X23514Y-17214D01*
X23514Y-16967D01*
X23800Y-16967D01*
X24087Y-16967D01*
X24087Y-17214D01*
X24087Y-17460D01*
X24087Y-17460D01*
X24087Y-17460D01*
G37*
G36*
X24740Y-17460D02*
X24167Y-17460D01*
X24167Y-17327D01*
X24594Y-17327D01*
X24594Y-16967D01*
X24740Y-16967D01*
X24740Y-17460D01*
X24740Y-17460D01*
X24740Y-17460D01*
G37*
G36*
X25394Y-17460D02*
X25320Y-17460D01*
X25247Y-17460D01*
X25247Y-17374D01*
X25247Y-17287D01*
X25034Y-17287D01*
X24820Y-17287D01*
X24820Y-17220D01*
X24820Y-17154D01*
X25034Y-17154D01*
X25115Y-17154D01*
X25173Y-17152D01*
X25211Y-17150D01*
X25234Y-17146D01*
X25245Y-17140D01*
X25247Y-17134D01*
X25243Y-17126D01*
X25231Y-17121D01*
X25204Y-17117D01*
X25161Y-17115D01*
X25099Y-17114D01*
X25034Y-17114D01*
X24820Y-17114D01*
X24820Y-17040D01*
X24820Y-16967D01*
X25107Y-16967D01*
X25394Y-16967D01*
X25394Y-17214D01*
X25394Y-17460D01*
X25394Y-17460D01*
X25394Y-17460D01*
G37*
G36*
X23681Y-14985D02*
X23677Y-15083D01*
X23668Y-15162D01*
X23627Y-15379D01*
X23564Y-15582D01*
X23479Y-15771D01*
X23371Y-15946D01*
X23241Y-16105D01*
X23090Y-16248D01*
X22918Y-16376D01*
X22865Y-16409D01*
X22715Y-16486D01*
X22551Y-16542D01*
X22381Y-16578D01*
X22208Y-16590D01*
X22039Y-16580D01*
X22013Y-16576D01*
X21862Y-16540D01*
X21731Y-16488D01*
X21619Y-16419D01*
X21527Y-16334D01*
X21456Y-16232D01*
X21444Y-16208D01*
X21420Y-16134D01*
X21413Y-16051D01*
X21422Y-15969D01*
X21446Y-15900D01*
X21493Y-15832D01*
X21560Y-15761D01*
X21644Y-15690D01*
X21739Y-15625D01*
X21840Y-15567D01*
X21943Y-15522D01*
X21943Y-15521D01*
X22035Y-15492D01*
X22141Y-15469D01*
X22264Y-15451D01*
X22409Y-15438D01*
X22459Y-15434D01*
X22537Y-15428D01*
X22612Y-15421D01*
X22676Y-15412D01*
X22723Y-15404D01*
X22736Y-15401D01*
X22792Y-15376D01*
X22837Y-15341D01*
X22866Y-15301D01*
X22873Y-15270D01*
X22861Y-15215D01*
X22827Y-15150D01*
X22772Y-15079D01*
X22699Y-15002D01*
X22609Y-14923D01*
X22576Y-14896D01*
X22502Y-14834D01*
X22427Y-14764D01*
X22353Y-14691D01*
X22287Y-14618D01*
X22232Y-14551D01*
X22192Y-14494D01*
X22185Y-14480D01*
X22146Y-14398D01*
X22124Y-14326D01*
X22119Y-14259D01*
X22127Y-14190D01*
X22156Y-14089D01*
X22201Y-14004D01*
X22259Y-13939D01*
X22329Y-13896D01*
X22360Y-13885D01*
X22420Y-13877D01*
X22494Y-13879D01*
X22571Y-13890D01*
X22636Y-13908D01*
X22713Y-13946D01*
X22779Y-14001D01*
X22830Y-14068D01*
X22863Y-14142D01*
X22874Y-14210D01*
X22872Y-14262D01*
X22865Y-14288D01*
X22850Y-14291D01*
X22823Y-14272D01*
X22797Y-14248D01*
X22725Y-14190D01*
X22646Y-14144D01*
X22566Y-14113D01*
X22493Y-14100D01*
X22486Y-14100D01*
X22412Y-14110D01*
X22345Y-14136D01*
X22292Y-14176D01*
X22281Y-14190D01*
X22258Y-14241D01*
X22248Y-14306D01*
X22253Y-14374D01*
X22272Y-14437D01*
X22273Y-14440D01*
X22324Y-14520D01*
X22400Y-14604D01*
X22499Y-14690D01*
X22619Y-14776D01*
X22747Y-14854D01*
X22867Y-14925D01*
X22964Y-14990D01*
X23041Y-15052D01*
X23101Y-15110D01*
X23146Y-15170D01*
X23166Y-15206D01*
X23190Y-15278D01*
X23188Y-15348D01*
X23162Y-15416D01*
X23114Y-15476D01*
X23045Y-15529D01*
X22960Y-15570D01*
X22933Y-15578D01*
X22905Y-15585D01*
X22873Y-15591D01*
X22831Y-15596D01*
X22777Y-15599D01*
X22707Y-15602D01*
X22617Y-15605D01*
X22520Y-15608D01*
X22399Y-15612D01*
X22302Y-15616D01*
X22223Y-15620D01*
X22159Y-15627D01*
X22107Y-15635D01*
X22062Y-15646D01*
X22021Y-15660D01*
X21979Y-15678D01*
X21961Y-15687D01*
X21878Y-15738D01*
X21806Y-15805D01*
X21747Y-15882D01*
X21707Y-15964D01*
X21691Y-16031D01*
X21695Y-16105D01*
X21722Y-16180D01*
X21769Y-16252D01*
X21831Y-16314D01*
X21907Y-16362D01*
X21921Y-16369D01*
X22025Y-16404D01*
X22143Y-16425D01*
X22269Y-16433D01*
X22394Y-16427D01*
X22508Y-16407D01*
X22661Y-16355D01*
X22809Y-16278D01*
X22950Y-16180D01*
X23082Y-16062D01*
X23202Y-15927D01*
X23307Y-15777D01*
X23387Y-15632D01*
X23460Y-15448D01*
X23508Y-15259D01*
X23531Y-15067D01*
X23527Y-14874D01*
X23498Y-14682D01*
X23443Y-14494D01*
X23381Y-14346D01*
X23284Y-14176D01*
X23170Y-14023D01*
X23040Y-13889D01*
X22897Y-13774D01*
X22743Y-13679D01*
X22580Y-13604D01*
X22411Y-13549D01*
X22235Y-13514D01*
X22058Y-13501D01*
X21879Y-13509D01*
X21702Y-13539D01*
X21528Y-13591D01*
X21360Y-13665D01*
X21199Y-13762D01*
X21048Y-13883D01*
X21020Y-13909D01*
X20921Y-14011D01*
X20839Y-14111D01*
X20768Y-14219D01*
X20707Y-14334D01*
X20628Y-14519D01*
X20575Y-14705D01*
X20548Y-14894D01*
X20546Y-15090D01*
X20551Y-15162D01*
X20576Y-15334D01*
X20616Y-15497D01*
X20674Y-15652D01*
X20750Y-15802D01*
X20846Y-15948D01*
X20963Y-16094D01*
X21104Y-16243D01*
X21268Y-16396D01*
X21280Y-16406D01*
X21311Y-16434D01*
X21321Y-16446D01*
X21314Y-16444D01*
X21290Y-16428D01*
X21251Y-16401D01*
X21199Y-16363D01*
X21135Y-16314D01*
X21120Y-16302D01*
X20978Y-16185D01*
X20851Y-16065D01*
X20739Y-15944D01*
X20647Y-15826D01*
X20576Y-15714D01*
X20547Y-15656D01*
X20486Y-15491D01*
X20442Y-15313D01*
X20415Y-15130D01*
X20408Y-14948D01*
X20419Y-14773D01*
X20427Y-14719D01*
X20475Y-14520D01*
X20547Y-14331D01*
X20641Y-14153D01*
X20755Y-13988D01*
X20888Y-13839D01*
X21038Y-13706D01*
X21203Y-13593D01*
X21382Y-13500D01*
X21519Y-13448D01*
X21602Y-13424D01*
X21699Y-13401D01*
X21800Y-13381D01*
X21899Y-13366D01*
X21986Y-13356D01*
X22040Y-13354D01*
X22111Y-13358D01*
X22199Y-13368D01*
X22296Y-13384D01*
X22394Y-13404D01*
X22486Y-13426D01*
X22541Y-13441D01*
X22726Y-13513D01*
X22900Y-13608D01*
X23061Y-13723D01*
X23209Y-13858D01*
X23339Y-14008D01*
X23450Y-14173D01*
X23541Y-14350D01*
X23609Y-14536D01*
X23639Y-14656D01*
X23662Y-14780D01*
X23676Y-14887D01*
X23681Y-14985D01*
X23681Y-14985D01*
X23681Y-14985D01*
G37*
G36*
X22274Y-15226D02*
X22262Y-15262D01*
X22229Y-15286D01*
X22177Y-15299D01*
X22109Y-15298D01*
X22027Y-15283D01*
X22016Y-15280D01*
X21897Y-15263D01*
X21779Y-15271D01*
X21658Y-15306D01*
X21535Y-15367D01*
X21535Y-15367D01*
X21448Y-15432D01*
X21363Y-15519D01*
X21281Y-15626D01*
X21207Y-15747D01*
X21143Y-15880D01*
X21135Y-15898D01*
X21114Y-15948D01*
X21096Y-15989D01*
X21083Y-16014D01*
X21080Y-16018D01*
X21077Y-16010D01*
X21076Y-15982D01*
X21079Y-15939D01*
X21079Y-15930D01*
X21095Y-15816D01*
X21122Y-15712D01*
X21163Y-15607D01*
X21183Y-15567D01*
X21255Y-15448D01*
X21348Y-15340D01*
X21459Y-15246D01*
X21583Y-15170D01*
X21716Y-15115D01*
X21720Y-15114D01*
X21805Y-15094D01*
X21892Y-15085D01*
X21979Y-15085D01*
X22062Y-15094D01*
X22136Y-15111D01*
X22198Y-15136D01*
X22244Y-15166D01*
X22269Y-15203D01*
X22274Y-15226D01*
X22274Y-15226D01*
X22274Y-15226D01*
G37*
G36*
X22447Y-14987D02*
X22441Y-15026D01*
X22420Y-15050D01*
X22384Y-15060D01*
X22330Y-15055D01*
X22256Y-15036D01*
X22202Y-15018D01*
X22147Y-14999D01*
X22103Y-14987D01*
X22061Y-14979D01*
X22011Y-14976D01*
X21947Y-14974D01*
X21914Y-14974D01*
X21837Y-14975D01*
X21779Y-14978D01*
X21731Y-14984D01*
X21688Y-14994D01*
X21654Y-15005D01*
X21513Y-15067D01*
X21379Y-15154D01*
X21253Y-15266D01*
X21134Y-15404D01*
X21023Y-15568D01*
X20953Y-15691D01*
X20926Y-15740D01*
X20905Y-15777D01*
X20891Y-15798D01*
X20887Y-15800D01*
X20891Y-15782D01*
X20901Y-15745D01*
X20916Y-15694D01*
X20928Y-15653D01*
X20991Y-15481D01*
X21069Y-15325D01*
X21161Y-15188D01*
X21264Y-15072D01*
X21343Y-15004D01*
X21483Y-14910D01*
X21627Y-14840D01*
X21772Y-14794D01*
X21918Y-14773D01*
X22061Y-14776D01*
X22118Y-14786D01*
X22218Y-14811D01*
X22303Y-14843D01*
X22371Y-14880D01*
X22419Y-14922D01*
X22444Y-14965D01*
X22447Y-14987D01*
X22447Y-14987D01*
X22447Y-14987D01*
G37*
M02*
