G04 (created by PCBNEW (2013-03-19 BZR 4004)-stable) date 2014/12/12 17:07:44*
%MOIN*%
G04 Gerber Fmt 3.4, Leading zero omitted, Abs format*
%FSLAX34Y34*%
G01*
G70*
G90*
G04 APERTURE LIST*
%ADD10C,0*%
%ADD11R,0.00984252X0.0649606*%
%ADD12R,0.0649606X0.00984252*%
%ADD13R,0.05X0.025*%
%ADD14O,0.0393701X0.0787402*%
%ADD15R,0.275591X0.11811*%
%ADD16R,0.0511X0.059*%
%ADD17R,0.0629X0.0708*%
%ADD18O,0.15X0.22*%
%ADD19O,0.22X0.15*%
%ADD20R,0.0511811X0.00984252*%
%ADD21R,0.00984252X0.0511811*%
%ADD22R,0.015748X0.0393701*%
%ADD23R,0.0393701X0.015748*%
%ADD24C,0.0593*%
%ADD25C,0.1969*%
%ADD26C,0.125984*%
%ADD27C,0.06*%
%ADD28R,0.0629921X0.023622*%
%ADD29R,0.0905512X0.129921*%
%ADD30C,0.0433071*%
%ADD31R,0.0255906X0.019685*%
%ADD32R,0.019685X0.0255906*%
%ADD33R,0.0393X0.0551*%
%ADD34R,0.0393X0.0433*%
%ADD35R,0.0433X0.0393*%
%ADD36R,0.0472X0.0472*%
%ADD37C,0.0591*%
%ADD38R,0.0787402X0.0944882*%
%ADD39R,0.1102X0.0944*%
%ADD40R,0.0944X0.0944*%
%ADD41R,0.0629X0.0944*%
%ADD42R,0.0629X0.0551*%
%ADD43R,0.0551X0.0629*%
%ADD44R,0.0669291X0.0669291*%
%ADD45C,0.074*%
%ADD46C,0.114173*%
%ADD47C,0.110236*%
%ADD48O,0.129X0.0645*%
%ADD49C,0.024*%
%ADD50C,0.032*%
%ADD51C,0.032*%
%ADD52C,0.008*%
%ADD53C,0.016*%
%ADD54C,0.006*%
%ADD55C,0.024*%
%ADD56C,0.04*%
%ADD57C,0.001*%
G04 APERTURE END LIST*
G54D10*
G54D11*
X63857Y-48528D03*
X63660Y-48528D03*
X63463Y-48528D03*
X63266Y-48528D03*
X63070Y-48528D03*
X62873Y-48528D03*
X62676Y-48528D03*
X62479Y-48528D03*
X62282Y-48528D03*
X62085Y-48528D03*
X61888Y-48528D03*
X61692Y-48528D03*
G54D12*
X61003Y-49217D03*
X61003Y-49414D03*
X61003Y-49611D03*
X61003Y-49807D03*
X61003Y-50004D03*
X61003Y-50201D03*
X61003Y-50398D03*
X61003Y-50595D03*
X61003Y-50792D03*
X61003Y-50988D03*
X61003Y-51185D03*
X61003Y-51382D03*
G54D11*
X61692Y-52071D03*
X61888Y-52071D03*
X62085Y-52071D03*
X62282Y-52071D03*
X62479Y-52071D03*
X62676Y-52071D03*
X62873Y-52071D03*
X63070Y-52071D03*
X63266Y-52071D03*
X63463Y-52071D03*
X63660Y-52071D03*
X63857Y-52071D03*
G54D12*
X64546Y-51382D03*
X64546Y-51185D03*
X64546Y-50988D03*
X64546Y-50792D03*
X64546Y-50595D03*
X64546Y-50398D03*
X64546Y-50201D03*
X64546Y-50004D03*
X64546Y-49807D03*
X64546Y-49611D03*
X64546Y-49414D03*
X64546Y-49217D03*
G54D13*
X71200Y-64500D03*
X71200Y-65000D03*
X71200Y-65500D03*
X71200Y-66000D03*
X73800Y-66000D03*
X73800Y-65500D03*
X73800Y-65000D03*
X73800Y-64500D03*
G54D14*
X45620Y-70472D03*
X45120Y-70472D03*
X44620Y-70472D03*
X44120Y-70472D03*
X43620Y-70472D03*
X43120Y-70472D03*
X42620Y-70472D03*
X40120Y-70472D03*
X39620Y-70472D03*
X39120Y-70472D03*
X38620Y-70472D03*
X38120Y-70472D03*
X37620Y-70472D03*
X37120Y-70472D03*
X36620Y-70472D03*
X36120Y-70472D03*
X35620Y-70472D03*
X35120Y-70472D03*
X34620Y-70472D03*
X34120Y-70472D03*
X33620Y-70472D03*
X33120Y-70472D03*
G54D15*
X70960Y-74092D03*
X70960Y-72124D03*
G54D16*
X76374Y-71750D03*
X75626Y-71750D03*
X56876Y-51250D03*
X57624Y-51250D03*
X56876Y-49250D03*
X57624Y-49250D03*
G54D17*
X68117Y-72108D03*
X67015Y-72108D03*
X64515Y-72108D03*
X65617Y-72108D03*
X71617Y-76108D03*
X70515Y-76108D03*
G54D18*
X79559Y-74270D03*
G54D19*
X77589Y-73090D03*
X77589Y-75450D03*
G54D20*
X65726Y-62667D03*
X65726Y-62864D03*
X65726Y-63061D03*
X65726Y-63257D03*
X65726Y-63454D03*
X65726Y-63651D03*
X65726Y-63848D03*
X65726Y-64045D03*
X65726Y-64242D03*
X65726Y-64438D03*
X65726Y-64635D03*
X65726Y-64832D03*
G54D21*
X66317Y-65423D03*
X66514Y-65423D03*
X66711Y-65423D03*
X66907Y-65423D03*
X67104Y-65423D03*
X67301Y-65423D03*
X67498Y-65423D03*
X67695Y-65423D03*
X67892Y-65423D03*
X68088Y-65423D03*
X68285Y-65423D03*
X68482Y-65423D03*
G54D20*
X69073Y-64832D03*
X69073Y-64635D03*
X69073Y-64438D03*
X69073Y-64242D03*
X69073Y-64045D03*
X69073Y-63848D03*
X69073Y-63651D03*
X69073Y-63454D03*
X69073Y-63257D03*
X69073Y-63061D03*
X69073Y-62864D03*
X69073Y-62667D03*
G54D21*
X68482Y-62076D03*
X68285Y-62076D03*
X68088Y-62076D03*
X67892Y-62076D03*
X67695Y-62076D03*
X67498Y-62076D03*
X67301Y-62076D03*
X67104Y-62076D03*
X66907Y-62076D03*
X66711Y-62076D03*
X66514Y-62076D03*
X66317Y-62076D03*
G54D22*
X69750Y-47033D03*
X70143Y-47033D03*
X70143Y-45970D03*
X69750Y-45970D03*
X69356Y-45970D03*
X69356Y-47033D03*
G54D23*
X63841Y-55800D03*
X63841Y-56193D03*
X64904Y-56193D03*
X64904Y-55800D03*
X64904Y-55406D03*
X63841Y-55406D03*
X59841Y-55800D03*
X59841Y-56193D03*
X60904Y-56193D03*
X60904Y-55800D03*
X60904Y-55406D03*
X59841Y-55406D03*
X61816Y-55800D03*
X61816Y-56193D03*
X62879Y-56193D03*
X62879Y-55800D03*
X62879Y-55406D03*
X61816Y-55406D03*
G54D24*
X51750Y-72181D03*
X52250Y-73181D03*
X53250Y-73181D03*
X53750Y-72181D03*
X52750Y-72181D03*
X50250Y-73181D03*
X50750Y-72181D03*
X51250Y-73181D03*
X59000Y-72181D03*
X59500Y-73181D03*
X60500Y-73181D03*
X61000Y-72181D03*
X60000Y-72181D03*
X57500Y-73181D03*
X58000Y-72181D03*
X58500Y-73181D03*
G54D25*
X53740Y-31890D03*
X29330Y-62400D03*
X53345Y-62400D03*
G54D26*
X81496Y-77165D03*
X26377Y-77165D03*
G54D25*
X29330Y-31890D03*
G54D26*
X81496Y-29527D03*
G54D27*
X58267Y-47025D03*
X57267Y-47025D03*
X58267Y-46025D03*
X57267Y-46025D03*
X58267Y-45025D03*
X57267Y-45025D03*
X58267Y-44025D03*
X57267Y-44025D03*
X58267Y-43025D03*
X57267Y-43025D03*
X58267Y-42025D03*
X57267Y-42025D03*
X58267Y-41025D03*
X57267Y-41025D03*
X58267Y-40025D03*
X57267Y-40025D03*
X58267Y-39025D03*
X57267Y-39025D03*
X58267Y-38025D03*
X57267Y-38025D03*
X58267Y-37025D03*
X57267Y-37025D03*
X58267Y-36025D03*
X57267Y-36025D03*
G54D24*
X58267Y-35025D03*
X57267Y-35025D03*
G54D27*
X74015Y-47025D03*
X73015Y-47025D03*
X74015Y-46025D03*
X73015Y-46025D03*
X74015Y-45025D03*
X73015Y-45025D03*
X74015Y-44025D03*
X73015Y-44025D03*
X74015Y-43025D03*
X73015Y-43025D03*
X74015Y-42025D03*
X73015Y-42025D03*
X74015Y-41025D03*
X73015Y-41025D03*
X74015Y-40025D03*
X73015Y-40025D03*
X74015Y-39025D03*
X73015Y-39025D03*
X74015Y-38025D03*
X73015Y-38025D03*
X74015Y-37025D03*
X73015Y-37025D03*
X74015Y-36025D03*
X73015Y-36025D03*
G54D24*
X74015Y-35025D03*
X73015Y-35025D03*
G54D28*
X67716Y-76358D03*
X67716Y-75858D03*
X67716Y-75358D03*
X67716Y-74858D03*
X65416Y-74858D03*
X65416Y-75358D03*
X65416Y-75858D03*
X65416Y-76358D03*
G54D29*
X66566Y-75608D03*
G54D30*
X64736Y-67791D03*
X63736Y-67791D03*
X62736Y-67791D03*
X61736Y-67791D03*
X60736Y-67791D03*
X59736Y-67791D03*
X58736Y-67791D03*
X57736Y-67791D03*
X56736Y-67791D03*
X55736Y-67791D03*
X55736Y-70791D03*
X56736Y-70791D03*
X57736Y-70791D03*
X58736Y-70791D03*
X59736Y-70791D03*
X60736Y-70791D03*
X61736Y-70791D03*
X62736Y-70791D03*
X63736Y-70791D03*
X64736Y-70791D03*
G54D31*
X71674Y-46322D03*
X71674Y-46677D03*
X70925Y-46677D03*
X70925Y-46322D03*
G54D32*
X64097Y-53675D03*
X64451Y-53675D03*
X64451Y-54424D03*
X64097Y-54424D03*
X62847Y-53675D03*
X63201Y-53675D03*
X63201Y-54424D03*
X62847Y-54424D03*
X61597Y-53675D03*
X61951Y-53675D03*
X61951Y-54424D03*
X61597Y-54424D03*
G54D33*
X74376Y-61683D03*
X75124Y-61683D03*
X74750Y-60817D03*
X60126Y-62683D03*
X60874Y-62683D03*
X60500Y-61817D03*
G54D34*
X63650Y-75608D03*
X62982Y-75608D03*
G54D35*
X69000Y-59916D03*
X69000Y-60584D03*
X68750Y-67416D03*
X68750Y-68084D03*
G54D34*
X74416Y-62750D03*
X75084Y-62750D03*
X58840Y-49050D03*
X59508Y-49050D03*
X72584Y-59750D03*
X71916Y-59750D03*
X60834Y-63750D03*
X60166Y-63750D03*
X66916Y-56537D03*
X67584Y-56537D03*
G54D35*
X64066Y-73942D03*
X64066Y-73274D03*
X65066Y-73274D03*
X65066Y-73942D03*
G54D34*
X60834Y-59750D03*
X60166Y-59750D03*
X71916Y-62750D03*
X72584Y-62750D03*
G54D35*
X70000Y-59916D03*
X70000Y-60584D03*
X63066Y-73274D03*
X63066Y-73942D03*
G54D34*
X76984Y-59750D03*
X76316Y-59750D03*
X66916Y-53537D03*
X67584Y-53537D03*
X66916Y-50537D03*
X67584Y-50537D03*
X66916Y-48500D03*
X67584Y-48500D03*
X66916Y-51537D03*
X67584Y-51537D03*
X66916Y-55537D03*
X67584Y-55537D03*
X66916Y-52537D03*
X67584Y-52537D03*
X66916Y-54537D03*
X67584Y-54537D03*
X63334Y-61750D03*
X62666Y-61750D03*
X63334Y-62750D03*
X62666Y-62750D03*
G54D35*
X64500Y-66334D03*
X64500Y-65666D03*
G54D34*
X66916Y-49537D03*
X67584Y-49537D03*
G54D35*
X66000Y-59916D03*
X66000Y-60584D03*
X65000Y-59916D03*
X65000Y-60584D03*
G54D34*
X63334Y-59750D03*
X62666Y-59750D03*
G54D35*
X63750Y-46416D03*
X63750Y-47084D03*
X64500Y-46416D03*
X64500Y-47084D03*
X61750Y-47084D03*
X61750Y-46416D03*
G54D36*
X71762Y-60775D03*
X72588Y-60775D03*
X60012Y-60775D03*
X60838Y-60775D03*
X75038Y-59725D03*
X74212Y-59725D03*
X71762Y-61775D03*
X72588Y-61775D03*
G54D37*
X59039Y-65750D03*
X60961Y-65750D03*
G54D38*
X61712Y-45250D03*
X63287Y-45250D03*
G54D39*
X74066Y-74348D03*
X74066Y-71868D03*
G54D40*
X29550Y-71084D03*
X29550Y-69116D03*
G54D41*
X72660Y-52681D03*
X73840Y-52681D03*
X72660Y-54181D03*
X73840Y-54181D03*
X72660Y-57931D03*
X73840Y-57931D03*
X72638Y-48818D03*
X73818Y-48818D03*
G54D42*
X72660Y-55681D03*
X73840Y-55681D03*
X72660Y-50181D03*
X73840Y-50181D03*
G54D43*
X65750Y-67160D03*
X65750Y-68340D03*
G54D42*
X63590Y-63750D03*
X62410Y-63750D03*
G54D43*
X70750Y-67160D03*
X70750Y-68340D03*
G54D35*
X70334Y-48500D03*
X69666Y-48500D03*
G54D34*
X74750Y-65166D03*
X74750Y-65834D03*
G54D35*
X63334Y-64750D03*
X62666Y-64750D03*
G54D34*
X69750Y-67416D03*
X69750Y-68084D03*
X70750Y-62166D03*
X70750Y-62834D03*
X67050Y-60584D03*
X67050Y-59916D03*
X66750Y-67416D03*
X66750Y-68084D03*
X67750Y-67416D03*
X67750Y-68084D03*
X68000Y-60584D03*
X68000Y-59916D03*
X61750Y-43834D03*
X61750Y-43166D03*
G54D35*
X72916Y-51181D03*
X73584Y-51181D03*
X72916Y-56681D03*
X73584Y-56681D03*
G54D34*
X63000Y-46416D03*
X63000Y-47084D03*
G54D35*
X59508Y-51350D03*
X58840Y-51350D03*
X59508Y-49800D03*
X58840Y-49800D03*
X59508Y-50550D03*
X58840Y-50550D03*
X57584Y-50250D03*
X56916Y-50250D03*
G54D34*
X61000Y-47084D03*
X61000Y-46416D03*
G54D35*
X59508Y-52150D03*
X58840Y-52150D03*
X67584Y-57537D03*
X66916Y-57537D03*
X70334Y-52037D03*
X69666Y-52037D03*
G54D34*
X63250Y-43834D03*
X63250Y-43166D03*
G54D35*
X70334Y-57537D03*
X69666Y-57537D03*
X70334Y-54037D03*
X69666Y-54037D03*
X62982Y-74858D03*
X63650Y-74858D03*
X68566Y-76600D03*
X69234Y-76600D03*
X62982Y-76358D03*
X63650Y-76358D03*
G54D34*
X74066Y-76024D03*
X74066Y-76692D03*
G54D35*
X63334Y-60750D03*
X62666Y-60750D03*
G54D44*
X66608Y-73608D03*
X68261Y-73608D03*
G54D23*
X68900Y-55037D03*
X68900Y-55537D03*
X68900Y-56037D03*
X68900Y-56537D03*
X71100Y-55037D03*
X71100Y-55537D03*
X71100Y-56037D03*
X71100Y-56537D03*
X68900Y-49537D03*
X68900Y-50037D03*
X68900Y-50537D03*
X68900Y-51037D03*
X71100Y-49537D03*
X71100Y-50037D03*
X71100Y-50537D03*
X71100Y-51037D03*
G54D32*
X60347Y-53675D03*
X60701Y-53675D03*
X60701Y-54424D03*
X60347Y-54424D03*
G54D45*
X80096Y-62413D03*
X81096Y-62413D03*
X82096Y-62413D03*
X80096Y-44413D03*
X81096Y-44413D03*
X82096Y-44413D03*
X80096Y-37413D03*
X81096Y-37413D03*
X82096Y-37413D03*
X80096Y-38413D03*
X81096Y-38413D03*
X82096Y-38413D03*
X80096Y-39413D03*
X81096Y-39413D03*
X82096Y-39413D03*
X80096Y-40413D03*
X81096Y-40413D03*
X82096Y-40413D03*
X80096Y-41413D03*
X81096Y-41413D03*
X82096Y-41413D03*
X80096Y-42413D03*
X81096Y-42413D03*
X82096Y-42413D03*
X80096Y-43413D03*
X81096Y-43413D03*
X82096Y-43413D03*
X80096Y-33413D03*
X81096Y-33413D03*
X82096Y-33413D03*
X80096Y-34413D03*
X81096Y-34413D03*
X82096Y-34413D03*
X80096Y-35413D03*
X81096Y-35413D03*
X82096Y-35413D03*
X80096Y-36413D03*
X81096Y-36413D03*
X82096Y-36413D03*
X80096Y-57413D03*
X81096Y-57413D03*
X82096Y-57413D03*
X80096Y-56413D03*
X81096Y-56413D03*
X82096Y-56413D03*
X80096Y-53413D03*
X81096Y-53413D03*
X82096Y-53413D03*
X80096Y-60413D03*
X81096Y-60413D03*
X82096Y-60413D03*
X80096Y-61413D03*
X81096Y-61413D03*
X82096Y-61413D03*
X80096Y-58413D03*
X81096Y-58413D03*
X82096Y-58413D03*
X80096Y-59413D03*
X81096Y-59413D03*
X82096Y-59413D03*
X80100Y-54400D03*
X81100Y-54400D03*
X82100Y-54400D03*
X80100Y-64400D03*
X81100Y-64400D03*
X82100Y-64400D03*
X80100Y-55400D03*
X81100Y-55400D03*
X82100Y-55400D03*
X80096Y-52413D03*
X81096Y-52413D03*
X82096Y-52413D03*
X80096Y-63413D03*
X81096Y-63413D03*
X82096Y-63413D03*
X80096Y-51413D03*
X81096Y-51413D03*
X82096Y-51413D03*
X80096Y-49413D03*
X81096Y-49413D03*
X82096Y-49413D03*
X80096Y-50413D03*
X81096Y-50413D03*
X82096Y-50413D03*
X80096Y-47413D03*
X81096Y-47413D03*
X82096Y-47413D03*
X80096Y-48413D03*
X81096Y-48413D03*
X82096Y-48413D03*
X80096Y-46413D03*
X81096Y-46413D03*
X82096Y-46413D03*
X80096Y-45413D03*
X81096Y-45413D03*
X82096Y-45413D03*
G54D24*
X44356Y-73106D03*
X45143Y-73106D03*
X46127Y-73106D03*
X43372Y-73106D03*
G54D46*
X42151Y-74169D03*
G54D47*
X47348Y-74169D03*
G54D24*
X37356Y-73106D03*
X38143Y-73106D03*
X39127Y-73106D03*
X36372Y-73106D03*
G54D46*
X35151Y-74169D03*
G54D47*
X40348Y-74169D03*
G54D24*
X30356Y-73106D03*
X31143Y-73106D03*
X32127Y-73106D03*
X29372Y-73106D03*
G54D46*
X28151Y-74169D03*
G54D47*
X33348Y-74169D03*
G54D48*
X77314Y-67003D03*
X77314Y-68003D03*
X77314Y-69003D03*
X77314Y-70003D03*
G54D26*
X26377Y-29527D03*
G54D49*
X76250Y-59000D03*
X74800Y-59000D03*
X60100Y-48700D03*
X65500Y-48900D03*
X64850Y-48900D03*
X68250Y-57800D03*
X62700Y-60200D03*
X72950Y-67700D03*
X66300Y-67160D03*
X65800Y-71400D03*
X66250Y-64450D03*
X66250Y-63350D03*
X68550Y-63650D03*
X62600Y-51500D03*
X63780Y-49880D03*
X62340Y-50620D03*
X61760Y-49300D03*
G54D50*
X33956Y-69488D03*
X32381Y-69488D03*
X30708Y-70570D03*
X30708Y-69488D03*
X31496Y-69488D03*
X33169Y-69488D03*
X34744Y-69488D03*
X31496Y-70570D03*
X28051Y-70570D03*
X27066Y-69586D03*
X27066Y-70570D03*
X28051Y-69586D03*
X25885Y-70570D03*
X25885Y-72539D03*
X25885Y-74212D03*
X25885Y-75000D03*
X25885Y-73425D03*
X25885Y-71555D03*
X25885Y-69586D03*
X29133Y-72047D03*
X27657Y-72047D03*
X28444Y-72047D03*
X29822Y-72047D03*
X27066Y-71583D03*
X27066Y-72539D03*
X27066Y-73425D03*
X27066Y-74212D03*
X27066Y-75000D03*
X27952Y-76279D03*
X27165Y-76279D03*
X27952Y-75590D03*
X27952Y-76968D03*
X29232Y-77362D03*
X31102Y-77362D03*
X33169Y-77362D03*
X35433Y-77362D03*
X37303Y-77362D03*
X39271Y-77362D03*
X41141Y-77362D03*
X43011Y-77362D03*
X44783Y-77362D03*
X46850Y-77362D03*
X48425Y-77362D03*
X50196Y-77362D03*
X51968Y-77362D03*
X53543Y-77362D03*
X55019Y-77362D03*
X56692Y-77362D03*
X58267Y-77362D03*
X59842Y-77362D03*
X61417Y-77362D03*
X62992Y-77362D03*
X64566Y-77362D03*
X66141Y-77362D03*
X67716Y-77362D03*
X69291Y-77362D03*
X70866Y-77362D03*
X70078Y-77362D03*
X68503Y-77362D03*
X66929Y-77362D03*
X65354Y-77362D03*
X63779Y-77362D03*
X62204Y-77362D03*
X60629Y-77362D03*
X59055Y-77362D03*
X57480Y-77362D03*
X55905Y-77362D03*
X54232Y-77362D03*
X52755Y-77362D03*
X51082Y-77362D03*
X49311Y-77362D03*
X47637Y-77362D03*
X45866Y-77362D03*
X43799Y-77362D03*
X42027Y-77362D03*
X40059Y-77362D03*
X38287Y-77362D03*
X36417Y-77362D03*
X34350Y-77362D03*
X31988Y-77362D03*
X30216Y-77362D03*
X28248Y-77362D03*
X27190Y-75590D03*
X28248Y-77952D03*
X29232Y-77952D03*
X30216Y-77952D03*
X31102Y-77952D03*
X31988Y-77952D03*
X33169Y-77952D03*
X34350Y-77952D03*
X35433Y-77952D03*
X36417Y-77952D03*
X37303Y-77952D03*
X38287Y-77952D03*
X39271Y-77952D03*
X40059Y-77952D03*
X41141Y-77952D03*
X42027Y-77952D03*
X43011Y-77952D03*
X43799Y-77952D03*
X44783Y-77952D03*
X46850Y-77952D03*
X48425Y-77952D03*
X47637Y-77952D03*
X45866Y-77952D03*
X50196Y-77952D03*
X49311Y-77952D03*
X51082Y-77952D03*
X51968Y-77952D03*
X52755Y-77952D03*
X53543Y-77952D03*
X55019Y-77952D03*
X54232Y-77952D03*
X56692Y-77952D03*
X58267Y-77952D03*
X59842Y-77952D03*
X61417Y-77952D03*
X62992Y-77952D03*
X64566Y-77952D03*
X63779Y-77952D03*
X62204Y-77952D03*
X60629Y-77952D03*
X59055Y-77952D03*
X57480Y-77952D03*
X55905Y-77952D03*
X65354Y-77952D03*
X66929Y-77952D03*
X68503Y-77952D03*
X69291Y-77952D03*
X67716Y-77952D03*
X66141Y-77952D03*
X70866Y-77952D03*
X72440Y-77952D03*
X71653Y-77952D03*
X70078Y-77952D03*
X71617Y-77432D03*
X72440Y-76771D03*
X72350Y-77450D03*
X73031Y-77362D03*
X73000Y-76100D03*
X73031Y-76771D03*
X73031Y-77952D03*
X72637Y-75590D03*
X73818Y-75590D03*
X75000Y-75590D03*
X75000Y-75000D03*
X74409Y-75590D03*
X73228Y-75590D03*
X72047Y-75590D03*
X75000Y-73818D03*
X75000Y-74348D03*
X75590Y-75590D03*
X75590Y-74409D03*
X75590Y-75000D03*
X75626Y-73818D03*
X72350Y-76108D03*
G54D49*
X62600Y-75600D03*
X68550Y-75850D03*
X58600Y-58300D03*
X58600Y-59600D03*
X58200Y-58300D03*
X58200Y-59600D03*
X64550Y-63200D03*
X63850Y-63200D03*
X50525Y-69125D03*
X50725Y-68850D03*
X50325Y-69400D03*
X50100Y-69675D03*
X51675Y-58300D03*
X51675Y-59650D03*
X50325Y-58300D03*
X50325Y-59650D03*
X51325Y-58300D03*
X51325Y-59675D03*
X50000Y-58300D03*
X50000Y-59675D03*
X50975Y-58300D03*
X50975Y-59675D03*
X49675Y-58300D03*
X49675Y-59650D03*
X50650Y-58300D03*
X50650Y-59675D03*
X49325Y-58300D03*
X49325Y-59650D03*
X78950Y-64900D03*
X78075Y-64900D03*
X41450Y-67800D03*
X41050Y-66550D03*
X63300Y-55800D03*
X70350Y-53100D03*
X41950Y-67800D03*
X42250Y-66000D03*
X65250Y-55700D03*
X69150Y-48000D03*
X33050Y-72300D03*
X30300Y-74500D03*
X70450Y-56550D03*
X61300Y-55800D03*
X71100Y-54550D03*
X62100Y-60350D03*
G54D50*
X62550Y-76350D03*
X57850Y-56650D03*
X57850Y-53900D03*
X66600Y-72800D03*
X66250Y-72800D03*
X67015Y-72800D03*
X66600Y-74700D03*
X66600Y-74350D03*
X70472Y-76574D03*
X29550Y-67700D03*
G54D49*
X74900Y-62100D03*
X73800Y-66450D03*
X69300Y-48500D03*
X59350Y-56500D03*
X61400Y-56500D03*
X63650Y-54800D03*
X74050Y-71100D03*
X60400Y-49300D03*
X58840Y-51750D03*
X64200Y-48300D03*
X65000Y-46450D03*
X62600Y-47100D03*
X61000Y-45900D03*
X71600Y-56050D03*
X69200Y-57550D03*
X67600Y-58000D03*
X56876Y-49750D03*
X63950Y-50650D03*
X63750Y-51400D03*
X62000Y-51450D03*
X69650Y-51550D03*
X74100Y-51300D03*
X73840Y-53400D03*
X74400Y-57950D03*
X74250Y-60200D03*
X71250Y-62850D03*
X68700Y-65700D03*
X65150Y-64550D03*
X68250Y-68084D03*
X65150Y-63250D03*
X67850Y-61500D03*
X66550Y-59916D03*
X62666Y-61250D03*
X61350Y-62650D03*
X62700Y-65200D03*
X63550Y-73274D03*
G54D50*
X66300Y-72108D03*
G54D49*
X74500Y-76700D03*
X70200Y-68084D03*
X63100Y-51360D03*
X63860Y-49060D03*
X68500Y-63050D03*
X69650Y-76600D03*
X69060Y-75140D03*
X75150Y-60200D03*
X76250Y-60200D03*
X68000Y-54050D03*
X67000Y-54050D03*
X68750Y-52050D03*
X67000Y-52050D03*
X68350Y-54050D03*
X66950Y-55050D03*
X68400Y-49500D03*
X66950Y-51050D03*
X67100Y-49200D03*
X69325Y-50950D03*
X67000Y-53050D03*
X69550Y-54600D03*
X68400Y-50050D03*
X67000Y-50050D03*
X69000Y-45500D03*
X60250Y-51500D03*
X69400Y-47500D03*
X60100Y-50950D03*
G54D51*
X76984Y-59750D02*
X76984Y-59334D01*
X76984Y-59334D02*
X76700Y-59050D01*
X79200Y-59050D02*
X76700Y-59050D01*
X76700Y-59050D02*
X76300Y-59050D01*
X72800Y-59000D02*
X74800Y-59000D01*
X79400Y-67500D02*
X79400Y-59250D01*
X79400Y-59250D02*
X79200Y-59050D01*
X79400Y-67803D02*
X79400Y-67500D01*
X79400Y-67803D02*
X79200Y-68003D01*
X76300Y-59050D02*
X76250Y-59000D01*
G54D52*
X61003Y-49217D02*
X61003Y-48803D01*
X60900Y-48700D02*
X60100Y-48700D01*
X61003Y-48803D02*
X60900Y-48700D01*
X67300Y-65850D02*
X67300Y-65424D01*
X67300Y-65424D02*
X67301Y-65423D01*
X66907Y-65423D02*
X66907Y-65857D01*
X67200Y-65950D02*
X67300Y-65850D01*
X67300Y-65850D02*
X67301Y-65848D01*
X67000Y-65950D02*
X67200Y-65950D01*
X66907Y-65857D02*
X67000Y-65950D01*
G54D53*
X57267Y-47025D02*
X58267Y-47025D01*
G54D52*
X61760Y-50360D02*
X61760Y-50410D01*
X61760Y-49300D02*
X61760Y-50360D01*
X61760Y-50410D02*
X61945Y-50595D01*
X62282Y-48528D02*
X62282Y-48067D01*
X62282Y-48067D02*
X62450Y-47900D01*
X62450Y-47900D02*
X64650Y-47900D01*
X64650Y-47900D02*
X64850Y-48100D01*
X64850Y-48100D02*
X64850Y-48900D01*
G54D54*
X64546Y-49217D02*
X64546Y-49003D01*
X64546Y-49003D02*
X64650Y-48900D01*
X64650Y-48900D02*
X64850Y-48900D01*
G54D53*
X67184Y-48900D02*
X65500Y-48900D01*
X67184Y-48900D02*
X67584Y-48500D01*
G54D51*
X62666Y-59750D02*
X62700Y-59784D01*
X62700Y-59784D02*
X62700Y-60200D01*
X62666Y-59750D02*
X60834Y-59750D01*
X71000Y-60800D02*
X71000Y-59250D01*
X71250Y-59000D02*
X72800Y-59000D01*
X71000Y-59250D02*
X71250Y-59000D01*
X72584Y-59216D02*
X72584Y-59750D01*
X72800Y-59000D02*
X72584Y-59216D01*
X67584Y-56537D02*
X68087Y-56537D01*
X68087Y-56537D02*
X68250Y-56700D01*
X68250Y-56700D02*
X68250Y-57800D01*
X68250Y-59166D02*
X69000Y-59916D01*
X68250Y-57800D02*
X68250Y-59166D01*
X71762Y-61775D02*
X71325Y-61775D01*
X70716Y-59916D02*
X70000Y-59916D01*
X71000Y-60200D02*
X70716Y-59916D01*
X71000Y-61450D02*
X71000Y-60800D01*
X71000Y-60800D02*
X71000Y-60200D01*
X71325Y-61775D02*
X71000Y-61450D01*
X77314Y-68003D02*
X79200Y-68003D01*
X79200Y-68003D02*
X80746Y-68003D01*
X80746Y-68003D02*
X81100Y-67650D01*
X81100Y-67650D02*
X81100Y-64400D01*
X74750Y-65166D02*
X74750Y-64750D01*
X74500Y-64500D02*
X73800Y-64500D01*
X74750Y-64750D02*
X74500Y-64500D01*
X72950Y-66000D02*
X72950Y-64750D01*
X73200Y-64500D02*
X73800Y-64500D01*
X72950Y-64750D02*
X73200Y-64500D01*
X70960Y-72124D02*
X72625Y-72124D01*
X73200Y-65500D02*
X73800Y-65500D01*
X72950Y-65750D02*
X73200Y-65500D01*
X72950Y-71800D02*
X72950Y-67700D01*
X72950Y-67700D02*
X72950Y-66000D01*
X72950Y-66000D02*
X72950Y-65750D01*
X72625Y-72124D02*
X72950Y-71800D01*
X66750Y-67416D02*
X67750Y-67416D01*
X81096Y-34413D02*
X81096Y-33413D01*
X81096Y-35413D02*
X81096Y-34413D01*
X81096Y-36413D02*
X81096Y-35413D01*
X81096Y-37413D02*
X81096Y-36413D01*
X81096Y-38413D02*
X81096Y-37413D01*
X81096Y-39413D02*
X81096Y-38413D01*
X81096Y-40413D02*
X81096Y-39413D01*
X81096Y-41413D02*
X81096Y-40413D01*
X81096Y-42413D02*
X81096Y-41413D01*
X81096Y-43413D02*
X81096Y-42413D01*
X81096Y-44413D02*
X81096Y-43413D01*
X81096Y-45413D02*
X81096Y-44413D01*
X81096Y-46413D02*
X81096Y-45413D01*
X81096Y-47413D02*
X81096Y-46413D01*
X81096Y-48413D02*
X81096Y-47413D01*
X81096Y-49413D02*
X81096Y-48413D01*
X81096Y-50413D02*
X81096Y-49413D01*
X81096Y-51413D02*
X81096Y-50413D01*
X81096Y-52413D02*
X81096Y-51413D01*
X81096Y-53413D02*
X81096Y-52413D01*
X81100Y-54400D02*
X81096Y-54396D01*
X81096Y-54396D02*
X81096Y-53413D01*
X81100Y-55400D02*
X81100Y-54400D01*
X81096Y-56413D02*
X81100Y-56409D01*
X81100Y-56409D02*
X81100Y-55400D01*
X81096Y-57413D02*
X81096Y-56413D01*
X81096Y-58413D02*
X81096Y-57413D01*
X81096Y-59413D02*
X81096Y-58413D01*
X81096Y-60413D02*
X81096Y-59413D01*
X81096Y-61413D02*
X81096Y-60413D01*
X81096Y-62413D02*
X81096Y-61413D01*
X81096Y-63413D02*
X81096Y-62413D01*
X81100Y-64400D02*
X81096Y-64396D01*
X81096Y-64396D02*
X81096Y-63413D01*
G54D52*
X66907Y-65423D02*
X66907Y-64607D01*
X66750Y-64450D02*
X66250Y-64450D01*
X66907Y-64607D02*
X66750Y-64450D01*
X65726Y-64438D02*
X66238Y-64438D01*
X66238Y-64438D02*
X66250Y-64450D01*
X65726Y-63454D02*
X66145Y-63454D01*
X66145Y-63454D02*
X66250Y-63350D01*
X69073Y-63651D02*
X68551Y-63651D01*
X68551Y-63651D02*
X68550Y-63650D01*
G54D55*
X69000Y-59916D02*
X70000Y-59916D01*
G54D52*
X68450Y-60300D02*
X68450Y-60450D01*
X68450Y-60300D02*
X68450Y-60000D01*
X68450Y-60000D02*
X68534Y-59916D01*
X68534Y-59916D02*
X69000Y-59916D01*
X68450Y-60450D02*
X68316Y-60584D01*
X68316Y-60584D02*
X68000Y-60584D01*
X67498Y-62076D02*
X67498Y-60901D01*
G54D54*
X67816Y-60584D02*
X68000Y-60584D01*
G54D52*
X67498Y-60901D02*
X67816Y-60584D01*
G54D51*
X65750Y-67160D02*
X66300Y-67160D01*
X66300Y-67160D02*
X66494Y-67160D01*
X66494Y-67160D02*
X66750Y-67416D01*
G54D54*
X67301Y-65423D02*
X67301Y-65848D01*
X67301Y-65848D02*
X67301Y-67201D01*
X67301Y-67201D02*
X67516Y-67416D01*
X67516Y-67416D02*
X67750Y-67416D01*
X66907Y-65423D02*
X66907Y-67258D01*
X66907Y-67258D02*
X66750Y-67416D01*
G54D55*
X67584Y-55537D02*
X67584Y-56537D01*
X67584Y-54537D02*
X67584Y-55537D01*
X67584Y-53537D02*
X67584Y-54537D01*
X67584Y-53537D02*
X67584Y-52537D01*
X67584Y-51537D02*
X67584Y-52537D01*
X67584Y-50537D02*
X67584Y-51537D01*
X67584Y-49537D02*
X67584Y-50537D01*
X67584Y-48500D02*
X67584Y-49537D01*
G54D54*
X61003Y-50595D02*
X60054Y-50595D01*
X59508Y-51141D02*
X59508Y-51350D01*
X60054Y-50595D02*
X59508Y-51141D01*
G54D52*
X62340Y-50620D02*
X63580Y-50620D01*
X63780Y-50420D02*
X63780Y-49880D01*
X63580Y-50620D02*
X63780Y-50420D01*
X62676Y-52071D02*
X62676Y-51576D01*
X62676Y-51576D02*
X62600Y-51500D01*
X64546Y-49217D02*
X64162Y-49217D01*
X64162Y-49217D02*
X63780Y-49600D01*
X63780Y-49600D02*
X63780Y-49880D01*
X62315Y-50595D02*
X61945Y-50595D01*
X62340Y-50620D02*
X62315Y-50595D01*
X61945Y-50595D02*
X61003Y-50595D01*
X61003Y-49217D02*
X61677Y-49217D01*
X61677Y-49217D02*
X61760Y-49300D01*
G54D53*
X64515Y-72108D02*
X64515Y-71584D01*
X68117Y-71517D02*
X68117Y-72108D01*
X68000Y-71400D02*
X68117Y-71517D01*
X64700Y-71400D02*
X65800Y-71400D01*
X65800Y-71400D02*
X68000Y-71400D01*
X64515Y-71584D02*
X64700Y-71400D01*
G54D51*
X64515Y-72108D02*
X64515Y-72723D01*
X64515Y-72723D02*
X65066Y-73274D01*
X68117Y-72108D02*
X70944Y-72108D01*
X70944Y-72108D02*
X70960Y-72124D01*
G54D53*
X34744Y-69488D02*
X33956Y-69488D01*
X33169Y-69488D02*
X32381Y-69488D01*
X31496Y-69488D02*
X30708Y-69488D01*
X32381Y-69488D02*
X31496Y-69488D01*
X33956Y-69488D02*
X33169Y-69488D01*
X27066Y-70570D02*
X28051Y-70570D01*
X28051Y-69586D02*
X27066Y-69586D01*
X27066Y-70570D02*
X27066Y-71583D01*
X25885Y-69586D02*
X25885Y-70570D01*
X25885Y-73425D02*
X25885Y-74212D01*
X25885Y-74212D02*
X25885Y-75000D01*
X25885Y-72539D02*
X25885Y-73425D01*
X27559Y-72047D02*
X27657Y-72047D01*
X27559Y-72047D02*
X27066Y-72539D01*
X27066Y-72539D02*
X27066Y-71583D01*
X27066Y-72539D02*
X27050Y-72539D01*
X27066Y-73425D02*
X27050Y-73425D01*
X27066Y-74212D02*
X27050Y-74212D01*
X27050Y-74212D02*
X27066Y-74212D01*
X27066Y-74212D02*
X27050Y-74212D01*
X27190Y-75590D02*
X27066Y-75466D01*
X27066Y-75466D02*
X27066Y-75000D01*
X27952Y-76279D02*
X27165Y-76279D01*
X27952Y-75590D02*
X27190Y-75590D01*
X28248Y-77263D02*
X27952Y-76968D01*
X28248Y-77362D02*
X29232Y-77362D01*
X30216Y-77362D02*
X31102Y-77362D01*
X31988Y-77362D02*
X33169Y-77362D01*
X34350Y-77362D02*
X35433Y-77362D01*
X36417Y-77362D02*
X37303Y-77362D01*
X38287Y-77362D02*
X39271Y-77362D01*
X40059Y-77362D02*
X41141Y-77362D01*
X42027Y-77362D02*
X43011Y-77362D01*
X43799Y-77362D02*
X44783Y-77362D01*
X45866Y-77362D02*
X46850Y-77362D01*
X49311Y-77362D02*
X50196Y-77362D01*
X51082Y-77362D02*
X51968Y-77362D01*
X52755Y-77362D02*
X53543Y-77362D01*
X54232Y-77362D02*
X55019Y-77362D01*
X65354Y-77362D02*
X66141Y-77362D01*
X71617Y-77432D02*
X70936Y-77432D01*
X70936Y-77432D02*
X70866Y-77362D01*
X67716Y-77362D02*
X68503Y-77362D01*
X66141Y-77362D02*
X66929Y-77362D01*
X53543Y-77362D02*
X54232Y-77362D01*
X51968Y-77362D02*
X52755Y-77362D01*
X43011Y-77362D02*
X43799Y-77362D01*
X41141Y-77362D02*
X42027Y-77362D01*
X39271Y-77362D02*
X40059Y-77362D01*
X37303Y-77362D02*
X38287Y-77362D01*
X35433Y-77362D02*
X36417Y-77362D01*
X33169Y-77362D02*
X34350Y-77362D01*
X31102Y-77362D02*
X31988Y-77362D01*
X29232Y-77362D02*
X30216Y-77362D01*
X28248Y-77362D02*
X28248Y-77263D01*
X29232Y-77952D02*
X29232Y-77800D01*
X29232Y-77800D02*
X29232Y-77952D01*
X29232Y-77952D02*
X29232Y-77800D01*
X30216Y-77952D02*
X30216Y-77800D01*
X30216Y-77800D02*
X30216Y-77952D01*
X30216Y-77952D02*
X30216Y-77800D01*
X31102Y-77952D02*
X31102Y-77800D01*
X31102Y-77800D02*
X31102Y-77952D01*
X31102Y-77952D02*
X31102Y-77800D01*
X31988Y-77952D02*
X31988Y-77800D01*
X33169Y-77952D02*
X33169Y-77800D01*
X34350Y-77952D02*
X34350Y-77800D01*
X35433Y-77952D02*
X35433Y-77800D01*
X36417Y-77952D02*
X36417Y-77800D01*
X37303Y-77952D02*
X37303Y-77800D01*
X38287Y-77952D02*
X38287Y-77800D01*
X39271Y-77952D02*
X39271Y-77800D01*
X40059Y-77952D02*
X40059Y-77800D01*
X41141Y-77952D02*
X41141Y-77800D01*
X42027Y-77952D02*
X42027Y-77800D01*
X43011Y-77952D02*
X43011Y-77800D01*
X43799Y-77952D02*
X43799Y-77800D01*
X44783Y-77952D02*
X44783Y-77800D01*
X44783Y-77800D02*
X44783Y-77952D01*
X44783Y-77952D02*
X44783Y-77800D01*
X47637Y-77952D02*
X48425Y-77952D01*
X49311Y-77952D02*
X48425Y-77952D01*
X46850Y-77952D02*
X47637Y-77952D01*
X45866Y-77952D02*
X45866Y-77800D01*
X51082Y-77952D02*
X50196Y-77952D01*
X49311Y-77952D02*
X49311Y-77800D01*
X51082Y-77952D02*
X51082Y-77800D01*
X51968Y-77952D02*
X51968Y-77800D01*
X51968Y-77800D02*
X51968Y-77952D01*
X51968Y-77952D02*
X51968Y-77800D01*
X52755Y-77952D02*
X52755Y-77800D01*
X53543Y-77952D02*
X53543Y-77800D01*
X55905Y-77952D02*
X55019Y-77952D01*
X54232Y-77952D02*
X54232Y-77800D01*
X57480Y-77952D02*
X58267Y-77952D01*
X59055Y-77952D02*
X59842Y-77952D01*
X60629Y-77952D02*
X61417Y-77952D01*
X62204Y-77952D02*
X62992Y-77952D01*
X63779Y-77952D02*
X64566Y-77952D01*
X64566Y-77952D02*
X65354Y-77952D01*
X62992Y-77952D02*
X63779Y-77952D01*
X61417Y-77952D02*
X62204Y-77952D01*
X59842Y-77952D02*
X60629Y-77952D01*
X58267Y-77952D02*
X59055Y-77952D01*
X56692Y-77952D02*
X57480Y-77952D01*
X55905Y-77952D02*
X55905Y-77800D01*
X55905Y-77800D02*
X55905Y-77952D01*
X55905Y-77952D02*
X55905Y-77800D01*
X65354Y-77952D02*
X65354Y-77800D01*
X65354Y-77800D02*
X65354Y-77952D01*
X65354Y-77952D02*
X65354Y-77800D01*
X67716Y-77952D02*
X68503Y-77952D01*
X70078Y-77952D02*
X69291Y-77952D01*
X68503Y-77952D02*
X69291Y-77952D01*
X66929Y-77952D02*
X67716Y-77952D01*
X66141Y-77952D02*
X66141Y-77800D01*
X71653Y-77952D02*
X72440Y-77952D01*
X70866Y-77952D02*
X71653Y-77952D01*
X70078Y-77952D02*
X70078Y-77800D01*
X72350Y-77450D02*
X71635Y-77450D01*
X71635Y-77450D02*
X71617Y-77432D01*
X72437Y-77362D02*
X72440Y-77362D01*
X72350Y-77450D02*
X72437Y-77362D01*
X72991Y-76108D02*
X73000Y-76100D01*
X72991Y-76108D02*
X72350Y-76108D01*
X75000Y-75000D02*
X75000Y-74348D01*
X75000Y-75590D02*
X75000Y-75000D01*
X75000Y-73818D02*
X75000Y-74348D01*
X75626Y-73818D02*
X75000Y-73818D01*
X75590Y-75000D02*
X75590Y-74409D01*
X75626Y-74374D02*
X75590Y-74409D01*
X75626Y-74374D02*
X75626Y-73818D01*
X75590Y-75590D02*
X75590Y-75000D01*
X69050Y-46400D02*
X68450Y-46400D01*
X68450Y-46400D02*
X68300Y-46250D01*
X69250Y-48950D02*
X68500Y-48950D01*
X69450Y-49150D02*
X69250Y-48950D01*
X69450Y-49850D02*
X69450Y-49150D01*
X69637Y-50037D02*
X69450Y-49850D01*
X71100Y-50037D02*
X69637Y-50037D01*
X68500Y-48950D02*
X68300Y-48750D01*
X68300Y-48750D02*
X68300Y-46250D01*
X68300Y-46250D02*
X67950Y-45900D01*
G54D51*
X71617Y-76108D02*
X71617Y-77432D01*
X27566Y-71084D02*
X29550Y-71084D01*
X27050Y-71600D02*
X27566Y-71084D01*
X27050Y-72539D02*
X27050Y-71600D01*
X27050Y-73425D02*
X27050Y-72539D01*
X27050Y-75450D02*
X27050Y-74212D01*
X27050Y-74212D02*
X27050Y-73425D01*
X27500Y-75900D02*
X27050Y-75450D01*
X27500Y-77000D02*
X27500Y-75900D01*
X28300Y-77800D02*
X27500Y-77000D01*
X31988Y-77800D02*
X31102Y-77800D01*
X31102Y-77800D02*
X30216Y-77800D01*
X30216Y-77800D02*
X29232Y-77800D01*
X29232Y-77800D02*
X28300Y-77800D01*
X33169Y-77800D02*
X31988Y-77800D01*
X34350Y-77800D02*
X33169Y-77800D01*
X35433Y-77800D02*
X34350Y-77800D01*
X36417Y-77800D02*
X35433Y-77800D01*
X37303Y-77800D02*
X36417Y-77800D01*
X38287Y-77800D02*
X37303Y-77800D01*
X39271Y-77800D02*
X38287Y-77800D01*
X40059Y-77800D02*
X39271Y-77800D01*
X41141Y-77800D02*
X40059Y-77800D01*
X42027Y-77800D02*
X41141Y-77800D01*
X43011Y-77800D02*
X42027Y-77800D01*
X43799Y-77800D02*
X43011Y-77800D01*
X45866Y-77800D02*
X44783Y-77800D01*
X44783Y-77800D02*
X43799Y-77800D01*
X49311Y-77800D02*
X45866Y-77800D01*
X51082Y-77800D02*
X49311Y-77800D01*
X52755Y-77800D02*
X51968Y-77800D01*
X51968Y-77800D02*
X51082Y-77800D01*
X53543Y-77800D02*
X52755Y-77800D01*
X54232Y-77800D02*
X53543Y-77800D01*
X66141Y-77800D02*
X65354Y-77800D01*
X65354Y-77800D02*
X55905Y-77800D01*
X55905Y-77800D02*
X54232Y-77800D01*
X70078Y-77800D02*
X66141Y-77800D01*
X71617Y-77432D02*
X71250Y-77800D01*
X71250Y-77800D02*
X70078Y-77800D01*
G54D53*
X69750Y-45970D02*
X69750Y-46250D01*
X69600Y-46400D02*
X69050Y-46400D01*
X69750Y-46250D02*
X69600Y-46400D01*
X63750Y-46100D02*
X63750Y-46416D01*
X67950Y-45900D02*
X63950Y-45900D01*
X63950Y-45900D02*
X63750Y-46100D01*
G54D56*
X75626Y-55650D02*
X75626Y-52176D01*
X72916Y-51566D02*
X72916Y-51181D01*
X73150Y-51800D02*
X72916Y-51566D01*
X75250Y-51800D02*
X73150Y-51800D01*
X75626Y-52176D02*
X75250Y-51800D01*
X75626Y-60850D02*
X75626Y-55650D01*
G54D51*
X75626Y-55650D02*
X75626Y-55476D01*
G54D56*
X72660Y-55340D02*
X72660Y-55681D01*
X72950Y-55050D02*
X72660Y-55340D01*
X75200Y-55050D02*
X72950Y-55050D01*
X75626Y-55476D02*
X75200Y-55050D01*
X75626Y-71750D02*
X75626Y-60850D01*
G54D51*
X75626Y-60850D02*
X75626Y-60474D01*
X62982Y-75608D02*
X62608Y-75608D01*
X62608Y-75608D02*
X62600Y-75600D01*
X68550Y-75850D02*
X68550Y-75858D01*
X29550Y-71084D02*
X29716Y-71250D01*
X35800Y-71250D02*
X36000Y-71250D01*
X29716Y-71250D02*
X35800Y-71250D01*
X36000Y-71250D02*
X36120Y-71129D01*
X36120Y-71129D02*
X36120Y-70472D01*
G54D56*
X72660Y-55681D02*
X72660Y-56425D01*
X72660Y-56425D02*
X72916Y-56681D01*
X71100Y-55537D02*
X72516Y-55537D01*
G54D51*
X72516Y-55537D02*
X72660Y-55681D01*
G54D56*
X72660Y-50181D02*
X72660Y-50925D01*
X72660Y-50925D02*
X72916Y-51181D01*
X71100Y-50037D02*
X72516Y-50037D01*
G54D51*
X72516Y-50037D02*
X72660Y-50181D01*
G54D52*
X63000Y-46416D02*
X63750Y-46416D01*
G54D51*
X67716Y-75858D02*
X68550Y-75858D01*
X68550Y-75858D02*
X69376Y-75858D01*
X71617Y-75632D02*
X71617Y-76108D01*
X71320Y-75335D02*
X71617Y-75632D01*
X69900Y-75335D02*
X71320Y-75335D01*
X69376Y-75858D02*
X69900Y-75335D01*
X71617Y-76108D02*
X72350Y-76108D01*
X72350Y-76108D02*
X73982Y-76108D01*
X73982Y-76108D02*
X74066Y-76024D01*
X74066Y-76024D02*
X74066Y-74348D01*
X75626Y-71750D02*
X75626Y-73818D01*
X75626Y-73818D02*
X75626Y-74034D01*
X75311Y-74348D02*
X74066Y-74348D01*
X75626Y-74034D02*
X75311Y-74348D01*
G54D52*
X70750Y-62166D02*
X69234Y-62166D01*
X69073Y-62326D02*
X69073Y-62667D01*
X69234Y-62166D02*
X69073Y-62326D01*
X68285Y-65423D02*
X68285Y-64285D01*
X68200Y-64200D02*
X66800Y-64200D01*
X68285Y-64285D02*
X68200Y-64200D01*
X69073Y-62667D02*
X67282Y-62667D01*
X67282Y-62667D02*
X67104Y-62845D01*
X67104Y-62076D02*
X67104Y-62845D01*
X67104Y-62845D02*
X67104Y-63895D01*
X67104Y-63895D02*
X66800Y-64200D01*
X66107Y-64242D02*
X65726Y-64242D01*
X66800Y-64200D02*
X66150Y-64200D01*
X66150Y-64200D02*
X66107Y-64242D01*
G54D54*
X70750Y-67160D02*
X70006Y-67160D01*
X70006Y-67160D02*
X69750Y-67416D01*
X68285Y-65423D02*
X68285Y-65835D01*
X69750Y-66200D02*
X69750Y-67416D01*
X69500Y-65950D02*
X69750Y-66200D01*
X68400Y-65950D02*
X69500Y-65950D01*
X68285Y-65835D02*
X68400Y-65950D01*
X63590Y-63750D02*
X63590Y-64494D01*
X63590Y-64494D02*
X63334Y-64750D01*
X65726Y-64242D02*
X64442Y-64242D01*
X64442Y-64242D02*
X63950Y-63750D01*
X63950Y-63750D02*
X63590Y-63750D01*
X67104Y-62076D02*
X67104Y-60638D01*
X67104Y-60638D02*
X67050Y-60584D01*
X58500Y-65850D02*
X58500Y-66025D01*
X61825Y-66175D02*
X62450Y-66800D01*
X58650Y-66175D02*
X61825Y-66175D01*
X58500Y-66025D02*
X58650Y-66175D01*
X58600Y-58300D02*
X58600Y-54550D01*
X58500Y-64900D02*
X58500Y-59700D01*
X66514Y-66035D02*
X66400Y-66150D01*
X66514Y-65423D02*
X66514Y-66035D01*
X64750Y-66800D02*
X62450Y-66800D01*
X64950Y-66600D02*
X64750Y-66800D01*
X64950Y-66400D02*
X64950Y-66600D01*
X65200Y-66150D02*
X64950Y-66400D01*
X66400Y-66150D02*
X65200Y-66150D01*
X58500Y-65850D02*
X58500Y-64900D01*
X58500Y-59700D02*
X58550Y-59650D01*
X58550Y-59650D02*
X58600Y-59600D01*
X58725Y-54424D02*
X60347Y-54424D01*
X58600Y-54550D02*
X58725Y-54424D01*
X58300Y-66000D02*
X58300Y-66100D01*
X61775Y-66350D02*
X62425Y-67000D01*
X58550Y-66350D02*
X61775Y-66350D01*
X58300Y-66100D02*
X58550Y-66350D01*
X58200Y-58300D02*
X58200Y-54300D01*
X58300Y-59800D02*
X58300Y-59700D01*
X58300Y-59700D02*
X58250Y-59650D01*
X66711Y-65423D02*
X66711Y-66138D01*
X66711Y-66138D02*
X66500Y-66350D01*
X66500Y-66350D02*
X65300Y-66350D01*
X65300Y-66350D02*
X65150Y-66500D01*
X65150Y-66500D02*
X65150Y-66750D01*
X65150Y-66750D02*
X64900Y-67000D01*
X64900Y-67000D02*
X62425Y-67000D01*
X58300Y-66000D02*
X58300Y-59800D01*
X58250Y-59650D02*
X58200Y-59600D01*
X60701Y-54301D02*
X60701Y-54424D01*
X60550Y-54150D02*
X60701Y-54301D01*
X58350Y-54150D02*
X60550Y-54150D01*
X58200Y-54300D02*
X58350Y-54150D01*
X69073Y-63848D02*
X72048Y-63848D01*
X72100Y-66000D02*
X71200Y-66000D01*
X72200Y-65900D02*
X72100Y-66000D01*
X72200Y-64000D02*
X72200Y-65900D01*
X72048Y-63848D02*
X72200Y-64000D01*
X69073Y-64045D02*
X71795Y-64045D01*
X71800Y-65500D02*
X71200Y-65500D01*
X72000Y-65300D02*
X71800Y-65500D01*
X72000Y-64250D02*
X72000Y-65300D01*
X71795Y-64045D02*
X72000Y-64250D01*
X69073Y-64242D02*
X71642Y-64242D01*
X71650Y-65000D02*
X71200Y-65000D01*
X71800Y-64850D02*
X71650Y-65000D01*
X71800Y-64400D02*
X71800Y-64850D01*
X71642Y-64242D02*
X71800Y-64400D01*
X69073Y-64438D02*
X71138Y-64438D01*
X71138Y-64438D02*
X71200Y-64500D01*
X60834Y-63750D02*
X60834Y-63416D01*
X64851Y-63651D02*
X65726Y-63651D01*
X64700Y-63500D02*
X64851Y-63651D01*
X64700Y-63350D02*
X64700Y-63500D01*
X64550Y-63200D02*
X64700Y-63350D01*
X61050Y-63200D02*
X63850Y-63200D01*
X60834Y-63416D02*
X61050Y-63200D01*
G54D52*
X69073Y-63257D02*
X71742Y-63257D01*
X71742Y-63257D02*
X71916Y-63084D01*
X71916Y-63084D02*
X71916Y-62750D01*
X74100Y-63454D02*
X74245Y-63454D01*
X74416Y-63284D02*
X74416Y-62750D01*
X69073Y-63454D02*
X74100Y-63454D01*
X74245Y-63454D02*
X74416Y-63284D01*
G54D54*
X65726Y-63848D02*
X64548Y-63848D01*
X64050Y-60750D02*
X63334Y-60750D01*
X64300Y-61000D02*
X64050Y-60750D01*
X64300Y-63600D02*
X64300Y-61000D01*
X64548Y-63848D02*
X64300Y-63600D01*
X63334Y-60750D02*
X63334Y-59750D01*
G54D52*
X68088Y-66050D02*
X68088Y-66238D01*
X69325Y-66475D02*
X69325Y-66800D01*
X69200Y-66350D02*
X69325Y-66475D01*
X68200Y-66350D02*
X69200Y-66350D01*
X68088Y-66238D02*
X68200Y-66350D01*
X68088Y-66050D02*
X68088Y-65423D01*
X69325Y-68900D02*
X69325Y-66800D01*
X69100Y-69125D02*
X69325Y-68900D01*
X50525Y-69125D02*
X69100Y-69125D01*
X69125Y-67025D02*
X69125Y-66725D01*
X68100Y-66550D02*
X67892Y-66342D01*
X68950Y-66550D02*
X68100Y-66550D01*
X69125Y-66725D02*
X68950Y-66550D01*
X65375Y-68850D02*
X50725Y-68850D01*
X69125Y-67025D02*
X69125Y-68550D01*
X69125Y-68550D02*
X68825Y-68850D01*
X68825Y-68850D02*
X65375Y-68850D01*
X67892Y-65423D02*
X67892Y-66342D01*
X69607Y-64832D02*
X69073Y-64832D01*
X69925Y-65150D02*
X69607Y-64832D01*
X69925Y-66550D02*
X69925Y-65150D01*
X70050Y-66675D02*
X69925Y-66550D01*
X71125Y-66675D02*
X70050Y-66675D01*
X71300Y-66850D02*
X71125Y-66675D01*
X71300Y-69200D02*
X71300Y-66850D01*
X71100Y-69400D02*
X71300Y-69200D01*
X50325Y-69400D02*
X71100Y-69400D01*
X69073Y-64635D02*
X69960Y-64635D01*
X71125Y-69675D02*
X50100Y-69675D01*
X71500Y-69300D02*
X71125Y-69675D01*
X71500Y-66700D02*
X71500Y-69300D01*
X71275Y-66475D02*
X71500Y-66700D01*
X70250Y-66475D02*
X71275Y-66475D01*
X70100Y-66325D02*
X70250Y-66475D01*
X70100Y-64775D02*
X70100Y-66325D01*
X69960Y-64635D02*
X70100Y-64775D01*
G54D54*
X63334Y-62750D02*
X63334Y-61750D01*
X63334Y-61750D02*
X63700Y-61750D01*
X64545Y-64045D02*
X65726Y-64045D01*
X64150Y-63650D02*
X64545Y-64045D01*
X64150Y-62200D02*
X64150Y-63650D01*
X63700Y-61750D02*
X64150Y-62200D01*
X64500Y-65666D02*
X62116Y-65666D01*
X59539Y-65250D02*
X59039Y-65750D01*
X61700Y-65250D02*
X59539Y-65250D01*
X62116Y-65666D02*
X61700Y-65250D01*
X65726Y-64832D02*
X64667Y-64832D01*
X64500Y-65000D02*
X64500Y-65666D01*
X64667Y-64832D02*
X64500Y-65000D01*
X60961Y-65750D02*
X61700Y-65750D01*
X62284Y-66334D02*
X64500Y-66334D01*
X61700Y-65750D02*
X62284Y-66334D01*
X66317Y-65423D02*
X65126Y-65423D01*
X65126Y-65423D02*
X64950Y-65600D01*
X64950Y-65600D02*
X64950Y-66150D01*
X64950Y-66150D02*
X64766Y-66334D01*
X64766Y-66334D02*
X64500Y-66334D01*
X74015Y-38025D02*
X74015Y-38034D01*
X54125Y-66500D02*
X51950Y-66500D01*
X64244Y-67300D02*
X62000Y-67300D01*
X62000Y-67300D02*
X61200Y-66500D01*
X61200Y-66500D02*
X54125Y-66500D01*
X64244Y-67300D02*
X64736Y-67791D01*
X51675Y-66225D02*
X51675Y-59650D01*
X51950Y-66500D02*
X51675Y-66225D01*
X51675Y-38250D02*
X51675Y-58300D01*
X56725Y-33200D02*
X51675Y-38250D01*
X71000Y-33200D02*
X56725Y-33200D01*
X71275Y-33475D02*
X71000Y-33200D01*
X71275Y-38200D02*
X71275Y-33475D01*
X71600Y-38525D02*
X71275Y-38200D01*
X73525Y-38525D02*
X71600Y-38525D01*
X74015Y-38034D02*
X73525Y-38525D01*
X74015Y-36025D02*
X74015Y-36034D01*
X59069Y-67125D02*
X59736Y-67791D01*
X50325Y-66900D02*
X50325Y-59650D01*
X50550Y-67125D02*
X50325Y-66900D01*
X59069Y-67125D02*
X50550Y-67125D01*
X50325Y-38150D02*
X50325Y-58300D01*
X56125Y-32350D02*
X50325Y-38150D01*
X71750Y-32350D02*
X56125Y-32350D01*
X71975Y-32575D02*
X71750Y-32350D01*
X71975Y-36350D02*
X71975Y-32575D01*
X72150Y-36525D02*
X71975Y-36350D01*
X73525Y-36525D02*
X72150Y-36525D01*
X74015Y-36034D02*
X73525Y-36525D01*
X51325Y-58300D02*
X51325Y-38250D01*
X54084Y-66684D02*
X51609Y-66684D01*
X63394Y-67450D02*
X61900Y-67450D01*
X61900Y-67450D02*
X61134Y-66684D01*
X61134Y-66684D02*
X54084Y-66684D01*
X63736Y-67791D02*
X63394Y-67450D01*
X51325Y-66400D02*
X51325Y-59675D01*
X51609Y-66684D02*
X51325Y-66400D01*
X71775Y-38025D02*
X73015Y-38025D01*
X71450Y-37700D02*
X71775Y-38025D01*
X71450Y-33325D02*
X71450Y-37700D01*
X71125Y-33000D02*
X71450Y-33325D01*
X56575Y-33000D02*
X71125Y-33000D01*
X51325Y-38250D02*
X56575Y-33000D01*
X50000Y-58300D02*
X50000Y-38150D01*
X58736Y-67791D02*
X58219Y-67275D01*
X50000Y-67125D02*
X50000Y-59675D01*
X50150Y-67275D02*
X50000Y-67125D01*
X58219Y-67275D02*
X50150Y-67275D01*
X72350Y-36025D02*
X73015Y-36025D01*
X72150Y-35825D02*
X72350Y-36025D01*
X72150Y-32350D02*
X72150Y-35825D01*
X71925Y-32125D02*
X72150Y-32350D01*
X56025Y-32125D02*
X71925Y-32125D01*
X50000Y-38150D02*
X56025Y-32125D01*
X74015Y-37025D02*
X73999Y-37025D01*
X54050Y-66825D02*
X51225Y-66825D01*
X60769Y-66825D02*
X54050Y-66825D01*
X60769Y-66825D02*
X61736Y-67791D01*
X50975Y-66575D02*
X50975Y-59675D01*
X51225Y-66825D02*
X50975Y-66575D01*
X50975Y-38175D02*
X50975Y-58300D01*
X56400Y-32750D02*
X50975Y-38175D01*
X71375Y-32750D02*
X56400Y-32750D01*
X71625Y-33000D02*
X71375Y-32750D01*
X71625Y-37275D02*
X71625Y-33000D01*
X71875Y-37525D02*
X71625Y-37275D01*
X73500Y-37525D02*
X71875Y-37525D01*
X73999Y-37025D02*
X73500Y-37525D01*
X73015Y-35025D02*
X72650Y-35025D01*
X72375Y-32225D02*
X72025Y-31875D01*
X72375Y-34750D02*
X72375Y-32225D01*
X72650Y-35025D02*
X72375Y-34750D01*
X49675Y-58300D02*
X49675Y-38175D01*
X49900Y-67425D02*
X49825Y-67425D01*
X49825Y-67425D02*
X49675Y-67275D01*
X56736Y-67791D02*
X56369Y-67425D01*
X49675Y-67275D02*
X49675Y-59650D01*
X56369Y-67425D02*
X49900Y-67425D01*
X55975Y-31875D02*
X72025Y-31875D01*
X49675Y-38175D02*
X55975Y-31875D01*
X50650Y-58300D02*
X50650Y-38150D01*
X54050Y-66984D02*
X50934Y-66984D01*
X59929Y-66984D02*
X54050Y-66984D01*
X60736Y-67791D02*
X59929Y-66984D01*
X50650Y-66700D02*
X50650Y-59675D01*
X50934Y-66984D02*
X50650Y-66700D01*
X72100Y-37025D02*
X73015Y-37025D01*
X71800Y-36725D02*
X72100Y-37025D01*
X71800Y-32775D02*
X71800Y-36725D01*
X71550Y-32525D02*
X71800Y-32775D01*
X56275Y-32525D02*
X71550Y-32525D01*
X50650Y-38150D02*
X56275Y-32525D01*
X72275Y-31675D02*
X72350Y-31675D01*
X73900Y-34500D02*
X74015Y-34615D01*
X72625Y-34500D02*
X73900Y-34500D01*
X72550Y-34425D02*
X72625Y-34500D01*
X72550Y-31875D02*
X72550Y-34425D01*
X72350Y-31675D02*
X72550Y-31875D01*
X49325Y-58300D02*
X49325Y-38200D01*
X55736Y-67791D02*
X49441Y-67791D01*
X49325Y-67675D02*
X49325Y-59650D01*
X49441Y-67791D02*
X49325Y-67675D01*
X74015Y-34615D02*
X74015Y-35025D01*
X55850Y-31675D02*
X72275Y-31675D01*
X49325Y-38200D02*
X55850Y-31675D01*
X78075Y-64900D02*
X78950Y-64900D01*
X71674Y-46322D02*
X72718Y-46322D01*
X72718Y-46322D02*
X73015Y-46025D01*
X71674Y-46677D02*
X72667Y-46677D01*
X72667Y-46677D02*
X73015Y-47025D01*
G54D51*
X41450Y-66950D02*
X41050Y-66550D01*
X41450Y-67800D02*
X41450Y-66950D01*
G54D53*
X62879Y-55800D02*
X63300Y-55800D01*
G54D56*
X70334Y-53084D02*
X70334Y-52037D01*
G54D53*
X70350Y-53100D02*
X70334Y-53084D01*
G54D56*
X71100Y-51037D02*
X71100Y-52400D01*
X71100Y-52400D02*
X71381Y-52681D01*
G54D51*
X70334Y-52037D02*
X70334Y-52484D01*
G54D56*
X70531Y-52681D02*
X71381Y-52681D01*
X71381Y-52681D02*
X72660Y-52681D01*
G54D51*
X70334Y-52484D02*
X70531Y-52681D01*
X41950Y-66300D02*
X42250Y-66000D01*
X41950Y-67800D02*
X41950Y-66300D01*
G54D53*
X64904Y-55800D02*
X65150Y-55800D01*
X65150Y-55800D02*
X65250Y-55700D01*
G54D55*
X70334Y-48184D02*
X70334Y-48500D01*
G54D56*
X69150Y-48000D02*
X70150Y-48000D01*
X70150Y-48000D02*
X70334Y-48184D01*
X71100Y-49537D02*
X71100Y-48750D01*
X71100Y-48750D02*
X71350Y-48500D01*
X70334Y-48500D02*
X71350Y-48500D01*
X71350Y-48500D02*
X72319Y-48500D01*
X72319Y-48500D02*
X72638Y-48818D01*
X32800Y-72550D02*
X33050Y-72300D01*
X32800Y-73400D02*
X32800Y-72550D01*
X32400Y-73800D02*
X32800Y-73400D01*
X30550Y-73800D02*
X32400Y-73800D01*
X30300Y-74050D02*
X30550Y-73800D01*
X30300Y-74500D02*
X30300Y-74050D01*
G54D53*
X70450Y-56550D02*
X70462Y-56537D01*
G54D56*
X70462Y-56537D02*
X71100Y-56537D01*
G54D53*
X60904Y-55800D02*
X61300Y-55800D01*
G54D56*
X71100Y-56537D02*
X71100Y-57650D01*
G54D51*
X71100Y-57650D02*
X71381Y-57931D01*
G54D56*
X70334Y-57537D02*
X70334Y-57734D01*
X70531Y-57931D02*
X71381Y-57931D01*
X71381Y-57931D02*
X72660Y-57931D01*
X70334Y-57734D02*
X70531Y-57931D01*
G54D53*
X62666Y-62750D02*
X62200Y-62750D01*
X62100Y-62650D02*
X62100Y-60350D01*
X62200Y-62750D02*
X62100Y-62650D01*
G54D51*
X71100Y-55037D02*
X71100Y-54550D01*
X71100Y-54550D02*
X71100Y-54300D01*
X71100Y-54300D02*
X71362Y-54037D01*
X70334Y-54037D02*
X71362Y-54037D01*
X71362Y-54037D02*
X72516Y-54037D01*
X72516Y-54037D02*
X72660Y-54181D01*
G54D56*
X62974Y-76350D02*
X62550Y-76350D01*
X62982Y-76358D02*
X62974Y-76350D01*
X57850Y-53900D02*
X57850Y-56650D01*
G54D51*
X66600Y-74700D02*
X66608Y-74700D01*
X66600Y-74350D02*
X66608Y-74350D01*
X70515Y-76108D02*
X70515Y-76531D01*
X70515Y-76531D02*
X70472Y-76574D01*
X29550Y-69116D02*
X29550Y-67700D01*
X75124Y-61683D02*
X75124Y-61876D01*
X75124Y-61876D02*
X74900Y-62100D01*
X73800Y-66000D02*
X73800Y-66450D01*
G54D53*
X69320Y-48450D02*
X69300Y-48450D01*
X69300Y-48450D02*
X69300Y-48500D01*
X59841Y-55800D02*
X59500Y-55800D01*
X59350Y-55950D02*
X59350Y-56500D01*
X59500Y-55800D02*
X59350Y-55950D01*
X61816Y-55800D02*
X61700Y-55800D01*
X61700Y-55800D02*
X61400Y-56100D01*
X61400Y-56100D02*
X61400Y-56500D01*
X63841Y-55800D02*
X63700Y-55800D01*
X63400Y-55050D02*
X63650Y-54800D01*
X63400Y-55500D02*
X63400Y-55050D01*
X63700Y-55800D02*
X63400Y-55500D01*
X69320Y-48450D02*
X68900Y-48450D01*
X68750Y-46650D02*
X69300Y-46650D01*
X68600Y-46800D02*
X68750Y-46650D01*
X68600Y-48150D02*
X68600Y-46800D01*
X68900Y-48450D02*
X68600Y-48150D01*
X69750Y-47033D02*
X69750Y-46750D01*
X69750Y-46750D02*
X69650Y-46650D01*
X69650Y-46650D02*
X69300Y-46650D01*
X69370Y-48500D02*
X69320Y-48450D01*
X69370Y-48500D02*
X69666Y-48500D01*
G54D54*
X61003Y-51185D02*
X60664Y-51185D01*
X60450Y-51750D02*
X59850Y-51750D01*
X60550Y-51650D02*
X60450Y-51750D01*
X60550Y-51300D02*
X60550Y-51650D01*
X60664Y-51185D02*
X60550Y-51300D01*
G54D51*
X74066Y-71868D02*
X74066Y-71116D01*
X74066Y-71116D02*
X74050Y-71100D01*
X58267Y-46025D02*
X57267Y-46025D01*
X58267Y-45025D02*
X58267Y-46025D01*
X69666Y-54037D02*
X69666Y-52037D01*
G54D52*
X61003Y-49414D02*
X60514Y-49414D01*
X60514Y-49414D02*
X60400Y-49300D01*
X63660Y-48528D02*
X63660Y-48139D01*
X64200Y-48150D02*
X64200Y-48300D01*
X64110Y-48060D02*
X64200Y-48150D01*
X63739Y-48060D02*
X64110Y-48060D01*
X63660Y-48139D02*
X63739Y-48060D01*
G54D51*
X64500Y-46416D02*
X64966Y-46416D01*
X64966Y-46416D02*
X65000Y-46450D01*
X63000Y-47084D02*
X62616Y-47084D01*
X62616Y-47084D02*
X62600Y-47100D01*
X61750Y-43166D02*
X63250Y-43166D01*
X61000Y-46416D02*
X61000Y-45900D01*
X61000Y-45900D02*
X61000Y-43500D01*
X61334Y-43166D02*
X61750Y-43166D01*
X61000Y-43500D02*
X61334Y-43166D01*
X71100Y-56037D02*
X71112Y-56050D01*
X71112Y-56050D02*
X71600Y-56050D01*
X69666Y-57537D02*
X69653Y-57550D01*
X69653Y-57550D02*
X69200Y-57550D01*
X67584Y-57537D02*
X67600Y-57553D01*
X67600Y-57553D02*
X67600Y-58000D01*
X56876Y-49250D02*
X56876Y-49750D01*
X56876Y-49750D02*
X56876Y-50210D01*
X56876Y-50210D02*
X56916Y-50250D01*
G54D52*
X64546Y-50398D02*
X64151Y-50398D01*
X63950Y-50600D02*
X63950Y-50650D01*
X64151Y-50398D02*
X63950Y-50600D01*
X63857Y-52071D02*
X63857Y-51507D01*
X63857Y-51507D02*
X63750Y-51400D01*
X62085Y-52071D02*
X62085Y-51535D01*
X62085Y-51535D02*
X62000Y-51450D01*
G54D54*
X59240Y-51750D02*
X58840Y-51350D01*
X59850Y-51750D02*
X59240Y-51750D01*
G54D51*
X58840Y-51350D02*
X58840Y-51750D01*
X58840Y-51750D02*
X58840Y-52150D01*
X71100Y-50537D02*
X69912Y-50537D01*
X69666Y-51566D02*
X69650Y-51550D01*
X69666Y-51566D02*
X69666Y-52037D01*
X69750Y-51450D02*
X69650Y-51550D01*
X69750Y-50700D02*
X69750Y-51450D01*
X69912Y-50537D02*
X69750Y-50700D01*
X73584Y-51181D02*
X73981Y-51181D01*
X73981Y-51181D02*
X74100Y-51300D01*
X73840Y-50181D02*
X73840Y-50925D01*
X73840Y-50925D02*
X73584Y-51181D01*
X73818Y-48818D02*
X73818Y-50159D01*
X73818Y-50159D02*
X73840Y-50181D01*
X74015Y-47025D02*
X74015Y-48621D01*
X74015Y-48621D02*
X73818Y-48818D01*
X73840Y-52681D02*
X73840Y-53400D01*
X73840Y-53400D02*
X73840Y-54181D01*
X73840Y-57931D02*
X74381Y-57931D01*
X74381Y-57931D02*
X74400Y-57950D01*
X73840Y-57931D02*
X73840Y-56937D01*
X73840Y-56937D02*
X73584Y-56681D01*
X73840Y-55681D02*
X73840Y-56425D01*
X73840Y-56425D02*
X73584Y-56681D01*
X74212Y-59725D02*
X74212Y-60162D01*
X74212Y-60162D02*
X74250Y-60200D01*
X73800Y-66000D02*
X74584Y-66000D01*
X74584Y-66000D02*
X74750Y-65834D01*
X70750Y-62834D02*
X71234Y-62834D01*
X71234Y-62834D02*
X71250Y-62850D01*
G54D52*
X68482Y-65423D02*
X68482Y-65482D01*
X68482Y-65482D02*
X68700Y-65700D01*
X65726Y-64635D02*
X65235Y-64635D01*
X65235Y-64635D02*
X65150Y-64550D01*
X67498Y-65423D02*
X67498Y-66748D01*
G54D51*
X68250Y-68084D02*
X68750Y-68084D01*
X67750Y-68084D02*
X68250Y-68084D01*
G54D52*
X68250Y-67150D02*
X68250Y-68084D01*
X68050Y-66950D02*
X68250Y-67150D01*
X67700Y-66950D02*
X68050Y-66950D01*
X67498Y-66748D02*
X67700Y-66950D01*
X67104Y-65423D02*
X67104Y-64995D01*
X67498Y-64998D02*
X67498Y-65423D01*
X67400Y-64900D02*
X67498Y-64998D01*
X67200Y-64900D02*
X67400Y-64900D01*
X67104Y-64995D02*
X67200Y-64900D01*
X69073Y-62864D02*
X70719Y-62864D01*
X70719Y-62864D02*
X70750Y-62834D01*
X65726Y-63257D02*
X65157Y-63257D01*
X65157Y-63257D02*
X65150Y-63250D01*
X65726Y-63061D02*
X65726Y-63257D01*
X67695Y-62076D02*
X67695Y-61654D01*
X67695Y-61654D02*
X67850Y-61500D01*
X67592Y-62507D02*
X67642Y-62507D01*
X67301Y-62451D02*
X67357Y-62507D01*
X67357Y-62507D02*
X67550Y-62507D01*
X67301Y-62076D02*
X67301Y-62451D01*
X67550Y-62507D02*
X67592Y-62507D01*
X67695Y-62454D02*
X67695Y-62076D01*
X67642Y-62507D02*
X67695Y-62454D01*
X66907Y-62076D02*
X66907Y-61257D01*
X66700Y-60066D02*
X66550Y-59916D01*
X66700Y-61050D02*
X66700Y-60066D01*
X66907Y-61257D02*
X66700Y-61050D01*
G54D51*
X62666Y-60750D02*
X62666Y-61250D01*
X62666Y-61250D02*
X62666Y-61750D01*
X60874Y-62683D02*
X61317Y-62683D01*
X61317Y-62683D02*
X61350Y-62650D01*
X62666Y-64750D02*
X62666Y-65166D01*
X62666Y-65166D02*
X62700Y-65200D01*
X62410Y-63750D02*
X62410Y-64494D01*
X62410Y-64494D02*
X62666Y-64750D01*
X64066Y-73274D02*
X63550Y-73274D01*
X63550Y-73274D02*
X63066Y-73274D01*
X67015Y-72108D02*
X67015Y-72800D01*
X67015Y-72800D02*
X67015Y-73200D01*
X67015Y-73200D02*
X66608Y-73608D01*
X74066Y-76692D02*
X74492Y-76692D01*
X74492Y-76692D02*
X74500Y-76700D01*
G54D54*
X63463Y-48528D02*
X63660Y-48528D01*
X63266Y-48528D02*
X63463Y-48528D01*
X63070Y-48528D02*
X63266Y-48528D01*
X62873Y-48528D02*
X63070Y-48528D01*
G54D51*
X66000Y-59916D02*
X65000Y-59916D01*
X67050Y-59916D02*
X66550Y-59916D01*
X66550Y-59916D02*
X66000Y-59916D01*
X68000Y-59916D02*
X67050Y-59916D01*
X69750Y-68084D02*
X70200Y-68084D01*
X70200Y-68084D02*
X70494Y-68084D01*
X70494Y-68084D02*
X70750Y-68340D01*
X66750Y-68084D02*
X66006Y-68084D01*
X66006Y-68084D02*
X65750Y-68340D01*
X66750Y-68084D02*
X67750Y-68084D01*
X80096Y-63413D02*
X80100Y-63417D01*
X80100Y-63417D02*
X80100Y-64400D01*
X80096Y-62413D02*
X80096Y-63413D01*
X80096Y-61413D02*
X80096Y-62413D01*
X80096Y-60413D02*
X80096Y-61413D01*
X80096Y-59413D02*
X80096Y-60413D01*
X80096Y-58413D02*
X80096Y-59413D01*
X80096Y-57413D02*
X80096Y-58413D01*
X80096Y-56413D02*
X80096Y-57413D01*
X80100Y-55400D02*
X80096Y-55403D01*
X80096Y-55403D02*
X80096Y-56413D01*
X80100Y-54400D02*
X80100Y-55400D01*
X80096Y-53413D02*
X80100Y-53417D01*
X80100Y-53417D02*
X80100Y-54400D01*
X80096Y-52413D02*
X80096Y-53413D01*
X80096Y-51413D02*
X80096Y-52413D01*
X80096Y-50413D02*
X80096Y-51413D01*
X80096Y-49413D02*
X80096Y-50413D01*
X80096Y-48413D02*
X80096Y-49413D01*
X80096Y-47413D02*
X80096Y-48413D01*
X80096Y-46413D02*
X80096Y-47413D01*
X80096Y-45413D02*
X80096Y-46413D01*
X80096Y-44413D02*
X80096Y-45413D01*
X80096Y-43413D02*
X80096Y-44413D01*
X80096Y-42413D02*
X80096Y-43413D01*
X80096Y-41413D02*
X80096Y-42413D01*
X80096Y-40413D02*
X80096Y-41413D01*
X80096Y-39413D02*
X80096Y-40413D01*
X80096Y-38413D02*
X80096Y-39413D01*
X80096Y-37413D02*
X80096Y-38413D01*
X80096Y-36413D02*
X80096Y-37413D01*
X80096Y-35413D02*
X80096Y-36413D01*
X80096Y-34413D02*
X80096Y-35413D01*
X80096Y-33413D02*
X80096Y-34413D01*
X67716Y-74858D02*
X66981Y-74858D01*
X66566Y-75273D02*
X66566Y-75608D01*
X66981Y-74858D02*
X66566Y-75273D01*
X66608Y-73608D02*
X66608Y-74350D01*
X66608Y-74350D02*
X66608Y-74700D01*
X66608Y-74700D02*
X66608Y-75566D01*
X66608Y-75566D02*
X66566Y-75608D01*
X65617Y-72108D02*
X66300Y-72108D01*
X66300Y-72108D02*
X67015Y-72108D01*
G54D54*
X61003Y-49611D02*
X60311Y-49611D01*
X59750Y-49050D02*
X59508Y-49050D01*
X60311Y-49611D02*
X59750Y-49050D01*
X60700Y-52150D02*
X60850Y-52150D01*
X61003Y-51996D02*
X61003Y-51382D01*
X60850Y-52150D02*
X61003Y-51996D01*
X59508Y-52150D02*
X60700Y-52150D01*
X61692Y-48528D02*
X61692Y-47892D01*
X61000Y-47700D02*
X61000Y-47084D01*
X61100Y-47800D02*
X61000Y-47700D01*
X61600Y-47800D02*
X61100Y-47800D01*
X61692Y-47892D02*
X61600Y-47800D01*
X56876Y-51250D02*
X56876Y-52326D01*
X56876Y-52326D02*
X57050Y-52500D01*
X57050Y-52500D02*
X59450Y-52500D01*
X59450Y-52500D02*
X59508Y-52441D01*
X59508Y-52441D02*
X59508Y-52150D01*
X57584Y-50250D02*
X57584Y-50366D01*
X56876Y-51074D02*
X56876Y-51250D01*
X57584Y-50366D02*
X56876Y-51074D01*
G54D52*
X63100Y-51360D02*
X63100Y-51350D01*
X61717Y-51382D02*
X61003Y-51382D01*
X61900Y-51200D02*
X61717Y-51382D01*
X62950Y-51200D02*
X61900Y-51200D01*
X63100Y-51350D02*
X62950Y-51200D01*
X61692Y-48528D02*
X61692Y-48992D01*
X63840Y-49040D02*
X63860Y-49060D01*
X61740Y-49040D02*
X63840Y-49040D01*
X61692Y-48992D02*
X61740Y-49040D01*
X63077Y-51382D02*
X63100Y-51360D01*
X63266Y-52071D02*
X63266Y-51526D01*
X63266Y-51526D02*
X63100Y-51360D01*
X63857Y-49057D02*
X63857Y-48528D01*
X63860Y-49060D02*
X63857Y-49057D01*
G54D54*
X58840Y-50550D02*
X58840Y-49800D01*
X57624Y-49250D02*
X58640Y-49250D01*
X58640Y-49250D02*
X58840Y-49050D01*
X58840Y-49800D02*
X58840Y-49050D01*
X61003Y-49807D02*
X60307Y-49807D01*
X59190Y-49450D02*
X58840Y-49800D01*
X59950Y-49450D02*
X59190Y-49450D01*
X60307Y-49807D02*
X59950Y-49450D01*
X61003Y-50201D02*
X61448Y-50201D01*
X61457Y-49807D02*
X61003Y-49807D01*
X61500Y-49850D02*
X61457Y-49807D01*
X61500Y-50150D02*
X61500Y-49850D01*
X61448Y-50201D02*
X61500Y-50150D01*
X57624Y-51250D02*
X57924Y-50950D01*
X59508Y-50791D02*
X59508Y-50550D01*
X59350Y-50950D02*
X59508Y-50791D01*
X57924Y-50950D02*
X59350Y-50950D01*
X61003Y-50398D02*
X59660Y-50398D01*
X59660Y-50398D02*
X59508Y-50550D01*
X61003Y-50004D02*
X60595Y-50004D01*
X60598Y-50398D02*
X61003Y-50398D01*
X60500Y-50300D02*
X60598Y-50398D01*
X60500Y-50100D02*
X60500Y-50300D01*
X60595Y-50004D02*
X60500Y-50100D01*
X59508Y-49800D02*
X59508Y-50308D01*
X59508Y-50308D02*
X59508Y-50550D01*
X61003Y-50004D02*
X59713Y-50004D01*
X59713Y-50004D02*
X59508Y-49800D01*
G54D52*
X71762Y-60775D02*
X71762Y-59904D01*
X71762Y-59904D02*
X71916Y-59750D01*
X74376Y-61683D02*
X74376Y-62276D01*
X75084Y-62734D02*
X75084Y-62750D01*
X74700Y-62350D02*
X75084Y-62734D01*
X74450Y-62350D02*
X74700Y-62350D01*
X74376Y-62276D02*
X74450Y-62350D01*
X74750Y-60817D02*
X72630Y-60817D01*
X72630Y-60817D02*
X72588Y-60775D01*
X72584Y-62750D02*
X72584Y-61779D01*
X72584Y-61779D02*
X72588Y-61775D01*
G54D54*
X60166Y-59750D02*
X60166Y-60621D01*
X60166Y-60621D02*
X60012Y-60775D01*
X60126Y-62683D02*
X60126Y-63710D01*
X60126Y-63710D02*
X60166Y-63750D01*
X60838Y-60775D02*
X60838Y-61479D01*
X60838Y-61479D02*
X60500Y-61817D01*
X67695Y-65800D02*
X67695Y-66495D01*
X68750Y-66900D02*
X68750Y-67416D01*
X68600Y-66750D02*
X68750Y-66900D01*
X67950Y-66750D02*
X68600Y-66750D01*
X67695Y-66495D02*
X67950Y-66750D01*
X67695Y-65423D02*
X67695Y-65800D01*
G54D52*
X69073Y-63061D02*
X68511Y-63061D01*
X68511Y-63061D02*
X68500Y-63050D01*
G54D54*
X68285Y-62076D02*
X68285Y-61298D01*
X68285Y-61298D02*
X69000Y-60584D01*
X66514Y-62076D02*
X66514Y-61664D01*
X65000Y-61500D02*
X65000Y-60584D01*
X65100Y-61600D02*
X65000Y-61500D01*
X66450Y-61600D02*
X65100Y-61600D01*
X66514Y-61664D02*
X66450Y-61600D01*
X68482Y-62076D02*
X68482Y-61367D01*
X70000Y-60800D02*
X70000Y-60584D01*
X69750Y-61050D02*
X70000Y-60800D01*
X68800Y-61050D02*
X69750Y-61050D01*
X68482Y-61367D02*
X68800Y-61050D01*
X66000Y-60584D02*
X66000Y-61350D01*
X66711Y-61561D02*
X66711Y-62076D01*
X66609Y-61459D02*
X66711Y-61561D01*
X66109Y-61459D02*
X66609Y-61459D01*
X66000Y-61350D02*
X66109Y-61459D01*
G54D53*
X65416Y-75358D02*
X64150Y-75358D01*
X64150Y-75358D02*
X63650Y-74858D01*
X65416Y-75858D02*
X63900Y-75858D01*
X63900Y-75858D02*
X63650Y-75608D01*
X65416Y-76358D02*
X63650Y-76358D01*
G54D51*
X68566Y-76600D02*
X67958Y-76600D01*
X67958Y-76600D02*
X67716Y-76358D01*
X69234Y-76600D02*
X69650Y-76600D01*
X69070Y-75140D02*
X69070Y-75150D01*
X69060Y-75140D02*
X69070Y-75140D01*
X67716Y-75358D02*
X68861Y-75358D01*
X69070Y-74380D02*
X69357Y-74092D01*
X69070Y-75150D02*
X69070Y-74835D01*
X69070Y-74835D02*
X69070Y-74380D01*
X68861Y-75358D02*
X69070Y-75150D01*
X70960Y-74092D02*
X69357Y-74092D01*
X69357Y-74092D02*
X68746Y-74092D01*
X68746Y-74092D02*
X68261Y-73608D01*
G54D53*
X63066Y-73942D02*
X63066Y-74774D01*
X63066Y-74774D02*
X62982Y-74858D01*
X64066Y-73942D02*
X65066Y-73942D01*
X65416Y-74858D02*
X65163Y-74858D01*
X65066Y-74761D02*
X65066Y-73942D01*
X65163Y-74858D02*
X65066Y-74761D01*
G54D51*
X77589Y-73090D02*
X77589Y-72234D01*
X77105Y-71750D02*
X76374Y-71750D01*
X77589Y-72234D02*
X77105Y-71750D01*
G54D52*
X76316Y-59750D02*
X76316Y-60134D01*
X75038Y-60088D02*
X75038Y-59725D01*
X75150Y-60200D02*
X75038Y-60088D01*
X76316Y-60134D02*
X76250Y-60200D01*
G54D54*
X66916Y-54537D02*
X66916Y-54134D01*
X68187Y-55537D02*
X68900Y-55537D01*
X68100Y-55450D02*
X68187Y-55537D01*
X68100Y-54150D02*
X68100Y-55450D01*
X68000Y-54050D02*
X68100Y-54150D01*
X66916Y-54134D02*
X67000Y-54050D01*
X64546Y-50988D02*
X65588Y-50988D01*
X65887Y-54537D02*
X66916Y-54537D01*
X65800Y-54450D02*
X65887Y-54537D01*
X65800Y-51200D02*
X65800Y-54450D01*
X65588Y-50988D02*
X65800Y-51200D01*
X69300Y-52750D02*
X69300Y-52250D01*
X69100Y-52050D02*
X68750Y-52050D01*
X69300Y-52250D02*
X69100Y-52050D01*
X66916Y-52537D02*
X66916Y-52134D01*
X69162Y-56037D02*
X68900Y-56037D01*
X69300Y-55900D02*
X69162Y-56037D01*
X69300Y-52750D02*
X69300Y-55900D01*
X66916Y-52134D02*
X67000Y-52050D01*
X64546Y-50595D02*
X65945Y-50595D01*
X66187Y-52537D02*
X66916Y-52537D01*
X66090Y-52440D02*
X66187Y-52537D01*
X66090Y-50740D02*
X66090Y-52440D01*
X65945Y-50595D02*
X66090Y-50740D01*
X66916Y-55537D02*
X66916Y-55084D01*
X68437Y-55037D02*
X68900Y-55037D01*
X68350Y-54950D02*
X68437Y-55037D01*
X68350Y-54050D02*
X68350Y-54950D01*
X66916Y-55084D02*
X66950Y-55050D01*
X65400Y-51185D02*
X65435Y-51185D01*
X65435Y-51185D02*
X65650Y-51400D01*
X64546Y-51185D02*
X65400Y-51185D01*
X65737Y-55537D02*
X66916Y-55537D01*
X65650Y-55450D02*
X65737Y-55537D01*
X65650Y-51400D02*
X65650Y-55450D01*
X61888Y-48528D02*
X61888Y-47222D01*
X61888Y-47222D02*
X61750Y-47084D01*
X62479Y-48528D02*
X62676Y-48528D01*
X66916Y-51537D02*
X66950Y-51503D01*
X68437Y-49537D02*
X68900Y-49537D01*
X68400Y-49500D02*
X68437Y-49537D01*
X66950Y-51503D02*
X66950Y-51050D01*
X64546Y-50201D02*
X66051Y-50201D01*
X66337Y-51537D02*
X66916Y-51537D01*
X66250Y-51450D02*
X66337Y-51537D01*
X66250Y-50400D02*
X66250Y-51450D01*
X66051Y-50201D02*
X66250Y-50400D01*
X66916Y-49537D02*
X66916Y-49384D01*
X66916Y-49384D02*
X67100Y-49200D01*
X68900Y-51037D02*
X69237Y-51037D01*
X69237Y-51037D02*
X69325Y-50950D01*
X64546Y-49807D02*
X65292Y-49807D01*
X65562Y-49537D02*
X66916Y-49537D01*
X65292Y-49807D02*
X65562Y-49537D01*
X64546Y-49611D02*
X65088Y-49611D01*
X65350Y-48500D02*
X65550Y-48500D01*
X65250Y-48600D02*
X65350Y-48500D01*
X65250Y-49450D02*
X65250Y-48600D01*
X65088Y-49611D02*
X65250Y-49450D01*
X69225Y-49400D02*
X69225Y-49325D01*
X68000Y-48200D02*
X67850Y-48050D01*
X68000Y-49050D02*
X68000Y-48200D01*
X68150Y-49200D02*
X68000Y-49050D01*
X69100Y-49200D02*
X68150Y-49200D01*
X69225Y-49325D02*
X69100Y-49200D01*
X68900Y-50537D02*
X69162Y-50537D01*
X69225Y-50475D02*
X69225Y-49400D01*
X69162Y-50537D02*
X69225Y-50475D01*
X66916Y-48500D02*
X66916Y-48184D01*
X67050Y-48050D02*
X67850Y-48050D01*
X66916Y-48184D02*
X67050Y-48050D01*
X65550Y-48500D02*
X66916Y-48500D01*
X68900Y-56537D02*
X69412Y-56537D01*
X66916Y-53134D02*
X66916Y-53537D01*
X67000Y-53050D02*
X66916Y-53134D01*
X69550Y-56400D02*
X69550Y-54600D01*
X69412Y-56537D02*
X69550Y-56400D01*
X64546Y-50792D02*
X65692Y-50792D01*
X66137Y-53537D02*
X66916Y-53537D01*
X65950Y-53350D02*
X66137Y-53537D01*
X65950Y-51050D02*
X65950Y-53350D01*
X65692Y-50792D02*
X65950Y-51050D01*
X66916Y-50537D02*
X66916Y-50134D01*
X68887Y-50050D02*
X68900Y-50037D01*
X68400Y-50050D02*
X68887Y-50050D01*
X66916Y-50134D02*
X67000Y-50050D01*
X64546Y-50004D02*
X66254Y-50004D01*
X66487Y-50537D02*
X66916Y-50537D01*
X66400Y-50450D02*
X66487Y-50537D01*
X66400Y-50150D02*
X66400Y-50450D01*
X66254Y-50004D02*
X66400Y-50150D01*
X63250Y-43834D02*
X63250Y-45212D01*
X63250Y-45212D02*
X63287Y-45250D01*
X62085Y-48528D02*
X62085Y-47914D01*
X63287Y-45762D02*
X63287Y-45250D01*
X63150Y-45900D02*
X63287Y-45762D01*
X62350Y-45900D02*
X63150Y-45900D01*
X62200Y-46050D02*
X62350Y-45900D01*
X62200Y-47800D02*
X62200Y-46050D01*
X62085Y-47914D02*
X62200Y-47800D01*
X61750Y-43834D02*
X61750Y-45212D01*
X61750Y-45212D02*
X61712Y-45250D01*
X61750Y-46416D02*
X61750Y-45287D01*
X61750Y-45287D02*
X61712Y-45250D01*
X48900Y-60400D02*
X48900Y-72050D01*
X44356Y-72393D02*
X44356Y-73106D01*
X44550Y-72200D02*
X44356Y-72393D01*
X48750Y-72200D02*
X44550Y-72200D01*
X48900Y-72050D02*
X48750Y-72200D01*
X64250Y-55950D02*
X64250Y-59000D01*
X48900Y-59400D02*
X48900Y-60400D01*
X48900Y-60400D02*
X48900Y-60450D01*
X49150Y-59150D02*
X48900Y-59400D01*
X64100Y-59150D02*
X49150Y-59150D01*
X64250Y-59000D02*
X64100Y-59150D01*
X64097Y-54424D02*
X64097Y-54947D01*
X64106Y-56193D02*
X63841Y-56193D01*
X64250Y-56050D02*
X64106Y-56193D01*
X64250Y-55100D02*
X64250Y-55950D01*
X64250Y-55950D02*
X64250Y-56050D01*
X64097Y-54947D02*
X64250Y-55100D01*
X49050Y-59850D02*
X49050Y-59500D01*
X49250Y-59300D02*
X49600Y-59300D01*
X49050Y-59500D02*
X49250Y-59300D01*
X45143Y-73106D02*
X45143Y-72606D01*
X64451Y-59148D02*
X64451Y-56051D01*
X64300Y-59300D02*
X64451Y-59148D01*
X49600Y-59300D02*
X64300Y-59300D01*
X49050Y-72200D02*
X49050Y-59850D01*
X48850Y-72400D02*
X49050Y-72200D01*
X45350Y-72400D02*
X48850Y-72400D01*
X45143Y-72606D02*
X45350Y-72400D01*
X64451Y-54424D02*
X64451Y-56051D01*
X64593Y-56193D02*
X64904Y-56193D01*
X64451Y-56051D02*
X64593Y-56193D01*
X62282Y-52071D02*
X62282Y-52917D01*
X61597Y-53602D02*
X61597Y-53675D01*
X62282Y-52917D02*
X61597Y-53602D01*
X62479Y-52071D02*
X62479Y-53148D01*
X62479Y-53148D02*
X61951Y-53675D01*
X61888Y-52071D02*
X61888Y-52611D01*
X60701Y-52898D02*
X60701Y-53675D01*
X60850Y-52750D02*
X60701Y-52898D01*
X61750Y-52750D02*
X60850Y-52750D01*
X61888Y-52611D02*
X61750Y-52750D01*
X63463Y-52071D02*
X63463Y-52563D01*
X64097Y-52897D02*
X64097Y-53675D01*
X63950Y-52750D02*
X64097Y-52897D01*
X63650Y-52750D02*
X63950Y-52750D01*
X63463Y-52563D02*
X63650Y-52750D01*
X63660Y-52071D02*
X63660Y-52510D01*
X64451Y-52701D02*
X64451Y-53675D01*
X64350Y-52600D02*
X64451Y-52701D01*
X63750Y-52600D02*
X64350Y-52600D01*
X63660Y-52510D02*
X63750Y-52600D01*
X62873Y-52071D02*
X62873Y-53650D01*
X62873Y-53650D02*
X62847Y-53675D01*
X63070Y-53000D02*
X63070Y-53420D01*
X63201Y-53551D02*
X63201Y-53675D01*
X63070Y-53420D02*
X63201Y-53551D01*
X63070Y-52071D02*
X63070Y-53000D01*
X61692Y-52071D02*
X61692Y-52407D01*
X60347Y-52652D02*
X60347Y-53675D01*
X60450Y-52550D02*
X60347Y-52652D01*
X61550Y-52550D02*
X60450Y-52550D01*
X61692Y-52407D02*
X61550Y-52550D01*
X60200Y-56000D02*
X60200Y-58350D01*
X30356Y-71843D02*
X30356Y-73106D01*
X30650Y-71550D02*
X30356Y-71843D01*
X48000Y-71550D02*
X30650Y-71550D01*
X48250Y-71300D02*
X48000Y-71550D01*
X48250Y-58800D02*
X48250Y-71300D01*
X48500Y-58550D02*
X48250Y-58800D01*
X60000Y-58550D02*
X48500Y-58550D01*
X60200Y-58350D02*
X60000Y-58550D01*
X61597Y-54424D02*
X61597Y-54702D01*
X60106Y-56193D02*
X59841Y-56193D01*
X60200Y-56100D02*
X60106Y-56193D01*
X60200Y-54850D02*
X60200Y-56000D01*
X60200Y-56000D02*
X60200Y-56100D01*
X60300Y-54750D02*
X60200Y-54850D01*
X61550Y-54750D02*
X60300Y-54750D01*
X61597Y-54702D02*
X61550Y-54750D01*
X60150Y-58700D02*
X60300Y-58700D01*
X60300Y-58700D02*
X60450Y-58550D01*
X31143Y-73106D02*
X31143Y-72006D01*
X60450Y-58550D02*
X60450Y-56100D01*
X48650Y-58700D02*
X60150Y-58700D01*
X48450Y-58900D02*
X48650Y-58700D01*
X48450Y-71400D02*
X48450Y-58900D01*
X48150Y-71700D02*
X48450Y-71400D01*
X31450Y-71700D02*
X48150Y-71700D01*
X31143Y-72006D02*
X31450Y-71700D01*
X61951Y-54424D02*
X61951Y-54748D01*
X60543Y-56193D02*
X60904Y-56193D01*
X60450Y-56100D02*
X60543Y-56193D01*
X60450Y-55050D02*
X60450Y-56100D01*
X60600Y-54900D02*
X60450Y-55050D01*
X61800Y-54900D02*
X60600Y-54900D01*
X61951Y-54748D02*
X61800Y-54900D01*
X62150Y-56050D02*
X62150Y-58550D01*
X37356Y-72093D02*
X37356Y-73106D01*
X37600Y-71850D02*
X37356Y-72093D01*
X48359Y-71850D02*
X37600Y-71850D01*
X48600Y-71609D02*
X48359Y-71850D01*
X48600Y-59000D02*
X48600Y-71609D01*
X48740Y-58859D02*
X48600Y-59000D01*
X61840Y-58859D02*
X48740Y-58859D01*
X62150Y-58550D02*
X61840Y-58859D01*
X61816Y-56193D02*
X62056Y-56193D01*
X62150Y-54900D02*
X62250Y-54800D01*
X62150Y-56100D02*
X62150Y-56050D01*
X62150Y-56050D02*
X62150Y-54900D01*
X62056Y-56193D02*
X62150Y-56100D01*
X62847Y-54424D02*
X62847Y-54602D01*
X62300Y-54750D02*
X62250Y-54800D01*
X62700Y-54750D02*
X62300Y-54750D01*
X62847Y-54602D02*
X62700Y-54750D01*
X62450Y-56050D02*
X62450Y-58800D01*
X62450Y-58800D02*
X62250Y-59000D01*
X38143Y-73106D02*
X38143Y-72356D01*
X38143Y-72356D02*
X38500Y-72000D01*
X38500Y-72000D02*
X48550Y-72000D01*
X48550Y-72000D02*
X48750Y-71800D01*
X48750Y-71800D02*
X48750Y-59200D01*
X48750Y-59200D02*
X48950Y-59000D01*
X48950Y-59000D02*
X62250Y-59000D01*
X63201Y-54424D02*
X63201Y-54748D01*
X62543Y-56193D02*
X62879Y-56193D01*
X62450Y-56100D02*
X62543Y-56193D01*
X62450Y-55050D02*
X62450Y-56050D01*
X62450Y-56050D02*
X62450Y-56100D01*
X62550Y-54950D02*
X62450Y-55050D01*
X63000Y-54950D02*
X62550Y-54950D01*
X63201Y-54748D02*
X63000Y-54950D01*
X66916Y-56537D02*
X65687Y-56537D01*
X65687Y-56537D02*
X65500Y-56350D01*
X64546Y-51382D02*
X65182Y-51382D01*
X65687Y-57537D02*
X66916Y-57537D01*
X65500Y-57350D02*
X65687Y-57537D01*
X65500Y-51700D02*
X65500Y-56350D01*
X65500Y-56350D02*
X65500Y-57350D01*
X65182Y-51382D02*
X65500Y-51700D01*
X70143Y-45970D02*
X70143Y-45643D01*
X70000Y-45500D02*
X69000Y-45500D01*
X70143Y-45643D02*
X70000Y-45500D01*
X61003Y-50988D02*
X60461Y-50988D01*
X60250Y-51200D02*
X60250Y-51500D01*
X60461Y-50988D02*
X60250Y-51200D01*
X70925Y-46322D02*
X70272Y-46322D01*
X70143Y-46193D02*
X70143Y-45970D01*
X70272Y-46322D02*
X70143Y-46193D01*
X69950Y-47500D02*
X70143Y-47306D01*
X69400Y-47500D02*
X69950Y-47500D01*
X70143Y-47306D02*
X70143Y-47033D01*
X60257Y-50792D02*
X60100Y-50950D01*
X61003Y-50792D02*
X60257Y-50792D01*
X70925Y-46677D02*
X70272Y-46677D01*
X70272Y-46677D02*
X70143Y-46806D01*
X70143Y-46806D02*
X70143Y-47033D01*
X64546Y-49414D02*
X64985Y-49414D01*
X65100Y-47200D02*
X64984Y-47084D01*
X65100Y-49300D02*
X65100Y-47200D01*
X64985Y-49414D02*
X65100Y-49300D01*
X64984Y-47084D02*
X64500Y-47084D01*
X63750Y-47084D02*
X64500Y-47084D01*
G54D10*
G36*
X72645Y-73045D02*
X72344Y-73045D01*
X72344Y-72715D01*
X72344Y-71532D01*
X72343Y-71530D01*
X72341Y-71528D01*
X72339Y-71527D01*
X72337Y-71527D01*
X71057Y-71527D01*
X71055Y-71528D01*
X71055Y-72029D01*
X72343Y-72029D01*
X72344Y-72027D01*
X72344Y-71532D01*
X72344Y-72715D01*
X72344Y-72220D01*
X72343Y-72219D01*
X71055Y-72219D01*
X71055Y-72719D01*
X71057Y-72720D01*
X72337Y-72720D01*
X72339Y-72720D01*
X72341Y-72719D01*
X72343Y-72717D01*
X72344Y-72715D01*
X72344Y-73045D01*
X70865Y-73045D01*
X70865Y-72719D01*
X70865Y-72219D01*
X70865Y-72029D01*
X70865Y-71528D01*
X70864Y-71527D01*
X69583Y-71527D01*
X69581Y-71527D01*
X69579Y-71528D01*
X69577Y-71530D01*
X69576Y-71532D01*
X69576Y-72027D01*
X69578Y-72029D01*
X70865Y-72029D01*
X70865Y-72219D01*
X69578Y-72219D01*
X69576Y-72220D01*
X69576Y-72715D01*
X69577Y-72717D01*
X69579Y-72719D01*
X69581Y-72720D01*
X69583Y-72720D01*
X70864Y-72720D01*
X70865Y-72719D01*
X70865Y-73045D01*
X69105Y-73045D01*
X69105Y-72745D01*
X68438Y-72745D01*
X68438Y-72461D01*
X68438Y-71755D01*
X68438Y-71753D01*
X68437Y-71750D01*
X68435Y-71749D01*
X68433Y-71748D01*
X68214Y-71748D01*
X68212Y-71749D01*
X68212Y-72013D01*
X68436Y-72013D01*
X68438Y-72011D01*
X68438Y-71755D01*
X68438Y-72461D01*
X68438Y-72204D01*
X68436Y-72203D01*
X68212Y-72203D01*
X68212Y-72466D01*
X68214Y-72468D01*
X68433Y-72468D01*
X68435Y-72467D01*
X68437Y-72465D01*
X68438Y-72463D01*
X68438Y-72461D01*
X68438Y-72745D01*
X68022Y-72745D01*
X68022Y-72466D01*
X68022Y-72203D01*
X68022Y-72013D01*
X68022Y-71749D01*
X68021Y-71748D01*
X67802Y-71748D01*
X67800Y-71749D01*
X67798Y-71750D01*
X67797Y-71753D01*
X67797Y-71755D01*
X67797Y-72011D01*
X67798Y-72013D01*
X68022Y-72013D01*
X68022Y-72203D01*
X67798Y-72203D01*
X67797Y-72204D01*
X67797Y-72461D01*
X67797Y-72463D01*
X67798Y-72465D01*
X67800Y-72467D01*
X67802Y-72468D01*
X68021Y-72468D01*
X68022Y-72466D01*
X68022Y-72745D01*
X67655Y-72745D01*
X67655Y-71545D01*
X64995Y-71545D01*
X64995Y-72855D01*
X65445Y-72855D01*
X65445Y-73545D01*
X65289Y-73545D01*
X65289Y-73471D01*
X65289Y-73076D01*
X65288Y-73074D01*
X65286Y-73072D01*
X65284Y-73071D01*
X65282Y-73071D01*
X65163Y-73071D01*
X65161Y-73073D01*
X65161Y-73179D01*
X65287Y-73179D01*
X65289Y-73177D01*
X65289Y-73076D01*
X65289Y-73471D01*
X65289Y-73370D01*
X65287Y-73369D01*
X65161Y-73369D01*
X65161Y-73475D01*
X65163Y-73476D01*
X65282Y-73476D01*
X65284Y-73476D01*
X65286Y-73475D01*
X65288Y-73474D01*
X65289Y-73471D01*
X65289Y-73545D01*
X64971Y-73545D01*
X64971Y-73475D01*
X64971Y-73369D01*
X64971Y-73179D01*
X64971Y-73073D01*
X64970Y-73071D01*
X64851Y-73071D01*
X64849Y-73071D01*
X64847Y-73072D01*
X64845Y-73074D01*
X64844Y-73076D01*
X64844Y-73177D01*
X64845Y-73179D01*
X64971Y-73179D01*
X64971Y-73369D01*
X64845Y-73369D01*
X64844Y-73370D01*
X64844Y-73471D01*
X64845Y-73474D01*
X64847Y-73475D01*
X64849Y-73476D01*
X64851Y-73476D01*
X64970Y-73476D01*
X64971Y-73475D01*
X64971Y-73545D01*
X64836Y-73545D01*
X64836Y-72461D01*
X64836Y-71755D01*
X64836Y-71753D01*
X64835Y-71750D01*
X64833Y-71749D01*
X64831Y-71748D01*
X64612Y-71748D01*
X64610Y-71749D01*
X64610Y-72013D01*
X64834Y-72013D01*
X64836Y-72011D01*
X64836Y-71755D01*
X64836Y-72461D01*
X64836Y-72204D01*
X64834Y-72203D01*
X64610Y-72203D01*
X64610Y-72466D01*
X64612Y-72468D01*
X64831Y-72468D01*
X64833Y-72467D01*
X64835Y-72465D01*
X64836Y-72463D01*
X64836Y-72461D01*
X64836Y-73545D01*
X64505Y-73545D01*
X64505Y-73047D01*
X64420Y-72963D01*
X64420Y-72466D01*
X64420Y-72203D01*
X64420Y-72013D01*
X64420Y-71749D01*
X64419Y-71748D01*
X64200Y-71748D01*
X64198Y-71749D01*
X64196Y-71750D01*
X64195Y-71753D01*
X64195Y-71755D01*
X64195Y-72011D01*
X64196Y-72013D01*
X64420Y-72013D01*
X64420Y-72203D01*
X64196Y-72203D01*
X64195Y-72204D01*
X64195Y-72461D01*
X64195Y-72463D01*
X64196Y-72465D01*
X64198Y-72467D01*
X64200Y-72468D01*
X64419Y-72468D01*
X64420Y-72466D01*
X64420Y-72963D01*
X64055Y-72597D01*
X64055Y-71300D01*
X64055Y-71205D01*
X72645Y-71205D01*
X72645Y-71300D01*
X72645Y-73045D01*
X72645Y-73045D01*
G37*
G54D57*
X72645Y-73045D02*
X72344Y-73045D01*
X72344Y-72715D01*
X72344Y-71532D01*
X72343Y-71530D01*
X72341Y-71528D01*
X72339Y-71527D01*
X72337Y-71527D01*
X71057Y-71527D01*
X71055Y-71528D01*
X71055Y-72029D01*
X72343Y-72029D01*
X72344Y-72027D01*
X72344Y-71532D01*
X72344Y-72715D01*
X72344Y-72220D01*
X72343Y-72219D01*
X71055Y-72219D01*
X71055Y-72719D01*
X71057Y-72720D01*
X72337Y-72720D01*
X72339Y-72720D01*
X72341Y-72719D01*
X72343Y-72717D01*
X72344Y-72715D01*
X72344Y-73045D01*
X70865Y-73045D01*
X70865Y-72719D01*
X70865Y-72219D01*
X70865Y-72029D01*
X70865Y-71528D01*
X70864Y-71527D01*
X69583Y-71527D01*
X69581Y-71527D01*
X69579Y-71528D01*
X69577Y-71530D01*
X69576Y-71532D01*
X69576Y-72027D01*
X69578Y-72029D01*
X70865Y-72029D01*
X70865Y-72219D01*
X69578Y-72219D01*
X69576Y-72220D01*
X69576Y-72715D01*
X69577Y-72717D01*
X69579Y-72719D01*
X69581Y-72720D01*
X69583Y-72720D01*
X70864Y-72720D01*
X70865Y-72719D01*
X70865Y-73045D01*
X69105Y-73045D01*
X69105Y-72745D01*
X68438Y-72745D01*
X68438Y-72461D01*
X68438Y-71755D01*
X68438Y-71753D01*
X68437Y-71750D01*
X68435Y-71749D01*
X68433Y-71748D01*
X68214Y-71748D01*
X68212Y-71749D01*
X68212Y-72013D01*
X68436Y-72013D01*
X68438Y-72011D01*
X68438Y-71755D01*
X68438Y-72461D01*
X68438Y-72204D01*
X68436Y-72203D01*
X68212Y-72203D01*
X68212Y-72466D01*
X68214Y-72468D01*
X68433Y-72468D01*
X68435Y-72467D01*
X68437Y-72465D01*
X68438Y-72463D01*
X68438Y-72461D01*
X68438Y-72745D01*
X68022Y-72745D01*
X68022Y-72466D01*
X68022Y-72203D01*
X68022Y-72013D01*
X68022Y-71749D01*
X68021Y-71748D01*
X67802Y-71748D01*
X67800Y-71749D01*
X67798Y-71750D01*
X67797Y-71753D01*
X67797Y-71755D01*
X67797Y-72011D01*
X67798Y-72013D01*
X68022Y-72013D01*
X68022Y-72203D01*
X67798Y-72203D01*
X67797Y-72204D01*
X67797Y-72461D01*
X67797Y-72463D01*
X67798Y-72465D01*
X67800Y-72467D01*
X67802Y-72468D01*
X68021Y-72468D01*
X68022Y-72466D01*
X68022Y-72745D01*
X67655Y-72745D01*
X67655Y-71545D01*
X64995Y-71545D01*
X64995Y-72855D01*
X65445Y-72855D01*
X65445Y-73545D01*
X65289Y-73545D01*
X65289Y-73471D01*
X65289Y-73076D01*
X65288Y-73074D01*
X65286Y-73072D01*
X65284Y-73071D01*
X65282Y-73071D01*
X65163Y-73071D01*
X65161Y-73073D01*
X65161Y-73179D01*
X65287Y-73179D01*
X65289Y-73177D01*
X65289Y-73076D01*
X65289Y-73471D01*
X65289Y-73370D01*
X65287Y-73369D01*
X65161Y-73369D01*
X65161Y-73475D01*
X65163Y-73476D01*
X65282Y-73476D01*
X65284Y-73476D01*
X65286Y-73475D01*
X65288Y-73474D01*
X65289Y-73471D01*
X65289Y-73545D01*
X64971Y-73545D01*
X64971Y-73475D01*
X64971Y-73369D01*
X64971Y-73179D01*
X64971Y-73073D01*
X64970Y-73071D01*
X64851Y-73071D01*
X64849Y-73071D01*
X64847Y-73072D01*
X64845Y-73074D01*
X64844Y-73076D01*
X64844Y-73177D01*
X64845Y-73179D01*
X64971Y-73179D01*
X64971Y-73369D01*
X64845Y-73369D01*
X64844Y-73370D01*
X64844Y-73471D01*
X64845Y-73474D01*
X64847Y-73475D01*
X64849Y-73476D01*
X64851Y-73476D01*
X64970Y-73476D01*
X64971Y-73475D01*
X64971Y-73545D01*
X64836Y-73545D01*
X64836Y-72461D01*
X64836Y-71755D01*
X64836Y-71753D01*
X64835Y-71750D01*
X64833Y-71749D01*
X64831Y-71748D01*
X64612Y-71748D01*
X64610Y-71749D01*
X64610Y-72013D01*
X64834Y-72013D01*
X64836Y-72011D01*
X64836Y-71755D01*
X64836Y-72461D01*
X64836Y-72204D01*
X64834Y-72203D01*
X64610Y-72203D01*
X64610Y-72466D01*
X64612Y-72468D01*
X64831Y-72468D01*
X64833Y-72467D01*
X64835Y-72465D01*
X64836Y-72463D01*
X64836Y-72461D01*
X64836Y-73545D01*
X64505Y-73545D01*
X64505Y-73047D01*
X64420Y-72963D01*
X64420Y-72466D01*
X64420Y-72203D01*
X64420Y-72013D01*
X64420Y-71749D01*
X64419Y-71748D01*
X64200Y-71748D01*
X64198Y-71749D01*
X64196Y-71750D01*
X64195Y-71753D01*
X64195Y-71755D01*
X64195Y-72011D01*
X64196Y-72013D01*
X64420Y-72013D01*
X64420Y-72203D01*
X64196Y-72203D01*
X64195Y-72204D01*
X64195Y-72461D01*
X64195Y-72463D01*
X64196Y-72465D01*
X64198Y-72467D01*
X64200Y-72468D01*
X64419Y-72468D01*
X64420Y-72466D01*
X64420Y-72963D01*
X64055Y-72597D01*
X64055Y-71300D01*
X64055Y-71205D01*
X72645Y-71205D01*
X72645Y-71300D01*
X72645Y-73045D01*
G54D10*
G36*
X68095Y-75045D02*
X68037Y-75045D01*
X68037Y-74977D01*
X68037Y-74738D01*
X68036Y-74736D01*
X68035Y-74735D01*
X68033Y-74734D01*
X68030Y-74734D01*
X67813Y-74734D01*
X67811Y-74735D01*
X67811Y-74799D01*
X68036Y-74799D01*
X68037Y-74797D01*
X68037Y-74738D01*
X68037Y-74977D01*
X68037Y-74918D01*
X68036Y-74917D01*
X67811Y-74917D01*
X67811Y-74980D01*
X67813Y-74982D01*
X68030Y-74982D01*
X68033Y-74982D01*
X68035Y-74981D01*
X68036Y-74979D01*
X68037Y-74977D01*
X68037Y-75045D01*
X67621Y-75045D01*
X67621Y-74980D01*
X67621Y-74917D01*
X67621Y-74799D01*
X67621Y-74735D01*
X67620Y-74734D01*
X67403Y-74734D01*
X67400Y-74734D01*
X67398Y-74735D01*
X67396Y-74736D01*
X67395Y-74738D01*
X67395Y-74797D01*
X67397Y-74799D01*
X67621Y-74799D01*
X67621Y-74917D01*
X67397Y-74917D01*
X67395Y-74918D01*
X67395Y-74977D01*
X67396Y-74979D01*
X67398Y-74981D01*
X67400Y-74982D01*
X67403Y-74982D01*
X67620Y-74982D01*
X67621Y-74980D01*
X67621Y-75045D01*
X67336Y-75045D01*
X67336Y-72461D01*
X67336Y-71755D01*
X67336Y-71753D01*
X67335Y-71750D01*
X67333Y-71749D01*
X67331Y-71748D01*
X67112Y-71748D01*
X67110Y-71749D01*
X67110Y-72013D01*
X67334Y-72013D01*
X67336Y-72011D01*
X67336Y-71755D01*
X67336Y-72461D01*
X67336Y-72204D01*
X67334Y-72203D01*
X67110Y-72203D01*
X67110Y-72466D01*
X67112Y-72468D01*
X67331Y-72468D01*
X67333Y-72467D01*
X67335Y-72465D01*
X67336Y-72463D01*
X67336Y-72461D01*
X67336Y-75045D01*
X67195Y-75045D01*
X67195Y-76495D01*
X67025Y-76495D01*
X67025Y-76259D01*
X67025Y-74957D01*
X67024Y-74955D01*
X67023Y-74953D01*
X67020Y-74952D01*
X67018Y-74952D01*
X66948Y-74952D01*
X66948Y-73941D01*
X66948Y-73274D01*
X66948Y-73272D01*
X66947Y-73270D01*
X66946Y-73268D01*
X66944Y-73267D01*
X66920Y-73267D01*
X66920Y-72466D01*
X66920Y-72203D01*
X66920Y-72013D01*
X66920Y-71749D01*
X66919Y-71748D01*
X66700Y-71748D01*
X66698Y-71749D01*
X66696Y-71750D01*
X66695Y-71753D01*
X66695Y-71755D01*
X66695Y-72011D01*
X66696Y-72013D01*
X66920Y-72013D01*
X66920Y-72203D01*
X66696Y-72203D01*
X66695Y-72204D01*
X66695Y-72461D01*
X66695Y-72463D01*
X66696Y-72465D01*
X66698Y-72467D01*
X66700Y-72468D01*
X66919Y-72468D01*
X66920Y-72466D01*
X66920Y-73267D01*
X66704Y-73267D01*
X66703Y-73269D01*
X66703Y-73513D01*
X66947Y-73513D01*
X66948Y-73511D01*
X66948Y-73274D01*
X66948Y-73941D01*
X66948Y-73704D01*
X66947Y-73703D01*
X66703Y-73703D01*
X66703Y-73947D01*
X66704Y-73948D01*
X66944Y-73948D01*
X66946Y-73948D01*
X66947Y-73946D01*
X66948Y-73944D01*
X66948Y-73941D01*
X66948Y-74952D01*
X66663Y-74952D01*
X66661Y-74954D01*
X66661Y-75513D01*
X67024Y-75513D01*
X67025Y-75511D01*
X67025Y-74957D01*
X67025Y-76259D01*
X67025Y-75704D01*
X67024Y-75703D01*
X66661Y-75703D01*
X66661Y-76262D01*
X66663Y-76263D01*
X67018Y-76263D01*
X67020Y-76263D01*
X67023Y-76262D01*
X67024Y-76261D01*
X67025Y-76259D01*
X67025Y-76495D01*
X66513Y-76495D01*
X66513Y-73947D01*
X66513Y-73703D01*
X66513Y-73513D01*
X66513Y-73269D01*
X66511Y-73267D01*
X66272Y-73267D01*
X66270Y-73268D01*
X66268Y-73270D01*
X66267Y-73272D01*
X66267Y-73274D01*
X66267Y-73511D01*
X66269Y-73513D01*
X66513Y-73513D01*
X66513Y-73703D01*
X66269Y-73703D01*
X66267Y-73704D01*
X66267Y-73941D01*
X66267Y-73944D01*
X66268Y-73946D01*
X66270Y-73948D01*
X66272Y-73948D01*
X66511Y-73948D01*
X66513Y-73947D01*
X66513Y-76495D01*
X66471Y-76495D01*
X66471Y-76262D01*
X66471Y-75703D01*
X66471Y-75513D01*
X66471Y-74954D01*
X66470Y-74952D01*
X66115Y-74952D01*
X66112Y-74952D01*
X66110Y-74953D01*
X66109Y-74955D01*
X66108Y-74957D01*
X66108Y-75511D01*
X66109Y-75513D01*
X66471Y-75513D01*
X66471Y-75703D01*
X66109Y-75703D01*
X66108Y-75704D01*
X66108Y-76259D01*
X66109Y-76261D01*
X66110Y-76262D01*
X66112Y-76263D01*
X66115Y-76263D01*
X66470Y-76263D01*
X66471Y-76262D01*
X66471Y-76495D01*
X65955Y-76495D01*
X65955Y-72695D01*
X65938Y-72695D01*
X65938Y-72461D01*
X65938Y-71755D01*
X65938Y-71753D01*
X65937Y-71750D01*
X65935Y-71749D01*
X65933Y-71748D01*
X65714Y-71748D01*
X65712Y-71749D01*
X65712Y-72013D01*
X65936Y-72013D01*
X65938Y-72011D01*
X65938Y-71755D01*
X65938Y-72461D01*
X65938Y-72204D01*
X65936Y-72203D01*
X65712Y-72203D01*
X65712Y-72466D01*
X65714Y-72468D01*
X65933Y-72468D01*
X65935Y-72467D01*
X65937Y-72465D01*
X65938Y-72463D01*
X65938Y-72461D01*
X65938Y-72695D01*
X65305Y-72695D01*
X65305Y-72468D01*
X65521Y-72468D01*
X65522Y-72466D01*
X65522Y-72203D01*
X65515Y-72203D01*
X65515Y-72013D01*
X65522Y-72013D01*
X65522Y-71749D01*
X65521Y-71748D01*
X65305Y-71748D01*
X65305Y-71705D01*
X67345Y-71705D01*
X67345Y-74405D01*
X68095Y-74405D01*
X68095Y-75045D01*
X68095Y-75045D01*
G37*
G54D57*
X68095Y-75045D02*
X68037Y-75045D01*
X68037Y-74977D01*
X68037Y-74738D01*
X68036Y-74736D01*
X68035Y-74735D01*
X68033Y-74734D01*
X68030Y-74734D01*
X67813Y-74734D01*
X67811Y-74735D01*
X67811Y-74799D01*
X68036Y-74799D01*
X68037Y-74797D01*
X68037Y-74738D01*
X68037Y-74977D01*
X68037Y-74918D01*
X68036Y-74917D01*
X67811Y-74917D01*
X67811Y-74980D01*
X67813Y-74982D01*
X68030Y-74982D01*
X68033Y-74982D01*
X68035Y-74981D01*
X68036Y-74979D01*
X68037Y-74977D01*
X68037Y-75045D01*
X67621Y-75045D01*
X67621Y-74980D01*
X67621Y-74917D01*
X67621Y-74799D01*
X67621Y-74735D01*
X67620Y-74734D01*
X67403Y-74734D01*
X67400Y-74734D01*
X67398Y-74735D01*
X67396Y-74736D01*
X67395Y-74738D01*
X67395Y-74797D01*
X67397Y-74799D01*
X67621Y-74799D01*
X67621Y-74917D01*
X67397Y-74917D01*
X67395Y-74918D01*
X67395Y-74977D01*
X67396Y-74979D01*
X67398Y-74981D01*
X67400Y-74982D01*
X67403Y-74982D01*
X67620Y-74982D01*
X67621Y-74980D01*
X67621Y-75045D01*
X67336Y-75045D01*
X67336Y-72461D01*
X67336Y-71755D01*
X67336Y-71753D01*
X67335Y-71750D01*
X67333Y-71749D01*
X67331Y-71748D01*
X67112Y-71748D01*
X67110Y-71749D01*
X67110Y-72013D01*
X67334Y-72013D01*
X67336Y-72011D01*
X67336Y-71755D01*
X67336Y-72461D01*
X67336Y-72204D01*
X67334Y-72203D01*
X67110Y-72203D01*
X67110Y-72466D01*
X67112Y-72468D01*
X67331Y-72468D01*
X67333Y-72467D01*
X67335Y-72465D01*
X67336Y-72463D01*
X67336Y-72461D01*
X67336Y-75045D01*
X67195Y-75045D01*
X67195Y-76495D01*
X67025Y-76495D01*
X67025Y-76259D01*
X67025Y-74957D01*
X67024Y-74955D01*
X67023Y-74953D01*
X67020Y-74952D01*
X67018Y-74952D01*
X66948Y-74952D01*
X66948Y-73941D01*
X66948Y-73274D01*
X66948Y-73272D01*
X66947Y-73270D01*
X66946Y-73268D01*
X66944Y-73267D01*
X66920Y-73267D01*
X66920Y-72466D01*
X66920Y-72203D01*
X66920Y-72013D01*
X66920Y-71749D01*
X66919Y-71748D01*
X66700Y-71748D01*
X66698Y-71749D01*
X66696Y-71750D01*
X66695Y-71753D01*
X66695Y-71755D01*
X66695Y-72011D01*
X66696Y-72013D01*
X66920Y-72013D01*
X66920Y-72203D01*
X66696Y-72203D01*
X66695Y-72204D01*
X66695Y-72461D01*
X66695Y-72463D01*
X66696Y-72465D01*
X66698Y-72467D01*
X66700Y-72468D01*
X66919Y-72468D01*
X66920Y-72466D01*
X66920Y-73267D01*
X66704Y-73267D01*
X66703Y-73269D01*
X66703Y-73513D01*
X66947Y-73513D01*
X66948Y-73511D01*
X66948Y-73274D01*
X66948Y-73941D01*
X66948Y-73704D01*
X66947Y-73703D01*
X66703Y-73703D01*
X66703Y-73947D01*
X66704Y-73948D01*
X66944Y-73948D01*
X66946Y-73948D01*
X66947Y-73946D01*
X66948Y-73944D01*
X66948Y-73941D01*
X66948Y-74952D01*
X66663Y-74952D01*
X66661Y-74954D01*
X66661Y-75513D01*
X67024Y-75513D01*
X67025Y-75511D01*
X67025Y-74957D01*
X67025Y-76259D01*
X67025Y-75704D01*
X67024Y-75703D01*
X66661Y-75703D01*
X66661Y-76262D01*
X66663Y-76263D01*
X67018Y-76263D01*
X67020Y-76263D01*
X67023Y-76262D01*
X67024Y-76261D01*
X67025Y-76259D01*
X67025Y-76495D01*
X66513Y-76495D01*
X66513Y-73947D01*
X66513Y-73703D01*
X66513Y-73513D01*
X66513Y-73269D01*
X66511Y-73267D01*
X66272Y-73267D01*
X66270Y-73268D01*
X66268Y-73270D01*
X66267Y-73272D01*
X66267Y-73274D01*
X66267Y-73511D01*
X66269Y-73513D01*
X66513Y-73513D01*
X66513Y-73703D01*
X66269Y-73703D01*
X66267Y-73704D01*
X66267Y-73941D01*
X66267Y-73944D01*
X66268Y-73946D01*
X66270Y-73948D01*
X66272Y-73948D01*
X66511Y-73948D01*
X66513Y-73947D01*
X66513Y-76495D01*
X66471Y-76495D01*
X66471Y-76262D01*
X66471Y-75703D01*
X66471Y-75513D01*
X66471Y-74954D01*
X66470Y-74952D01*
X66115Y-74952D01*
X66112Y-74952D01*
X66110Y-74953D01*
X66109Y-74955D01*
X66108Y-74957D01*
X66108Y-75511D01*
X66109Y-75513D01*
X66471Y-75513D01*
X66471Y-75703D01*
X66109Y-75703D01*
X66108Y-75704D01*
X66108Y-76259D01*
X66109Y-76261D01*
X66110Y-76262D01*
X66112Y-76263D01*
X66115Y-76263D01*
X66470Y-76263D01*
X66471Y-76262D01*
X66471Y-76495D01*
X65955Y-76495D01*
X65955Y-72695D01*
X65938Y-72695D01*
X65938Y-72461D01*
X65938Y-71755D01*
X65938Y-71753D01*
X65937Y-71750D01*
X65935Y-71749D01*
X65933Y-71748D01*
X65714Y-71748D01*
X65712Y-71749D01*
X65712Y-72013D01*
X65936Y-72013D01*
X65938Y-72011D01*
X65938Y-71755D01*
X65938Y-72461D01*
X65938Y-72204D01*
X65936Y-72203D01*
X65712Y-72203D01*
X65712Y-72466D01*
X65714Y-72468D01*
X65933Y-72468D01*
X65935Y-72467D01*
X65937Y-72465D01*
X65938Y-72463D01*
X65938Y-72461D01*
X65938Y-72695D01*
X65305Y-72695D01*
X65305Y-72468D01*
X65521Y-72468D01*
X65522Y-72466D01*
X65522Y-72203D01*
X65515Y-72203D01*
X65515Y-72013D01*
X65522Y-72013D01*
X65522Y-71749D01*
X65521Y-71748D01*
X65305Y-71748D01*
X65305Y-71705D01*
X67345Y-71705D01*
X67345Y-74405D01*
X68095Y-74405D01*
X68095Y-75045D01*
G54D10*
G36*
X72645Y-74795D02*
X72344Y-74795D01*
X72344Y-74684D01*
X72344Y-74189D01*
X72343Y-74187D01*
X71055Y-74187D01*
X71055Y-74687D01*
X71057Y-74689D01*
X72337Y-74689D01*
X72339Y-74689D01*
X72341Y-74688D01*
X72343Y-74686D01*
X72344Y-74684D01*
X72344Y-74795D01*
X70865Y-74795D01*
X70865Y-74687D01*
X70865Y-74187D01*
X69578Y-74187D01*
X69576Y-74189D01*
X69576Y-74684D01*
X69577Y-74686D01*
X69579Y-74688D01*
X69581Y-74689D01*
X69583Y-74689D01*
X70864Y-74689D01*
X70865Y-74687D01*
X70865Y-74795D01*
X69295Y-74795D01*
X69295Y-75197D01*
X68947Y-75545D01*
X68602Y-75545D01*
X68602Y-73941D01*
X68602Y-73274D01*
X68602Y-73272D01*
X68601Y-73270D01*
X68599Y-73268D01*
X68597Y-73267D01*
X68358Y-73267D01*
X68356Y-73269D01*
X68356Y-73513D01*
X68600Y-73513D01*
X68602Y-73511D01*
X68602Y-73274D01*
X68602Y-73941D01*
X68602Y-73704D01*
X68600Y-73703D01*
X68356Y-73703D01*
X68356Y-73947D01*
X68358Y-73948D01*
X68597Y-73948D01*
X68599Y-73948D01*
X68601Y-73946D01*
X68602Y-73944D01*
X68602Y-73941D01*
X68602Y-75545D01*
X68037Y-75545D01*
X68037Y-75477D01*
X68037Y-75238D01*
X68036Y-75236D01*
X68035Y-75235D01*
X68033Y-75234D01*
X68030Y-75234D01*
X67813Y-75234D01*
X67811Y-75235D01*
X67811Y-75299D01*
X68036Y-75299D01*
X68037Y-75297D01*
X68037Y-75238D01*
X68037Y-75477D01*
X68037Y-75418D01*
X68036Y-75417D01*
X67811Y-75417D01*
X67811Y-75480D01*
X67813Y-75482D01*
X68030Y-75482D01*
X68033Y-75482D01*
X68035Y-75481D01*
X68036Y-75479D01*
X68037Y-75477D01*
X68037Y-75545D01*
X67405Y-75545D01*
X67405Y-75482D01*
X67620Y-75482D01*
X67621Y-75480D01*
X67621Y-75417D01*
X67614Y-75417D01*
X67614Y-75299D01*
X67621Y-75299D01*
X67621Y-75235D01*
X67620Y-75234D01*
X67405Y-75234D01*
X67405Y-75155D01*
X68405Y-75155D01*
X68405Y-74095D01*
X68166Y-74095D01*
X68166Y-73947D01*
X68166Y-73703D01*
X68166Y-73513D01*
X68166Y-73269D01*
X68165Y-73267D01*
X67925Y-73267D01*
X67923Y-73268D01*
X67922Y-73270D01*
X67921Y-73272D01*
X67921Y-73274D01*
X67921Y-73511D01*
X67922Y-73513D01*
X68166Y-73513D01*
X68166Y-73703D01*
X67922Y-73703D01*
X67921Y-73704D01*
X67921Y-73941D01*
X67921Y-73944D01*
X67922Y-73946D01*
X67923Y-73948D01*
X67925Y-73948D01*
X68165Y-73948D01*
X68166Y-73947D01*
X68166Y-74095D01*
X67805Y-74095D01*
X67805Y-73155D01*
X68795Y-73155D01*
X68795Y-73505D01*
X69576Y-73505D01*
X69576Y-73996D01*
X69578Y-73997D01*
X70865Y-73997D01*
X70865Y-73989D01*
X71055Y-73989D01*
X71055Y-73997D01*
X72343Y-73997D01*
X72344Y-73996D01*
X72344Y-73505D01*
X72645Y-73505D01*
X72645Y-74795D01*
X72645Y-74795D01*
G37*
G54D57*
X72645Y-74795D02*
X72344Y-74795D01*
X72344Y-74684D01*
X72344Y-74189D01*
X72343Y-74187D01*
X71055Y-74187D01*
X71055Y-74687D01*
X71057Y-74689D01*
X72337Y-74689D01*
X72339Y-74689D01*
X72341Y-74688D01*
X72343Y-74686D01*
X72344Y-74684D01*
X72344Y-74795D01*
X70865Y-74795D01*
X70865Y-74687D01*
X70865Y-74187D01*
X69578Y-74187D01*
X69576Y-74189D01*
X69576Y-74684D01*
X69577Y-74686D01*
X69579Y-74688D01*
X69581Y-74689D01*
X69583Y-74689D01*
X70864Y-74689D01*
X70865Y-74687D01*
X70865Y-74795D01*
X69295Y-74795D01*
X69295Y-75197D01*
X68947Y-75545D01*
X68602Y-75545D01*
X68602Y-73941D01*
X68602Y-73274D01*
X68602Y-73272D01*
X68601Y-73270D01*
X68599Y-73268D01*
X68597Y-73267D01*
X68358Y-73267D01*
X68356Y-73269D01*
X68356Y-73513D01*
X68600Y-73513D01*
X68602Y-73511D01*
X68602Y-73274D01*
X68602Y-73941D01*
X68602Y-73704D01*
X68600Y-73703D01*
X68356Y-73703D01*
X68356Y-73947D01*
X68358Y-73948D01*
X68597Y-73948D01*
X68599Y-73948D01*
X68601Y-73946D01*
X68602Y-73944D01*
X68602Y-73941D01*
X68602Y-75545D01*
X68037Y-75545D01*
X68037Y-75477D01*
X68037Y-75238D01*
X68036Y-75236D01*
X68035Y-75235D01*
X68033Y-75234D01*
X68030Y-75234D01*
X67813Y-75234D01*
X67811Y-75235D01*
X67811Y-75299D01*
X68036Y-75299D01*
X68037Y-75297D01*
X68037Y-75238D01*
X68037Y-75477D01*
X68037Y-75418D01*
X68036Y-75417D01*
X67811Y-75417D01*
X67811Y-75480D01*
X67813Y-75482D01*
X68030Y-75482D01*
X68033Y-75482D01*
X68035Y-75481D01*
X68036Y-75479D01*
X68037Y-75477D01*
X68037Y-75545D01*
X67405Y-75545D01*
X67405Y-75482D01*
X67620Y-75482D01*
X67621Y-75480D01*
X67621Y-75417D01*
X67614Y-75417D01*
X67614Y-75299D01*
X67621Y-75299D01*
X67621Y-75235D01*
X67620Y-75234D01*
X67405Y-75234D01*
X67405Y-75155D01*
X68405Y-75155D01*
X68405Y-74095D01*
X68166Y-74095D01*
X68166Y-73947D01*
X68166Y-73703D01*
X68166Y-73513D01*
X68166Y-73269D01*
X68165Y-73267D01*
X67925Y-73267D01*
X67923Y-73268D01*
X67922Y-73270D01*
X67921Y-73272D01*
X67921Y-73274D01*
X67921Y-73511D01*
X67922Y-73513D01*
X68166Y-73513D01*
X68166Y-73703D01*
X67922Y-73703D01*
X67921Y-73704D01*
X67921Y-73941D01*
X67921Y-73944D01*
X67922Y-73946D01*
X67923Y-73948D01*
X67925Y-73948D01*
X68165Y-73948D01*
X68166Y-73947D01*
X68166Y-74095D01*
X67805Y-74095D01*
X67805Y-73155D01*
X68795Y-73155D01*
X68795Y-73505D01*
X69576Y-73505D01*
X69576Y-73996D01*
X69578Y-73997D01*
X70865Y-73997D01*
X70865Y-73989D01*
X71055Y-73989D01*
X71055Y-73997D01*
X72343Y-73997D01*
X72344Y-73996D01*
X72344Y-73505D01*
X72645Y-73505D01*
X72645Y-74795D01*
G54D10*
G36*
X78695Y-74295D02*
X78687Y-74295D01*
X77494Y-74295D01*
X77494Y-73846D01*
X77494Y-73185D01*
X77494Y-72995D01*
X77494Y-72334D01*
X77144Y-72334D01*
X76861Y-72428D01*
X76637Y-72623D01*
X76635Y-72626D01*
X76635Y-72043D01*
X76635Y-71456D01*
X76635Y-71453D01*
X76634Y-71451D01*
X76632Y-71449D01*
X76630Y-71448D01*
X76470Y-71449D01*
X76469Y-71450D01*
X76469Y-71655D01*
X76634Y-71655D01*
X76635Y-71653D01*
X76635Y-71456D01*
X76635Y-72043D01*
X76635Y-71846D01*
X76634Y-71845D01*
X76469Y-71845D01*
X76469Y-72049D01*
X76470Y-72051D01*
X76630Y-72051D01*
X76632Y-72050D01*
X76634Y-72048D01*
X76635Y-72046D01*
X76635Y-72043D01*
X76635Y-72626D01*
X76513Y-72879D01*
X76490Y-72995D01*
X77494Y-72995D01*
X77494Y-73185D01*
X76490Y-73185D01*
X76513Y-73301D01*
X76637Y-73557D01*
X76861Y-73752D01*
X77144Y-73846D01*
X77494Y-73846D01*
X77494Y-74295D01*
X76279Y-74295D01*
X76279Y-72049D01*
X76279Y-71845D01*
X76279Y-71655D01*
X76279Y-71450D01*
X76277Y-71449D01*
X76117Y-71448D01*
X76115Y-71449D01*
X76113Y-71451D01*
X76112Y-71453D01*
X76112Y-71456D01*
X76112Y-71653D01*
X76114Y-71655D01*
X76279Y-71655D01*
X76279Y-71845D01*
X76114Y-71845D01*
X76112Y-71846D01*
X76112Y-72043D01*
X76112Y-72046D01*
X76113Y-72048D01*
X76115Y-72050D01*
X76117Y-72051D01*
X76277Y-72051D01*
X76279Y-72049D01*
X76279Y-74295D01*
X76105Y-74295D01*
X76105Y-71305D01*
X78695Y-71305D01*
X78695Y-72995D01*
X78687Y-72995D01*
X78664Y-72879D01*
X78540Y-72623D01*
X78316Y-72428D01*
X78034Y-72334D01*
X77684Y-72334D01*
X77684Y-72995D01*
X77691Y-72995D01*
X77691Y-73185D01*
X77684Y-73185D01*
X77684Y-73846D01*
X78034Y-73846D01*
X78316Y-73752D01*
X78540Y-73557D01*
X78664Y-73301D01*
X78687Y-73185D01*
X78687Y-73185D01*
X78695Y-73185D01*
X78695Y-74295D01*
X78695Y-74295D01*
G37*
G54D57*
X78695Y-74295D02*
X78687Y-74295D01*
X77494Y-74295D01*
X77494Y-73846D01*
X77494Y-73185D01*
X77494Y-72995D01*
X77494Y-72334D01*
X77144Y-72334D01*
X76861Y-72428D01*
X76637Y-72623D01*
X76635Y-72626D01*
X76635Y-72043D01*
X76635Y-71456D01*
X76635Y-71453D01*
X76634Y-71451D01*
X76632Y-71449D01*
X76630Y-71448D01*
X76470Y-71449D01*
X76469Y-71450D01*
X76469Y-71655D01*
X76634Y-71655D01*
X76635Y-71653D01*
X76635Y-71456D01*
X76635Y-72043D01*
X76635Y-71846D01*
X76634Y-71845D01*
X76469Y-71845D01*
X76469Y-72049D01*
X76470Y-72051D01*
X76630Y-72051D01*
X76632Y-72050D01*
X76634Y-72048D01*
X76635Y-72046D01*
X76635Y-72043D01*
X76635Y-72626D01*
X76513Y-72879D01*
X76490Y-72995D01*
X77494Y-72995D01*
X77494Y-73185D01*
X76490Y-73185D01*
X76513Y-73301D01*
X76637Y-73557D01*
X76861Y-73752D01*
X77144Y-73846D01*
X77494Y-73846D01*
X77494Y-74295D01*
X76279Y-74295D01*
X76279Y-72049D01*
X76279Y-71845D01*
X76279Y-71655D01*
X76279Y-71450D01*
X76277Y-71449D01*
X76117Y-71448D01*
X76115Y-71449D01*
X76113Y-71451D01*
X76112Y-71453D01*
X76112Y-71456D01*
X76112Y-71653D01*
X76114Y-71655D01*
X76279Y-71655D01*
X76279Y-71845D01*
X76114Y-71845D01*
X76112Y-71846D01*
X76112Y-72043D01*
X76112Y-72046D01*
X76113Y-72048D01*
X76115Y-72050D01*
X76117Y-72051D01*
X76277Y-72051D01*
X76279Y-72049D01*
X76279Y-74295D01*
X76105Y-74295D01*
X76105Y-71305D01*
X78695Y-71305D01*
X78695Y-72995D01*
X78687Y-72995D01*
X78664Y-72879D01*
X78540Y-72623D01*
X78316Y-72428D01*
X78034Y-72334D01*
X77684Y-72334D01*
X77684Y-72995D01*
X77691Y-72995D01*
X77691Y-73185D01*
X77684Y-73185D01*
X77684Y-73846D01*
X78034Y-73846D01*
X78316Y-73752D01*
X78540Y-73557D01*
X78664Y-73301D01*
X78687Y-73185D01*
X78687Y-73185D01*
X78695Y-73185D01*
X78695Y-74295D01*
G54D10*
G36*
X75945Y-71247D02*
X75895Y-71297D01*
X75895Y-76295D01*
X75887Y-76295D01*
X75887Y-72043D01*
X75887Y-71456D01*
X75887Y-71453D01*
X75886Y-71451D01*
X75884Y-71449D01*
X75882Y-71448D01*
X75722Y-71449D01*
X75721Y-71450D01*
X75721Y-71655D01*
X75886Y-71655D01*
X75887Y-71653D01*
X75887Y-71456D01*
X75887Y-72043D01*
X75887Y-71846D01*
X75886Y-71845D01*
X75721Y-71845D01*
X75721Y-72049D01*
X75722Y-72051D01*
X75882Y-72051D01*
X75884Y-72050D01*
X75886Y-72048D01*
X75887Y-72046D01*
X75887Y-72043D01*
X75887Y-76295D01*
X75531Y-76295D01*
X75531Y-72049D01*
X75531Y-71845D01*
X75531Y-71655D01*
X75531Y-71450D01*
X75529Y-71449D01*
X75369Y-71448D01*
X75367Y-71449D01*
X75365Y-71451D01*
X75364Y-71453D01*
X75364Y-71456D01*
X75364Y-71653D01*
X75366Y-71655D01*
X75531Y-71655D01*
X75531Y-71845D01*
X75366Y-71845D01*
X75364Y-71846D01*
X75364Y-72043D01*
X75364Y-72046D01*
X75365Y-72048D01*
X75367Y-72050D01*
X75369Y-72051D01*
X75529Y-72051D01*
X75531Y-72049D01*
X75531Y-76295D01*
X74623Y-76295D01*
X74623Y-74821D01*
X74623Y-73875D01*
X74623Y-73872D01*
X74621Y-73871D01*
X74619Y-73870D01*
X74616Y-73870D01*
X74163Y-73870D01*
X74161Y-73871D01*
X74161Y-74253D01*
X74622Y-74253D01*
X74623Y-74251D01*
X74623Y-73875D01*
X74623Y-74821D01*
X74623Y-74444D01*
X74622Y-74443D01*
X74161Y-74443D01*
X74161Y-74824D01*
X74163Y-74826D01*
X74616Y-74826D01*
X74619Y-74826D01*
X74621Y-74825D01*
X74623Y-74823D01*
X74623Y-74821D01*
X74623Y-76295D01*
X74269Y-76295D01*
X74269Y-76241D01*
X74269Y-75806D01*
X74268Y-75804D01*
X74266Y-75802D01*
X74264Y-75801D01*
X74262Y-75801D01*
X74163Y-75801D01*
X74161Y-75803D01*
X74161Y-75929D01*
X74267Y-75929D01*
X74269Y-75927D01*
X74269Y-75806D01*
X74269Y-76241D01*
X74269Y-76120D01*
X74267Y-76119D01*
X74161Y-76119D01*
X74161Y-76245D01*
X74163Y-76246D01*
X74262Y-76246D01*
X74264Y-76246D01*
X74266Y-76245D01*
X74268Y-76244D01*
X74269Y-76241D01*
X74269Y-76295D01*
X73971Y-76295D01*
X73971Y-76245D01*
X73971Y-76119D01*
X73971Y-75929D01*
X73971Y-75803D01*
X73971Y-74824D01*
X73971Y-74443D01*
X73971Y-74253D01*
X73971Y-73871D01*
X73970Y-73870D01*
X73517Y-73870D01*
X73514Y-73870D01*
X73512Y-73871D01*
X73510Y-73872D01*
X73509Y-73875D01*
X73509Y-74251D01*
X73511Y-74253D01*
X73971Y-74253D01*
X73971Y-74443D01*
X73511Y-74443D01*
X73509Y-74444D01*
X73509Y-74821D01*
X73510Y-74823D01*
X73512Y-74825D01*
X73514Y-74826D01*
X73517Y-74826D01*
X73970Y-74826D01*
X73971Y-74824D01*
X73971Y-75803D01*
X73970Y-75801D01*
X73871Y-75801D01*
X73869Y-75801D01*
X73867Y-75802D01*
X73865Y-75804D01*
X73864Y-75806D01*
X73864Y-75927D01*
X73865Y-75929D01*
X73971Y-75929D01*
X73971Y-76119D01*
X73865Y-76119D01*
X73864Y-76120D01*
X73864Y-76241D01*
X73865Y-76244D01*
X73867Y-76245D01*
X73869Y-76246D01*
X73871Y-76246D01*
X73970Y-76246D01*
X73971Y-76245D01*
X73971Y-76295D01*
X73345Y-76295D01*
X73345Y-78310D01*
X71938Y-78310D01*
X71938Y-76461D01*
X71938Y-75755D01*
X71938Y-75753D01*
X71937Y-75750D01*
X71935Y-75749D01*
X71933Y-75748D01*
X71714Y-75748D01*
X71712Y-75749D01*
X71712Y-76013D01*
X71936Y-76013D01*
X71938Y-76011D01*
X71938Y-75755D01*
X71938Y-76461D01*
X71938Y-76204D01*
X71936Y-76203D01*
X71712Y-76203D01*
X71712Y-76466D01*
X71714Y-76468D01*
X71933Y-76468D01*
X71935Y-76467D01*
X71937Y-76465D01*
X71938Y-76463D01*
X71938Y-76461D01*
X71938Y-78310D01*
X71522Y-78310D01*
X71522Y-76466D01*
X71522Y-76203D01*
X71522Y-76013D01*
X71522Y-75749D01*
X71521Y-75748D01*
X71302Y-75748D01*
X71300Y-75749D01*
X71298Y-75750D01*
X71297Y-75753D01*
X71297Y-75755D01*
X71297Y-76011D01*
X71298Y-76013D01*
X71522Y-76013D01*
X71522Y-76203D01*
X71298Y-76203D01*
X71297Y-76204D01*
X71297Y-76461D01*
X71297Y-76463D01*
X71298Y-76465D01*
X71300Y-76467D01*
X71302Y-76468D01*
X71521Y-76468D01*
X71522Y-76466D01*
X71522Y-78310D01*
X68897Y-78310D01*
X39370Y-78310D01*
X36220Y-78310D01*
X27165Y-78310D01*
X27092Y-78310D01*
X27092Y-77023D01*
X26984Y-76760D01*
X26783Y-76559D01*
X26520Y-76450D01*
X26236Y-76450D01*
X25973Y-76558D01*
X25772Y-76759D01*
X25663Y-77022D01*
X25662Y-77306D01*
X25771Y-77569D01*
X25972Y-77771D01*
X26235Y-77880D01*
X26519Y-77880D01*
X26782Y-77771D01*
X26983Y-77570D01*
X27092Y-77308D01*
X27092Y-77023D01*
X27092Y-78310D01*
X25986Y-78310D01*
X25697Y-78253D01*
X25452Y-78089D01*
X25290Y-77847D01*
X25232Y-77555D01*
X25232Y-68505D01*
X29305Y-68505D01*
X29305Y-68558D01*
X29061Y-68558D01*
X29029Y-68571D01*
X29005Y-68595D01*
X28993Y-68627D01*
X28992Y-68660D01*
X28992Y-69604D01*
X29005Y-69636D01*
X29029Y-69660D01*
X29061Y-69672D01*
X29094Y-69673D01*
X30038Y-69673D01*
X30070Y-69660D01*
X30094Y-69636D01*
X30106Y-69604D01*
X30107Y-69571D01*
X30107Y-68627D01*
X30094Y-68595D01*
X30070Y-68571D01*
X30038Y-68559D01*
X30005Y-68558D01*
X29795Y-68558D01*
X29795Y-68505D01*
X37345Y-68505D01*
X37345Y-70232D01*
X37338Y-70266D01*
X37338Y-70678D01*
X37345Y-70712D01*
X37345Y-71435D01*
X37322Y-71435D01*
X37322Y-70764D01*
X37322Y-70567D01*
X37322Y-70377D01*
X37322Y-70180D01*
X37241Y-70113D01*
X37215Y-70098D01*
X37215Y-70377D01*
X37322Y-70377D01*
X37322Y-70567D01*
X37215Y-70567D01*
X37215Y-70846D01*
X37241Y-70831D01*
X37322Y-70764D01*
X37322Y-71435D01*
X37025Y-71435D01*
X37025Y-70846D01*
X37025Y-70567D01*
X37025Y-70377D01*
X37025Y-70098D01*
X36998Y-70113D01*
X36917Y-70180D01*
X36917Y-70377D01*
X37025Y-70377D01*
X37025Y-70567D01*
X36917Y-70567D01*
X36917Y-70764D01*
X36998Y-70831D01*
X37025Y-70846D01*
X37025Y-71435D01*
X36822Y-71435D01*
X36822Y-70764D01*
X36822Y-70567D01*
X36822Y-70377D01*
X36822Y-70180D01*
X36741Y-70113D01*
X36715Y-70098D01*
X36715Y-70377D01*
X36822Y-70377D01*
X36822Y-70567D01*
X36715Y-70567D01*
X36715Y-70846D01*
X36741Y-70831D01*
X36822Y-70764D01*
X36822Y-71435D01*
X36525Y-71435D01*
X36525Y-70846D01*
X36525Y-70567D01*
X36525Y-70377D01*
X36525Y-70098D01*
X36498Y-70113D01*
X36417Y-70180D01*
X36417Y-70377D01*
X36525Y-70377D01*
X36525Y-70567D01*
X36417Y-70567D01*
X36417Y-70764D01*
X36498Y-70831D01*
X36525Y-70846D01*
X36525Y-71435D01*
X36322Y-71435D01*
X36322Y-70764D01*
X36322Y-70567D01*
X36322Y-70377D01*
X36322Y-70180D01*
X36241Y-70113D01*
X36215Y-70098D01*
X36215Y-70377D01*
X36322Y-70377D01*
X36322Y-70567D01*
X36215Y-70567D01*
X36215Y-70846D01*
X36241Y-70831D01*
X36322Y-70764D01*
X36322Y-71435D01*
X36025Y-71435D01*
X36025Y-70846D01*
X36025Y-70567D01*
X36025Y-70377D01*
X36025Y-70098D01*
X35998Y-70113D01*
X35917Y-70180D01*
X35917Y-70377D01*
X36025Y-70377D01*
X36025Y-70567D01*
X35917Y-70567D01*
X35917Y-70764D01*
X35998Y-70831D01*
X36025Y-70846D01*
X36025Y-71435D01*
X35901Y-71435D01*
X35901Y-70678D01*
X35901Y-70266D01*
X35880Y-70158D01*
X35819Y-70066D01*
X35727Y-70005D01*
X35620Y-69984D01*
X35512Y-70005D01*
X35420Y-70066D01*
X35370Y-70142D01*
X35319Y-70066D01*
X35227Y-70005D01*
X35120Y-69984D01*
X35012Y-70005D01*
X34920Y-70066D01*
X34870Y-70142D01*
X34819Y-70066D01*
X34727Y-70005D01*
X34620Y-69984D01*
X34512Y-70005D01*
X34420Y-70066D01*
X34370Y-70142D01*
X34319Y-70066D01*
X34227Y-70005D01*
X34120Y-69984D01*
X34012Y-70005D01*
X33920Y-70066D01*
X33870Y-70142D01*
X33819Y-70066D01*
X33727Y-70005D01*
X33620Y-69984D01*
X33512Y-70005D01*
X33420Y-70066D01*
X33370Y-70142D01*
X33319Y-70066D01*
X33227Y-70005D01*
X33120Y-69984D01*
X33012Y-70005D01*
X32920Y-70066D01*
X32859Y-70158D01*
X32838Y-70266D01*
X32838Y-70678D01*
X32859Y-70786D01*
X32920Y-70877D01*
X33012Y-70939D01*
X33120Y-70960D01*
X33227Y-70939D01*
X33319Y-70877D01*
X33370Y-70802D01*
X33420Y-70877D01*
X33512Y-70939D01*
X33620Y-70960D01*
X33727Y-70939D01*
X33819Y-70877D01*
X33870Y-70802D01*
X33920Y-70877D01*
X34012Y-70939D01*
X34120Y-70960D01*
X34227Y-70939D01*
X34319Y-70877D01*
X34370Y-70802D01*
X34420Y-70877D01*
X34512Y-70939D01*
X34620Y-70960D01*
X34727Y-70939D01*
X34819Y-70877D01*
X34870Y-70802D01*
X34920Y-70877D01*
X35012Y-70939D01*
X35120Y-70960D01*
X35227Y-70939D01*
X35319Y-70877D01*
X35370Y-70802D01*
X35420Y-70877D01*
X35512Y-70939D01*
X35620Y-70960D01*
X35727Y-70939D01*
X35819Y-70877D01*
X35880Y-70786D01*
X35901Y-70678D01*
X35901Y-71435D01*
X32683Y-71435D01*
X32683Y-70235D01*
X32622Y-70088D01*
X32510Y-69976D01*
X32363Y-69915D01*
X32204Y-69914D01*
X32057Y-69975D01*
X31944Y-70088D01*
X31883Y-70235D01*
X31883Y-70394D01*
X31944Y-70541D01*
X32056Y-70653D01*
X32203Y-70714D01*
X32362Y-70714D01*
X32509Y-70654D01*
X32622Y-70541D01*
X32683Y-70394D01*
X32683Y-70235D01*
X32683Y-71435D01*
X30650Y-71435D01*
X30605Y-71443D01*
X30604Y-71445D01*
X30245Y-71445D01*
X30245Y-71825D01*
X30241Y-71843D01*
X30241Y-72645D01*
X30028Y-72645D01*
X30028Y-71557D01*
X30028Y-70610D01*
X30027Y-70608D01*
X30025Y-70606D01*
X30023Y-70606D01*
X30020Y-70605D01*
X29646Y-70606D01*
X29645Y-70607D01*
X29645Y-70989D01*
X30026Y-70989D01*
X30028Y-70987D01*
X30028Y-70610D01*
X30028Y-71557D01*
X30028Y-71180D01*
X30026Y-71179D01*
X29645Y-71179D01*
X29645Y-71560D01*
X29646Y-71562D01*
X30020Y-71562D01*
X30023Y-71561D01*
X30025Y-71561D01*
X30027Y-71559D01*
X30028Y-71557D01*
X30028Y-72645D01*
X29455Y-72645D01*
X29455Y-71560D01*
X29455Y-71179D01*
X29455Y-70989D01*
X29455Y-70607D01*
X29453Y-70606D01*
X29079Y-70605D01*
X29076Y-70606D01*
X29074Y-70606D01*
X29072Y-70608D01*
X29071Y-70610D01*
X29072Y-70987D01*
X29073Y-70989D01*
X29455Y-70989D01*
X29455Y-71179D01*
X29073Y-71179D01*
X29072Y-71180D01*
X29071Y-71557D01*
X29072Y-71559D01*
X29074Y-71561D01*
X29076Y-71561D01*
X29079Y-71562D01*
X29453Y-71562D01*
X29455Y-71560D01*
X29455Y-72645D01*
X27445Y-72645D01*
X27445Y-75105D01*
X28445Y-75105D01*
X28445Y-77055D01*
X67500Y-77055D01*
X71155Y-77055D01*
X71155Y-76599D01*
X71104Y-75595D01*
X69945Y-75595D01*
X69945Y-76045D01*
X68037Y-76045D01*
X68037Y-75977D01*
X68037Y-75738D01*
X68036Y-75736D01*
X68035Y-75735D01*
X68033Y-75734D01*
X68030Y-75734D01*
X67813Y-75734D01*
X67811Y-75735D01*
X67811Y-75799D01*
X68036Y-75799D01*
X68037Y-75797D01*
X68037Y-75738D01*
X68037Y-75977D01*
X68037Y-75918D01*
X68036Y-75917D01*
X67811Y-75917D01*
X67811Y-75980D01*
X67813Y-75982D01*
X68030Y-75982D01*
X68033Y-75982D01*
X68035Y-75981D01*
X68036Y-75979D01*
X68037Y-75977D01*
X68037Y-76045D01*
X67405Y-76045D01*
X67405Y-75982D01*
X67620Y-75982D01*
X67621Y-75980D01*
X67621Y-75917D01*
X67614Y-75917D01*
X67614Y-75799D01*
X67621Y-75799D01*
X67621Y-75735D01*
X67620Y-75734D01*
X67405Y-75734D01*
X67405Y-75655D01*
X69102Y-75655D01*
X69702Y-75055D01*
X72955Y-75055D01*
X72955Y-73305D01*
X75105Y-73305D01*
X75105Y-71300D01*
X75105Y-63051D01*
X75297Y-63051D01*
X75328Y-63038D01*
X75352Y-63014D01*
X75365Y-62983D01*
X75365Y-62949D01*
X75365Y-62516D01*
X75352Y-62485D01*
X75328Y-62461D01*
X75297Y-62448D01*
X75263Y-62448D01*
X75105Y-62448D01*
X75105Y-62241D01*
X75297Y-62049D01*
X75297Y-62049D01*
X75297Y-62049D01*
X75301Y-62043D01*
X75301Y-62043D01*
X75337Y-62043D01*
X75368Y-62030D01*
X75392Y-62006D01*
X75405Y-61975D01*
X75405Y-61941D01*
X75405Y-61390D01*
X75392Y-61359D01*
X75368Y-61335D01*
X75337Y-61322D01*
X75303Y-61322D01*
X75105Y-61322D01*
X75105Y-60403D01*
X75109Y-60404D01*
X75190Y-60405D01*
X75265Y-60373D01*
X75323Y-60316D01*
X75354Y-60240D01*
X75355Y-60159D01*
X75323Y-60084D01*
X75285Y-60046D01*
X75290Y-60046D01*
X75322Y-60033D01*
X75346Y-60009D01*
X75358Y-59977D01*
X75359Y-59944D01*
X75359Y-59472D01*
X75346Y-59440D01*
X75322Y-59416D01*
X75290Y-59404D01*
X75257Y-59403D01*
X75105Y-59403D01*
X75105Y-55295D01*
X73195Y-55295D01*
X73195Y-57095D01*
X73138Y-57095D01*
X73138Y-56876D01*
X73138Y-56485D01*
X73138Y-56483D01*
X73137Y-56481D01*
X73135Y-56479D01*
X73133Y-56478D01*
X73012Y-56478D01*
X73011Y-56480D01*
X73011Y-56586D01*
X73137Y-56586D01*
X73138Y-56584D01*
X73138Y-56485D01*
X73138Y-56876D01*
X73138Y-56777D01*
X73137Y-56776D01*
X73011Y-56776D01*
X73011Y-56882D01*
X73012Y-56883D01*
X73133Y-56883D01*
X73135Y-56882D01*
X73137Y-56881D01*
X73138Y-56878D01*
X73138Y-56876D01*
X73138Y-57095D01*
X72980Y-57095D01*
X72980Y-55955D01*
X72980Y-55406D01*
X72980Y-55404D01*
X72979Y-55402D01*
X72977Y-55400D01*
X72975Y-55399D01*
X72756Y-55399D01*
X72755Y-55401D01*
X72755Y-55586D01*
X72979Y-55586D01*
X72980Y-55584D01*
X72980Y-55406D01*
X72980Y-55955D01*
X72980Y-55777D01*
X72979Y-55776D01*
X72755Y-55776D01*
X72755Y-55961D01*
X72756Y-55962D01*
X72975Y-55962D01*
X72977Y-55961D01*
X72979Y-55960D01*
X72980Y-55957D01*
X72980Y-55955D01*
X72980Y-57095D01*
X72821Y-57095D01*
X72821Y-56882D01*
X72821Y-56776D01*
X72821Y-56586D01*
X72821Y-56480D01*
X72819Y-56478D01*
X72698Y-56478D01*
X72696Y-56479D01*
X72694Y-56481D01*
X72693Y-56483D01*
X72693Y-56485D01*
X72693Y-56584D01*
X72695Y-56586D01*
X72821Y-56586D01*
X72821Y-56776D01*
X72695Y-56776D01*
X72693Y-56777D01*
X72693Y-56876D01*
X72693Y-56878D01*
X72694Y-56881D01*
X72696Y-56882D01*
X72698Y-56883D01*
X72819Y-56883D01*
X72821Y-56882D01*
X72821Y-57095D01*
X72565Y-57095D01*
X72565Y-55961D01*
X72565Y-55776D01*
X72565Y-55586D01*
X72565Y-55401D01*
X72563Y-55399D01*
X72344Y-55399D01*
X72342Y-55400D01*
X72340Y-55402D01*
X72339Y-55404D01*
X72339Y-55406D01*
X72339Y-55584D01*
X72341Y-55586D01*
X72565Y-55586D01*
X72565Y-55776D01*
X72341Y-55776D01*
X72339Y-55777D01*
X72339Y-55955D01*
X72339Y-55957D01*
X72340Y-55960D01*
X72342Y-55961D01*
X72344Y-55962D01*
X72563Y-55962D01*
X72565Y-55961D01*
X72565Y-57095D01*
X72205Y-57095D01*
X72205Y-55795D01*
X71302Y-55795D01*
X71302Y-55614D01*
X71302Y-55459D01*
X71302Y-55457D01*
X71301Y-55455D01*
X71300Y-55453D01*
X71298Y-55452D01*
X71196Y-55452D01*
X71195Y-55454D01*
X71195Y-55498D01*
X71301Y-55498D01*
X71302Y-55496D01*
X71302Y-55459D01*
X71302Y-55614D01*
X71302Y-55578D01*
X71301Y-55576D01*
X71195Y-55576D01*
X71195Y-55620D01*
X71196Y-55622D01*
X71298Y-55622D01*
X71300Y-55621D01*
X71301Y-55619D01*
X71302Y-55617D01*
X71302Y-55614D01*
X71302Y-55795D01*
X71113Y-55795D01*
X71100Y-55792D01*
X71086Y-55795D01*
X71005Y-55795D01*
X71005Y-55620D01*
X71005Y-55576D01*
X71005Y-55498D01*
X71005Y-55454D01*
X71003Y-55452D01*
X70901Y-55452D01*
X70899Y-55453D01*
X70898Y-55455D01*
X70897Y-55457D01*
X70897Y-55459D01*
X70897Y-55496D01*
X70898Y-55498D01*
X71005Y-55498D01*
X71005Y-55576D01*
X70898Y-55576D01*
X70897Y-55578D01*
X70897Y-55614D01*
X70897Y-55617D01*
X70898Y-55619D01*
X70899Y-55621D01*
X70901Y-55622D01*
X71003Y-55622D01*
X71005Y-55620D01*
X71005Y-55795D01*
X70805Y-55795D01*
X70805Y-55255D01*
X70993Y-55255D01*
X71006Y-55263D01*
X71100Y-55282D01*
X71193Y-55263D01*
X71206Y-55255D01*
X71655Y-55255D01*
X71655Y-54805D01*
X75105Y-54805D01*
X75105Y-52045D01*
X73138Y-52045D01*
X73138Y-51376D01*
X73138Y-50985D01*
X73138Y-50983D01*
X73137Y-50981D01*
X73135Y-50979D01*
X73133Y-50978D01*
X73012Y-50978D01*
X73011Y-50980D01*
X73011Y-51086D01*
X73137Y-51086D01*
X73138Y-51084D01*
X73138Y-50985D01*
X73138Y-51376D01*
X73138Y-51277D01*
X73137Y-51276D01*
X73011Y-51276D01*
X73011Y-51382D01*
X73012Y-51383D01*
X73133Y-51383D01*
X73135Y-51382D01*
X73137Y-51381D01*
X73138Y-51378D01*
X73138Y-51376D01*
X73138Y-52045D01*
X72980Y-52045D01*
X72980Y-50455D01*
X72980Y-49906D01*
X72980Y-49904D01*
X72979Y-49902D01*
X72977Y-49900D01*
X72975Y-49899D01*
X72756Y-49899D01*
X72755Y-49901D01*
X72755Y-50086D01*
X72979Y-50086D01*
X72980Y-50084D01*
X72980Y-49906D01*
X72980Y-50455D01*
X72980Y-50277D01*
X72979Y-50276D01*
X72755Y-50276D01*
X72755Y-50461D01*
X72756Y-50462D01*
X72975Y-50462D01*
X72977Y-50461D01*
X72979Y-50460D01*
X72980Y-50457D01*
X72980Y-50455D01*
X72980Y-52045D01*
X72821Y-52045D01*
X72821Y-51382D01*
X72821Y-51276D01*
X72821Y-51086D01*
X72821Y-50980D01*
X72819Y-50978D01*
X72698Y-50978D01*
X72696Y-50979D01*
X72694Y-50981D01*
X72693Y-50983D01*
X72693Y-50985D01*
X72693Y-51084D01*
X72695Y-51086D01*
X72821Y-51086D01*
X72821Y-51276D01*
X72695Y-51276D01*
X72693Y-51277D01*
X72693Y-51376D01*
X72693Y-51378D01*
X72694Y-51381D01*
X72696Y-51382D01*
X72698Y-51383D01*
X72819Y-51383D01*
X72821Y-51382D01*
X72821Y-52045D01*
X72565Y-52045D01*
X72565Y-50461D01*
X72565Y-50276D01*
X72565Y-50086D01*
X72565Y-49901D01*
X72563Y-49899D01*
X72344Y-49899D01*
X72342Y-49900D01*
X72340Y-49902D01*
X72339Y-49904D01*
X72339Y-49906D01*
X72339Y-50084D01*
X72341Y-50086D01*
X72565Y-50086D01*
X72565Y-50276D01*
X72341Y-50276D01*
X72339Y-50277D01*
X72339Y-50455D01*
X72339Y-50457D01*
X72340Y-50460D01*
X72342Y-50461D01*
X72344Y-50462D01*
X72563Y-50462D01*
X72565Y-50461D01*
X72565Y-52045D01*
X72205Y-52045D01*
X72205Y-50295D01*
X71302Y-50295D01*
X71302Y-50114D01*
X71302Y-49959D01*
X71302Y-49957D01*
X71301Y-49955D01*
X71300Y-49953D01*
X71298Y-49952D01*
X71196Y-49952D01*
X71195Y-49954D01*
X71195Y-49998D01*
X71301Y-49998D01*
X71302Y-49996D01*
X71302Y-49959D01*
X71302Y-50114D01*
X71302Y-50078D01*
X71301Y-50076D01*
X71195Y-50076D01*
X71195Y-50120D01*
X71196Y-50122D01*
X71298Y-50122D01*
X71300Y-50121D01*
X71301Y-50119D01*
X71302Y-50117D01*
X71302Y-50114D01*
X71302Y-50295D01*
X71113Y-50295D01*
X71100Y-50292D01*
X71005Y-50292D01*
X71005Y-50120D01*
X71005Y-50076D01*
X71005Y-49998D01*
X71005Y-49954D01*
X71003Y-49952D01*
X70901Y-49952D01*
X70899Y-49953D01*
X70898Y-49955D01*
X70897Y-49957D01*
X70897Y-49959D01*
X70897Y-49996D01*
X70898Y-49998D01*
X71005Y-49998D01*
X71005Y-50076D01*
X70898Y-50076D01*
X70897Y-50078D01*
X70897Y-50114D01*
X70897Y-50117D01*
X70898Y-50119D01*
X70899Y-50121D01*
X70901Y-50122D01*
X71003Y-50122D01*
X71005Y-50120D01*
X71005Y-50292D01*
X70855Y-50292D01*
X70855Y-49755D01*
X70922Y-49755D01*
X70990Y-49800D01*
X71100Y-49822D01*
X71209Y-49800D01*
X71277Y-49755D01*
X73195Y-49755D01*
X73195Y-51505D01*
X73974Y-51505D01*
X74006Y-51526D01*
X74100Y-51545D01*
X74193Y-51526D01*
X74225Y-51505D01*
X75945Y-51505D01*
X75945Y-71247D01*
X75945Y-71247D01*
G37*
G54D57*
X75945Y-71247D02*
X75895Y-71297D01*
X75895Y-76295D01*
X75887Y-76295D01*
X75887Y-72043D01*
X75887Y-71456D01*
X75887Y-71453D01*
X75886Y-71451D01*
X75884Y-71449D01*
X75882Y-71448D01*
X75722Y-71449D01*
X75721Y-71450D01*
X75721Y-71655D01*
X75886Y-71655D01*
X75887Y-71653D01*
X75887Y-71456D01*
X75887Y-72043D01*
X75887Y-71846D01*
X75886Y-71845D01*
X75721Y-71845D01*
X75721Y-72049D01*
X75722Y-72051D01*
X75882Y-72051D01*
X75884Y-72050D01*
X75886Y-72048D01*
X75887Y-72046D01*
X75887Y-72043D01*
X75887Y-76295D01*
X75531Y-76295D01*
X75531Y-72049D01*
X75531Y-71845D01*
X75531Y-71655D01*
X75531Y-71450D01*
X75529Y-71449D01*
X75369Y-71448D01*
X75367Y-71449D01*
X75365Y-71451D01*
X75364Y-71453D01*
X75364Y-71456D01*
X75364Y-71653D01*
X75366Y-71655D01*
X75531Y-71655D01*
X75531Y-71845D01*
X75366Y-71845D01*
X75364Y-71846D01*
X75364Y-72043D01*
X75364Y-72046D01*
X75365Y-72048D01*
X75367Y-72050D01*
X75369Y-72051D01*
X75529Y-72051D01*
X75531Y-72049D01*
X75531Y-76295D01*
X74623Y-76295D01*
X74623Y-74821D01*
X74623Y-73875D01*
X74623Y-73872D01*
X74621Y-73871D01*
X74619Y-73870D01*
X74616Y-73870D01*
X74163Y-73870D01*
X74161Y-73871D01*
X74161Y-74253D01*
X74622Y-74253D01*
X74623Y-74251D01*
X74623Y-73875D01*
X74623Y-74821D01*
X74623Y-74444D01*
X74622Y-74443D01*
X74161Y-74443D01*
X74161Y-74824D01*
X74163Y-74826D01*
X74616Y-74826D01*
X74619Y-74826D01*
X74621Y-74825D01*
X74623Y-74823D01*
X74623Y-74821D01*
X74623Y-76295D01*
X74269Y-76295D01*
X74269Y-76241D01*
X74269Y-75806D01*
X74268Y-75804D01*
X74266Y-75802D01*
X74264Y-75801D01*
X74262Y-75801D01*
X74163Y-75801D01*
X74161Y-75803D01*
X74161Y-75929D01*
X74267Y-75929D01*
X74269Y-75927D01*
X74269Y-75806D01*
X74269Y-76241D01*
X74269Y-76120D01*
X74267Y-76119D01*
X74161Y-76119D01*
X74161Y-76245D01*
X74163Y-76246D01*
X74262Y-76246D01*
X74264Y-76246D01*
X74266Y-76245D01*
X74268Y-76244D01*
X74269Y-76241D01*
X74269Y-76295D01*
X73971Y-76295D01*
X73971Y-76245D01*
X73971Y-76119D01*
X73971Y-75929D01*
X73971Y-75803D01*
X73971Y-74824D01*
X73971Y-74443D01*
X73971Y-74253D01*
X73971Y-73871D01*
X73970Y-73870D01*
X73517Y-73870D01*
X73514Y-73870D01*
X73512Y-73871D01*
X73510Y-73872D01*
X73509Y-73875D01*
X73509Y-74251D01*
X73511Y-74253D01*
X73971Y-74253D01*
X73971Y-74443D01*
X73511Y-74443D01*
X73509Y-74444D01*
X73509Y-74821D01*
X73510Y-74823D01*
X73512Y-74825D01*
X73514Y-74826D01*
X73517Y-74826D01*
X73970Y-74826D01*
X73971Y-74824D01*
X73971Y-75803D01*
X73970Y-75801D01*
X73871Y-75801D01*
X73869Y-75801D01*
X73867Y-75802D01*
X73865Y-75804D01*
X73864Y-75806D01*
X73864Y-75927D01*
X73865Y-75929D01*
X73971Y-75929D01*
X73971Y-76119D01*
X73865Y-76119D01*
X73864Y-76120D01*
X73864Y-76241D01*
X73865Y-76244D01*
X73867Y-76245D01*
X73869Y-76246D01*
X73871Y-76246D01*
X73970Y-76246D01*
X73971Y-76245D01*
X73971Y-76295D01*
X73345Y-76295D01*
X73345Y-78310D01*
X71938Y-78310D01*
X71938Y-76461D01*
X71938Y-75755D01*
X71938Y-75753D01*
X71937Y-75750D01*
X71935Y-75749D01*
X71933Y-75748D01*
X71714Y-75748D01*
X71712Y-75749D01*
X71712Y-76013D01*
X71936Y-76013D01*
X71938Y-76011D01*
X71938Y-75755D01*
X71938Y-76461D01*
X71938Y-76204D01*
X71936Y-76203D01*
X71712Y-76203D01*
X71712Y-76466D01*
X71714Y-76468D01*
X71933Y-76468D01*
X71935Y-76467D01*
X71937Y-76465D01*
X71938Y-76463D01*
X71938Y-76461D01*
X71938Y-78310D01*
X71522Y-78310D01*
X71522Y-76466D01*
X71522Y-76203D01*
X71522Y-76013D01*
X71522Y-75749D01*
X71521Y-75748D01*
X71302Y-75748D01*
X71300Y-75749D01*
X71298Y-75750D01*
X71297Y-75753D01*
X71297Y-75755D01*
X71297Y-76011D01*
X71298Y-76013D01*
X71522Y-76013D01*
X71522Y-76203D01*
X71298Y-76203D01*
X71297Y-76204D01*
X71297Y-76461D01*
X71297Y-76463D01*
X71298Y-76465D01*
X71300Y-76467D01*
X71302Y-76468D01*
X71521Y-76468D01*
X71522Y-76466D01*
X71522Y-78310D01*
X68897Y-78310D01*
X39370Y-78310D01*
X36220Y-78310D01*
X27165Y-78310D01*
X27092Y-78310D01*
X27092Y-77023D01*
X26984Y-76760D01*
X26783Y-76559D01*
X26520Y-76450D01*
X26236Y-76450D01*
X25973Y-76558D01*
X25772Y-76759D01*
X25663Y-77022D01*
X25662Y-77306D01*
X25771Y-77569D01*
X25972Y-77771D01*
X26235Y-77880D01*
X26519Y-77880D01*
X26782Y-77771D01*
X26983Y-77570D01*
X27092Y-77308D01*
X27092Y-77023D01*
X27092Y-78310D01*
X25986Y-78310D01*
X25697Y-78253D01*
X25452Y-78089D01*
X25290Y-77847D01*
X25232Y-77555D01*
X25232Y-68505D01*
X29305Y-68505D01*
X29305Y-68558D01*
X29061Y-68558D01*
X29029Y-68571D01*
X29005Y-68595D01*
X28993Y-68627D01*
X28992Y-68660D01*
X28992Y-69604D01*
X29005Y-69636D01*
X29029Y-69660D01*
X29061Y-69672D01*
X29094Y-69673D01*
X30038Y-69673D01*
X30070Y-69660D01*
X30094Y-69636D01*
X30106Y-69604D01*
X30107Y-69571D01*
X30107Y-68627D01*
X30094Y-68595D01*
X30070Y-68571D01*
X30038Y-68559D01*
X30005Y-68558D01*
X29795Y-68558D01*
X29795Y-68505D01*
X37345Y-68505D01*
X37345Y-70232D01*
X37338Y-70266D01*
X37338Y-70678D01*
X37345Y-70712D01*
X37345Y-71435D01*
X37322Y-71435D01*
X37322Y-70764D01*
X37322Y-70567D01*
X37322Y-70377D01*
X37322Y-70180D01*
X37241Y-70113D01*
X37215Y-70098D01*
X37215Y-70377D01*
X37322Y-70377D01*
X37322Y-70567D01*
X37215Y-70567D01*
X37215Y-70846D01*
X37241Y-70831D01*
X37322Y-70764D01*
X37322Y-71435D01*
X37025Y-71435D01*
X37025Y-70846D01*
X37025Y-70567D01*
X37025Y-70377D01*
X37025Y-70098D01*
X36998Y-70113D01*
X36917Y-70180D01*
X36917Y-70377D01*
X37025Y-70377D01*
X37025Y-70567D01*
X36917Y-70567D01*
X36917Y-70764D01*
X36998Y-70831D01*
X37025Y-70846D01*
X37025Y-71435D01*
X36822Y-71435D01*
X36822Y-70764D01*
X36822Y-70567D01*
X36822Y-70377D01*
X36822Y-70180D01*
X36741Y-70113D01*
X36715Y-70098D01*
X36715Y-70377D01*
X36822Y-70377D01*
X36822Y-70567D01*
X36715Y-70567D01*
X36715Y-70846D01*
X36741Y-70831D01*
X36822Y-70764D01*
X36822Y-71435D01*
X36525Y-71435D01*
X36525Y-70846D01*
X36525Y-70567D01*
X36525Y-70377D01*
X36525Y-70098D01*
X36498Y-70113D01*
X36417Y-70180D01*
X36417Y-70377D01*
X36525Y-70377D01*
X36525Y-70567D01*
X36417Y-70567D01*
X36417Y-70764D01*
X36498Y-70831D01*
X36525Y-70846D01*
X36525Y-71435D01*
X36322Y-71435D01*
X36322Y-70764D01*
X36322Y-70567D01*
X36322Y-70377D01*
X36322Y-70180D01*
X36241Y-70113D01*
X36215Y-70098D01*
X36215Y-70377D01*
X36322Y-70377D01*
X36322Y-70567D01*
X36215Y-70567D01*
X36215Y-70846D01*
X36241Y-70831D01*
X36322Y-70764D01*
X36322Y-71435D01*
X36025Y-71435D01*
X36025Y-70846D01*
X36025Y-70567D01*
X36025Y-70377D01*
X36025Y-70098D01*
X35998Y-70113D01*
X35917Y-70180D01*
X35917Y-70377D01*
X36025Y-70377D01*
X36025Y-70567D01*
X35917Y-70567D01*
X35917Y-70764D01*
X35998Y-70831D01*
X36025Y-70846D01*
X36025Y-71435D01*
X35901Y-71435D01*
X35901Y-70678D01*
X35901Y-70266D01*
X35880Y-70158D01*
X35819Y-70066D01*
X35727Y-70005D01*
X35620Y-69984D01*
X35512Y-70005D01*
X35420Y-70066D01*
X35370Y-70142D01*
X35319Y-70066D01*
X35227Y-70005D01*
X35120Y-69984D01*
X35012Y-70005D01*
X34920Y-70066D01*
X34870Y-70142D01*
X34819Y-70066D01*
X34727Y-70005D01*
X34620Y-69984D01*
X34512Y-70005D01*
X34420Y-70066D01*
X34370Y-70142D01*
X34319Y-70066D01*
X34227Y-70005D01*
X34120Y-69984D01*
X34012Y-70005D01*
X33920Y-70066D01*
X33870Y-70142D01*
X33819Y-70066D01*
X33727Y-70005D01*
X33620Y-69984D01*
X33512Y-70005D01*
X33420Y-70066D01*
X33370Y-70142D01*
X33319Y-70066D01*
X33227Y-70005D01*
X33120Y-69984D01*
X33012Y-70005D01*
X32920Y-70066D01*
X32859Y-70158D01*
X32838Y-70266D01*
X32838Y-70678D01*
X32859Y-70786D01*
X32920Y-70877D01*
X33012Y-70939D01*
X33120Y-70960D01*
X33227Y-70939D01*
X33319Y-70877D01*
X33370Y-70802D01*
X33420Y-70877D01*
X33512Y-70939D01*
X33620Y-70960D01*
X33727Y-70939D01*
X33819Y-70877D01*
X33870Y-70802D01*
X33920Y-70877D01*
X34012Y-70939D01*
X34120Y-70960D01*
X34227Y-70939D01*
X34319Y-70877D01*
X34370Y-70802D01*
X34420Y-70877D01*
X34512Y-70939D01*
X34620Y-70960D01*
X34727Y-70939D01*
X34819Y-70877D01*
X34870Y-70802D01*
X34920Y-70877D01*
X35012Y-70939D01*
X35120Y-70960D01*
X35227Y-70939D01*
X35319Y-70877D01*
X35370Y-70802D01*
X35420Y-70877D01*
X35512Y-70939D01*
X35620Y-70960D01*
X35727Y-70939D01*
X35819Y-70877D01*
X35880Y-70786D01*
X35901Y-70678D01*
X35901Y-71435D01*
X32683Y-71435D01*
X32683Y-70235D01*
X32622Y-70088D01*
X32510Y-69976D01*
X32363Y-69915D01*
X32204Y-69914D01*
X32057Y-69975D01*
X31944Y-70088D01*
X31883Y-70235D01*
X31883Y-70394D01*
X31944Y-70541D01*
X32056Y-70653D01*
X32203Y-70714D01*
X32362Y-70714D01*
X32509Y-70654D01*
X32622Y-70541D01*
X32683Y-70394D01*
X32683Y-70235D01*
X32683Y-71435D01*
X30650Y-71435D01*
X30605Y-71443D01*
X30604Y-71445D01*
X30245Y-71445D01*
X30245Y-71825D01*
X30241Y-71843D01*
X30241Y-72645D01*
X30028Y-72645D01*
X30028Y-71557D01*
X30028Y-70610D01*
X30027Y-70608D01*
X30025Y-70606D01*
X30023Y-70606D01*
X30020Y-70605D01*
X29646Y-70606D01*
X29645Y-70607D01*
X29645Y-70989D01*
X30026Y-70989D01*
X30028Y-70987D01*
X30028Y-70610D01*
X30028Y-71557D01*
X30028Y-71180D01*
X30026Y-71179D01*
X29645Y-71179D01*
X29645Y-71560D01*
X29646Y-71562D01*
X30020Y-71562D01*
X30023Y-71561D01*
X30025Y-71561D01*
X30027Y-71559D01*
X30028Y-71557D01*
X30028Y-72645D01*
X29455Y-72645D01*
X29455Y-71560D01*
X29455Y-71179D01*
X29455Y-70989D01*
X29455Y-70607D01*
X29453Y-70606D01*
X29079Y-70605D01*
X29076Y-70606D01*
X29074Y-70606D01*
X29072Y-70608D01*
X29071Y-70610D01*
X29072Y-70987D01*
X29073Y-70989D01*
X29455Y-70989D01*
X29455Y-71179D01*
X29073Y-71179D01*
X29072Y-71180D01*
X29071Y-71557D01*
X29072Y-71559D01*
X29074Y-71561D01*
X29076Y-71561D01*
X29079Y-71562D01*
X29453Y-71562D01*
X29455Y-71560D01*
X29455Y-72645D01*
X27445Y-72645D01*
X27445Y-75105D01*
X28445Y-75105D01*
X28445Y-77055D01*
X67500Y-77055D01*
X71155Y-77055D01*
X71155Y-76599D01*
X71104Y-75595D01*
X69945Y-75595D01*
X69945Y-76045D01*
X68037Y-76045D01*
X68037Y-75977D01*
X68037Y-75738D01*
X68036Y-75736D01*
X68035Y-75735D01*
X68033Y-75734D01*
X68030Y-75734D01*
X67813Y-75734D01*
X67811Y-75735D01*
X67811Y-75799D01*
X68036Y-75799D01*
X68037Y-75797D01*
X68037Y-75738D01*
X68037Y-75977D01*
X68037Y-75918D01*
X68036Y-75917D01*
X67811Y-75917D01*
X67811Y-75980D01*
X67813Y-75982D01*
X68030Y-75982D01*
X68033Y-75982D01*
X68035Y-75981D01*
X68036Y-75979D01*
X68037Y-75977D01*
X68037Y-76045D01*
X67405Y-76045D01*
X67405Y-75982D01*
X67620Y-75982D01*
X67621Y-75980D01*
X67621Y-75917D01*
X67614Y-75917D01*
X67614Y-75799D01*
X67621Y-75799D01*
X67621Y-75735D01*
X67620Y-75734D01*
X67405Y-75734D01*
X67405Y-75655D01*
X69102Y-75655D01*
X69702Y-75055D01*
X72955Y-75055D01*
X72955Y-73305D01*
X75105Y-73305D01*
X75105Y-71300D01*
X75105Y-63051D01*
X75297Y-63051D01*
X75328Y-63038D01*
X75352Y-63014D01*
X75365Y-62983D01*
X75365Y-62949D01*
X75365Y-62516D01*
X75352Y-62485D01*
X75328Y-62461D01*
X75297Y-62448D01*
X75263Y-62448D01*
X75105Y-62448D01*
X75105Y-62241D01*
X75297Y-62049D01*
X75297Y-62049D01*
X75297Y-62049D01*
X75301Y-62043D01*
X75301Y-62043D01*
X75337Y-62043D01*
X75368Y-62030D01*
X75392Y-62006D01*
X75405Y-61975D01*
X75405Y-61941D01*
X75405Y-61390D01*
X75392Y-61359D01*
X75368Y-61335D01*
X75337Y-61322D01*
X75303Y-61322D01*
X75105Y-61322D01*
X75105Y-60403D01*
X75109Y-60404D01*
X75190Y-60405D01*
X75265Y-60373D01*
X75323Y-60316D01*
X75354Y-60240D01*
X75355Y-60159D01*
X75323Y-60084D01*
X75285Y-60046D01*
X75290Y-60046D01*
X75322Y-60033D01*
X75346Y-60009D01*
X75358Y-59977D01*
X75359Y-59944D01*
X75359Y-59472D01*
X75346Y-59440D01*
X75322Y-59416D01*
X75290Y-59404D01*
X75257Y-59403D01*
X75105Y-59403D01*
X75105Y-55295D01*
X73195Y-55295D01*
X73195Y-57095D01*
X73138Y-57095D01*
X73138Y-56876D01*
X73138Y-56485D01*
X73138Y-56483D01*
X73137Y-56481D01*
X73135Y-56479D01*
X73133Y-56478D01*
X73012Y-56478D01*
X73011Y-56480D01*
X73011Y-56586D01*
X73137Y-56586D01*
X73138Y-56584D01*
X73138Y-56485D01*
X73138Y-56876D01*
X73138Y-56777D01*
X73137Y-56776D01*
X73011Y-56776D01*
X73011Y-56882D01*
X73012Y-56883D01*
X73133Y-56883D01*
X73135Y-56882D01*
X73137Y-56881D01*
X73138Y-56878D01*
X73138Y-56876D01*
X73138Y-57095D01*
X72980Y-57095D01*
X72980Y-55955D01*
X72980Y-55406D01*
X72980Y-55404D01*
X72979Y-55402D01*
X72977Y-55400D01*
X72975Y-55399D01*
X72756Y-55399D01*
X72755Y-55401D01*
X72755Y-55586D01*
X72979Y-55586D01*
X72980Y-55584D01*
X72980Y-55406D01*
X72980Y-55955D01*
X72980Y-55777D01*
X72979Y-55776D01*
X72755Y-55776D01*
X72755Y-55961D01*
X72756Y-55962D01*
X72975Y-55962D01*
X72977Y-55961D01*
X72979Y-55960D01*
X72980Y-55957D01*
X72980Y-55955D01*
X72980Y-57095D01*
X72821Y-57095D01*
X72821Y-56882D01*
X72821Y-56776D01*
X72821Y-56586D01*
X72821Y-56480D01*
X72819Y-56478D01*
X72698Y-56478D01*
X72696Y-56479D01*
X72694Y-56481D01*
X72693Y-56483D01*
X72693Y-56485D01*
X72693Y-56584D01*
X72695Y-56586D01*
X72821Y-56586D01*
X72821Y-56776D01*
X72695Y-56776D01*
X72693Y-56777D01*
X72693Y-56876D01*
X72693Y-56878D01*
X72694Y-56881D01*
X72696Y-56882D01*
X72698Y-56883D01*
X72819Y-56883D01*
X72821Y-56882D01*
X72821Y-57095D01*
X72565Y-57095D01*
X72565Y-55961D01*
X72565Y-55776D01*
X72565Y-55586D01*
X72565Y-55401D01*
X72563Y-55399D01*
X72344Y-55399D01*
X72342Y-55400D01*
X72340Y-55402D01*
X72339Y-55404D01*
X72339Y-55406D01*
X72339Y-55584D01*
X72341Y-55586D01*
X72565Y-55586D01*
X72565Y-55776D01*
X72341Y-55776D01*
X72339Y-55777D01*
X72339Y-55955D01*
X72339Y-55957D01*
X72340Y-55960D01*
X72342Y-55961D01*
X72344Y-55962D01*
X72563Y-55962D01*
X72565Y-55961D01*
X72565Y-57095D01*
X72205Y-57095D01*
X72205Y-55795D01*
X71302Y-55795D01*
X71302Y-55614D01*
X71302Y-55459D01*
X71302Y-55457D01*
X71301Y-55455D01*
X71300Y-55453D01*
X71298Y-55452D01*
X71196Y-55452D01*
X71195Y-55454D01*
X71195Y-55498D01*
X71301Y-55498D01*
X71302Y-55496D01*
X71302Y-55459D01*
X71302Y-55614D01*
X71302Y-55578D01*
X71301Y-55576D01*
X71195Y-55576D01*
X71195Y-55620D01*
X71196Y-55622D01*
X71298Y-55622D01*
X71300Y-55621D01*
X71301Y-55619D01*
X71302Y-55617D01*
X71302Y-55614D01*
X71302Y-55795D01*
X71113Y-55795D01*
X71100Y-55792D01*
X71086Y-55795D01*
X71005Y-55795D01*
X71005Y-55620D01*
X71005Y-55576D01*
X71005Y-55498D01*
X71005Y-55454D01*
X71003Y-55452D01*
X70901Y-55452D01*
X70899Y-55453D01*
X70898Y-55455D01*
X70897Y-55457D01*
X70897Y-55459D01*
X70897Y-55496D01*
X70898Y-55498D01*
X71005Y-55498D01*
X71005Y-55576D01*
X70898Y-55576D01*
X70897Y-55578D01*
X70897Y-55614D01*
X70897Y-55617D01*
X70898Y-55619D01*
X70899Y-55621D01*
X70901Y-55622D01*
X71003Y-55622D01*
X71005Y-55620D01*
X71005Y-55795D01*
X70805Y-55795D01*
X70805Y-55255D01*
X70993Y-55255D01*
X71006Y-55263D01*
X71100Y-55282D01*
X71193Y-55263D01*
X71206Y-55255D01*
X71655Y-55255D01*
X71655Y-54805D01*
X75105Y-54805D01*
X75105Y-52045D01*
X73138Y-52045D01*
X73138Y-51376D01*
X73138Y-50985D01*
X73138Y-50983D01*
X73137Y-50981D01*
X73135Y-50979D01*
X73133Y-50978D01*
X73012Y-50978D01*
X73011Y-50980D01*
X73011Y-51086D01*
X73137Y-51086D01*
X73138Y-51084D01*
X73138Y-50985D01*
X73138Y-51376D01*
X73138Y-51277D01*
X73137Y-51276D01*
X73011Y-51276D01*
X73011Y-51382D01*
X73012Y-51383D01*
X73133Y-51383D01*
X73135Y-51382D01*
X73137Y-51381D01*
X73138Y-51378D01*
X73138Y-51376D01*
X73138Y-52045D01*
X72980Y-52045D01*
X72980Y-50455D01*
X72980Y-49906D01*
X72980Y-49904D01*
X72979Y-49902D01*
X72977Y-49900D01*
X72975Y-49899D01*
X72756Y-49899D01*
X72755Y-49901D01*
X72755Y-50086D01*
X72979Y-50086D01*
X72980Y-50084D01*
X72980Y-49906D01*
X72980Y-50455D01*
X72980Y-50277D01*
X72979Y-50276D01*
X72755Y-50276D01*
X72755Y-50461D01*
X72756Y-50462D01*
X72975Y-50462D01*
X72977Y-50461D01*
X72979Y-50460D01*
X72980Y-50457D01*
X72980Y-50455D01*
X72980Y-52045D01*
X72821Y-52045D01*
X72821Y-51382D01*
X72821Y-51276D01*
X72821Y-51086D01*
X72821Y-50980D01*
X72819Y-50978D01*
X72698Y-50978D01*
X72696Y-50979D01*
X72694Y-50981D01*
X72693Y-50983D01*
X72693Y-50985D01*
X72693Y-51084D01*
X72695Y-51086D01*
X72821Y-51086D01*
X72821Y-51276D01*
X72695Y-51276D01*
X72693Y-51277D01*
X72693Y-51376D01*
X72693Y-51378D01*
X72694Y-51381D01*
X72696Y-51382D01*
X72698Y-51383D01*
X72819Y-51383D01*
X72821Y-51382D01*
X72821Y-52045D01*
X72565Y-52045D01*
X72565Y-50461D01*
X72565Y-50276D01*
X72565Y-50086D01*
X72565Y-49901D01*
X72563Y-49899D01*
X72344Y-49899D01*
X72342Y-49900D01*
X72340Y-49902D01*
X72339Y-49904D01*
X72339Y-49906D01*
X72339Y-50084D01*
X72341Y-50086D01*
X72565Y-50086D01*
X72565Y-50276D01*
X72341Y-50276D01*
X72339Y-50277D01*
X72339Y-50455D01*
X72339Y-50457D01*
X72340Y-50460D01*
X72342Y-50461D01*
X72344Y-50462D01*
X72563Y-50462D01*
X72565Y-50461D01*
X72565Y-52045D01*
X72205Y-52045D01*
X72205Y-50295D01*
X71302Y-50295D01*
X71302Y-50114D01*
X71302Y-49959D01*
X71302Y-49957D01*
X71301Y-49955D01*
X71300Y-49953D01*
X71298Y-49952D01*
X71196Y-49952D01*
X71195Y-49954D01*
X71195Y-49998D01*
X71301Y-49998D01*
X71302Y-49996D01*
X71302Y-49959D01*
X71302Y-50114D01*
X71302Y-50078D01*
X71301Y-50076D01*
X71195Y-50076D01*
X71195Y-50120D01*
X71196Y-50122D01*
X71298Y-50122D01*
X71300Y-50121D01*
X71301Y-50119D01*
X71302Y-50117D01*
X71302Y-50114D01*
X71302Y-50295D01*
X71113Y-50295D01*
X71100Y-50292D01*
X71005Y-50292D01*
X71005Y-50120D01*
X71005Y-50076D01*
X71005Y-49998D01*
X71005Y-49954D01*
X71003Y-49952D01*
X70901Y-49952D01*
X70899Y-49953D01*
X70898Y-49955D01*
X70897Y-49957D01*
X70897Y-49959D01*
X70897Y-49996D01*
X70898Y-49998D01*
X71005Y-49998D01*
X71005Y-50076D01*
X70898Y-50076D01*
X70897Y-50078D01*
X70897Y-50114D01*
X70897Y-50117D01*
X70898Y-50119D01*
X70899Y-50121D01*
X70901Y-50122D01*
X71003Y-50122D01*
X71005Y-50120D01*
X71005Y-50292D01*
X70855Y-50292D01*
X70855Y-49755D01*
X70922Y-49755D01*
X70990Y-49800D01*
X71100Y-49822D01*
X71209Y-49800D01*
X71277Y-49755D01*
X73195Y-49755D01*
X73195Y-51505D01*
X73974Y-51505D01*
X74006Y-51526D01*
X74100Y-51545D01*
X74193Y-51526D01*
X74225Y-51505D01*
X75945Y-51505D01*
X75945Y-71247D01*
M02*
