G04 (created by PCBNEW (2013-03-19 BZR 4004)-stable) date 2015/1/4 17:53:05*
%MOIN*%
G04 Gerber Fmt 3.4, Leading zero omitted, Abs format*
%FSLAX34Y34*%
G01*
G70*
G90*
G04 APERTURE LIST*
%ADD10C,0*%
%ADD11R,0.0649606X0.00984252*%
%ADD12R,0.00984252X0.0649606*%
%ADD13R,0.05X0.025*%
%ADD14O,0.0393701X0.0787402*%
%ADD15R,0.11811X0.275591*%
%ADD16R,0.0511X0.059*%
%ADD17R,0.059X0.0511*%
%ADD18R,0.0708X0.0629*%
%ADD19O,0.15X0.22*%
%ADD20O,0.22X0.15*%
%ADD21R,0.0511811X0.00984252*%
%ADD22R,0.00984252X0.0511811*%
%ADD23R,0.015748X0.0393701*%
%ADD24R,0.0393701X0.015748*%
%ADD25C,0.19685*%
%ADD26C,0.06*%
%ADD27C,0.0593*%
%ADD28R,0.023622X0.0629921*%
%ADD29R,0.129921X0.0905512*%
%ADD30C,0.0433071*%
%ADD31R,0.0255906X0.019685*%
%ADD32R,0.019685X0.0255906*%
%ADD33R,0.0393X0.0551*%
%ADD34R,0.0433X0.0393*%
%ADD35R,0.0393X0.0433*%
%ADD36R,0.0472X0.0472*%
%ADD37C,0.0591*%
%ADD38R,0.0944X0.1102*%
%ADD39R,0.0944X0.0944*%
%ADD40R,0.0944X0.0629*%
%ADD41R,0.0551X0.0629*%
%ADD42R,0.0629X0.0551*%
%ADD43R,0.0669291X0.0669291*%
%ADD44C,0.074*%
%ADD45C,0.114173*%
%ADD46C,0.110236*%
%ADD47O,0.0645X0.129*%
%ADD48O,0.23622X0.433071*%
%ADD49C,0.0866142*%
%ADD50O,0.125984X0.0787402*%
%ADD51O,0.165354X0.0787402*%
%ADD52O,0.0590551X0.0984252*%
%ADD53C,0.0240157*%
%ADD54C,0.032*%
%ADD55C,0.024*%
%ADD56C,0.032*%
%ADD57C,0.016*%
%ADD58C,0.008*%
%ADD59C,0.006*%
%ADD60C,0.024*%
%ADD61C,0.04*%
%ADD62C,0.012*%
%ADD63C,0.01*%
%ADD64C,0.001*%
G04 APERTURE END LIST*
G54D10*
G54D11*
X68869Y-59737D03*
X68869Y-59540D03*
X68869Y-59343D03*
X68869Y-59146D03*
X68869Y-58950D03*
X68869Y-58753D03*
X68869Y-58556D03*
X68869Y-58359D03*
X68869Y-58162D03*
X68869Y-57965D03*
X68869Y-57768D03*
X68869Y-57572D03*
G54D12*
X68180Y-56883D03*
X67983Y-56883D03*
X67786Y-56883D03*
X67589Y-56883D03*
X67392Y-56883D03*
X67196Y-56883D03*
X66999Y-56883D03*
X66802Y-56883D03*
X66605Y-56883D03*
X66408Y-56883D03*
X66211Y-56883D03*
X66014Y-56883D03*
G54D11*
X65325Y-57572D03*
X65325Y-57768D03*
X65325Y-57965D03*
X65325Y-58162D03*
X65325Y-58359D03*
X65325Y-58556D03*
X65325Y-58753D03*
X65325Y-58950D03*
X65325Y-59146D03*
X65325Y-59343D03*
X65325Y-59540D03*
X65325Y-59737D03*
G54D12*
X66014Y-60426D03*
X66211Y-60426D03*
X66408Y-60426D03*
X66605Y-60426D03*
X66802Y-60426D03*
X66999Y-60426D03*
X67196Y-60426D03*
X67392Y-60426D03*
X67589Y-60426D03*
X67786Y-60426D03*
X67983Y-60426D03*
X68180Y-60426D03*
G54D13*
X68404Y-40726D03*
X68404Y-41226D03*
X68404Y-41726D03*
X68404Y-42226D03*
X71004Y-42226D03*
X71004Y-41726D03*
X71004Y-41226D03*
X71004Y-40726D03*
G54D14*
X45620Y-70472D03*
X45120Y-70472D03*
X44620Y-70472D03*
X44120Y-70472D03*
X43620Y-70472D03*
X43120Y-70472D03*
X42620Y-70472D03*
X40120Y-70472D03*
X39620Y-70472D03*
X39120Y-70472D03*
X38620Y-70472D03*
X38120Y-70472D03*
X37620Y-70472D03*
X37120Y-70472D03*
X36620Y-70472D03*
X36120Y-70472D03*
X35620Y-70472D03*
X35120Y-70472D03*
X34620Y-70472D03*
X34120Y-70472D03*
X33620Y-70472D03*
X33120Y-70472D03*
G54D15*
X76015Y-69143D03*
X77984Y-69143D03*
G54D16*
X49126Y-73500D03*
X49874Y-73500D03*
X59126Y-73500D03*
X59874Y-73500D03*
X53874Y-73500D03*
X53126Y-73500D03*
X63874Y-73500D03*
X63126Y-73500D03*
X53874Y-72500D03*
X53126Y-72500D03*
X63874Y-72500D03*
X63126Y-72500D03*
X74126Y-73500D03*
X74874Y-73500D03*
G54D17*
X66147Y-52755D03*
X66147Y-53503D03*
X68147Y-52755D03*
X68147Y-53503D03*
G54D18*
X77945Y-66439D03*
X77945Y-65337D03*
X77945Y-62837D03*
X77945Y-63939D03*
X73945Y-69939D03*
X73945Y-68837D03*
G54D19*
X78750Y-75680D03*
G54D20*
X76780Y-74500D03*
X76780Y-76860D03*
G54D21*
X63829Y-38846D03*
X63829Y-39043D03*
X63829Y-39240D03*
X63829Y-39437D03*
X63829Y-39633D03*
X63829Y-39830D03*
X63829Y-40027D03*
X63829Y-40224D03*
X63829Y-40421D03*
X63829Y-40618D03*
X63829Y-40814D03*
X63829Y-41011D03*
G54D22*
X64419Y-41602D03*
X64616Y-41602D03*
X64813Y-41602D03*
X65010Y-41602D03*
X65207Y-41602D03*
X65403Y-41602D03*
X65600Y-41602D03*
X65797Y-41602D03*
X65994Y-41602D03*
X66191Y-41602D03*
X66388Y-41602D03*
X66585Y-41602D03*
G54D21*
X67175Y-41011D03*
X67175Y-40814D03*
X67175Y-40618D03*
X67175Y-40421D03*
X67175Y-40224D03*
X67175Y-40027D03*
X67175Y-39830D03*
X67175Y-39633D03*
X67175Y-39437D03*
X67175Y-39240D03*
X67175Y-39043D03*
X67175Y-38846D03*
G54D22*
X66585Y-38255D03*
X66388Y-38255D03*
X66191Y-38255D03*
X65994Y-38255D03*
X65797Y-38255D03*
X65600Y-38255D03*
X65403Y-38255D03*
X65207Y-38255D03*
X65010Y-38255D03*
X64813Y-38255D03*
X64616Y-38255D03*
X64419Y-38255D03*
G54D23*
X69454Y-46909D03*
X69848Y-46909D03*
X69848Y-45846D03*
X69454Y-45846D03*
X69061Y-45846D03*
X69061Y-46909D03*
G54D24*
X60966Y-73450D03*
X60966Y-73843D03*
X62029Y-73843D03*
X62029Y-73450D03*
X62029Y-73056D03*
X60966Y-73056D03*
X50966Y-73500D03*
X50966Y-73893D03*
X52029Y-73893D03*
X52029Y-73500D03*
X52029Y-73106D03*
X50966Y-73106D03*
G54D25*
X81102Y-76771D03*
X26771Y-76771D03*
X81102Y-29921D03*
G54D26*
X57631Y-47001D03*
X56631Y-47001D03*
X57631Y-46001D03*
X56631Y-46001D03*
X57631Y-45001D03*
X56631Y-45001D03*
X57631Y-44001D03*
X56631Y-44001D03*
X57631Y-43001D03*
X56631Y-43001D03*
X57631Y-42001D03*
X56631Y-42001D03*
X57631Y-41001D03*
X56631Y-41001D03*
X57631Y-40001D03*
X56631Y-40001D03*
X57631Y-39001D03*
X56631Y-39001D03*
X57631Y-38001D03*
X56631Y-38001D03*
X57631Y-37001D03*
X56631Y-37001D03*
X57631Y-36001D03*
X56631Y-36001D03*
G54D27*
X57631Y-35001D03*
X56631Y-35001D03*
G54D26*
X73379Y-47001D03*
X72379Y-47001D03*
X73379Y-46001D03*
X72379Y-46001D03*
X73379Y-45001D03*
X72379Y-45001D03*
X73379Y-44001D03*
X72379Y-44001D03*
X73379Y-43001D03*
X72379Y-43001D03*
X73379Y-42001D03*
X72379Y-42001D03*
X73379Y-41001D03*
X72379Y-41001D03*
X73379Y-40001D03*
X72379Y-40001D03*
X73379Y-39001D03*
X72379Y-39001D03*
X73379Y-38001D03*
X72379Y-38001D03*
X73379Y-37001D03*
X72379Y-37001D03*
X73379Y-36001D03*
X72379Y-36001D03*
G54D27*
X73379Y-35001D03*
X72379Y-35001D03*
G54D28*
X73695Y-66038D03*
X74195Y-66038D03*
X74695Y-66038D03*
X75195Y-66038D03*
X75195Y-63738D03*
X74695Y-63738D03*
X74195Y-63738D03*
X73695Y-63738D03*
G54D29*
X74445Y-64888D03*
G54D30*
X59000Y-60250D03*
X59000Y-59250D03*
X59000Y-58250D03*
X59000Y-57250D03*
X59000Y-56250D03*
X59000Y-55250D03*
X59000Y-54250D03*
X59000Y-53250D03*
X59000Y-52250D03*
X59000Y-51250D03*
X56000Y-51250D03*
X56000Y-52250D03*
X56000Y-53250D03*
X56000Y-54250D03*
X56000Y-55250D03*
X56000Y-56250D03*
X56000Y-57250D03*
X56000Y-58250D03*
X56000Y-59250D03*
X56000Y-60250D03*
G54D31*
X71328Y-46299D03*
X71328Y-46653D03*
X70580Y-46653D03*
X70580Y-46299D03*
G54D32*
X61322Y-71625D03*
X61677Y-71625D03*
X61677Y-72374D03*
X61322Y-72374D03*
G54D31*
X63724Y-58722D03*
X63724Y-59077D03*
X62975Y-59077D03*
X62975Y-58722D03*
G54D32*
X51322Y-71625D03*
X51677Y-71625D03*
X51677Y-72374D03*
X51322Y-72374D03*
G54D33*
X67472Y-48293D03*
X66724Y-48293D03*
X67098Y-49159D03*
X62972Y-48293D03*
X62224Y-48293D03*
X62598Y-49159D03*
G54D34*
X74500Y-62334D03*
X74500Y-61666D03*
X67102Y-36095D03*
X67102Y-36763D03*
X66852Y-43595D03*
X66852Y-44263D03*
G54D35*
X66764Y-47226D03*
X67432Y-47226D03*
G54D34*
X68347Y-54720D03*
X68347Y-55388D03*
G54D35*
X67432Y-46226D03*
X66764Y-46226D03*
X62266Y-47250D03*
X62934Y-47250D03*
G54D34*
X60860Y-62795D03*
X60860Y-63463D03*
G54D35*
X76166Y-62500D03*
X76834Y-62500D03*
X76834Y-63500D03*
X76166Y-63500D03*
X60014Y-50226D03*
X60682Y-50226D03*
X64514Y-48976D03*
X65182Y-48976D03*
G54D34*
X68102Y-36095D03*
X68102Y-36763D03*
G54D35*
X76834Y-61500D03*
X76166Y-61500D03*
X68764Y-48976D03*
X69432Y-48976D03*
G54D34*
X63860Y-62795D03*
X63860Y-63463D03*
X66860Y-62795D03*
X66860Y-63463D03*
X68897Y-62795D03*
X68897Y-63463D03*
X65860Y-62795D03*
X65860Y-63463D03*
X61860Y-62795D03*
X61860Y-63463D03*
X64860Y-62795D03*
X64860Y-63463D03*
X62860Y-62795D03*
X62860Y-63463D03*
G54D35*
X62186Y-38929D03*
X61518Y-38929D03*
X62186Y-39929D03*
X61518Y-39929D03*
G54D34*
X67860Y-62795D03*
X67860Y-63463D03*
X64102Y-36095D03*
X64102Y-36763D03*
X63102Y-36095D03*
X63102Y-36763D03*
G54D35*
X62186Y-36929D03*
X61518Y-36929D03*
X70981Y-59629D03*
X70313Y-59629D03*
X70981Y-60379D03*
X70313Y-60379D03*
X70313Y-57629D03*
X70981Y-57629D03*
G54D36*
X66610Y-50251D03*
X67436Y-50251D03*
X62110Y-50251D03*
X62936Y-50251D03*
X69586Y-50201D03*
X68760Y-50201D03*
X64360Y-50251D03*
X65186Y-50251D03*
G54D37*
X59887Y-43726D03*
X61809Y-43726D03*
G54D38*
X76010Y-72000D03*
X78490Y-72000D03*
G54D39*
X29550Y-70784D03*
X29550Y-68816D03*
G54D40*
X64716Y-68539D03*
X64716Y-69719D03*
X63216Y-68539D03*
X63216Y-69719D03*
X59466Y-68539D03*
X59466Y-69719D03*
X68578Y-68518D03*
X68578Y-69698D03*
G54D41*
X61716Y-68539D03*
X61716Y-69719D03*
X67216Y-68539D03*
X67216Y-69719D03*
X63852Y-43339D03*
X63852Y-44519D03*
G54D42*
X62442Y-40929D03*
X61262Y-40929D03*
G54D41*
X68852Y-43339D03*
X68852Y-44519D03*
G54D17*
X60000Y-58124D03*
X60000Y-57376D03*
X60000Y-53124D03*
X60000Y-52376D03*
G54D35*
X68897Y-66213D03*
X68897Y-65545D03*
G54D34*
X70120Y-42976D03*
X70788Y-42976D03*
X62186Y-41929D03*
X61518Y-41929D03*
G54D35*
X67852Y-43595D03*
X67852Y-44263D03*
X68852Y-38345D03*
X68852Y-39013D03*
X65152Y-36763D03*
X65152Y-36095D03*
X64852Y-43595D03*
X64852Y-44263D03*
X65852Y-43595D03*
X65852Y-44263D03*
X66102Y-36763D03*
X66102Y-36095D03*
X66216Y-68795D03*
X66216Y-69463D03*
X60716Y-68795D03*
X60716Y-69463D03*
G54D34*
X49166Y-72500D03*
X49834Y-72500D03*
X59166Y-72600D03*
X59834Y-72600D03*
X70981Y-58879D03*
X70313Y-58879D03*
G54D35*
X66047Y-55388D03*
X66047Y-54720D03*
X67597Y-55388D03*
X67597Y-54720D03*
X66847Y-55388D03*
X66847Y-54720D03*
X67147Y-53463D03*
X67147Y-52795D03*
G54D34*
X70313Y-56879D03*
X70981Y-56879D03*
G54D35*
X65247Y-55388D03*
X65247Y-54720D03*
X59860Y-63463D03*
X59860Y-62795D03*
X65360Y-66213D03*
X65360Y-65545D03*
X59860Y-66213D03*
X59860Y-65545D03*
X63360Y-66213D03*
X63360Y-65545D03*
X75250Y-61666D03*
X75250Y-62334D03*
X73454Y-66887D03*
X73454Y-67555D03*
X73750Y-61666D03*
X73750Y-62334D03*
G54D34*
X74834Y-72000D03*
X74166Y-72000D03*
X62186Y-37929D03*
X61518Y-37929D03*
G54D43*
X76445Y-64930D03*
X76445Y-66583D03*
G54D23*
X62360Y-64779D03*
X61860Y-64779D03*
X61360Y-64779D03*
X60860Y-64779D03*
X62360Y-66979D03*
X61860Y-66979D03*
X61360Y-66979D03*
X60860Y-66979D03*
X67860Y-64779D03*
X67360Y-64779D03*
X66860Y-64779D03*
X66360Y-64779D03*
X67860Y-66979D03*
X67360Y-66979D03*
X66860Y-66979D03*
X66360Y-66979D03*
G54D31*
X63724Y-57322D03*
X63724Y-57677D03*
X62975Y-57677D03*
X62975Y-57322D03*
G54D44*
X82000Y-50250D03*
X81000Y-50250D03*
X80000Y-50250D03*
X82000Y-49250D03*
X81000Y-49250D03*
X80000Y-49250D03*
X82000Y-54250D03*
X81000Y-54250D03*
X80000Y-54250D03*
X82000Y-51250D03*
X81000Y-51250D03*
X80000Y-51250D03*
X82000Y-48250D03*
X81000Y-48250D03*
X80000Y-48250D03*
X82000Y-52250D03*
X81000Y-52250D03*
X80000Y-52250D03*
X82000Y-53250D03*
X81000Y-53250D03*
X80000Y-53250D03*
X82000Y-55250D03*
X81000Y-55250D03*
X80000Y-55250D03*
X82000Y-59250D03*
X81000Y-59250D03*
X80000Y-59250D03*
X82000Y-46250D03*
X81000Y-46250D03*
X80000Y-46250D03*
X82000Y-47250D03*
X81000Y-47250D03*
X80000Y-47250D03*
G54D27*
X61106Y-74856D03*
X61893Y-74856D03*
X62877Y-74856D03*
X60122Y-74856D03*
G54D45*
X58901Y-75919D03*
G54D46*
X64098Y-75919D03*
G54D27*
X51106Y-74856D03*
X51893Y-74856D03*
X52877Y-74856D03*
X50122Y-74856D03*
G54D45*
X48901Y-75919D03*
G54D46*
X54098Y-75919D03*
G54D47*
X76000Y-33000D03*
X77000Y-33000D03*
X78000Y-33000D03*
X79000Y-33000D03*
G54D25*
X26771Y-29921D03*
G54D48*
X53444Y-31889D03*
X29232Y-31988D03*
X53444Y-62401D03*
X29232Y-62401D03*
G54D44*
X82000Y-42250D03*
X81000Y-42250D03*
X80000Y-42250D03*
X79000Y-42250D03*
X82000Y-41250D03*
X81000Y-41250D03*
X80000Y-41250D03*
X79000Y-41250D03*
X82000Y-43250D03*
X81000Y-43250D03*
X80000Y-43250D03*
X79000Y-43250D03*
X79000Y-44250D03*
X80000Y-44250D03*
X81000Y-44250D03*
X82000Y-44250D03*
X82000Y-58250D03*
X81000Y-58250D03*
X80000Y-58250D03*
X82000Y-57250D03*
X81000Y-57250D03*
X80000Y-57250D03*
X82000Y-56250D03*
X81000Y-56250D03*
X80000Y-56250D03*
G54D49*
X71090Y-76009D03*
X69909Y-76009D03*
X71090Y-74750D03*
X69909Y-74750D03*
X71090Y-73490D03*
X69909Y-73490D03*
G54D50*
X69318Y-77112D03*
X71681Y-77112D03*
G54D51*
X71484Y-72387D03*
X69515Y-72387D03*
G54D27*
X77250Y-37000D03*
X77250Y-36000D03*
X78250Y-37000D03*
X78250Y-36000D03*
X79250Y-37000D03*
X79250Y-36000D03*
G54D37*
X72550Y-57539D03*
X72550Y-59461D03*
G54D27*
X40750Y-72181D03*
X41250Y-73181D03*
X42250Y-73181D03*
X42750Y-72181D03*
X41750Y-72181D03*
X39250Y-73181D03*
X39750Y-72181D03*
X40250Y-73181D03*
G54D52*
X44031Y-77521D03*
X37968Y-77521D03*
G54D27*
X32250Y-72181D03*
X32750Y-73181D03*
X33750Y-73181D03*
X34250Y-72181D03*
X33250Y-72181D03*
X30750Y-73181D03*
X31250Y-72181D03*
X31750Y-73181D03*
G54D52*
X35531Y-77521D03*
X29468Y-77521D03*
G54D53*
X70450Y-40681D03*
G54D54*
X67625Y-36100D03*
G54D53*
X68650Y-61400D03*
X68025Y-47100D03*
X67900Y-46250D03*
G54D54*
X59975Y-34850D03*
X61000Y-36925D03*
X64150Y-46000D03*
X62425Y-51450D03*
X64375Y-51575D03*
X78850Y-62837D03*
X57625Y-49050D03*
G54D55*
X67517Y-59659D03*
X66777Y-58219D03*
X65897Y-58479D03*
X68697Y-55979D03*
X68497Y-60729D03*
X64402Y-43339D03*
X64352Y-40629D03*
X64352Y-39529D03*
X66652Y-39829D03*
X68097Y-57639D03*
G54D54*
X44300Y-74550D03*
X44300Y-73850D03*
X43000Y-74500D03*
X43000Y-73850D03*
X42100Y-74500D03*
X42100Y-73850D03*
X41000Y-74500D03*
X41000Y-73850D03*
X39950Y-74550D03*
X40000Y-73900D03*
X38850Y-74550D03*
X38850Y-73900D03*
X37850Y-73950D03*
X37850Y-74550D03*
X37000Y-74500D03*
X36200Y-74450D03*
X36200Y-73850D03*
X36200Y-73000D03*
X36150Y-72100D03*
X37050Y-73800D03*
X37100Y-72900D03*
X37100Y-72050D03*
X36600Y-73800D03*
X36600Y-72950D03*
X36600Y-72100D03*
X36600Y-71250D03*
X37100Y-71250D03*
X36120Y-71270D03*
X45550Y-74250D03*
X46250Y-74250D03*
X46250Y-75250D03*
X45550Y-75250D03*
X46250Y-76250D03*
X45550Y-76300D03*
X46400Y-77200D03*
X45550Y-77200D03*
X45550Y-77950D03*
X46400Y-77950D03*
X47150Y-77900D03*
X47150Y-77100D03*
X48050Y-77100D03*
X48050Y-77950D03*
X49050Y-77750D03*
X49050Y-77000D03*
X50050Y-77050D03*
X50050Y-77750D03*
X51000Y-77750D03*
X51000Y-77050D03*
X52100Y-77050D03*
X52100Y-77750D03*
X53100Y-77750D03*
X53100Y-77050D03*
X54100Y-77050D03*
X54100Y-77750D03*
X55200Y-77750D03*
X55200Y-77050D03*
X56500Y-77050D03*
X56500Y-77750D03*
X57650Y-77750D03*
X57650Y-77050D03*
X58800Y-77050D03*
X58800Y-77750D03*
X59950Y-77750D03*
X59950Y-77050D03*
X61100Y-77050D03*
X61100Y-77750D03*
X62400Y-77750D03*
X62450Y-77050D03*
X63350Y-77100D03*
X63350Y-77750D03*
X64400Y-77800D03*
X64400Y-77100D03*
X65350Y-77100D03*
X65250Y-77800D03*
X66300Y-77850D03*
X67300Y-77850D03*
X67350Y-76750D03*
X66300Y-76750D03*
X67350Y-75900D03*
X66350Y-75900D03*
X67350Y-75000D03*
X66400Y-75000D03*
X67300Y-74250D03*
X66450Y-74250D03*
X67300Y-73450D03*
X66450Y-73450D03*
X67300Y-72750D03*
X66450Y-72750D03*
X67300Y-72050D03*
X66450Y-72050D03*
X66450Y-71250D03*
X67300Y-71250D03*
X67300Y-70650D03*
X68050Y-70650D03*
X68050Y-71250D03*
X68800Y-71250D03*
X68800Y-70650D03*
X69550Y-70650D03*
X69550Y-71250D03*
X70350Y-71250D03*
X70350Y-70650D03*
X70950Y-71250D03*
X70950Y-70725D03*
X70950Y-70225D03*
X70950Y-69775D03*
G54D55*
X71650Y-59275D03*
X71550Y-45400D03*
G54D54*
X73050Y-70900D03*
G54D55*
X74204Y-66871D03*
X63050Y-44750D03*
X63150Y-45950D03*
X63300Y-44450D03*
X63550Y-45950D03*
G54D53*
X62550Y-44150D03*
X61300Y-44350D03*
X61350Y-47250D03*
X62900Y-39750D03*
G54D55*
X68275Y-39375D03*
X68100Y-45500D03*
X43700Y-68000D03*
X42900Y-68000D03*
X44500Y-68000D03*
X45300Y-68000D03*
X77600Y-42450D03*
X78700Y-39000D03*
X77000Y-42450D03*
X78450Y-39250D03*
G54D53*
X63500Y-51880D03*
X62680Y-51880D03*
X57160Y-49020D03*
X77060Y-48880D03*
X77560Y-61840D03*
X65800Y-66980D03*
G54D54*
X62350Y-72050D03*
X68900Y-67750D03*
X59300Y-72050D03*
X52550Y-72000D03*
X52800Y-71000D03*
X57500Y-70950D03*
X59450Y-67750D03*
G54D55*
X61075Y-39925D03*
X62847Y-66979D03*
G54D54*
X75750Y-64950D03*
X74445Y-64888D03*
G54D53*
X66000Y-40700D03*
X57900Y-51850D03*
X71700Y-40450D03*
X67850Y-44750D03*
X68150Y-48050D03*
X66700Y-47800D03*
X62200Y-47800D03*
X53150Y-71950D03*
X53850Y-74100D03*
X71000Y-56400D03*
X73100Y-62500D03*
X76800Y-60850D03*
X73600Y-72000D03*
X70050Y-68550D03*
X60400Y-73000D03*
X63100Y-71450D03*
X63850Y-74100D03*
X49850Y-72000D03*
G54D55*
X66747Y-59829D03*
X65997Y-59629D03*
X69352Y-39029D03*
X66802Y-41879D03*
X63252Y-40729D03*
X66352Y-44263D03*
X63252Y-39429D03*
X65952Y-37679D03*
X64652Y-36095D03*
X61518Y-38429D03*
X61552Y-42379D03*
G54D54*
X77254Y-65337D03*
X73479Y-68794D03*
G54D55*
X68897Y-65179D03*
X68097Y-56279D03*
X65647Y-54720D03*
X69097Y-60079D03*
X70947Y-60879D03*
X70297Y-58479D03*
X61347Y-67479D03*
X59847Y-65079D03*
X59397Y-63479D03*
X67647Y-52755D03*
X65947Y-57879D03*
G54D53*
X63997Y-69719D03*
X59447Y-70279D03*
G54D54*
X77945Y-64621D03*
G54D55*
X66037Y-58979D03*
X68337Y-59739D03*
X40750Y-71000D03*
X41200Y-70550D03*
X31100Y-71250D03*
X30700Y-71350D03*
X66602Y-39229D03*
X67347Y-64279D03*
X67347Y-62879D03*
X65347Y-64629D03*
X65347Y-62879D03*
X63347Y-64229D03*
X62347Y-62829D03*
X64347Y-62879D03*
X62797Y-65429D03*
X63347Y-63879D03*
X63347Y-62879D03*
X70850Y-51300D03*
X65897Y-56129D03*
X70500Y-51575D03*
X66447Y-55979D03*
X67897Y-64279D03*
X66347Y-62829D03*
X68197Y-62979D03*
X66447Y-65204D03*
X76750Y-47925D03*
X71450Y-48150D03*
X62600Y-58700D03*
X76425Y-47825D03*
X62600Y-59050D03*
X71100Y-48000D03*
G54D56*
X70450Y-40681D02*
X70494Y-40726D01*
X70494Y-40726D02*
X71004Y-40726D01*
G54D57*
X68764Y-48976D02*
X68764Y-47414D01*
X68764Y-47414D02*
X68450Y-47100D01*
X68450Y-47100D02*
X68025Y-47100D01*
G54D56*
X67625Y-36100D02*
X67625Y-36095D01*
G54D57*
X68897Y-63463D02*
X68663Y-63463D01*
X68663Y-63463D02*
X68500Y-63300D01*
X68500Y-63300D02*
X68500Y-61550D01*
X68500Y-61550D02*
X68650Y-61400D01*
X67900Y-46250D02*
X67876Y-46226D01*
X67876Y-46226D02*
X67432Y-46226D01*
G54D56*
X59975Y-34850D02*
X59975Y-31975D01*
X59975Y-31975D02*
X60250Y-31700D01*
X60250Y-31700D02*
X76575Y-31700D01*
X76575Y-31700D02*
X77000Y-32125D01*
X77000Y-32125D02*
X77000Y-33000D01*
X61000Y-36925D02*
X61004Y-36929D01*
X61004Y-36929D02*
X61518Y-36929D01*
X64360Y-50251D02*
X64360Y-49935D01*
X64360Y-49935D02*
X64000Y-49575D01*
X64000Y-49575D02*
X64000Y-46150D01*
X64000Y-46150D02*
X64150Y-46000D01*
X62425Y-51450D02*
X60275Y-51450D01*
X60275Y-51450D02*
X60014Y-51189D01*
X60014Y-51189D02*
X60014Y-50226D01*
X64375Y-51575D02*
X64360Y-51560D01*
X64360Y-51560D02*
X64360Y-50251D01*
X57625Y-49050D02*
X57625Y-49900D01*
X57625Y-49900D02*
X57951Y-50226D01*
X57951Y-50226D02*
X60014Y-50226D01*
X56631Y-47001D02*
X57631Y-47001D01*
X81000Y-47250D02*
X81000Y-46250D01*
X81000Y-48250D02*
X81000Y-47250D01*
X81000Y-49250D02*
X81000Y-48250D01*
X81000Y-50250D02*
X81000Y-49250D01*
X81000Y-51250D02*
X81000Y-50250D01*
X81000Y-52250D02*
X81000Y-51250D01*
X81000Y-53250D02*
X81000Y-52250D01*
X81000Y-54250D02*
X81000Y-53250D01*
X81000Y-55250D02*
X81000Y-54250D01*
X81000Y-56250D02*
X81000Y-55250D01*
X81000Y-57250D02*
X81000Y-56250D01*
X81000Y-58250D02*
X81000Y-57250D01*
X81000Y-59250D02*
X81000Y-58250D01*
X77945Y-62837D02*
X78850Y-62837D01*
X78850Y-62837D02*
X80662Y-62837D01*
X80662Y-62837D02*
X81000Y-62500D01*
X81000Y-62500D02*
X81000Y-59250D01*
X77945Y-66439D02*
X78760Y-66439D01*
X78760Y-66439D02*
X79100Y-66100D01*
X79100Y-66100D02*
X79100Y-63075D01*
X79100Y-63075D02*
X78862Y-62837D01*
X78862Y-62837D02*
X77945Y-62837D01*
X77984Y-69143D02*
X77984Y-66478D01*
X77984Y-66478D02*
X77945Y-66439D01*
G54D58*
X65821Y-58556D02*
X65897Y-58479D01*
X65821Y-58556D02*
X65325Y-58556D01*
G54D56*
X71004Y-41726D02*
X70423Y-41726D01*
X70423Y-41726D02*
X70120Y-42029D01*
X70120Y-42976D02*
X70120Y-42029D01*
X70120Y-42029D02*
X70120Y-40979D01*
X70373Y-40726D02*
X71004Y-40726D01*
X70120Y-40979D02*
X70373Y-40726D01*
X77945Y-66439D02*
X77945Y-69105D01*
X77945Y-69105D02*
X77984Y-69143D01*
G54D58*
X68180Y-56883D02*
X68594Y-56883D01*
X68697Y-56779D02*
X68697Y-55979D01*
X68594Y-56883D02*
X68697Y-56779D01*
X65402Y-42029D02*
X65402Y-41603D01*
X65402Y-41603D02*
X65403Y-41602D01*
X65010Y-41602D02*
X65010Y-42037D01*
X65302Y-42129D02*
X65402Y-42029D01*
X65402Y-42029D02*
X65403Y-42027D01*
X65102Y-42129D02*
X65302Y-42129D01*
X65010Y-42037D02*
X65102Y-42129D01*
X67037Y-57639D02*
X66987Y-57639D01*
X68097Y-57639D02*
X67037Y-57639D01*
X66987Y-57639D02*
X66802Y-57825D01*
X68869Y-58162D02*
X69330Y-58162D01*
X69330Y-58162D02*
X69497Y-58329D01*
X69497Y-58329D02*
X69497Y-60529D01*
X69497Y-60529D02*
X69297Y-60729D01*
X69297Y-60729D02*
X68497Y-60729D01*
G54D59*
X68180Y-60426D02*
X68394Y-60426D01*
X68394Y-60426D02*
X68497Y-60529D01*
X68497Y-60529D02*
X68497Y-60729D01*
G54D56*
X64852Y-43595D02*
X65852Y-43595D01*
G54D58*
X65010Y-41602D02*
X65010Y-40787D01*
X64852Y-40629D02*
X64352Y-40629D01*
X65010Y-40787D02*
X64852Y-40629D01*
X63829Y-40618D02*
X64341Y-40618D01*
X64341Y-40618D02*
X64352Y-40629D01*
X63829Y-39633D02*
X64247Y-39633D01*
X64247Y-39633D02*
X64352Y-39529D01*
X67175Y-39830D02*
X66653Y-39830D01*
X66653Y-39830D02*
X66652Y-39829D01*
G54D60*
X67102Y-36095D02*
X67625Y-36095D01*
X67625Y-36095D02*
X68102Y-36095D01*
G54D58*
X66552Y-36479D02*
X66552Y-36629D01*
X66552Y-36479D02*
X66552Y-36179D01*
X66552Y-36179D02*
X66636Y-36095D01*
X66636Y-36095D02*
X67102Y-36095D01*
X66552Y-36629D02*
X66418Y-36763D01*
X66418Y-36763D02*
X66102Y-36763D01*
X65600Y-38255D02*
X65600Y-37080D01*
G54D59*
X65918Y-36763D02*
X66102Y-36763D01*
G54D58*
X65600Y-37080D02*
X65918Y-36763D01*
G54D56*
X63852Y-43339D02*
X64402Y-43339D01*
X64402Y-43339D02*
X64596Y-43339D01*
X64596Y-43339D02*
X64852Y-43595D01*
G54D59*
X65403Y-41602D02*
X65403Y-42027D01*
X65403Y-42027D02*
X65403Y-43380D01*
X65403Y-43380D02*
X65618Y-43595D01*
X65618Y-43595D02*
X65852Y-43595D01*
X65010Y-41602D02*
X65010Y-43437D01*
X65010Y-43437D02*
X64852Y-43595D01*
G54D57*
X61860Y-63463D02*
X60860Y-63463D01*
X62860Y-63463D02*
X61860Y-63463D01*
X63860Y-63463D02*
X62860Y-63463D01*
X63860Y-63463D02*
X64860Y-63463D01*
X65860Y-63463D02*
X64860Y-63463D01*
X66860Y-63463D02*
X65860Y-63463D01*
X67860Y-63463D02*
X66860Y-63463D01*
X68897Y-63463D02*
X67860Y-63463D01*
G54D59*
X66802Y-56883D02*
X66802Y-55934D01*
X66256Y-55388D02*
X66047Y-55388D01*
X66802Y-55934D02*
X66256Y-55388D01*
G54D58*
X66777Y-58219D02*
X66777Y-59459D01*
X66977Y-59659D02*
X67517Y-59659D01*
X66777Y-59459D02*
X66977Y-59659D01*
X68180Y-60426D02*
X68180Y-60042D01*
X68180Y-60042D02*
X67797Y-59659D01*
X67797Y-59659D02*
X67517Y-59659D01*
X66802Y-58195D02*
X66802Y-57825D01*
X66777Y-58219D02*
X66802Y-58195D01*
X66802Y-57825D02*
X66802Y-56883D01*
X68180Y-56883D02*
X68180Y-57557D01*
X68180Y-57557D02*
X68097Y-57639D01*
G54D56*
X77330Y-62837D02*
X76779Y-63388D01*
X77945Y-62837D02*
X77330Y-62837D01*
X30600Y-70800D02*
X29566Y-70800D01*
X29566Y-70800D02*
X29550Y-70784D01*
G54D58*
X43000Y-74500D02*
X44250Y-74500D01*
X44250Y-74500D02*
X44300Y-74550D01*
X42100Y-74500D02*
X43000Y-74500D01*
X41000Y-74500D02*
X42100Y-74500D01*
X39950Y-74550D02*
X40950Y-74550D01*
X40950Y-74550D02*
X41000Y-74500D01*
X38850Y-74550D02*
X39950Y-74550D01*
X37850Y-74550D02*
X38850Y-74550D01*
X37050Y-73800D02*
X37700Y-73800D01*
X37700Y-73800D02*
X37850Y-73950D01*
X36600Y-73800D02*
X36600Y-74100D01*
X36600Y-74100D02*
X37000Y-74500D01*
X36200Y-73000D02*
X36200Y-73850D01*
X36200Y-73000D02*
X36120Y-73000D01*
X36120Y-71270D02*
X36120Y-72070D01*
X36120Y-72070D02*
X36150Y-72100D01*
X37100Y-72050D02*
X37100Y-72900D01*
X36600Y-72950D02*
X36600Y-73800D01*
X36620Y-70472D02*
X36620Y-71229D01*
X36620Y-71229D02*
X36600Y-71250D01*
X36120Y-70472D02*
X36120Y-71270D01*
X46250Y-75250D02*
X46250Y-74250D01*
X45550Y-76300D02*
X45550Y-75250D01*
X45550Y-77200D02*
X45550Y-76300D01*
X45550Y-77950D02*
X45550Y-77200D01*
X47150Y-77900D02*
X46450Y-77900D01*
X46450Y-77900D02*
X46400Y-77950D01*
X48050Y-77100D02*
X47150Y-77100D01*
X49050Y-77750D02*
X48250Y-77750D01*
X48250Y-77750D02*
X48050Y-77950D01*
X50050Y-77050D02*
X49100Y-77050D01*
X49100Y-77050D02*
X49050Y-77000D01*
X51000Y-77750D02*
X50050Y-77750D01*
X52100Y-77050D02*
X51000Y-77050D01*
X53100Y-77750D02*
X52100Y-77750D01*
X54100Y-77050D02*
X53100Y-77050D01*
X55200Y-77750D02*
X54100Y-77750D01*
X56500Y-77050D02*
X55200Y-77050D01*
X57650Y-77750D02*
X56500Y-77750D01*
X58800Y-77050D02*
X57650Y-77050D01*
X59950Y-77750D02*
X58800Y-77750D01*
X61100Y-77050D02*
X59950Y-77050D01*
X62400Y-77750D02*
X61100Y-77750D01*
X63350Y-77100D02*
X62500Y-77100D01*
X62500Y-77100D02*
X62450Y-77050D01*
X64400Y-77800D02*
X63400Y-77800D01*
X63400Y-77800D02*
X63350Y-77750D01*
X64400Y-77100D02*
X64400Y-77800D01*
X65350Y-77100D02*
X64400Y-77100D01*
X65250Y-77800D02*
X65250Y-77200D01*
X65250Y-77200D02*
X65350Y-77100D01*
X66350Y-75900D02*
X66350Y-76700D01*
X66350Y-76700D02*
X66300Y-76750D01*
X67350Y-75000D02*
X67350Y-75900D01*
X67300Y-74250D02*
X67300Y-74950D01*
X67300Y-74950D02*
X67350Y-75000D01*
X66450Y-73450D02*
X66450Y-74250D01*
X67300Y-72750D02*
X67300Y-73450D01*
X66450Y-72750D02*
X66450Y-73450D01*
X67300Y-72050D02*
X67300Y-72750D01*
X67350Y-72700D02*
X67300Y-72750D01*
G54D56*
X70950Y-70725D02*
X70950Y-71250D01*
X70950Y-70225D02*
X70950Y-70725D01*
X73050Y-70900D02*
X72075Y-70900D01*
X72075Y-70900D02*
X70950Y-69775D01*
G54D57*
X71550Y-45400D02*
X69750Y-45400D01*
X69454Y-45846D02*
X69454Y-45695D01*
X69454Y-45695D02*
X69750Y-45400D01*
G54D56*
X74500Y-61666D02*
X74500Y-61325D01*
X74500Y-61325D02*
X74200Y-61025D01*
X74200Y-61025D02*
X72000Y-61025D01*
X72000Y-61025D02*
X71650Y-61375D01*
X71650Y-59950D02*
X71650Y-59275D01*
X71650Y-59275D02*
X71650Y-59125D01*
X71650Y-59125D02*
X71404Y-58879D01*
X71404Y-58879D02*
X70981Y-58879D01*
X70981Y-59629D02*
X71329Y-59629D01*
X71329Y-59629D02*
X71650Y-59950D01*
X71550Y-70900D02*
X71650Y-70800D01*
X71650Y-70800D02*
X71650Y-61375D01*
X71650Y-61375D02*
X71650Y-59950D01*
G54D61*
X62400Y-70150D02*
X62400Y-70425D01*
X62400Y-70425D02*
X62875Y-70900D01*
X66216Y-68795D02*
X65804Y-68795D01*
X65804Y-68795D02*
X65650Y-68950D01*
X65650Y-68950D02*
X65650Y-70625D01*
X65650Y-70625D02*
X65925Y-70900D01*
X61716Y-68539D02*
X62089Y-68539D01*
X62089Y-68539D02*
X62400Y-68850D01*
X62400Y-68850D02*
X62400Y-70150D01*
X62875Y-70900D02*
X65925Y-70900D01*
X65925Y-70900D02*
X67150Y-70900D01*
X73050Y-70900D02*
X71550Y-70900D01*
X71550Y-70900D02*
X67150Y-70900D01*
X67150Y-70900D02*
X66850Y-71200D01*
X66850Y-71200D02*
X66850Y-76950D01*
X66850Y-76950D02*
X66450Y-77350D01*
X66450Y-77350D02*
X46850Y-77350D01*
X46850Y-77350D02*
X46250Y-76750D01*
X46250Y-76750D02*
X46250Y-76250D01*
X46250Y-76250D02*
X46250Y-75250D01*
X46250Y-75250D02*
X46250Y-74550D01*
X46250Y-74550D02*
X45950Y-74250D01*
X45950Y-74250D02*
X45550Y-74250D01*
X45550Y-74250D02*
X36600Y-74250D01*
X36600Y-74250D02*
X36120Y-73770D01*
X36120Y-73770D02*
X36120Y-73000D01*
X36120Y-73000D02*
X36120Y-70472D01*
X73945Y-69939D02*
X73945Y-70654D01*
X73945Y-70654D02*
X73700Y-70900D01*
X73700Y-70900D02*
X73050Y-70900D01*
X73050Y-70900D02*
X73700Y-70900D01*
X73945Y-70654D02*
X73945Y-69939D01*
X73700Y-70900D02*
X73945Y-70654D01*
G54D56*
X36120Y-70472D02*
X36120Y-71029D01*
X29834Y-70800D02*
X29550Y-71084D01*
X31350Y-70800D02*
X30600Y-70800D01*
X30600Y-70800D02*
X29834Y-70800D01*
X31750Y-71200D02*
X31350Y-70800D01*
X35950Y-71200D02*
X31750Y-71200D01*
X36120Y-71029D02*
X35950Y-71200D01*
X74834Y-72000D02*
X74834Y-70284D01*
X74834Y-70284D02*
X74489Y-69939D01*
X74489Y-69939D02*
X73945Y-69939D01*
X74834Y-72000D02*
X76010Y-72000D01*
X74834Y-72000D02*
X74834Y-73460D01*
X74834Y-73460D02*
X74874Y-73500D01*
X74204Y-66871D02*
X74195Y-66871D01*
G54D61*
X61716Y-68539D02*
X60972Y-68539D01*
X60972Y-68539D02*
X60716Y-68795D01*
X61860Y-66979D02*
X61860Y-68396D01*
G54D56*
X61860Y-68396D02*
X61716Y-68539D01*
G54D61*
X67216Y-68539D02*
X66472Y-68539D01*
X66472Y-68539D02*
X66216Y-68795D01*
X67360Y-66979D02*
X67360Y-68396D01*
G54D56*
X67360Y-68396D02*
X67216Y-68539D01*
X74195Y-66038D02*
X74195Y-66871D01*
G54D58*
X78250Y-36000D02*
X78250Y-34550D01*
X78250Y-34550D02*
X77600Y-33900D01*
X77600Y-33900D02*
X74550Y-33900D01*
X58175Y-35125D02*
X58175Y-35400D01*
X58175Y-35400D02*
X58475Y-35700D01*
X58475Y-35700D02*
X60125Y-35700D01*
X60125Y-35700D02*
X60350Y-35475D01*
X60350Y-35475D02*
X60350Y-33825D01*
X60350Y-33825D02*
X60525Y-33650D01*
X55850Y-35450D02*
X55850Y-34725D01*
X55850Y-34725D02*
X56100Y-34475D01*
X56100Y-34475D02*
X57975Y-34475D01*
X57975Y-34475D02*
X58175Y-34675D01*
X58175Y-34675D02*
X58175Y-35125D01*
X56051Y-40001D02*
X56631Y-40001D01*
X55850Y-39800D02*
X56051Y-40001D01*
X55850Y-35450D02*
X55850Y-39800D01*
X74300Y-33650D02*
X60525Y-33650D01*
X74550Y-33900D02*
X74300Y-33650D01*
X77250Y-37000D02*
X76700Y-37000D01*
X76700Y-37000D02*
X76500Y-36800D01*
X76500Y-36800D02*
X76500Y-34850D01*
X76500Y-34850D02*
X76200Y-34550D01*
X76200Y-34550D02*
X74250Y-34550D01*
X74250Y-34550D02*
X74000Y-34300D01*
X58450Y-36500D02*
X60825Y-36500D01*
X60825Y-36500D02*
X60975Y-36350D01*
X60975Y-36350D02*
X60975Y-34500D01*
X60975Y-34500D02*
X61175Y-34300D01*
X56631Y-37001D02*
X57133Y-36500D01*
X76700Y-37000D02*
X77250Y-37000D01*
X61175Y-34300D02*
X74000Y-34300D01*
X58250Y-36500D02*
X58450Y-36500D01*
X57133Y-36500D02*
X58250Y-36500D01*
X77000Y-36500D02*
X76850Y-36500D01*
X76850Y-36500D02*
X76700Y-36350D01*
X76700Y-36350D02*
X76700Y-34550D01*
X76700Y-34550D02*
X76450Y-34300D01*
X76450Y-34300D02*
X74300Y-34300D01*
X74300Y-34300D02*
X74050Y-34050D01*
X57631Y-36001D02*
X57854Y-36225D01*
X57854Y-36225D02*
X60575Y-36225D01*
X60575Y-36225D02*
X60775Y-36025D01*
X60775Y-36025D02*
X60775Y-35800D01*
X60775Y-35800D02*
X60775Y-34225D01*
X60775Y-34225D02*
X60950Y-34050D01*
X78250Y-37000D02*
X78000Y-37000D01*
X74050Y-34050D02*
X60950Y-34050D01*
X77500Y-36500D02*
X77000Y-36500D01*
X78000Y-37000D02*
X77500Y-36500D01*
X77750Y-35950D02*
X77750Y-34550D01*
X77750Y-34550D02*
X77300Y-34100D01*
X77300Y-34100D02*
X74400Y-34100D01*
X74400Y-34100D02*
X74150Y-33850D01*
X60575Y-35250D02*
X60575Y-35825D01*
X60575Y-35825D02*
X60450Y-35950D01*
X60450Y-35950D02*
X58400Y-35950D01*
X58400Y-35950D02*
X57950Y-35500D01*
X60575Y-34200D02*
X60575Y-34050D01*
X60575Y-34050D02*
X60775Y-33850D01*
X60575Y-35250D02*
X60575Y-34200D01*
X79250Y-37000D02*
X79200Y-37000D01*
X57129Y-35500D02*
X56631Y-35001D01*
X57950Y-35500D02*
X57129Y-35500D01*
X74150Y-33850D02*
X60775Y-33850D01*
X77750Y-36250D02*
X77750Y-35950D01*
X78000Y-36500D02*
X77750Y-36250D01*
X78700Y-36500D02*
X78000Y-36500D01*
X79200Y-37000D02*
X78700Y-36500D01*
X73379Y-46001D02*
X79751Y-46001D01*
X79751Y-46001D02*
X80000Y-46250D01*
X73379Y-45001D02*
X72875Y-45506D01*
X72875Y-45506D02*
X72875Y-46250D01*
X72875Y-46250D02*
X73125Y-46500D01*
X73125Y-46500D02*
X79250Y-46500D01*
X79250Y-46500D02*
X80000Y-47250D01*
X55450Y-32250D02*
X55450Y-31400D01*
X55450Y-31400D02*
X55650Y-31200D01*
X55650Y-31200D02*
X78750Y-31200D01*
X78750Y-31200D02*
X79000Y-31450D01*
X79000Y-31450D02*
X79000Y-33000D01*
X57133Y-44500D02*
X57631Y-44001D01*
X55800Y-44500D02*
X57133Y-44500D01*
X55450Y-44150D02*
X55800Y-44500D01*
X55450Y-32250D02*
X55450Y-44150D01*
X74100Y-40001D02*
X74251Y-40001D01*
X74251Y-40001D02*
X74450Y-40200D01*
X73379Y-40001D02*
X74100Y-40001D01*
X74450Y-40200D02*
X74450Y-42500D01*
X74450Y-42500D02*
X74700Y-42750D01*
X74700Y-42750D02*
X79500Y-42750D01*
X79500Y-42750D02*
X80000Y-43250D01*
X73379Y-38001D02*
X75001Y-38001D01*
X75001Y-38001D02*
X75300Y-38300D01*
X75300Y-38300D02*
X75300Y-41200D01*
X75300Y-41200D02*
X75700Y-41600D01*
X75700Y-41600D02*
X77800Y-41600D01*
X77800Y-41600D02*
X77950Y-41750D01*
X78400Y-41750D02*
X77950Y-41750D01*
X79500Y-41750D02*
X80000Y-42250D01*
X78400Y-41750D02*
X79500Y-41750D01*
X73379Y-36001D02*
X75551Y-36001D01*
X75551Y-36001D02*
X75850Y-36300D01*
X75850Y-36300D02*
X75850Y-37300D01*
X79500Y-38250D02*
X80000Y-38750D01*
X76800Y-38250D02*
X79500Y-38250D01*
X75850Y-37300D02*
X76800Y-38250D01*
X80000Y-38750D02*
X80000Y-41250D01*
X79000Y-43250D02*
X74500Y-43250D01*
X74500Y-43250D02*
X74250Y-43000D01*
X74250Y-43000D02*
X74250Y-40800D01*
X74250Y-40800D02*
X73950Y-40500D01*
X72379Y-40001D02*
X72877Y-40500D01*
X72877Y-40500D02*
X73950Y-40500D01*
X73900Y-38500D02*
X74800Y-38500D01*
X74800Y-38500D02*
X75100Y-38800D01*
X75100Y-38800D02*
X75100Y-41550D01*
X75100Y-41550D02*
X75400Y-41850D01*
X75400Y-41850D02*
X77350Y-41850D01*
X77350Y-41850D02*
X77750Y-42250D01*
X72379Y-38001D02*
X72877Y-38500D01*
X77750Y-42250D02*
X79000Y-42250D01*
X72877Y-38500D02*
X73900Y-38500D01*
X74100Y-36500D02*
X75489Y-36500D01*
X75489Y-36500D02*
X75650Y-36660D01*
X75650Y-36660D02*
X75650Y-37400D01*
X78800Y-38700D02*
X76150Y-38700D01*
X76150Y-38700D02*
X75900Y-38450D01*
X75900Y-38450D02*
X75900Y-37650D01*
X75900Y-37650D02*
X75650Y-37400D01*
X73650Y-36500D02*
X74100Y-36500D01*
X78800Y-38700D02*
X79000Y-38900D01*
X72379Y-36001D02*
X72877Y-36500D01*
X79000Y-38900D02*
X79000Y-41250D01*
X72877Y-36500D02*
X73650Y-36500D01*
X68852Y-43339D02*
X68108Y-43339D01*
X68108Y-43339D02*
X67852Y-43595D01*
X66388Y-41602D02*
X66388Y-42188D01*
X67852Y-42852D02*
X67852Y-43595D01*
X67350Y-42350D02*
X67852Y-42852D01*
X66550Y-42350D02*
X67350Y-42350D01*
X66388Y-42188D02*
X66550Y-42350D01*
X63829Y-40421D02*
X62950Y-40421D01*
X62950Y-40421D02*
X62442Y-40929D01*
X62442Y-40929D02*
X62442Y-41673D01*
X62442Y-41673D02*
X62186Y-41929D01*
X68852Y-38345D02*
X67336Y-38345D01*
X67175Y-38505D02*
X67175Y-38846D01*
X67336Y-38345D02*
X67175Y-38505D01*
X66388Y-41602D02*
X66388Y-40464D01*
X66302Y-40379D02*
X64902Y-40379D01*
X66388Y-40464D02*
X66302Y-40379D01*
X67175Y-38846D02*
X65385Y-38846D01*
X65385Y-38846D02*
X65207Y-39024D01*
X65207Y-38255D02*
X65207Y-39024D01*
X65207Y-39024D02*
X65207Y-40074D01*
X65207Y-40074D02*
X64902Y-40379D01*
X64210Y-40421D02*
X63829Y-40421D01*
X64902Y-40379D02*
X64252Y-40379D01*
X64252Y-40379D02*
X64210Y-40421D01*
G54D59*
X68108Y-43339D02*
X67852Y-43595D01*
X65207Y-38255D02*
X65207Y-36817D01*
X65207Y-36817D02*
X65152Y-36763D01*
G54D58*
X63050Y-44750D02*
X63050Y-44600D01*
X62975Y-57322D02*
X62975Y-51174D01*
X62975Y-51174D02*
X63500Y-50650D01*
X63500Y-50650D02*
X63500Y-46300D01*
X63500Y-46300D02*
X63150Y-45950D01*
X63950Y-42100D02*
X63300Y-42100D01*
X63300Y-42100D02*
X63050Y-42350D01*
X63050Y-42350D02*
X63050Y-44600D01*
X63050Y-44600D02*
X63050Y-44650D01*
X64616Y-41602D02*
X64616Y-41933D01*
X64616Y-41933D02*
X64450Y-42100D01*
X64450Y-42100D02*
X63950Y-42100D01*
X63050Y-44650D02*
X63050Y-44700D01*
X63300Y-44450D02*
X63300Y-42400D01*
X63300Y-42400D02*
X63400Y-42300D01*
X63550Y-45950D02*
X63700Y-46100D01*
X63700Y-46100D02*
X63700Y-50750D01*
X63700Y-50750D02*
X63250Y-51200D01*
X63250Y-51200D02*
X63250Y-57550D01*
X63250Y-57550D02*
X63122Y-57677D01*
X63122Y-57677D02*
X62975Y-57677D01*
X64813Y-41602D02*
X64813Y-42036D01*
X64813Y-42036D02*
X64550Y-42300D01*
X64550Y-42300D02*
X63400Y-42300D01*
X63400Y-42300D02*
X63300Y-42400D01*
X67175Y-40027D02*
X69077Y-40027D01*
X69023Y-42226D02*
X68404Y-42226D01*
X69250Y-42000D02*
X69023Y-42226D01*
X69250Y-40200D02*
X69250Y-42000D01*
X69077Y-40027D02*
X69250Y-40200D01*
X67175Y-40224D02*
X68924Y-40224D01*
X68923Y-41726D02*
X68404Y-41726D01*
X69060Y-41589D02*
X68923Y-41726D01*
X69060Y-40360D02*
X69060Y-41589D01*
X68924Y-40224D02*
X69060Y-40360D01*
X67175Y-40421D02*
X68771Y-40421D01*
X68723Y-41226D02*
X68404Y-41226D01*
X68900Y-41050D02*
X68723Y-41226D01*
X68900Y-40550D02*
X68900Y-41050D01*
X68771Y-40421D02*
X68900Y-40550D01*
X67175Y-40618D02*
X68296Y-40618D01*
X68296Y-40618D02*
X68404Y-40726D01*
X62550Y-44150D02*
X62350Y-44350D01*
X62350Y-44350D02*
X61300Y-44350D01*
X61350Y-47250D02*
X62266Y-47250D01*
X63829Y-39830D02*
X62980Y-39830D01*
X62980Y-39830D02*
X62900Y-39750D01*
X68275Y-39375D02*
X68212Y-39437D01*
X68212Y-39437D02*
X67175Y-39437D01*
X68000Y-45500D02*
X68100Y-45500D01*
X64514Y-48976D02*
X64514Y-46010D01*
X64514Y-46010D02*
X64675Y-45850D01*
X64675Y-45850D02*
X67650Y-45850D01*
X67650Y-45850D02*
X68000Y-45500D01*
X68850Y-45450D02*
X69375Y-45450D01*
X69375Y-45450D02*
X69700Y-45125D01*
X69700Y-45125D02*
X69700Y-44925D01*
X67850Y-46750D02*
X68150Y-46750D01*
X68150Y-46750D02*
X68275Y-46625D01*
X68275Y-46625D02*
X68275Y-45700D01*
X68275Y-45700D02*
X68525Y-45450D01*
X69583Y-39633D02*
X69283Y-39633D01*
X69700Y-39750D02*
X69583Y-39633D01*
X69700Y-44925D02*
X69700Y-39750D01*
X68525Y-45450D02*
X68850Y-45450D01*
X67175Y-39633D02*
X69283Y-39633D01*
X66764Y-46885D02*
X66764Y-47226D01*
X66900Y-46750D02*
X66764Y-46885D01*
X67850Y-46750D02*
X66900Y-46750D01*
X62186Y-36929D02*
X62186Y-37929D01*
X63829Y-40027D02*
X62777Y-40027D01*
X62529Y-37929D02*
X62186Y-37929D01*
X62600Y-38000D02*
X62529Y-37929D01*
X62600Y-39850D02*
X62600Y-38000D01*
X62777Y-40027D02*
X62600Y-39850D01*
X57950Y-48300D02*
X58450Y-48300D01*
X67427Y-44650D02*
X67427Y-42979D01*
X66191Y-41602D02*
X66191Y-42229D01*
X66191Y-42418D02*
X66302Y-42529D01*
X66302Y-42529D02*
X67302Y-42529D01*
X67302Y-42529D02*
X67427Y-42654D01*
X67427Y-42654D02*
X67427Y-42979D01*
X66191Y-42229D02*
X66191Y-42418D01*
X67427Y-44872D02*
X67050Y-45250D01*
X67050Y-45250D02*
X59450Y-45250D01*
X59450Y-45250D02*
X58650Y-46050D01*
X58650Y-46050D02*
X58650Y-47850D01*
X67427Y-44650D02*
X67427Y-44872D01*
X43700Y-68000D02*
X43700Y-48800D01*
X43700Y-48800D02*
X44200Y-48300D01*
X44200Y-48300D02*
X57950Y-48300D01*
X58650Y-48100D02*
X58650Y-47850D01*
X58450Y-48300D02*
X58650Y-48100D01*
X58450Y-47250D02*
X58450Y-47800D01*
X42900Y-48750D02*
X42900Y-68000D01*
X43550Y-48100D02*
X42900Y-48750D01*
X58150Y-48100D02*
X43550Y-48100D01*
X58450Y-47800D02*
X58150Y-48100D01*
X66900Y-45056D02*
X59343Y-45056D01*
X58450Y-45950D02*
X58450Y-47250D01*
X59343Y-45056D02*
X58450Y-45950D01*
X67227Y-43204D02*
X67227Y-42904D01*
X66202Y-42729D02*
X65994Y-42521D01*
X67052Y-42729D02*
X66202Y-42729D01*
X67227Y-42904D02*
X67052Y-42729D01*
X67227Y-43204D02*
X67227Y-44729D01*
X67227Y-44729D02*
X66900Y-45056D01*
X66900Y-45056D02*
X66927Y-45029D01*
X65994Y-41602D02*
X65994Y-42521D01*
X68375Y-45050D02*
X69200Y-45050D01*
X69200Y-45050D02*
X69300Y-44950D01*
X58850Y-47500D02*
X58850Y-48250D01*
X67350Y-45450D02*
X59600Y-45450D01*
X59600Y-45450D02*
X58850Y-46200D01*
X58850Y-46200D02*
X58850Y-47500D01*
X67175Y-41011D02*
X67175Y-41925D01*
X67750Y-45050D02*
X67450Y-45350D01*
X69200Y-45050D02*
X68375Y-45050D01*
X68375Y-45050D02*
X67750Y-45050D01*
X69300Y-44950D02*
X69200Y-45050D01*
X69300Y-42950D02*
X69300Y-44950D01*
X69200Y-42850D02*
X69300Y-42950D01*
X68100Y-42850D02*
X69200Y-42850D01*
X67175Y-41925D02*
X68100Y-42850D01*
X67450Y-45350D02*
X67350Y-45450D01*
X44500Y-49250D02*
X44500Y-68000D01*
X45250Y-48500D02*
X44500Y-49250D01*
X58600Y-48500D02*
X45250Y-48500D01*
X58850Y-48250D02*
X58600Y-48500D01*
X59050Y-48400D02*
X59050Y-46500D01*
X58750Y-48700D02*
X59050Y-48400D01*
X45850Y-48700D02*
X58750Y-48700D01*
X45300Y-49250D02*
X45850Y-48700D01*
X45300Y-68000D02*
X45300Y-49250D01*
X67650Y-45500D02*
X67500Y-45650D01*
X67564Y-40814D02*
X67700Y-40950D01*
X67700Y-40950D02*
X67700Y-42200D01*
X67700Y-42200D02*
X68100Y-42600D01*
X68100Y-42600D02*
X69250Y-42600D01*
X69250Y-42600D02*
X69500Y-42850D01*
X69500Y-42850D02*
X69500Y-45050D01*
X69500Y-45050D02*
X69300Y-45250D01*
X69300Y-45250D02*
X67900Y-45250D01*
X67900Y-45250D02*
X67650Y-45500D01*
X67175Y-40814D02*
X67564Y-40814D01*
X59050Y-46310D02*
X59050Y-46500D01*
X59050Y-46500D02*
X59050Y-46950D01*
X59710Y-45650D02*
X59050Y-46310D01*
X67500Y-45650D02*
X59710Y-45650D01*
X62186Y-38929D02*
X62186Y-39929D01*
X63829Y-40224D02*
X62481Y-40224D01*
X62481Y-40224D02*
X62186Y-39929D01*
X59887Y-43726D02*
X59887Y-43012D01*
X59887Y-43012D02*
X60200Y-42700D01*
X60200Y-42700D02*
X62500Y-42700D01*
X62500Y-42700D02*
X62650Y-42550D01*
X62650Y-42550D02*
X62650Y-41600D01*
X62650Y-41600D02*
X63238Y-41011D01*
X63829Y-41011D02*
X63238Y-41011D01*
X63600Y-41602D02*
X63147Y-41602D01*
X63147Y-41602D02*
X62850Y-41900D01*
X62850Y-41900D02*
X62850Y-42700D01*
X62850Y-42700D02*
X62650Y-42900D01*
X62650Y-42900D02*
X62000Y-42900D01*
X62000Y-42900D02*
X61809Y-43090D01*
X61809Y-43090D02*
X61809Y-43726D01*
X63600Y-41602D02*
X64419Y-41602D01*
X78000Y-33000D02*
X78000Y-31550D01*
X78000Y-31550D02*
X77825Y-31375D01*
X77825Y-31375D02*
X55850Y-31375D01*
X55850Y-31375D02*
X55650Y-31575D01*
X55650Y-31575D02*
X55650Y-32250D01*
X55650Y-32250D02*
X55650Y-33950D01*
X56631Y-44001D02*
X56101Y-44001D01*
X55650Y-43550D02*
X55650Y-33950D01*
X56101Y-44001D02*
X55650Y-43550D01*
X77600Y-42450D02*
X77300Y-42150D01*
X77300Y-42150D02*
X75200Y-42150D01*
X75200Y-42150D02*
X74850Y-41800D01*
X74850Y-41800D02*
X74850Y-39250D01*
X74850Y-39250D02*
X74601Y-39001D01*
X73379Y-39001D02*
X74601Y-39001D01*
X74900Y-37001D02*
X75301Y-37001D01*
X75301Y-37001D02*
X75450Y-37150D01*
X75450Y-37150D02*
X75450Y-37500D01*
X78700Y-39000D02*
X75900Y-39000D01*
X75900Y-39000D02*
X75700Y-38800D01*
X75700Y-38800D02*
X75700Y-37750D01*
X75700Y-37750D02*
X75450Y-37500D01*
X73379Y-37001D02*
X74900Y-37001D01*
X77150Y-37750D02*
X76950Y-37750D01*
X76950Y-37750D02*
X76250Y-37050D01*
X76250Y-37050D02*
X76250Y-35100D01*
X76250Y-35100D02*
X75900Y-34750D01*
X75900Y-34750D02*
X73950Y-34750D01*
X73950Y-34750D02*
X73700Y-34500D01*
X73700Y-34500D02*
X72881Y-34500D01*
X81650Y-37750D02*
X82000Y-38100D01*
X76950Y-37750D02*
X77150Y-37750D01*
X77150Y-37750D02*
X81650Y-37750D01*
X72379Y-35001D02*
X72881Y-34500D01*
X82000Y-38100D02*
X82000Y-41250D01*
X74650Y-40200D02*
X74650Y-39700D01*
X74650Y-39700D02*
X74450Y-39500D01*
X73450Y-39500D02*
X74450Y-39500D01*
X74650Y-40200D02*
X74650Y-42200D01*
X74650Y-42200D02*
X74900Y-42450D01*
X74900Y-42450D02*
X77000Y-42450D01*
X72379Y-39001D02*
X72877Y-39500D01*
X72877Y-39500D02*
X73450Y-39500D01*
X78450Y-39250D02*
X75750Y-39250D01*
X75750Y-39250D02*
X75500Y-39000D01*
X75500Y-39000D02*
X75500Y-38100D01*
X75500Y-38100D02*
X74900Y-37500D01*
X74900Y-37500D02*
X74850Y-37500D01*
X73900Y-37500D02*
X74850Y-37500D01*
X72379Y-37001D02*
X72877Y-37500D01*
X72877Y-37500D02*
X73900Y-37500D01*
X73379Y-35001D02*
X75701Y-35001D01*
X75701Y-35001D02*
X76050Y-35350D01*
X76050Y-35350D02*
X76050Y-37200D01*
X80600Y-38000D02*
X81000Y-38400D01*
X76850Y-38000D02*
X80600Y-38000D01*
X76050Y-37200D02*
X76850Y-38000D01*
X81000Y-38400D02*
X81000Y-41250D01*
X70880Y-51880D02*
X63500Y-51880D01*
X62680Y-51880D02*
X60200Y-51880D01*
X60200Y-51880D02*
X58960Y-50640D01*
X58960Y-50640D02*
X57600Y-50640D01*
X57600Y-50640D02*
X57160Y-50200D01*
X57160Y-50200D02*
X57160Y-49020D01*
X80000Y-48250D02*
X79910Y-48340D01*
X79910Y-48340D02*
X71860Y-48340D01*
X71860Y-48340D02*
X71180Y-49020D01*
X71180Y-49020D02*
X71180Y-51580D01*
X71180Y-51580D02*
X70880Y-51880D01*
G54D57*
X71328Y-46299D02*
X72082Y-46299D01*
X72082Y-46299D02*
X72379Y-46001D01*
X71328Y-46653D02*
X72031Y-46653D01*
X72031Y-46653D02*
X72379Y-47001D01*
X77060Y-48880D02*
X77060Y-60420D01*
X77060Y-60420D02*
X77560Y-60920D01*
X77560Y-60920D02*
X77560Y-61840D01*
X65800Y-66980D02*
X65800Y-66979D01*
G54D61*
X64716Y-66925D02*
X64716Y-66411D01*
X64716Y-66411D02*
X64913Y-66213D01*
X64913Y-66213D02*
X65360Y-66213D01*
X66360Y-66979D02*
X65800Y-66979D01*
X65800Y-66979D02*
X64997Y-66979D01*
X64997Y-66979D02*
X64716Y-67261D01*
G54D56*
X65360Y-66213D02*
X64913Y-66213D01*
G54D61*
X64716Y-66411D02*
X64716Y-66925D01*
X64716Y-66925D02*
X64716Y-67261D01*
X64716Y-67261D02*
X64716Y-68539D01*
G54D56*
X64913Y-66213D02*
X64716Y-66411D01*
G54D61*
X59166Y-72600D02*
X59166Y-72184D01*
X59166Y-72184D02*
X59300Y-72050D01*
X59126Y-73500D02*
X59126Y-72640D01*
X59126Y-72640D02*
X59166Y-72600D01*
G54D56*
X62029Y-73450D02*
X62350Y-73450D01*
X62350Y-73450D02*
X62550Y-73250D01*
X62550Y-73250D02*
X62550Y-72250D01*
X62550Y-72250D02*
X62350Y-72050D01*
X68900Y-67750D02*
X68897Y-67750D01*
X59166Y-72600D02*
X59166Y-72184D01*
X59166Y-72184D02*
X59300Y-72050D01*
X59166Y-72600D02*
X59166Y-73460D01*
X59166Y-73460D02*
X59126Y-73500D01*
G54D61*
X67860Y-66979D02*
X68647Y-66979D01*
X68647Y-66979D02*
X68897Y-67229D01*
X68897Y-66213D02*
X68897Y-67229D01*
X68897Y-67229D02*
X68897Y-67750D01*
X68897Y-67750D02*
X68897Y-68199D01*
X68897Y-68199D02*
X68578Y-68518D01*
X52800Y-71000D02*
X57469Y-71000D01*
X57469Y-71000D02*
X57519Y-70950D01*
X57519Y-70950D02*
X57519Y-71000D01*
X49166Y-72500D02*
X49166Y-71334D01*
X49166Y-71334D02*
X49480Y-71019D01*
X49480Y-71019D02*
X52800Y-71019D01*
X52800Y-71019D02*
X52800Y-71000D01*
X49126Y-73500D02*
X49126Y-72540D01*
X49126Y-72540D02*
X49166Y-72500D01*
G54D56*
X52029Y-73500D02*
X52350Y-73500D01*
X52350Y-73500D02*
X52550Y-73300D01*
X52550Y-73300D02*
X52550Y-72000D01*
X49166Y-72500D02*
X49166Y-71334D01*
X49166Y-71334D02*
X49500Y-71000D01*
X49500Y-71000D02*
X52800Y-71000D01*
X52800Y-71000D02*
X57519Y-71000D01*
X57519Y-71000D02*
X57450Y-71000D01*
X57450Y-71000D02*
X57500Y-70950D01*
X59450Y-67750D02*
X59466Y-67750D01*
X49166Y-72500D02*
X49166Y-73460D01*
X49166Y-73460D02*
X49126Y-73500D01*
G54D61*
X60860Y-66979D02*
X59747Y-66979D01*
G54D56*
X59747Y-66979D02*
X59466Y-67261D01*
G54D61*
X59860Y-66213D02*
X59663Y-66213D01*
X59466Y-66411D02*
X59466Y-67261D01*
X59466Y-67261D02*
X59466Y-67750D01*
X59466Y-67750D02*
X59466Y-68539D01*
X59663Y-66213D02*
X59466Y-66411D01*
G54D62*
X61075Y-39925D02*
X61079Y-39929D01*
X61079Y-39929D02*
X61518Y-39929D01*
G54D56*
X62360Y-66979D02*
X62847Y-66979D01*
X62847Y-66979D02*
X63097Y-66979D01*
X63097Y-66979D02*
X63360Y-67242D01*
X63360Y-66213D02*
X63360Y-67242D01*
X63360Y-67242D02*
X63360Y-68396D01*
X63360Y-68396D02*
X63216Y-68539D01*
X75750Y-64950D02*
X75750Y-64930D01*
X75750Y-64930D02*
X75704Y-64930D01*
X30900Y-69116D02*
X29850Y-69116D01*
X29850Y-69116D02*
X29550Y-68816D01*
G54D58*
X65600Y-41602D02*
X65600Y-41099D01*
X65600Y-41099D02*
X66000Y-40700D01*
G54D56*
X60000Y-52376D02*
X59724Y-52376D01*
X59724Y-52376D02*
X59350Y-52750D01*
X59350Y-52750D02*
X58200Y-52750D01*
X58200Y-52750D02*
X57900Y-52450D01*
X57900Y-52450D02*
X57900Y-51850D01*
X60000Y-57376D02*
X60524Y-57376D01*
X60524Y-57376D02*
X60750Y-57150D01*
X60750Y-57150D02*
X60750Y-52550D01*
X60750Y-52550D02*
X60576Y-52376D01*
X60576Y-52376D02*
X60000Y-52376D01*
X71004Y-42226D02*
X71473Y-42226D01*
X71473Y-42226D02*
X71700Y-42000D01*
X71700Y-42000D02*
X71700Y-40450D01*
X67852Y-44263D02*
X67852Y-44747D01*
X67852Y-44747D02*
X67850Y-44750D01*
G54D57*
X68760Y-50201D02*
X68760Y-50710D01*
X68760Y-50710D02*
X68950Y-50900D01*
X68950Y-50900D02*
X70050Y-50900D01*
X70050Y-50900D02*
X70300Y-50650D01*
X70300Y-50650D02*
X70300Y-47750D01*
X70300Y-47750D02*
X70150Y-47600D01*
X70150Y-47600D02*
X69600Y-47600D01*
X69600Y-47600D02*
X69454Y-47454D01*
X69454Y-47454D02*
X69454Y-46909D01*
X68760Y-50201D02*
X68451Y-50201D01*
X68451Y-50201D02*
X68150Y-49900D01*
X68150Y-49900D02*
X68150Y-48050D01*
G54D56*
X66724Y-48293D02*
X66724Y-47824D01*
X66724Y-47824D02*
X66700Y-47800D01*
X62224Y-48293D02*
X62224Y-47824D01*
X62224Y-47824D02*
X62200Y-47800D01*
X53126Y-72500D02*
X53126Y-71974D01*
X53126Y-71974D02*
X53150Y-71950D01*
X53874Y-73500D02*
X53874Y-74076D01*
X53874Y-74076D02*
X53850Y-74100D01*
X70981Y-56879D02*
X70981Y-56418D01*
X70981Y-56418D02*
X71000Y-56400D01*
X73750Y-61666D02*
X73234Y-61666D01*
X73234Y-61666D02*
X73100Y-61800D01*
X73100Y-61800D02*
X73100Y-62500D01*
X76834Y-61500D02*
X76834Y-60884D01*
X76834Y-60884D02*
X76800Y-60850D01*
X78750Y-75680D02*
X78750Y-72260D01*
X78750Y-72260D02*
X78490Y-72000D01*
X76780Y-76860D02*
X77570Y-76860D01*
X77570Y-76860D02*
X78750Y-75680D01*
X74166Y-72000D02*
X73600Y-72000D01*
X68578Y-69698D02*
X69851Y-69698D01*
X69851Y-69698D02*
X70050Y-69500D01*
X70050Y-69500D02*
X70050Y-68550D01*
X60966Y-73450D02*
X60550Y-73450D01*
X60550Y-73450D02*
X60400Y-73300D01*
X60400Y-73300D02*
X60400Y-73000D01*
X60400Y-73000D02*
X60400Y-72850D01*
X60400Y-72850D02*
X60150Y-72600D01*
X60150Y-72600D02*
X59834Y-72600D01*
X63126Y-72500D02*
X63126Y-71476D01*
X63126Y-71476D02*
X63100Y-71450D01*
X63874Y-73500D02*
X63874Y-74076D01*
X63874Y-74076D02*
X63850Y-74100D01*
X49834Y-72500D02*
X49834Y-72016D01*
X49834Y-72016D02*
X49850Y-72000D01*
X50966Y-73500D02*
X50600Y-73500D01*
X50600Y-73500D02*
X50450Y-73350D01*
X50450Y-73350D02*
X50450Y-72700D01*
X50450Y-72700D02*
X50250Y-72500D01*
X50250Y-72500D02*
X49834Y-72500D01*
X61360Y-66979D02*
X61360Y-65880D01*
X61360Y-65880D02*
X61220Y-65740D01*
X61220Y-65740D02*
X60500Y-65740D01*
X60500Y-65740D02*
X60305Y-65545D01*
X60305Y-65545D02*
X59860Y-65545D01*
X68897Y-65545D02*
X66894Y-65545D01*
X66894Y-65545D02*
X66540Y-65900D01*
X65360Y-65545D02*
X66185Y-65545D01*
X66185Y-65545D02*
X66540Y-65900D01*
X66540Y-65900D02*
X66860Y-66220D01*
X66860Y-66220D02*
X66860Y-66979D01*
X76834Y-62500D02*
X76834Y-61500D01*
X29550Y-69116D02*
X30900Y-69116D01*
X30900Y-69116D02*
X35316Y-69116D01*
X35620Y-69420D02*
X35620Y-70472D01*
X35316Y-69116D02*
X35620Y-69420D01*
G54D58*
X66999Y-60031D02*
X66797Y-59829D01*
X66797Y-59829D02*
X66747Y-59829D01*
X66999Y-60426D02*
X66999Y-60031D01*
X65890Y-59737D02*
X65997Y-59629D01*
X65325Y-59737D02*
X65890Y-59737D01*
G54D56*
X71004Y-42226D02*
X71004Y-42760D01*
X71004Y-42760D02*
X70788Y-42976D01*
X68852Y-39013D02*
X69336Y-39013D01*
X69336Y-39013D02*
X69352Y-39029D01*
G54D58*
X66585Y-41602D02*
X66585Y-41661D01*
X66585Y-41661D02*
X66802Y-41879D01*
X63829Y-40814D02*
X63338Y-40814D01*
X63338Y-40814D02*
X63252Y-40729D01*
X65600Y-41602D02*
X65600Y-42927D01*
G54D56*
X66352Y-44263D02*
X66852Y-44263D01*
X65852Y-44263D02*
X66352Y-44263D01*
G54D58*
X66352Y-43329D02*
X66352Y-44263D01*
X66152Y-43129D02*
X66352Y-43329D01*
X65802Y-43129D02*
X66152Y-43129D01*
X65600Y-42927D02*
X65802Y-43129D01*
X65207Y-41602D02*
X65207Y-41174D01*
X65600Y-41177D02*
X65600Y-41602D01*
X65502Y-41079D02*
X65600Y-41177D01*
X65302Y-41079D02*
X65502Y-41079D01*
X65207Y-41174D02*
X65302Y-41079D01*
X67175Y-39043D02*
X68822Y-39043D01*
X68822Y-39043D02*
X68852Y-39013D01*
X63829Y-39437D02*
X63260Y-39437D01*
X63260Y-39437D02*
X63252Y-39429D01*
X63829Y-39240D02*
X63829Y-39437D01*
X65797Y-38255D02*
X65797Y-37833D01*
X65797Y-37833D02*
X65952Y-37679D01*
X65695Y-38686D02*
X65745Y-38686D01*
X65403Y-38630D02*
X65459Y-38686D01*
X65459Y-38686D02*
X65652Y-38686D01*
X65403Y-38255D02*
X65403Y-38630D01*
X65652Y-38686D02*
X65695Y-38686D01*
X65797Y-38633D02*
X65797Y-38255D01*
X65745Y-38686D02*
X65797Y-38633D01*
X65010Y-38255D02*
X65010Y-37437D01*
X64802Y-36245D02*
X64652Y-36095D01*
X64802Y-37229D02*
X64802Y-36245D01*
X65010Y-37437D02*
X64802Y-37229D01*
G54D56*
X61518Y-37929D02*
X61518Y-38429D01*
X61518Y-38429D02*
X61518Y-38929D01*
X61518Y-41929D02*
X61518Y-42345D01*
X61518Y-42345D02*
X61552Y-42379D01*
X61262Y-40929D02*
X61262Y-41673D01*
X61262Y-41673D02*
X61518Y-41929D01*
X64102Y-36095D02*
X63102Y-36095D01*
X65152Y-36095D02*
X64652Y-36095D01*
X64652Y-36095D02*
X64102Y-36095D01*
X66102Y-36095D02*
X65152Y-36095D01*
X67852Y-44263D02*
X68302Y-44263D01*
X68302Y-44263D02*
X68596Y-44263D01*
X68596Y-44263D02*
X68852Y-44519D01*
X64852Y-44263D02*
X64108Y-44263D01*
X64108Y-44263D02*
X63852Y-44519D01*
X64852Y-44263D02*
X65852Y-44263D01*
X73945Y-68837D02*
X73522Y-68837D01*
X73522Y-68837D02*
X73479Y-68794D01*
G54D57*
X68947Y-65199D02*
X68947Y-65179D01*
X68947Y-65179D02*
X68897Y-65179D01*
X68897Y-65249D02*
X68947Y-65199D01*
X68897Y-65249D02*
X68897Y-65545D01*
G54D59*
X66211Y-56883D02*
X66211Y-56544D01*
X65647Y-56329D02*
X65647Y-55729D01*
X65747Y-56429D02*
X65647Y-56329D01*
X66097Y-56429D02*
X65747Y-56429D01*
X66211Y-56544D02*
X66097Y-56429D01*
G54D56*
X63360Y-65545D02*
X65360Y-65545D01*
G54D58*
X67983Y-56883D02*
X67983Y-56394D01*
X67983Y-56394D02*
X68097Y-56279D01*
X68869Y-59540D02*
X69258Y-59540D01*
X69247Y-60079D02*
X69097Y-60079D01*
X69337Y-59989D02*
X69247Y-60079D01*
X69337Y-59619D02*
X69337Y-59989D01*
X69258Y-59540D02*
X69337Y-59619D01*
G54D56*
X70981Y-60379D02*
X70981Y-60845D01*
X70981Y-60845D02*
X70947Y-60879D01*
X70313Y-58879D02*
X70313Y-58495D01*
X70313Y-58495D02*
X70297Y-58479D01*
X61360Y-66979D02*
X61347Y-66992D01*
X61347Y-66992D02*
X61347Y-67479D01*
X59860Y-65545D02*
X59847Y-65533D01*
X59847Y-65533D02*
X59847Y-65079D01*
X59860Y-63463D02*
X59844Y-63479D01*
X59844Y-63479D02*
X59397Y-63479D01*
X68147Y-52755D02*
X67647Y-52755D01*
X67647Y-52755D02*
X67187Y-52755D01*
X67187Y-52755D02*
X67147Y-52795D01*
G54D58*
X65325Y-57965D02*
X65861Y-57965D01*
X65861Y-57965D02*
X65947Y-57879D01*
G54D59*
X65647Y-55120D02*
X66047Y-54720D01*
X65647Y-55729D02*
X65647Y-55120D01*
G54D56*
X66047Y-54720D02*
X65647Y-54720D01*
X65647Y-54720D02*
X65247Y-54720D01*
X67216Y-69719D02*
X66472Y-69719D01*
X66472Y-69719D02*
X66216Y-69463D01*
X68578Y-69698D02*
X67238Y-69698D01*
X67238Y-69698D02*
X67216Y-69719D01*
X64716Y-69719D02*
X63997Y-69719D01*
X63997Y-69719D02*
X63216Y-69719D01*
X59466Y-69719D02*
X59466Y-70261D01*
X59466Y-70261D02*
X59447Y-70279D01*
X59466Y-69719D02*
X60460Y-69719D01*
X60460Y-69719D02*
X60716Y-69463D01*
X61716Y-69719D02*
X60972Y-69719D01*
X60972Y-69719D02*
X60716Y-69463D01*
X77945Y-65337D02*
X77254Y-65337D01*
X77254Y-65337D02*
X76853Y-65337D01*
X76853Y-65337D02*
X76445Y-64930D01*
G54D59*
X68869Y-59343D02*
X68869Y-59540D01*
X68869Y-59146D02*
X68869Y-59343D01*
X68869Y-58950D02*
X68869Y-59146D01*
X68869Y-58753D02*
X68869Y-58950D01*
G54D56*
X75195Y-66038D02*
X75195Y-65303D01*
X74781Y-64888D02*
X74445Y-64888D01*
X75195Y-65303D02*
X74781Y-64888D01*
X76445Y-64930D02*
X75704Y-64930D01*
X75704Y-64930D02*
X75354Y-64930D01*
X75354Y-64930D02*
X74487Y-64930D01*
X74487Y-64930D02*
X74445Y-64888D01*
X77945Y-63939D02*
X77945Y-64621D01*
X77945Y-64621D02*
X77945Y-65337D01*
G54D59*
X65247Y-56579D02*
X65247Y-56729D01*
X65400Y-56883D02*
X66014Y-56883D01*
X65247Y-56729D02*
X65400Y-56883D01*
X65247Y-55388D02*
X65247Y-56579D01*
X68869Y-57572D02*
X69505Y-57572D01*
X69697Y-56879D02*
X70313Y-56879D01*
X69597Y-56979D02*
X69697Y-56879D01*
X69597Y-57479D02*
X69597Y-56979D01*
X69505Y-57572D02*
X69597Y-57479D01*
X66147Y-52755D02*
X65071Y-52755D01*
X65071Y-52755D02*
X64897Y-52929D01*
X64897Y-52929D02*
X64897Y-55329D01*
X64897Y-55329D02*
X64956Y-55388D01*
X64956Y-55388D02*
X65247Y-55388D01*
X67147Y-53463D02*
X67031Y-53463D01*
X66323Y-52755D02*
X66147Y-52755D01*
X67031Y-53463D02*
X66323Y-52755D01*
G54D58*
X66037Y-58979D02*
X66047Y-58979D01*
X66014Y-57597D02*
X66014Y-56883D01*
X66197Y-57779D02*
X66014Y-57597D01*
X66197Y-58829D02*
X66197Y-57779D01*
X66047Y-58979D02*
X66197Y-58829D01*
X68869Y-57572D02*
X68405Y-57572D01*
X68357Y-59719D02*
X68337Y-59739D01*
X68357Y-57619D02*
X68357Y-59719D01*
X68405Y-57572D02*
X68357Y-57619D01*
X66014Y-58957D02*
X66037Y-58979D01*
X65325Y-59146D02*
X65870Y-59146D01*
X65870Y-59146D02*
X66037Y-58979D01*
X68340Y-59737D02*
X68869Y-59737D01*
X68337Y-59739D02*
X68340Y-59737D01*
G54D57*
X59000Y-53250D02*
X59874Y-53250D01*
X59874Y-53250D02*
X60000Y-53124D01*
X59000Y-58250D02*
X59874Y-58250D01*
X59874Y-58250D02*
X60000Y-58124D01*
X40250Y-73181D02*
X40250Y-71500D01*
X40250Y-71500D02*
X40750Y-71000D01*
X41750Y-72181D02*
X41750Y-71100D01*
X41750Y-71100D02*
X41200Y-70550D01*
X33250Y-71900D02*
X33250Y-72181D01*
X32900Y-71550D02*
X33250Y-71900D01*
X31400Y-71550D02*
X32900Y-71550D01*
X31100Y-71250D02*
X31400Y-71550D01*
X31481Y-73181D02*
X31750Y-73181D01*
X30700Y-72400D02*
X31481Y-73181D01*
X30700Y-71350D02*
X30700Y-72400D01*
G54D59*
X65797Y-41979D02*
X65797Y-42674D01*
X66852Y-43079D02*
X66852Y-43595D01*
X66702Y-42929D02*
X66852Y-43079D01*
X66052Y-42929D02*
X66702Y-42929D01*
X65797Y-42674D02*
X66052Y-42929D01*
X65797Y-41602D02*
X65797Y-41979D01*
X64102Y-36763D02*
X64102Y-37529D01*
X64813Y-37740D02*
X64813Y-38255D01*
X64712Y-37639D02*
X64813Y-37740D01*
X64212Y-37639D02*
X64712Y-37639D01*
X64102Y-37529D02*
X64212Y-37639D01*
X64616Y-38255D02*
X64616Y-37843D01*
X63102Y-37679D02*
X63102Y-36763D01*
X63202Y-37779D02*
X63102Y-37679D01*
X64552Y-37779D02*
X63202Y-37779D01*
X64616Y-37843D02*
X64552Y-37779D01*
X66585Y-38255D02*
X66585Y-37546D01*
X68102Y-36979D02*
X68102Y-36763D01*
X67852Y-37229D02*
X68102Y-36979D01*
X66902Y-37229D02*
X67852Y-37229D01*
X66585Y-37546D02*
X66902Y-37229D01*
X66388Y-38255D02*
X66388Y-37477D01*
X66388Y-37477D02*
X67102Y-36763D01*
G54D58*
X67175Y-39240D02*
X66613Y-39240D01*
X66613Y-39240D02*
X66602Y-39229D01*
G54D57*
X65186Y-50251D02*
X65186Y-48980D01*
X65186Y-48980D02*
X65182Y-48976D01*
X66610Y-50251D02*
X66351Y-50251D01*
X66423Y-46226D02*
X66764Y-46226D01*
X66150Y-46500D02*
X66423Y-46226D01*
X66150Y-50050D02*
X66150Y-46500D01*
X66351Y-50251D02*
X66150Y-50050D01*
X67436Y-50251D02*
X67436Y-49497D01*
X67436Y-49497D02*
X67098Y-49159D01*
X67472Y-48293D02*
X67472Y-47266D01*
X67472Y-47266D02*
X67432Y-47226D01*
X62110Y-50251D02*
X60707Y-50251D01*
G54D58*
X60707Y-50251D02*
X60682Y-50226D01*
G54D57*
X62936Y-50251D02*
X62936Y-49497D01*
X62936Y-49497D02*
X62598Y-49159D01*
X62972Y-48293D02*
X62972Y-47288D01*
G54D58*
X62972Y-47288D02*
X62934Y-47250D01*
G54D56*
X73454Y-66887D02*
X73454Y-66280D01*
X73454Y-66280D02*
X73695Y-66038D01*
G54D57*
X74195Y-63738D02*
X74195Y-62638D01*
X74195Y-62638D02*
X74500Y-62334D01*
X73695Y-63738D02*
X73695Y-62388D01*
X73695Y-62388D02*
X73750Y-62334D01*
X69586Y-50201D02*
X69586Y-49130D01*
X69586Y-49130D02*
X69432Y-48976D01*
G54D56*
X71090Y-74750D02*
X69909Y-74750D01*
X76780Y-74500D02*
X71340Y-74500D01*
X71340Y-74500D02*
X71090Y-74750D01*
X71090Y-73490D02*
X74116Y-73490D01*
X74116Y-73490D02*
X74126Y-73500D01*
X69909Y-73490D02*
X71090Y-73490D01*
G54D57*
X74695Y-63738D02*
X74695Y-62888D01*
X74695Y-62888D02*
X75250Y-62334D01*
X75250Y-61666D02*
X75250Y-61600D01*
X75350Y-61500D02*
X76166Y-61500D01*
X75250Y-61600D02*
X75350Y-61500D01*
G54D56*
X76445Y-66583D02*
X76116Y-66583D01*
X76015Y-66684D02*
X76015Y-69143D01*
X76116Y-66583D02*
X76015Y-66684D01*
X74695Y-66038D02*
X74695Y-67145D01*
X74695Y-67145D02*
X75105Y-67555D01*
X73454Y-67555D02*
X75105Y-67555D01*
X75105Y-67555D02*
X75838Y-67555D01*
X76015Y-67733D02*
X76015Y-69143D01*
X75838Y-67555D02*
X76015Y-67733D01*
G54D57*
X76111Y-62388D02*
X76111Y-63388D01*
X75195Y-63738D02*
X75195Y-63485D01*
X75292Y-63388D02*
X76111Y-63388D01*
X75195Y-63485D02*
X75292Y-63388D01*
G54D59*
X67786Y-60426D02*
X67786Y-60968D01*
X68897Y-61229D02*
X68897Y-61429D01*
X68797Y-61129D02*
X68897Y-61229D01*
X67947Y-61129D02*
X68797Y-61129D01*
X67786Y-60968D02*
X67947Y-61129D01*
X67997Y-65104D02*
X68072Y-65104D01*
X69197Y-63879D02*
X69347Y-63729D01*
X68347Y-63879D02*
X69197Y-63879D01*
X68197Y-64029D02*
X68347Y-63879D01*
X68197Y-64979D02*
X68197Y-64029D01*
X68072Y-65104D02*
X68197Y-64979D01*
X66860Y-64779D02*
X66860Y-65042D01*
X66922Y-65104D02*
X67997Y-65104D01*
X66860Y-65042D02*
X66922Y-65104D01*
X68897Y-62795D02*
X69213Y-62795D01*
X69347Y-62929D02*
X69347Y-63729D01*
X69213Y-62795D02*
X69347Y-62929D01*
X68897Y-61429D02*
X68897Y-62795D01*
X66860Y-62795D02*
X67263Y-62795D01*
X67347Y-64767D02*
X67360Y-64779D01*
X67347Y-64279D02*
X67347Y-64767D01*
X67263Y-62795D02*
X67347Y-62879D01*
X67392Y-60426D02*
X67392Y-62134D01*
X66860Y-62367D02*
X66860Y-62795D01*
X66947Y-62279D02*
X66860Y-62367D01*
X67247Y-62279D02*
X66947Y-62279D01*
X67392Y-62134D02*
X67247Y-62279D01*
X64647Y-65179D02*
X65147Y-65179D01*
X65347Y-64979D02*
X65347Y-64629D01*
X65147Y-65179D02*
X65347Y-64979D01*
X64860Y-62795D02*
X65263Y-62795D01*
X61360Y-65042D02*
X61360Y-64779D01*
X61497Y-65179D02*
X61360Y-65042D01*
X64647Y-65179D02*
X61497Y-65179D01*
X65263Y-62795D02*
X65347Y-62879D01*
X66802Y-60426D02*
X66802Y-61825D01*
X64860Y-62067D02*
X64860Y-62795D01*
X64957Y-61969D02*
X64860Y-62067D01*
X66657Y-61969D02*
X64957Y-61969D01*
X66802Y-61825D02*
X66657Y-61969D01*
X61860Y-62795D02*
X62313Y-62795D01*
X62360Y-64317D02*
X62360Y-64779D01*
X62447Y-64229D02*
X62360Y-64317D01*
X63347Y-64229D02*
X62447Y-64229D01*
X62313Y-62795D02*
X62347Y-62829D01*
X66211Y-61279D02*
X66211Y-61315D01*
X66211Y-61315D02*
X65997Y-61529D01*
X66211Y-60426D02*
X66211Y-61279D01*
X61860Y-61617D02*
X61860Y-62795D01*
X61947Y-61529D02*
X61860Y-61617D01*
X65997Y-61529D02*
X61947Y-61529D01*
X60860Y-64779D02*
X60860Y-65292D01*
X64263Y-62795D02*
X63860Y-62795D01*
X64347Y-62879D02*
X64263Y-62795D01*
X60997Y-65429D02*
X62797Y-65429D01*
X60860Y-65292D02*
X60997Y-65429D01*
X66605Y-60426D02*
X66605Y-61572D01*
X63860Y-62017D02*
X63860Y-62795D01*
X64047Y-61829D02*
X63860Y-62017D01*
X66347Y-61829D02*
X64047Y-61829D01*
X66605Y-61572D02*
X66347Y-61829D01*
X62860Y-62795D02*
X63263Y-62795D01*
X61860Y-64067D02*
X61860Y-64779D01*
X61947Y-63979D02*
X61860Y-64067D01*
X63247Y-63979D02*
X61947Y-63979D01*
X63347Y-63879D02*
X63247Y-63979D01*
X63263Y-62795D02*
X63347Y-62879D01*
X66408Y-60426D02*
X66408Y-61468D01*
X62860Y-61767D02*
X62860Y-62795D01*
X62947Y-61679D02*
X62860Y-61767D01*
X66197Y-61679D02*
X62947Y-61679D01*
X66408Y-61468D02*
X66197Y-61679D01*
G54D58*
X68869Y-57768D02*
X70174Y-57768D01*
X70174Y-57768D02*
X70313Y-57629D01*
X70580Y-46299D02*
X70699Y-46299D01*
X70699Y-46299D02*
X70850Y-46450D01*
X70850Y-46450D02*
X70850Y-51300D01*
G54D57*
X70580Y-46299D02*
X70049Y-46299D01*
X69848Y-46098D02*
X69848Y-45846D01*
X70049Y-46299D02*
X69848Y-46098D01*
G54D59*
X66408Y-56883D02*
X66408Y-56340D01*
X66197Y-56129D02*
X65897Y-56129D01*
X66408Y-56340D02*
X66197Y-56129D01*
G54D58*
X70580Y-51400D02*
X70580Y-51494D01*
X70580Y-51494D02*
X70500Y-51575D01*
X70580Y-46653D02*
X70580Y-51400D01*
X70580Y-51400D02*
X70580Y-51419D01*
X70580Y-51419D02*
X70575Y-51425D01*
G54D57*
X70580Y-46653D02*
X69996Y-46653D01*
X69848Y-46801D02*
X69848Y-46909D01*
X69996Y-46653D02*
X69848Y-46801D01*
G54D59*
X66605Y-56137D02*
X66447Y-55979D01*
X66605Y-56883D02*
X66605Y-56137D01*
X65860Y-62795D02*
X65894Y-62829D01*
X67860Y-64317D02*
X67860Y-64779D01*
X67897Y-64279D02*
X67860Y-64317D01*
X65894Y-62829D02*
X66347Y-62829D01*
X67196Y-60426D02*
X67196Y-61931D01*
X65860Y-62217D02*
X65860Y-62795D01*
X65947Y-62129D02*
X65860Y-62217D01*
X66997Y-62129D02*
X65947Y-62129D01*
X67196Y-61931D02*
X66997Y-62129D01*
X67860Y-62795D02*
X68013Y-62795D01*
X68013Y-62795D02*
X68197Y-62979D01*
X66360Y-64779D02*
X66360Y-65117D01*
X66360Y-65117D02*
X66447Y-65204D01*
X67589Y-60426D02*
X67589Y-61172D01*
X67860Y-61442D02*
X67860Y-62795D01*
X67589Y-61172D02*
X67860Y-61442D01*
G54D56*
X53126Y-73500D02*
X53126Y-74608D01*
X53126Y-74608D02*
X52877Y-74856D01*
G54D61*
X50122Y-74856D02*
X50122Y-73748D01*
X50122Y-73748D02*
X49874Y-73500D01*
G54D56*
X50122Y-74856D02*
X50122Y-73748D01*
X50122Y-73748D02*
X49874Y-73500D01*
X63126Y-73500D02*
X63126Y-74608D01*
X63126Y-74608D02*
X62877Y-74856D01*
G54D61*
X60122Y-74856D02*
X60122Y-73748D01*
X60122Y-73748D02*
X59874Y-73500D01*
G54D56*
X60122Y-74856D02*
X60122Y-73748D01*
X60122Y-73748D02*
X59874Y-73500D01*
G54D59*
X68869Y-58359D02*
X68869Y-58556D01*
G54D63*
X51677Y-72374D02*
X51677Y-73777D01*
X51793Y-73893D02*
X52029Y-73893D01*
X51677Y-73777D02*
X51793Y-73893D01*
X51893Y-74856D02*
X51893Y-74029D01*
X51893Y-74029D02*
X52029Y-73893D01*
X65325Y-58950D02*
X64100Y-58950D01*
X63972Y-59077D02*
X63724Y-59077D01*
X64100Y-58950D02*
X63972Y-59077D01*
X51322Y-72374D02*
X51322Y-73727D01*
X51156Y-73893D02*
X50966Y-73893D01*
X51322Y-73727D02*
X51156Y-73893D01*
X51106Y-74856D02*
X51106Y-74033D01*
X51106Y-74033D02*
X50966Y-73893D01*
X65325Y-58753D02*
X63754Y-58753D01*
X63754Y-58753D02*
X63724Y-58722D01*
X61322Y-72374D02*
X61322Y-73727D01*
X61206Y-73843D02*
X60966Y-73843D01*
X61322Y-73727D02*
X61206Y-73843D01*
X61106Y-74856D02*
X61106Y-73983D01*
X61106Y-73983D02*
X60966Y-73843D01*
X61677Y-73650D02*
X61677Y-73727D01*
X61793Y-73843D02*
X62029Y-73843D01*
X61677Y-73727D02*
X61793Y-73843D01*
X62029Y-73843D02*
X61843Y-73843D01*
X61677Y-72374D02*
X61677Y-73650D01*
X61677Y-73650D02*
X61677Y-73677D01*
X61893Y-74856D02*
X61893Y-73979D01*
X61893Y-73979D02*
X62029Y-73843D01*
X51322Y-71625D02*
X51322Y-71427D01*
X62387Y-58162D02*
X65325Y-58162D01*
X62100Y-58450D02*
X62387Y-58162D01*
X62100Y-60300D02*
X62100Y-58450D01*
X62000Y-60400D02*
X62100Y-60300D01*
X59750Y-60400D02*
X62000Y-60400D01*
X57850Y-62300D02*
X59750Y-60400D01*
X57850Y-71200D02*
X57850Y-62300D01*
X57700Y-71350D02*
X57850Y-71200D01*
X51400Y-71350D02*
X57700Y-71350D01*
X51322Y-71427D02*
X51400Y-71350D01*
X62000Y-60600D02*
X62150Y-60600D01*
X62540Y-58359D02*
X65325Y-58359D01*
X62300Y-58600D02*
X62540Y-58359D01*
X62300Y-60450D02*
X62300Y-58600D01*
X62150Y-60600D02*
X62300Y-60450D01*
X51677Y-71625D02*
X57824Y-71625D01*
X59850Y-60600D02*
X62000Y-60600D01*
X58050Y-62400D02*
X59850Y-60600D01*
X58050Y-71400D02*
X58050Y-62400D01*
X57824Y-71625D02*
X58050Y-71400D01*
X63815Y-57768D02*
X63724Y-57677D01*
X65325Y-57768D02*
X63815Y-57768D01*
X59750Y-71625D02*
X58625Y-71625D01*
X58300Y-62450D02*
X59900Y-60850D01*
X58300Y-71300D02*
X58300Y-62450D01*
X58625Y-71625D02*
X58300Y-71300D01*
X61322Y-71625D02*
X59750Y-71625D01*
X64356Y-59343D02*
X65325Y-59343D01*
X64100Y-59600D02*
X64356Y-59343D01*
X64100Y-60400D02*
X64100Y-59600D01*
X63650Y-60850D02*
X64100Y-60400D01*
X59900Y-60850D02*
X63650Y-60850D01*
X59550Y-71350D02*
X58800Y-71350D01*
X58550Y-62550D02*
X60050Y-61050D01*
X58550Y-71100D02*
X58550Y-62550D01*
X58800Y-71350D02*
X58550Y-71100D01*
X65325Y-59540D02*
X64559Y-59540D01*
X63850Y-61050D02*
X60050Y-61050D01*
X64350Y-60550D02*
X63850Y-61050D01*
X64350Y-59750D02*
X64350Y-60550D01*
X64559Y-59540D02*
X64350Y-59750D01*
X61677Y-71527D02*
X61677Y-71625D01*
X61500Y-71350D02*
X61677Y-71527D01*
X59550Y-71350D02*
X61500Y-71350D01*
G54D58*
X76325Y-48100D02*
X76575Y-48100D01*
X76575Y-48100D02*
X76750Y-47925D01*
X76175Y-48100D02*
X76325Y-48100D01*
X71450Y-48150D02*
X71500Y-48100D01*
X71500Y-48100D02*
X76175Y-48100D01*
X62975Y-58722D02*
X62622Y-58722D01*
X62622Y-58722D02*
X62600Y-58700D01*
X76250Y-47850D02*
X76400Y-47850D01*
X76400Y-47850D02*
X76425Y-47825D01*
X62975Y-59077D02*
X62627Y-59077D01*
X62627Y-59077D02*
X62600Y-59050D01*
X71100Y-48000D02*
X71250Y-47850D01*
X71250Y-47850D02*
X76250Y-47850D01*
X63724Y-57322D02*
X63872Y-57322D01*
G54D63*
X63872Y-57322D02*
X63724Y-57322D01*
X64122Y-57572D02*
X63872Y-57322D01*
X65325Y-57572D02*
X64122Y-57572D01*
G54D59*
X67786Y-56883D02*
X67786Y-56190D01*
X68347Y-55629D02*
X68347Y-55388D01*
X67786Y-56190D02*
X68347Y-55629D01*
X67983Y-60426D02*
X67983Y-60865D01*
X70197Y-60979D02*
X70313Y-60863D01*
X68097Y-60979D02*
X70197Y-60979D01*
X67983Y-60865D02*
X68097Y-60979D01*
X70313Y-60863D02*
X70313Y-60379D01*
X70313Y-59629D02*
X70313Y-60379D01*
X60860Y-62795D02*
X60860Y-61567D01*
X60860Y-61567D02*
X61047Y-61379D01*
X66014Y-60426D02*
X66014Y-61062D01*
X59860Y-61567D02*
X59860Y-62795D01*
X60047Y-61379D02*
X59860Y-61567D01*
X65697Y-61379D02*
X61047Y-61379D01*
X61047Y-61379D02*
X60047Y-61379D01*
X66014Y-61062D02*
X65697Y-61379D01*
G54D58*
X72550Y-59461D02*
X72550Y-58400D01*
X72550Y-58400D02*
X72300Y-58150D01*
X68869Y-57965D02*
X69415Y-57965D01*
X69600Y-58150D02*
X72300Y-58150D01*
X69415Y-57965D02*
X69600Y-58150D01*
X70981Y-57629D02*
X72459Y-57629D01*
X72459Y-57629D02*
X72550Y-57539D01*
G54D59*
X66847Y-54720D02*
X67597Y-54720D01*
X68147Y-53503D02*
X68147Y-54520D01*
X68147Y-54520D02*
X68347Y-54720D01*
X67597Y-54720D02*
X68347Y-54720D01*
X67589Y-56883D02*
X67589Y-56187D01*
X67947Y-55070D02*
X67597Y-54720D01*
X67947Y-55829D02*
X67947Y-55070D01*
X67589Y-56187D02*
X67947Y-55829D01*
X67196Y-56883D02*
X67196Y-57328D01*
X67589Y-57337D02*
X67589Y-56883D01*
X67547Y-57379D02*
X67589Y-57337D01*
X67247Y-57379D02*
X67547Y-57379D01*
X67196Y-57328D02*
X67247Y-57379D01*
G54D56*
X64098Y-75919D02*
X64430Y-75919D01*
X64500Y-72500D02*
X63874Y-72500D01*
X64950Y-72950D02*
X64500Y-72500D01*
X64950Y-75400D02*
X64950Y-72950D01*
X64430Y-75919D02*
X64950Y-75400D01*
X58901Y-75919D02*
X64098Y-75919D01*
X54098Y-75919D02*
X54380Y-75919D01*
X54500Y-72500D02*
X53874Y-72500D01*
X54800Y-72800D02*
X54500Y-72500D01*
X54800Y-75500D02*
X54800Y-72800D01*
X54380Y-75919D02*
X54800Y-75500D01*
X48901Y-75919D02*
X54098Y-75919D01*
G54D59*
X66147Y-53503D02*
X66447Y-53803D01*
X66606Y-55388D02*
X66847Y-55388D01*
X66447Y-55229D02*
X66606Y-55388D01*
X66447Y-53803D02*
X66447Y-55229D01*
X66999Y-56883D02*
X66999Y-55540D01*
X66999Y-55540D02*
X66847Y-55388D01*
X67392Y-56883D02*
X67392Y-56475D01*
X66999Y-56478D02*
X66999Y-56883D01*
X67097Y-56379D02*
X66999Y-56478D01*
X67297Y-56379D02*
X67097Y-56379D01*
X67392Y-56475D02*
X67297Y-56379D01*
X67597Y-55388D02*
X67088Y-55388D01*
X67088Y-55388D02*
X66847Y-55388D01*
X67392Y-56883D02*
X67392Y-55593D01*
X67392Y-55593D02*
X67597Y-55388D01*
G54D10*
G36*
X77845Y-75395D02*
X76685Y-75395D01*
X76685Y-75256D01*
X76685Y-74595D01*
X76685Y-74405D01*
X76685Y-73744D01*
X76335Y-73744D01*
X76052Y-73837D01*
X75828Y-74032D01*
X75704Y-74288D01*
X75681Y-74405D01*
X76685Y-74405D01*
X76685Y-74595D01*
X75681Y-74595D01*
X75704Y-74711D01*
X75828Y-74967D01*
X76052Y-75162D01*
X76335Y-75256D01*
X76685Y-75256D01*
X76685Y-75395D01*
X71538Y-75395D01*
X71538Y-74759D01*
X71507Y-74587D01*
X71500Y-74569D01*
X71465Y-74508D01*
X71331Y-74643D01*
X71331Y-74374D01*
X71270Y-74340D01*
X71100Y-74302D01*
X70928Y-74332D01*
X70910Y-74340D01*
X70849Y-74374D01*
X71090Y-74615D01*
X71331Y-74374D01*
X71331Y-74643D01*
X71224Y-74750D01*
X71465Y-74991D01*
X71500Y-74930D01*
X71538Y-74759D01*
X71538Y-75395D01*
X71331Y-75395D01*
X71331Y-75125D01*
X71090Y-74884D01*
X70956Y-75018D01*
X70956Y-74750D01*
X70715Y-74508D01*
X70680Y-74569D01*
X70642Y-74740D01*
X70673Y-74912D01*
X70680Y-74930D01*
X70715Y-74991D01*
X70956Y-74750D01*
X70956Y-75018D01*
X70849Y-75125D01*
X70910Y-75159D01*
X71080Y-75197D01*
X71252Y-75167D01*
X71270Y-75159D01*
X71331Y-75125D01*
X71331Y-75395D01*
X70357Y-75395D01*
X70357Y-74759D01*
X70326Y-74587D01*
X70319Y-74569D01*
X70284Y-74508D01*
X70150Y-74643D01*
X70150Y-74374D01*
X70089Y-74340D01*
X69919Y-74302D01*
X69747Y-74332D01*
X69729Y-74340D01*
X69668Y-74374D01*
X69909Y-74615D01*
X70150Y-74374D01*
X70150Y-74643D01*
X70043Y-74750D01*
X70284Y-74991D01*
X70319Y-74930D01*
X70357Y-74759D01*
X70357Y-75395D01*
X70150Y-75395D01*
X70150Y-75125D01*
X69909Y-74884D01*
X69775Y-75018D01*
X69775Y-74750D01*
X69534Y-74508D01*
X69499Y-74569D01*
X69461Y-74740D01*
X69492Y-74912D01*
X69499Y-74930D01*
X69534Y-74991D01*
X69775Y-74750D01*
X69775Y-75018D01*
X69668Y-75125D01*
X69729Y-75159D01*
X69899Y-75197D01*
X70071Y-75167D01*
X70089Y-75159D01*
X70150Y-75125D01*
X70150Y-75395D01*
X69105Y-75395D01*
X69105Y-74205D01*
X75555Y-74205D01*
X75555Y-73505D01*
X77845Y-73505D01*
X77845Y-74266D01*
X77731Y-74032D01*
X77507Y-73837D01*
X77225Y-73744D01*
X76875Y-73744D01*
X76875Y-74405D01*
X76882Y-74405D01*
X76882Y-74595D01*
X76875Y-74595D01*
X76875Y-75256D01*
X77225Y-75256D01*
X77507Y-75162D01*
X77731Y-74967D01*
X77845Y-74733D01*
X77845Y-75395D01*
X77845Y-75395D01*
G37*
G54D64*
X77845Y-75395D02*
X76685Y-75395D01*
X76685Y-75256D01*
X76685Y-74595D01*
X76685Y-74405D01*
X76685Y-73744D01*
X76335Y-73744D01*
X76052Y-73837D01*
X75828Y-74032D01*
X75704Y-74288D01*
X75681Y-74405D01*
X76685Y-74405D01*
X76685Y-74595D01*
X75681Y-74595D01*
X75704Y-74711D01*
X75828Y-74967D01*
X76052Y-75162D01*
X76335Y-75256D01*
X76685Y-75256D01*
X76685Y-75395D01*
X71538Y-75395D01*
X71538Y-74759D01*
X71507Y-74587D01*
X71500Y-74569D01*
X71465Y-74508D01*
X71331Y-74643D01*
X71331Y-74374D01*
X71270Y-74340D01*
X71100Y-74302D01*
X70928Y-74332D01*
X70910Y-74340D01*
X70849Y-74374D01*
X71090Y-74615D01*
X71331Y-74374D01*
X71331Y-74643D01*
X71224Y-74750D01*
X71465Y-74991D01*
X71500Y-74930D01*
X71538Y-74759D01*
X71538Y-75395D01*
X71331Y-75395D01*
X71331Y-75125D01*
X71090Y-74884D01*
X70956Y-75018D01*
X70956Y-74750D01*
X70715Y-74508D01*
X70680Y-74569D01*
X70642Y-74740D01*
X70673Y-74912D01*
X70680Y-74930D01*
X70715Y-74991D01*
X70956Y-74750D01*
X70956Y-75018D01*
X70849Y-75125D01*
X70910Y-75159D01*
X71080Y-75197D01*
X71252Y-75167D01*
X71270Y-75159D01*
X71331Y-75125D01*
X71331Y-75395D01*
X70357Y-75395D01*
X70357Y-74759D01*
X70326Y-74587D01*
X70319Y-74569D01*
X70284Y-74508D01*
X70150Y-74643D01*
X70150Y-74374D01*
X70089Y-74340D01*
X69919Y-74302D01*
X69747Y-74332D01*
X69729Y-74340D01*
X69668Y-74374D01*
X69909Y-74615D01*
X70150Y-74374D01*
X70150Y-74643D01*
X70043Y-74750D01*
X70284Y-74991D01*
X70319Y-74930D01*
X70357Y-74759D01*
X70357Y-75395D01*
X70150Y-75395D01*
X70150Y-75125D01*
X69909Y-74884D01*
X69775Y-75018D01*
X69775Y-74750D01*
X69534Y-74508D01*
X69499Y-74569D01*
X69461Y-74740D01*
X69492Y-74912D01*
X69499Y-74930D01*
X69534Y-74991D01*
X69775Y-74750D01*
X69775Y-75018D01*
X69668Y-75125D01*
X69729Y-75159D01*
X69899Y-75197D01*
X70071Y-75167D01*
X70089Y-75159D01*
X70150Y-75125D01*
X70150Y-75395D01*
X69105Y-75395D01*
X69105Y-74205D01*
X75555Y-74205D01*
X75555Y-73505D01*
X77845Y-73505D01*
X77845Y-74266D01*
X77731Y-74032D01*
X77507Y-73837D01*
X77225Y-73744D01*
X76875Y-73744D01*
X76875Y-74405D01*
X76882Y-74405D01*
X76882Y-74595D01*
X76875Y-74595D01*
X76875Y-75256D01*
X77225Y-75256D01*
X77507Y-75162D01*
X77731Y-74967D01*
X77845Y-74733D01*
X77845Y-75395D01*
G54D10*
G36*
X74395Y-74045D02*
X74387Y-74045D01*
X74387Y-73793D01*
X74387Y-73206D01*
X74387Y-73203D01*
X74386Y-73201D01*
X74384Y-73199D01*
X74382Y-73198D01*
X74222Y-73199D01*
X74221Y-73200D01*
X74221Y-73405D01*
X74386Y-73405D01*
X74387Y-73403D01*
X74387Y-73206D01*
X74387Y-73793D01*
X74387Y-73596D01*
X74386Y-73595D01*
X74221Y-73595D01*
X74221Y-73799D01*
X74222Y-73801D01*
X74382Y-73801D01*
X74384Y-73800D01*
X74386Y-73798D01*
X74387Y-73796D01*
X74387Y-73793D01*
X74387Y-74045D01*
X74031Y-74045D01*
X74031Y-73799D01*
X74031Y-73595D01*
X74031Y-73405D01*
X74031Y-73200D01*
X74029Y-73199D01*
X73869Y-73198D01*
X73867Y-73199D01*
X73865Y-73201D01*
X73864Y-73203D01*
X73864Y-73206D01*
X73864Y-73403D01*
X73866Y-73405D01*
X74031Y-73405D01*
X74031Y-73595D01*
X73866Y-73595D01*
X73864Y-73596D01*
X73864Y-73793D01*
X73864Y-73796D01*
X73865Y-73798D01*
X73867Y-73800D01*
X73869Y-73801D01*
X74029Y-73801D01*
X74031Y-73799D01*
X74031Y-74045D01*
X71538Y-74045D01*
X71538Y-73499D01*
X71507Y-73327D01*
X71500Y-73309D01*
X71465Y-73249D01*
X71331Y-73383D01*
X71331Y-73114D01*
X71270Y-73080D01*
X71100Y-73042D01*
X70928Y-73072D01*
X70910Y-73080D01*
X70849Y-73114D01*
X71090Y-73355D01*
X71331Y-73114D01*
X71331Y-73383D01*
X71224Y-73490D01*
X71465Y-73731D01*
X71500Y-73670D01*
X71538Y-73499D01*
X71538Y-74045D01*
X71331Y-74045D01*
X71331Y-73865D01*
X71090Y-73624D01*
X70956Y-73758D01*
X70956Y-73490D01*
X70715Y-73249D01*
X70680Y-73309D01*
X70642Y-73480D01*
X70673Y-73652D01*
X70680Y-73670D01*
X70715Y-73731D01*
X70956Y-73490D01*
X70956Y-73758D01*
X70849Y-73865D01*
X70910Y-73899D01*
X71080Y-73937D01*
X71252Y-73907D01*
X71270Y-73899D01*
X71331Y-73865D01*
X71331Y-74045D01*
X70357Y-74045D01*
X70357Y-73499D01*
X70326Y-73327D01*
X70319Y-73309D01*
X70284Y-73249D01*
X70150Y-73383D01*
X70150Y-73114D01*
X70089Y-73080D01*
X69919Y-73042D01*
X69747Y-73072D01*
X69729Y-73080D01*
X69668Y-73114D01*
X69909Y-73355D01*
X70150Y-73114D01*
X70150Y-73383D01*
X70043Y-73490D01*
X70284Y-73731D01*
X70319Y-73670D01*
X70357Y-73499D01*
X70357Y-74045D01*
X70150Y-74045D01*
X70150Y-73865D01*
X69909Y-73624D01*
X69775Y-73758D01*
X69775Y-73490D01*
X69534Y-73249D01*
X69499Y-73309D01*
X69461Y-73480D01*
X69492Y-73652D01*
X69499Y-73670D01*
X69534Y-73731D01*
X69775Y-73490D01*
X69775Y-73758D01*
X69668Y-73865D01*
X69729Y-73899D01*
X69899Y-73937D01*
X70071Y-73907D01*
X70089Y-73899D01*
X70150Y-73865D01*
X70150Y-74045D01*
X69105Y-74045D01*
X69105Y-72955D01*
X72655Y-72955D01*
X72655Y-72555D01*
X74395Y-72555D01*
X74395Y-74045D01*
X74395Y-74045D01*
G37*
G54D64*
X74395Y-74045D02*
X74387Y-74045D01*
X74387Y-73793D01*
X74387Y-73206D01*
X74387Y-73203D01*
X74386Y-73201D01*
X74384Y-73199D01*
X74382Y-73198D01*
X74222Y-73199D01*
X74221Y-73200D01*
X74221Y-73405D01*
X74386Y-73405D01*
X74387Y-73403D01*
X74387Y-73206D01*
X74387Y-73793D01*
X74387Y-73596D01*
X74386Y-73595D01*
X74221Y-73595D01*
X74221Y-73799D01*
X74222Y-73801D01*
X74382Y-73801D01*
X74384Y-73800D01*
X74386Y-73798D01*
X74387Y-73796D01*
X74387Y-73793D01*
X74387Y-74045D01*
X74031Y-74045D01*
X74031Y-73799D01*
X74031Y-73595D01*
X74031Y-73405D01*
X74031Y-73200D01*
X74029Y-73199D01*
X73869Y-73198D01*
X73867Y-73199D01*
X73865Y-73201D01*
X73864Y-73203D01*
X73864Y-73206D01*
X73864Y-73403D01*
X73866Y-73405D01*
X74031Y-73405D01*
X74031Y-73595D01*
X73866Y-73595D01*
X73864Y-73596D01*
X73864Y-73793D01*
X73864Y-73796D01*
X73865Y-73798D01*
X73867Y-73800D01*
X73869Y-73801D01*
X74029Y-73801D01*
X74031Y-73799D01*
X74031Y-74045D01*
X71538Y-74045D01*
X71538Y-73499D01*
X71507Y-73327D01*
X71500Y-73309D01*
X71465Y-73249D01*
X71331Y-73383D01*
X71331Y-73114D01*
X71270Y-73080D01*
X71100Y-73042D01*
X70928Y-73072D01*
X70910Y-73080D01*
X70849Y-73114D01*
X71090Y-73355D01*
X71331Y-73114D01*
X71331Y-73383D01*
X71224Y-73490D01*
X71465Y-73731D01*
X71500Y-73670D01*
X71538Y-73499D01*
X71538Y-74045D01*
X71331Y-74045D01*
X71331Y-73865D01*
X71090Y-73624D01*
X70956Y-73758D01*
X70956Y-73490D01*
X70715Y-73249D01*
X70680Y-73309D01*
X70642Y-73480D01*
X70673Y-73652D01*
X70680Y-73670D01*
X70715Y-73731D01*
X70956Y-73490D01*
X70956Y-73758D01*
X70849Y-73865D01*
X70910Y-73899D01*
X71080Y-73937D01*
X71252Y-73907D01*
X71270Y-73899D01*
X71331Y-73865D01*
X71331Y-74045D01*
X70357Y-74045D01*
X70357Y-73499D01*
X70326Y-73327D01*
X70319Y-73309D01*
X70284Y-73249D01*
X70150Y-73383D01*
X70150Y-73114D01*
X70089Y-73080D01*
X69919Y-73042D01*
X69747Y-73072D01*
X69729Y-73080D01*
X69668Y-73114D01*
X69909Y-73355D01*
X70150Y-73114D01*
X70150Y-73383D01*
X70043Y-73490D01*
X70284Y-73731D01*
X70319Y-73670D01*
X70357Y-73499D01*
X70357Y-74045D01*
X70150Y-74045D01*
X70150Y-73865D01*
X69909Y-73624D01*
X69775Y-73758D01*
X69775Y-73490D01*
X69534Y-73249D01*
X69499Y-73309D01*
X69461Y-73480D01*
X69492Y-73652D01*
X69499Y-73670D01*
X69534Y-73731D01*
X69775Y-73490D01*
X69775Y-73758D01*
X69668Y-73865D01*
X69729Y-73899D01*
X69899Y-73937D01*
X70071Y-73907D01*
X70089Y-73899D01*
X70150Y-73865D01*
X70150Y-74045D01*
X69105Y-74045D01*
X69105Y-72955D01*
X72655Y-72955D01*
X72655Y-72555D01*
X74395Y-72555D01*
X74395Y-74045D01*
G54D10*
G36*
X76845Y-73295D02*
X76488Y-73295D01*
X76488Y-72549D01*
X76488Y-71450D01*
X76487Y-71447D01*
X76487Y-71445D01*
X76485Y-71443D01*
X76483Y-71442D01*
X76106Y-71443D01*
X76105Y-71444D01*
X76105Y-71905D01*
X76486Y-71905D01*
X76488Y-71903D01*
X76488Y-71450D01*
X76488Y-72549D01*
X76488Y-72096D01*
X76486Y-72095D01*
X76105Y-72095D01*
X76105Y-72555D01*
X76106Y-72557D01*
X76483Y-72557D01*
X76485Y-72556D01*
X76487Y-72554D01*
X76487Y-72552D01*
X76488Y-72549D01*
X76488Y-73295D01*
X75915Y-73295D01*
X75915Y-72555D01*
X75915Y-72095D01*
X75915Y-71905D01*
X75915Y-71444D01*
X75913Y-71443D01*
X75536Y-71442D01*
X75534Y-71443D01*
X75532Y-71445D01*
X75532Y-71447D01*
X75531Y-71450D01*
X75532Y-71903D01*
X75533Y-71905D01*
X75915Y-71905D01*
X75915Y-72095D01*
X75533Y-72095D01*
X75532Y-72096D01*
X75531Y-72549D01*
X75532Y-72552D01*
X75532Y-72554D01*
X75534Y-72556D01*
X75536Y-72557D01*
X75913Y-72557D01*
X75915Y-72555D01*
X75915Y-73295D01*
X75395Y-73295D01*
X75395Y-74045D01*
X75135Y-74045D01*
X75135Y-73793D01*
X75135Y-73206D01*
X75135Y-73203D01*
X75134Y-73201D01*
X75132Y-73199D01*
X75130Y-73198D01*
X75056Y-73198D01*
X75056Y-72195D01*
X75056Y-71804D01*
X75056Y-71802D01*
X75055Y-71800D01*
X75053Y-71798D01*
X75051Y-71797D01*
X74930Y-71797D01*
X74929Y-71799D01*
X74929Y-71905D01*
X75055Y-71905D01*
X75056Y-71903D01*
X75056Y-71804D01*
X75056Y-72195D01*
X75056Y-72096D01*
X75055Y-72095D01*
X74929Y-72095D01*
X74929Y-72201D01*
X74930Y-72202D01*
X75051Y-72202D01*
X75053Y-72201D01*
X75055Y-72199D01*
X75056Y-72197D01*
X75056Y-72195D01*
X75056Y-73198D01*
X74970Y-73199D01*
X74969Y-73200D01*
X74969Y-73405D01*
X75134Y-73405D01*
X75135Y-73403D01*
X75135Y-73206D01*
X75135Y-73793D01*
X75135Y-73596D01*
X75134Y-73595D01*
X74969Y-73595D01*
X74969Y-73799D01*
X74970Y-73801D01*
X75130Y-73801D01*
X75132Y-73800D01*
X75134Y-73798D01*
X75135Y-73796D01*
X75135Y-73793D01*
X75135Y-74045D01*
X74779Y-74045D01*
X74779Y-73799D01*
X74779Y-73595D01*
X74779Y-73405D01*
X74779Y-73200D01*
X74777Y-73199D01*
X74739Y-73198D01*
X74739Y-72201D01*
X74739Y-72095D01*
X74739Y-71905D01*
X74739Y-71799D01*
X74737Y-71797D01*
X74616Y-71797D01*
X74614Y-71798D01*
X74612Y-71800D01*
X74611Y-71802D01*
X74611Y-71804D01*
X74611Y-71903D01*
X74613Y-71905D01*
X74739Y-71905D01*
X74739Y-72095D01*
X74613Y-72095D01*
X74611Y-72096D01*
X74611Y-72195D01*
X74611Y-72197D01*
X74612Y-72199D01*
X74614Y-72201D01*
X74616Y-72202D01*
X74737Y-72202D01*
X74739Y-72201D01*
X74739Y-73198D01*
X74617Y-73198D01*
X74615Y-73199D01*
X74613Y-73201D01*
X74612Y-73203D01*
X74612Y-73206D01*
X74612Y-73403D01*
X74614Y-73405D01*
X74779Y-73405D01*
X74779Y-73595D01*
X74614Y-73595D01*
X74612Y-73596D01*
X74612Y-73793D01*
X74612Y-73796D01*
X74613Y-73798D01*
X74615Y-73800D01*
X74617Y-73801D01*
X74777Y-73801D01*
X74779Y-73799D01*
X74779Y-74045D01*
X74605Y-74045D01*
X74605Y-71545D01*
X74305Y-71545D01*
X74305Y-70255D01*
X74305Y-69624D01*
X74304Y-69621D01*
X74303Y-69620D01*
X74301Y-69619D01*
X74298Y-69619D01*
X74042Y-69619D01*
X74040Y-69620D01*
X74040Y-69844D01*
X74304Y-69844D01*
X74305Y-69843D01*
X74305Y-69624D01*
X74305Y-70255D01*
X74305Y-70036D01*
X74304Y-70034D01*
X74040Y-70034D01*
X74040Y-70258D01*
X74042Y-70260D01*
X74298Y-70260D01*
X74301Y-70260D01*
X74303Y-70259D01*
X74304Y-70257D01*
X74305Y-70255D01*
X74305Y-71545D01*
X73850Y-71545D01*
X73850Y-70258D01*
X73850Y-70034D01*
X73850Y-69844D01*
X73850Y-69620D01*
X73849Y-69619D01*
X73593Y-69619D01*
X73590Y-69619D01*
X73588Y-69620D01*
X73586Y-69621D01*
X73585Y-69624D01*
X73585Y-69843D01*
X73587Y-69844D01*
X73850Y-69844D01*
X73850Y-70034D01*
X73587Y-70034D01*
X73585Y-70036D01*
X73585Y-70255D01*
X73586Y-70257D01*
X73588Y-70259D01*
X73590Y-70260D01*
X73593Y-70260D01*
X73849Y-70260D01*
X73850Y-70258D01*
X73850Y-71545D01*
X72650Y-71545D01*
X67920Y-71545D01*
X67920Y-78310D01*
X45030Y-78310D01*
X45030Y-74895D01*
X37322Y-74895D01*
X37322Y-70764D01*
X37322Y-70567D01*
X37322Y-70377D01*
X37322Y-70180D01*
X37241Y-70113D01*
X37215Y-70098D01*
X37215Y-70377D01*
X37322Y-70377D01*
X37322Y-70567D01*
X37215Y-70567D01*
X37215Y-70846D01*
X37241Y-70831D01*
X37322Y-70764D01*
X37322Y-74895D01*
X37025Y-74895D01*
X37025Y-70846D01*
X37025Y-70567D01*
X37025Y-70377D01*
X37025Y-70098D01*
X36998Y-70113D01*
X36917Y-70180D01*
X36917Y-70377D01*
X37025Y-70377D01*
X37025Y-70567D01*
X36917Y-70567D01*
X36917Y-70764D01*
X36998Y-70831D01*
X37025Y-70846D01*
X37025Y-74895D01*
X36822Y-74895D01*
X36822Y-70764D01*
X36822Y-70567D01*
X36822Y-70377D01*
X36822Y-70180D01*
X36741Y-70113D01*
X36715Y-70098D01*
X36715Y-70377D01*
X36822Y-70377D01*
X36822Y-70567D01*
X36715Y-70567D01*
X36715Y-70846D01*
X36741Y-70831D01*
X36822Y-70764D01*
X36822Y-74895D01*
X36525Y-74895D01*
X36525Y-70846D01*
X36525Y-70567D01*
X36525Y-70377D01*
X36525Y-70098D01*
X36498Y-70113D01*
X36417Y-70180D01*
X36417Y-70377D01*
X36525Y-70377D01*
X36525Y-70567D01*
X36417Y-70567D01*
X36417Y-70764D01*
X36498Y-70831D01*
X36525Y-70846D01*
X36525Y-74895D01*
X36322Y-74895D01*
X36322Y-70764D01*
X36322Y-70567D01*
X36322Y-70377D01*
X36322Y-70180D01*
X36241Y-70113D01*
X36215Y-70098D01*
X36215Y-70377D01*
X36322Y-70377D01*
X36322Y-70567D01*
X36215Y-70567D01*
X36215Y-70846D01*
X36241Y-70831D01*
X36322Y-70764D01*
X36322Y-74895D01*
X36025Y-74895D01*
X36025Y-70846D01*
X36025Y-70567D01*
X36025Y-70377D01*
X36025Y-70098D01*
X35998Y-70113D01*
X35917Y-70180D01*
X35917Y-70377D01*
X36025Y-70377D01*
X36025Y-70567D01*
X35917Y-70567D01*
X35917Y-70764D01*
X35998Y-70831D01*
X36025Y-70846D01*
X36025Y-74895D01*
X35905Y-74895D01*
X35905Y-69955D01*
X37345Y-69955D01*
X37345Y-70232D01*
X37338Y-70266D01*
X37338Y-70678D01*
X37345Y-70712D01*
X37345Y-73680D01*
X47045Y-73680D01*
X47045Y-76755D01*
X65780Y-76755D01*
X65780Y-70330D01*
X70680Y-70330D01*
X70680Y-69505D01*
X72650Y-69505D01*
X75145Y-69505D01*
X75145Y-71055D01*
X76845Y-71055D01*
X76845Y-73295D01*
X76845Y-73295D01*
G37*
G54D64*
X76845Y-73295D02*
X76488Y-73295D01*
X76488Y-72549D01*
X76488Y-71450D01*
X76487Y-71447D01*
X76487Y-71445D01*
X76485Y-71443D01*
X76483Y-71442D01*
X76106Y-71443D01*
X76105Y-71444D01*
X76105Y-71905D01*
X76486Y-71905D01*
X76488Y-71903D01*
X76488Y-71450D01*
X76488Y-72549D01*
X76488Y-72096D01*
X76486Y-72095D01*
X76105Y-72095D01*
X76105Y-72555D01*
X76106Y-72557D01*
X76483Y-72557D01*
X76485Y-72556D01*
X76487Y-72554D01*
X76487Y-72552D01*
X76488Y-72549D01*
X76488Y-73295D01*
X75915Y-73295D01*
X75915Y-72555D01*
X75915Y-72095D01*
X75915Y-71905D01*
X75915Y-71444D01*
X75913Y-71443D01*
X75536Y-71442D01*
X75534Y-71443D01*
X75532Y-71445D01*
X75532Y-71447D01*
X75531Y-71450D01*
X75532Y-71903D01*
X75533Y-71905D01*
X75915Y-71905D01*
X75915Y-72095D01*
X75533Y-72095D01*
X75532Y-72096D01*
X75531Y-72549D01*
X75532Y-72552D01*
X75532Y-72554D01*
X75534Y-72556D01*
X75536Y-72557D01*
X75913Y-72557D01*
X75915Y-72555D01*
X75915Y-73295D01*
X75395Y-73295D01*
X75395Y-74045D01*
X75135Y-74045D01*
X75135Y-73793D01*
X75135Y-73206D01*
X75135Y-73203D01*
X75134Y-73201D01*
X75132Y-73199D01*
X75130Y-73198D01*
X75056Y-73198D01*
X75056Y-72195D01*
X75056Y-71804D01*
X75056Y-71802D01*
X75055Y-71800D01*
X75053Y-71798D01*
X75051Y-71797D01*
X74930Y-71797D01*
X74929Y-71799D01*
X74929Y-71905D01*
X75055Y-71905D01*
X75056Y-71903D01*
X75056Y-71804D01*
X75056Y-72195D01*
X75056Y-72096D01*
X75055Y-72095D01*
X74929Y-72095D01*
X74929Y-72201D01*
X74930Y-72202D01*
X75051Y-72202D01*
X75053Y-72201D01*
X75055Y-72199D01*
X75056Y-72197D01*
X75056Y-72195D01*
X75056Y-73198D01*
X74970Y-73199D01*
X74969Y-73200D01*
X74969Y-73405D01*
X75134Y-73405D01*
X75135Y-73403D01*
X75135Y-73206D01*
X75135Y-73793D01*
X75135Y-73596D01*
X75134Y-73595D01*
X74969Y-73595D01*
X74969Y-73799D01*
X74970Y-73801D01*
X75130Y-73801D01*
X75132Y-73800D01*
X75134Y-73798D01*
X75135Y-73796D01*
X75135Y-73793D01*
X75135Y-74045D01*
X74779Y-74045D01*
X74779Y-73799D01*
X74779Y-73595D01*
X74779Y-73405D01*
X74779Y-73200D01*
X74777Y-73199D01*
X74739Y-73198D01*
X74739Y-72201D01*
X74739Y-72095D01*
X74739Y-71905D01*
X74739Y-71799D01*
X74737Y-71797D01*
X74616Y-71797D01*
X74614Y-71798D01*
X74612Y-71800D01*
X74611Y-71802D01*
X74611Y-71804D01*
X74611Y-71903D01*
X74613Y-71905D01*
X74739Y-71905D01*
X74739Y-72095D01*
X74613Y-72095D01*
X74611Y-72096D01*
X74611Y-72195D01*
X74611Y-72197D01*
X74612Y-72199D01*
X74614Y-72201D01*
X74616Y-72202D01*
X74737Y-72202D01*
X74739Y-72201D01*
X74739Y-73198D01*
X74617Y-73198D01*
X74615Y-73199D01*
X74613Y-73201D01*
X74612Y-73203D01*
X74612Y-73206D01*
X74612Y-73403D01*
X74614Y-73405D01*
X74779Y-73405D01*
X74779Y-73595D01*
X74614Y-73595D01*
X74612Y-73596D01*
X74612Y-73793D01*
X74612Y-73796D01*
X74613Y-73798D01*
X74615Y-73800D01*
X74617Y-73801D01*
X74777Y-73801D01*
X74779Y-73799D01*
X74779Y-74045D01*
X74605Y-74045D01*
X74605Y-71545D01*
X74305Y-71545D01*
X74305Y-70255D01*
X74305Y-69624D01*
X74304Y-69621D01*
X74303Y-69620D01*
X74301Y-69619D01*
X74298Y-69619D01*
X74042Y-69619D01*
X74040Y-69620D01*
X74040Y-69844D01*
X74304Y-69844D01*
X74305Y-69843D01*
X74305Y-69624D01*
X74305Y-70255D01*
X74305Y-70036D01*
X74304Y-70034D01*
X74040Y-70034D01*
X74040Y-70258D01*
X74042Y-70260D01*
X74298Y-70260D01*
X74301Y-70260D01*
X74303Y-70259D01*
X74304Y-70257D01*
X74305Y-70255D01*
X74305Y-71545D01*
X73850Y-71545D01*
X73850Y-70258D01*
X73850Y-70034D01*
X73850Y-69844D01*
X73850Y-69620D01*
X73849Y-69619D01*
X73593Y-69619D01*
X73590Y-69619D01*
X73588Y-69620D01*
X73586Y-69621D01*
X73585Y-69624D01*
X73585Y-69843D01*
X73587Y-69844D01*
X73850Y-69844D01*
X73850Y-70034D01*
X73587Y-70034D01*
X73585Y-70036D01*
X73585Y-70255D01*
X73586Y-70257D01*
X73588Y-70259D01*
X73590Y-70260D01*
X73593Y-70260D01*
X73849Y-70260D01*
X73850Y-70258D01*
X73850Y-71545D01*
X72650Y-71545D01*
X67920Y-71545D01*
X67920Y-78310D01*
X45030Y-78310D01*
X45030Y-74895D01*
X37322Y-74895D01*
X37322Y-70764D01*
X37322Y-70567D01*
X37322Y-70377D01*
X37322Y-70180D01*
X37241Y-70113D01*
X37215Y-70098D01*
X37215Y-70377D01*
X37322Y-70377D01*
X37322Y-70567D01*
X37215Y-70567D01*
X37215Y-70846D01*
X37241Y-70831D01*
X37322Y-70764D01*
X37322Y-74895D01*
X37025Y-74895D01*
X37025Y-70846D01*
X37025Y-70567D01*
X37025Y-70377D01*
X37025Y-70098D01*
X36998Y-70113D01*
X36917Y-70180D01*
X36917Y-70377D01*
X37025Y-70377D01*
X37025Y-70567D01*
X36917Y-70567D01*
X36917Y-70764D01*
X36998Y-70831D01*
X37025Y-70846D01*
X37025Y-74895D01*
X36822Y-74895D01*
X36822Y-70764D01*
X36822Y-70567D01*
X36822Y-70377D01*
X36822Y-70180D01*
X36741Y-70113D01*
X36715Y-70098D01*
X36715Y-70377D01*
X36822Y-70377D01*
X36822Y-70567D01*
X36715Y-70567D01*
X36715Y-70846D01*
X36741Y-70831D01*
X36822Y-70764D01*
X36822Y-74895D01*
X36525Y-74895D01*
X36525Y-70846D01*
X36525Y-70567D01*
X36525Y-70377D01*
X36525Y-70098D01*
X36498Y-70113D01*
X36417Y-70180D01*
X36417Y-70377D01*
X36525Y-70377D01*
X36525Y-70567D01*
X36417Y-70567D01*
X36417Y-70764D01*
X36498Y-70831D01*
X36525Y-70846D01*
X36525Y-74895D01*
X36322Y-74895D01*
X36322Y-70764D01*
X36322Y-70567D01*
X36322Y-70377D01*
X36322Y-70180D01*
X36241Y-70113D01*
X36215Y-70098D01*
X36215Y-70377D01*
X36322Y-70377D01*
X36322Y-70567D01*
X36215Y-70567D01*
X36215Y-70846D01*
X36241Y-70831D01*
X36322Y-70764D01*
X36322Y-74895D01*
X36025Y-74895D01*
X36025Y-70846D01*
X36025Y-70567D01*
X36025Y-70377D01*
X36025Y-70098D01*
X35998Y-70113D01*
X35917Y-70180D01*
X35917Y-70377D01*
X36025Y-70377D01*
X36025Y-70567D01*
X35917Y-70567D01*
X35917Y-70764D01*
X35998Y-70831D01*
X36025Y-70846D01*
X36025Y-74895D01*
X35905Y-74895D01*
X35905Y-69955D01*
X37345Y-69955D01*
X37345Y-70232D01*
X37338Y-70266D01*
X37338Y-70678D01*
X37345Y-70712D01*
X37345Y-73680D01*
X47045Y-73680D01*
X47045Y-76755D01*
X65780Y-76755D01*
X65780Y-70330D01*
X70680Y-70330D01*
X70680Y-69505D01*
X72650Y-69505D01*
X75145Y-69505D01*
X75145Y-71055D01*
X76845Y-71055D01*
X76845Y-73295D01*
G54D10*
G36*
X80120Y-70770D02*
X78580Y-70770D01*
X78580Y-70520D01*
X78580Y-67766D01*
X78580Y-67764D01*
X78579Y-67762D01*
X78578Y-67760D01*
X78575Y-67759D01*
X78305Y-67759D01*
X78305Y-66755D01*
X78305Y-66124D01*
X78304Y-66121D01*
X78303Y-66120D01*
X78301Y-66119D01*
X78298Y-66119D01*
X78042Y-66119D01*
X78040Y-66120D01*
X78040Y-66344D01*
X78304Y-66344D01*
X78305Y-66343D01*
X78305Y-66124D01*
X78305Y-66755D01*
X78305Y-66536D01*
X78304Y-66534D01*
X78040Y-66534D01*
X78040Y-66758D01*
X78042Y-66760D01*
X78298Y-66760D01*
X78301Y-66760D01*
X78303Y-66759D01*
X78304Y-66757D01*
X78305Y-66755D01*
X78305Y-67759D01*
X78080Y-67759D01*
X78079Y-67761D01*
X78079Y-69048D01*
X78579Y-69048D01*
X78580Y-69047D01*
X78580Y-67766D01*
X78580Y-70520D01*
X78580Y-69240D01*
X78579Y-69238D01*
X78079Y-69238D01*
X78079Y-70526D01*
X78080Y-70527D01*
X78575Y-70527D01*
X78578Y-70526D01*
X78579Y-70525D01*
X78580Y-70522D01*
X78580Y-70520D01*
X78580Y-70770D01*
X77889Y-70770D01*
X77889Y-70526D01*
X77889Y-69238D01*
X77889Y-69048D01*
X77889Y-67761D01*
X77887Y-67759D01*
X77850Y-67759D01*
X77850Y-66758D01*
X77850Y-66534D01*
X77850Y-66344D01*
X77850Y-66120D01*
X77849Y-66119D01*
X77593Y-66119D01*
X77590Y-66119D01*
X77588Y-66120D01*
X77586Y-66121D01*
X77585Y-66124D01*
X77585Y-66343D01*
X77587Y-66344D01*
X77850Y-66344D01*
X77850Y-66534D01*
X77587Y-66534D01*
X77585Y-66536D01*
X77585Y-66755D01*
X77586Y-66757D01*
X77588Y-66759D01*
X77590Y-66760D01*
X77593Y-66760D01*
X77849Y-66760D01*
X77850Y-66758D01*
X77850Y-67759D01*
X77392Y-67759D01*
X77390Y-67760D01*
X77388Y-67762D01*
X77387Y-67764D01*
X77387Y-67766D01*
X77387Y-69047D01*
X77389Y-69048D01*
X77889Y-69048D01*
X77889Y-69238D01*
X77389Y-69238D01*
X77387Y-69240D01*
X77387Y-70520D01*
X77387Y-70522D01*
X77388Y-70525D01*
X77390Y-70526D01*
X77392Y-70527D01*
X77887Y-70527D01*
X77889Y-70526D01*
X77889Y-70770D01*
X77330Y-70770D01*
X77330Y-65980D01*
X78705Y-65980D01*
X78705Y-63245D01*
X78305Y-63245D01*
X78305Y-63153D01*
X78305Y-62522D01*
X78304Y-62519D01*
X78303Y-62518D01*
X78301Y-62517D01*
X78298Y-62517D01*
X78042Y-62517D01*
X78040Y-62518D01*
X78040Y-62742D01*
X78304Y-62742D01*
X78305Y-62741D01*
X78305Y-62522D01*
X78305Y-63153D01*
X78305Y-62934D01*
X78304Y-62932D01*
X78040Y-62932D01*
X78040Y-63156D01*
X78042Y-63158D01*
X78298Y-63158D01*
X78301Y-63158D01*
X78303Y-63157D01*
X78304Y-63155D01*
X78305Y-63153D01*
X78305Y-63245D01*
X77850Y-63245D01*
X77850Y-63156D01*
X77850Y-62932D01*
X77850Y-62742D01*
X77850Y-62518D01*
X77849Y-62517D01*
X77593Y-62517D01*
X77590Y-62517D01*
X77588Y-62518D01*
X77586Y-62519D01*
X77585Y-62522D01*
X77585Y-62741D01*
X77587Y-62742D01*
X77850Y-62742D01*
X77850Y-62932D01*
X77587Y-62932D01*
X77585Y-62934D01*
X77585Y-63153D01*
X77586Y-63155D01*
X77588Y-63157D01*
X77590Y-63158D01*
X77593Y-63158D01*
X77849Y-63158D01*
X77850Y-63156D01*
X77850Y-63245D01*
X77230Y-63245D01*
X77230Y-62255D01*
X80120Y-62255D01*
X80120Y-70770D01*
X80120Y-70770D01*
G37*
G54D64*
X80120Y-70770D02*
X78580Y-70770D01*
X78580Y-70520D01*
X78580Y-67766D01*
X78580Y-67764D01*
X78579Y-67762D01*
X78578Y-67760D01*
X78575Y-67759D01*
X78305Y-67759D01*
X78305Y-66755D01*
X78305Y-66124D01*
X78304Y-66121D01*
X78303Y-66120D01*
X78301Y-66119D01*
X78298Y-66119D01*
X78042Y-66119D01*
X78040Y-66120D01*
X78040Y-66344D01*
X78304Y-66344D01*
X78305Y-66343D01*
X78305Y-66124D01*
X78305Y-66755D01*
X78305Y-66536D01*
X78304Y-66534D01*
X78040Y-66534D01*
X78040Y-66758D01*
X78042Y-66760D01*
X78298Y-66760D01*
X78301Y-66760D01*
X78303Y-66759D01*
X78304Y-66757D01*
X78305Y-66755D01*
X78305Y-67759D01*
X78080Y-67759D01*
X78079Y-67761D01*
X78079Y-69048D01*
X78579Y-69048D01*
X78580Y-69047D01*
X78580Y-67766D01*
X78580Y-70520D01*
X78580Y-69240D01*
X78579Y-69238D01*
X78079Y-69238D01*
X78079Y-70526D01*
X78080Y-70527D01*
X78575Y-70527D01*
X78578Y-70526D01*
X78579Y-70525D01*
X78580Y-70522D01*
X78580Y-70520D01*
X78580Y-70770D01*
X77889Y-70770D01*
X77889Y-70526D01*
X77889Y-69238D01*
X77889Y-69048D01*
X77889Y-67761D01*
X77887Y-67759D01*
X77850Y-67759D01*
X77850Y-66758D01*
X77850Y-66534D01*
X77850Y-66344D01*
X77850Y-66120D01*
X77849Y-66119D01*
X77593Y-66119D01*
X77590Y-66119D01*
X77588Y-66120D01*
X77586Y-66121D01*
X77585Y-66124D01*
X77585Y-66343D01*
X77587Y-66344D01*
X77850Y-66344D01*
X77850Y-66534D01*
X77587Y-66534D01*
X77585Y-66536D01*
X77585Y-66755D01*
X77586Y-66757D01*
X77588Y-66759D01*
X77590Y-66760D01*
X77593Y-66760D01*
X77849Y-66760D01*
X77850Y-66758D01*
X77850Y-67759D01*
X77392Y-67759D01*
X77390Y-67760D01*
X77388Y-67762D01*
X77387Y-67764D01*
X77387Y-67766D01*
X77387Y-69047D01*
X77389Y-69048D01*
X77889Y-69048D01*
X77889Y-69238D01*
X77389Y-69238D01*
X77387Y-69240D01*
X77387Y-70520D01*
X77387Y-70522D01*
X77388Y-70525D01*
X77390Y-70526D01*
X77392Y-70527D01*
X77887Y-70527D01*
X77889Y-70526D01*
X77889Y-70770D01*
X77330Y-70770D01*
X77330Y-65980D01*
X78705Y-65980D01*
X78705Y-63245D01*
X78305Y-63245D01*
X78305Y-63153D01*
X78305Y-62522D01*
X78304Y-62519D01*
X78303Y-62518D01*
X78301Y-62517D01*
X78298Y-62517D01*
X78042Y-62517D01*
X78040Y-62518D01*
X78040Y-62742D01*
X78304Y-62742D01*
X78305Y-62741D01*
X78305Y-62522D01*
X78305Y-63153D01*
X78305Y-62934D01*
X78304Y-62932D01*
X78040Y-62932D01*
X78040Y-63156D01*
X78042Y-63158D01*
X78298Y-63158D01*
X78301Y-63158D01*
X78303Y-63157D01*
X78304Y-63155D01*
X78305Y-63153D01*
X78305Y-63245D01*
X77850Y-63245D01*
X77850Y-63156D01*
X77850Y-62932D01*
X77850Y-62742D01*
X77850Y-62518D01*
X77849Y-62517D01*
X77593Y-62517D01*
X77590Y-62517D01*
X77588Y-62518D01*
X77586Y-62519D01*
X77585Y-62522D01*
X77585Y-62741D01*
X77587Y-62742D01*
X77850Y-62742D01*
X77850Y-62932D01*
X77587Y-62932D01*
X77585Y-62934D01*
X77585Y-63153D01*
X77586Y-63155D01*
X77588Y-63157D01*
X77590Y-63158D01*
X77593Y-63158D01*
X77849Y-63158D01*
X77850Y-63156D01*
X77850Y-63245D01*
X77230Y-63245D01*
X77230Y-62255D01*
X80120Y-62255D01*
X80120Y-70770D01*
G54D10*
G36*
X78445Y-65745D02*
X78305Y-65745D01*
X78305Y-65653D01*
X78305Y-65022D01*
X78305Y-64255D01*
X78305Y-63624D01*
X78304Y-63621D01*
X78303Y-63620D01*
X78301Y-63619D01*
X78298Y-63619D01*
X78042Y-63619D01*
X78040Y-63620D01*
X78040Y-63844D01*
X78304Y-63844D01*
X78305Y-63843D01*
X78305Y-63624D01*
X78305Y-64255D01*
X78305Y-64036D01*
X78304Y-64034D01*
X78040Y-64034D01*
X78040Y-64258D01*
X78042Y-64260D01*
X78298Y-64260D01*
X78301Y-64260D01*
X78303Y-64259D01*
X78304Y-64257D01*
X78305Y-64255D01*
X78305Y-65022D01*
X78304Y-65019D01*
X78303Y-65018D01*
X78301Y-65017D01*
X78298Y-65017D01*
X78042Y-65017D01*
X78040Y-65018D01*
X78040Y-65242D01*
X78304Y-65242D01*
X78305Y-65241D01*
X78305Y-65022D01*
X78305Y-65653D01*
X78305Y-65434D01*
X78304Y-65432D01*
X78040Y-65432D01*
X78040Y-65656D01*
X78042Y-65658D01*
X78298Y-65658D01*
X78301Y-65658D01*
X78303Y-65657D01*
X78304Y-65655D01*
X78305Y-65653D01*
X78305Y-65745D01*
X77850Y-65745D01*
X77850Y-65656D01*
X77850Y-65432D01*
X77850Y-65242D01*
X77850Y-65018D01*
X77850Y-64258D01*
X77850Y-64034D01*
X77850Y-63844D01*
X77850Y-63620D01*
X77849Y-63619D01*
X77593Y-63619D01*
X77590Y-63619D01*
X77588Y-63620D01*
X77586Y-63621D01*
X77585Y-63624D01*
X77585Y-63843D01*
X77587Y-63844D01*
X77850Y-63844D01*
X77850Y-64034D01*
X77587Y-64034D01*
X77585Y-64036D01*
X77585Y-64255D01*
X77586Y-64257D01*
X77588Y-64259D01*
X77590Y-64260D01*
X77593Y-64260D01*
X77849Y-64260D01*
X77850Y-64258D01*
X77850Y-65018D01*
X77849Y-65017D01*
X77593Y-65017D01*
X77590Y-65017D01*
X77588Y-65018D01*
X77586Y-65019D01*
X77585Y-65022D01*
X77585Y-65241D01*
X77587Y-65242D01*
X77850Y-65242D01*
X77850Y-65432D01*
X77587Y-65432D01*
X77585Y-65434D01*
X77585Y-65653D01*
X77586Y-65655D01*
X77588Y-65657D01*
X77590Y-65658D01*
X77593Y-65658D01*
X77849Y-65658D01*
X77850Y-65656D01*
X77850Y-65745D01*
X76786Y-65745D01*
X76786Y-65265D01*
X76786Y-64594D01*
X76785Y-64592D01*
X76783Y-64590D01*
X76781Y-64589D01*
X76779Y-64589D01*
X76542Y-64589D01*
X76540Y-64590D01*
X76540Y-64835D01*
X76785Y-64835D01*
X76786Y-64833D01*
X76786Y-64594D01*
X76786Y-65265D01*
X76786Y-65026D01*
X76785Y-65025D01*
X76540Y-65025D01*
X76540Y-65269D01*
X76542Y-65270D01*
X76779Y-65270D01*
X76781Y-65270D01*
X76783Y-65269D01*
X76785Y-65268D01*
X76786Y-65265D01*
X76786Y-65745D01*
X76350Y-65745D01*
X76350Y-65269D01*
X76350Y-65025D01*
X76350Y-64835D01*
X76350Y-64590D01*
X76349Y-64589D01*
X76112Y-64589D01*
X76110Y-64589D01*
X76107Y-64590D01*
X76106Y-64592D01*
X76105Y-64594D01*
X76105Y-64833D01*
X76106Y-64835D01*
X76350Y-64835D01*
X76350Y-65025D01*
X76106Y-65025D01*
X76105Y-65026D01*
X76105Y-65265D01*
X76106Y-65268D01*
X76107Y-65269D01*
X76110Y-65270D01*
X76112Y-65270D01*
X76349Y-65270D01*
X76350Y-65269D01*
X76350Y-65745D01*
X75495Y-65745D01*
X75495Y-66495D01*
X75319Y-66495D01*
X75319Y-66352D01*
X75319Y-65725D01*
X75319Y-65722D01*
X75319Y-65720D01*
X75317Y-65718D01*
X75315Y-65717D01*
X75256Y-65717D01*
X75254Y-65719D01*
X75254Y-65943D01*
X75318Y-65943D01*
X75319Y-65942D01*
X75319Y-65725D01*
X75319Y-66352D01*
X75319Y-66135D01*
X75318Y-66133D01*
X75254Y-66133D01*
X75254Y-66358D01*
X75256Y-66359D01*
X75315Y-66359D01*
X75317Y-66358D01*
X75319Y-66357D01*
X75319Y-66354D01*
X75319Y-66352D01*
X75319Y-66495D01*
X75136Y-66495D01*
X75136Y-66358D01*
X75136Y-66133D01*
X75136Y-65943D01*
X75136Y-65719D01*
X75135Y-65717D01*
X75101Y-65717D01*
X75101Y-65340D01*
X75101Y-64437D01*
X75101Y-64434D01*
X75100Y-64432D01*
X75098Y-64430D01*
X75096Y-64430D01*
X74542Y-64430D01*
X74540Y-64431D01*
X74540Y-64793D01*
X75099Y-64793D01*
X75101Y-64792D01*
X75101Y-64437D01*
X75101Y-65340D01*
X75101Y-64985D01*
X75099Y-64983D01*
X74540Y-64983D01*
X74540Y-65346D01*
X74542Y-65347D01*
X75096Y-65347D01*
X75098Y-65346D01*
X75100Y-65344D01*
X75101Y-65342D01*
X75101Y-65340D01*
X75101Y-65717D01*
X75076Y-65717D01*
X75074Y-65718D01*
X75072Y-65720D01*
X75071Y-65722D01*
X75071Y-65725D01*
X75071Y-65942D01*
X75073Y-65943D01*
X75136Y-65943D01*
X75136Y-66133D01*
X75073Y-66133D01*
X75071Y-66135D01*
X75071Y-66352D01*
X75071Y-66354D01*
X75072Y-66357D01*
X75074Y-66358D01*
X75076Y-66359D01*
X75135Y-66359D01*
X75136Y-66358D01*
X75136Y-66495D01*
X75005Y-66495D01*
X75005Y-65445D01*
X74350Y-65445D01*
X74350Y-65346D01*
X74350Y-64983D01*
X74350Y-64793D01*
X74350Y-64431D01*
X74349Y-64430D01*
X73795Y-64430D01*
X73792Y-64430D01*
X73791Y-64432D01*
X73790Y-64434D01*
X73790Y-64437D01*
X73790Y-64792D01*
X73791Y-64793D01*
X74350Y-64793D01*
X74350Y-64983D01*
X73791Y-64983D01*
X73790Y-64985D01*
X73790Y-65340D01*
X73790Y-65342D01*
X73791Y-65344D01*
X73792Y-65346D01*
X73795Y-65347D01*
X74349Y-65347D01*
X74350Y-65346D01*
X74350Y-65445D01*
X73555Y-65445D01*
X73555Y-64305D01*
X77255Y-64305D01*
X77255Y-63455D01*
X78445Y-63455D01*
X78445Y-65745D01*
X78445Y-65745D01*
G37*
G54D64*
X78445Y-65745D02*
X78305Y-65745D01*
X78305Y-65653D01*
X78305Y-65022D01*
X78305Y-64255D01*
X78305Y-63624D01*
X78304Y-63621D01*
X78303Y-63620D01*
X78301Y-63619D01*
X78298Y-63619D01*
X78042Y-63619D01*
X78040Y-63620D01*
X78040Y-63844D01*
X78304Y-63844D01*
X78305Y-63843D01*
X78305Y-63624D01*
X78305Y-64255D01*
X78305Y-64036D01*
X78304Y-64034D01*
X78040Y-64034D01*
X78040Y-64258D01*
X78042Y-64260D01*
X78298Y-64260D01*
X78301Y-64260D01*
X78303Y-64259D01*
X78304Y-64257D01*
X78305Y-64255D01*
X78305Y-65022D01*
X78304Y-65019D01*
X78303Y-65018D01*
X78301Y-65017D01*
X78298Y-65017D01*
X78042Y-65017D01*
X78040Y-65018D01*
X78040Y-65242D01*
X78304Y-65242D01*
X78305Y-65241D01*
X78305Y-65022D01*
X78305Y-65653D01*
X78305Y-65434D01*
X78304Y-65432D01*
X78040Y-65432D01*
X78040Y-65656D01*
X78042Y-65658D01*
X78298Y-65658D01*
X78301Y-65658D01*
X78303Y-65657D01*
X78304Y-65655D01*
X78305Y-65653D01*
X78305Y-65745D01*
X77850Y-65745D01*
X77850Y-65656D01*
X77850Y-65432D01*
X77850Y-65242D01*
X77850Y-65018D01*
X77850Y-64258D01*
X77850Y-64034D01*
X77850Y-63844D01*
X77850Y-63620D01*
X77849Y-63619D01*
X77593Y-63619D01*
X77590Y-63619D01*
X77588Y-63620D01*
X77586Y-63621D01*
X77585Y-63624D01*
X77585Y-63843D01*
X77587Y-63844D01*
X77850Y-63844D01*
X77850Y-64034D01*
X77587Y-64034D01*
X77585Y-64036D01*
X77585Y-64255D01*
X77586Y-64257D01*
X77588Y-64259D01*
X77590Y-64260D01*
X77593Y-64260D01*
X77849Y-64260D01*
X77850Y-64258D01*
X77850Y-65018D01*
X77849Y-65017D01*
X77593Y-65017D01*
X77590Y-65017D01*
X77588Y-65018D01*
X77586Y-65019D01*
X77585Y-65022D01*
X77585Y-65241D01*
X77587Y-65242D01*
X77850Y-65242D01*
X77850Y-65432D01*
X77587Y-65432D01*
X77585Y-65434D01*
X77585Y-65653D01*
X77586Y-65655D01*
X77588Y-65657D01*
X77590Y-65658D01*
X77593Y-65658D01*
X77849Y-65658D01*
X77850Y-65656D01*
X77850Y-65745D01*
X76786Y-65745D01*
X76786Y-65265D01*
X76786Y-64594D01*
X76785Y-64592D01*
X76783Y-64590D01*
X76781Y-64589D01*
X76779Y-64589D01*
X76542Y-64589D01*
X76540Y-64590D01*
X76540Y-64835D01*
X76785Y-64835D01*
X76786Y-64833D01*
X76786Y-64594D01*
X76786Y-65265D01*
X76786Y-65026D01*
X76785Y-65025D01*
X76540Y-65025D01*
X76540Y-65269D01*
X76542Y-65270D01*
X76779Y-65270D01*
X76781Y-65270D01*
X76783Y-65269D01*
X76785Y-65268D01*
X76786Y-65265D01*
X76786Y-65745D01*
X76350Y-65745D01*
X76350Y-65269D01*
X76350Y-65025D01*
X76350Y-64835D01*
X76350Y-64590D01*
X76349Y-64589D01*
X76112Y-64589D01*
X76110Y-64589D01*
X76107Y-64590D01*
X76106Y-64592D01*
X76105Y-64594D01*
X76105Y-64833D01*
X76106Y-64835D01*
X76350Y-64835D01*
X76350Y-65025D01*
X76106Y-65025D01*
X76105Y-65026D01*
X76105Y-65265D01*
X76106Y-65268D01*
X76107Y-65269D01*
X76110Y-65270D01*
X76112Y-65270D01*
X76349Y-65270D01*
X76350Y-65269D01*
X76350Y-65745D01*
X75495Y-65745D01*
X75495Y-66495D01*
X75319Y-66495D01*
X75319Y-66352D01*
X75319Y-65725D01*
X75319Y-65722D01*
X75319Y-65720D01*
X75317Y-65718D01*
X75315Y-65717D01*
X75256Y-65717D01*
X75254Y-65719D01*
X75254Y-65943D01*
X75318Y-65943D01*
X75319Y-65942D01*
X75319Y-65725D01*
X75319Y-66352D01*
X75319Y-66135D01*
X75318Y-66133D01*
X75254Y-66133D01*
X75254Y-66358D01*
X75256Y-66359D01*
X75315Y-66359D01*
X75317Y-66358D01*
X75319Y-66357D01*
X75319Y-66354D01*
X75319Y-66352D01*
X75319Y-66495D01*
X75136Y-66495D01*
X75136Y-66358D01*
X75136Y-66133D01*
X75136Y-65943D01*
X75136Y-65719D01*
X75135Y-65717D01*
X75101Y-65717D01*
X75101Y-65340D01*
X75101Y-64437D01*
X75101Y-64434D01*
X75100Y-64432D01*
X75098Y-64430D01*
X75096Y-64430D01*
X74542Y-64430D01*
X74540Y-64431D01*
X74540Y-64793D01*
X75099Y-64793D01*
X75101Y-64792D01*
X75101Y-64437D01*
X75101Y-65340D01*
X75101Y-64985D01*
X75099Y-64983D01*
X74540Y-64983D01*
X74540Y-65346D01*
X74542Y-65347D01*
X75096Y-65347D01*
X75098Y-65346D01*
X75100Y-65344D01*
X75101Y-65342D01*
X75101Y-65340D01*
X75101Y-65717D01*
X75076Y-65717D01*
X75074Y-65718D01*
X75072Y-65720D01*
X75071Y-65722D01*
X75071Y-65725D01*
X75071Y-65942D01*
X75073Y-65943D01*
X75136Y-65943D01*
X75136Y-66133D01*
X75073Y-66133D01*
X75071Y-66135D01*
X75071Y-66352D01*
X75071Y-66354D01*
X75072Y-66357D01*
X75074Y-66358D01*
X75076Y-66359D01*
X75135Y-66359D01*
X75136Y-66358D01*
X75136Y-66495D01*
X75005Y-66495D01*
X75005Y-65445D01*
X74350Y-65445D01*
X74350Y-65346D01*
X74350Y-64983D01*
X74350Y-64793D01*
X74350Y-64431D01*
X74349Y-64430D01*
X73795Y-64430D01*
X73792Y-64430D01*
X73791Y-64432D01*
X73790Y-64434D01*
X73790Y-64437D01*
X73790Y-64792D01*
X73791Y-64793D01*
X74350Y-64793D01*
X74350Y-64983D01*
X73791Y-64983D01*
X73790Y-64985D01*
X73790Y-65340D01*
X73790Y-65342D01*
X73791Y-65344D01*
X73792Y-65346D01*
X73795Y-65347D01*
X74349Y-65347D01*
X74350Y-65346D01*
X74350Y-65445D01*
X73555Y-65445D01*
X73555Y-64305D01*
X77255Y-64305D01*
X77255Y-63455D01*
X78445Y-63455D01*
X78445Y-65745D01*
M02*
