M48
;DRILL file {Pcbnew (2013-03-19 BZR 4004)-stable} date 2015/1/22 14:09:11
;FORMAT={-:-/ absolute / inch / decimal}
FMAT,2
INCH,TZ
T1C0.012
T2C0.013
T3C0.020
T4C0.028
T5C0.030
T6C0.032
T7C0.032
T8C0.035
T9C0.039
T10C0.040
T11C0.043
T12C0.047
T13C0.059
T14C0.080
T15C0.091
T16C0.126
T17C0.134
%
G90
G05
M72
T1
X3.07Y-7.135
X3.11Y-7.125
X4.075Y-7.1
X4.12Y-7.055
X4.29Y-6.8
X4.37Y-6.8
X4.45Y-6.8
X4.53Y-6.8
X5.9398Y-6.348
X5.9848Y-6.508
X6.1075Y-3.9925
X6.1348Y-6.748
X6.1518Y-3.8429
X6.1552Y-4.2379
X6.2348Y-6.283
X6.26Y-5.87
X6.26Y-5.905
X6.2798Y-6.543
X6.2848Y-6.698
X6.305Y-4.475
X6.315Y-4.595
X6.3252Y-3.9429
X6.3252Y-4.0729
X6.33Y-4.445
X6.3348Y-6.288
X6.3348Y-6.388
X6.3348Y-6.423
X6.355Y-4.595
X6.4348Y-6.288
X6.4352Y-3.9529
X6.4352Y-4.0629
X6.4402Y-4.3339
X6.4652Y-3.6095
X6.5348Y-6.288
X6.5348Y-6.463
X6.5648Y-5.4721
X6.5898Y-5.613
X6.5898Y-5.848
X6.5948Y-5.788
X6.5952Y-3.7679
X6.5998Y-5.963
X6.6038Y-5.898
X6.6348Y-6.283
X6.6352Y-4.4263
X6.6448Y-5.598
X6.6448Y-6.5205
X6.6602Y-3.9229
X6.6652Y-3.9829
X6.6748Y-5.983
X6.6778Y-5.822
X6.6802Y-4.1879
X6.7348Y-6.288
X6.7348Y-6.428
X6.7518Y-5.966
X6.7648Y-5.2756
X6.7898Y-6.428
X6.8098Y-5.628
X6.8098Y-5.764
X6.81Y-4.55
X6.8198Y-6.298
X6.8275Y-3.9375
X6.8338Y-5.974
X6.8498Y-6.073
X6.8698Y-5.598
X6.8898Y-6.518
X6.9098Y-6.008
X6.9352Y-3.9029
X7.0298Y-5.848
X7.05Y-5.1575
X7.085Y-5.13
X7.0948Y-6.088
X7.11Y-4.8
X7.145Y-4.815
X7.155Y-4.54
X7.165Y-5.9275
X7.4204Y-6.6872
X7.6425Y-4.7825
X7.675Y-4.7925
X7.7Y-4.245
X7.76Y-4.245
X7.845Y-3.925
X7.87Y-3.9
T2
X4.985Y-7.2
X5.315Y-7.195
X5.385Y-7.41
X5.716Y-4.902
X5.79Y-5.185
X5.9448Y-7.028
X6.04Y-7.3
X6.13Y-4.435
X6.135Y-4.725
X6.22Y-4.78
X6.255Y-4.415
X6.268Y-5.188
X6.29Y-3.975
X6.31Y-7.145
X6.35Y-5.188
X6.385Y-7.41
X6.3998Y-6.972
X6.58Y-6.698
X6.6Y-4.07
X6.67Y-4.78
X6.785Y-4.475
X6.79Y-4.625
X6.8025Y-4.71
X6.815Y-4.805
X6.865Y-6.14
X7.005Y-6.855
X7.045Y-4.0682
X7.1Y-5.64
X7.17Y-4.045
X7.31Y-6.25
X7.36Y-7.2
X7.68Y-6.085
X7.706Y-4.888
X7.756Y-6.184
T3
X3.612Y-7.127
X3.615Y-7.21
X3.62Y-7.3
X3.62Y-7.385
X3.62Y-7.445
X3.66Y-7.125
X3.66Y-7.21
X3.66Y-7.295
X3.66Y-7.38
X3.7Y-7.45
X3.705Y-7.38
X3.71Y-7.125
X3.71Y-7.205
X3.71Y-7.29
X3.785Y-7.395
X3.785Y-7.455
X3.885Y-7.39
X3.885Y-7.455
X3.995Y-7.455
X4.Y-7.39
X4.1Y-7.385
X4.1Y-7.45
X4.21Y-7.385
X4.21Y-7.45
X4.3Y-7.385
X4.3Y-7.45
X4.43Y-7.385
X4.43Y-7.455
X4.555Y-7.425
X4.555Y-7.525
X4.555Y-7.63
X4.555Y-7.72
X4.555Y-7.795
X4.625Y-7.425
X4.625Y-7.525
X4.625Y-7.625
X4.64Y-7.72
X4.64Y-7.795
X4.715Y-7.71
X4.715Y-7.79
X4.805Y-7.71
X4.805Y-7.795
X4.905Y-7.7
X4.905Y-7.775
X5.005Y-7.705
X5.005Y-7.775
X5.1Y-7.705
X5.1Y-7.775
X5.21Y-7.705
X5.21Y-7.775
X5.255Y-7.2
X5.28Y-7.1
X5.31Y-7.705
X5.31Y-7.775
X5.41Y-7.705
X5.41Y-7.775
X5.52Y-7.705
X5.52Y-7.775
X5.65Y-7.705
X5.65Y-7.775
X5.75Y-7.095
X5.7625Y-4.905
X5.765Y-7.705
X5.765Y-7.775
X5.88Y-7.705
X5.88Y-7.775
X5.93Y-7.205
X5.945Y-6.775
X5.995Y-7.705
X5.995Y-7.775
X5.9975Y-3.485
X6.1Y-3.6925
X6.11Y-7.705
X6.11Y-7.775
X6.235Y-7.205
X6.24Y-7.775
X6.2425Y-5.145
X6.245Y-7.705
X6.335Y-7.71
X6.335Y-7.775
X6.415Y-4.6
X6.4375Y-5.1575
X6.44Y-7.71
X6.44Y-7.78
X6.525Y-7.78
X6.535Y-7.71
X6.63Y-7.675
X6.63Y-7.785
X6.635Y-7.59
X6.64Y-7.5
X6.645Y-7.125
X6.645Y-7.205
X6.645Y-7.275
X6.645Y-7.345
X6.645Y-7.425
X6.73Y-7.065
X6.73Y-7.125
X6.73Y-7.205
X6.73Y-7.275
X6.73Y-7.345
X6.73Y-7.425
X6.73Y-7.785
X6.735Y-7.5
X6.735Y-7.59
X6.735Y-7.675
X6.7625Y-3.61
X6.805Y-7.065
X6.805Y-7.125
X6.88Y-7.065
X6.88Y-7.125
X6.89Y-6.775
X6.955Y-7.065
X6.955Y-7.125
X7.035Y-7.065
X7.035Y-7.125
X7.095Y-6.9775
X7.095Y-7.0225
X7.095Y-7.0725
X7.095Y-7.125
X7.305Y-7.09
X7.3479Y-6.8794
X7.4446Y-6.4889
X7.575Y-6.495
X7.7254Y-6.5338
X7.7946Y-6.4622
X7.885Y-6.2838
T4
X5.6Y-5.125
X5.6Y-5.225
X5.6Y-5.325
X5.6Y-5.425
X5.6Y-5.525
X5.6Y-5.625
X5.6Y-5.725
X5.6Y-5.825
X5.6Y-5.925
X5.6Y-6.025
X5.9Y-5.125
X5.9Y-5.225
X5.9Y-5.325
X5.9Y-5.425
X5.9Y-5.525
X5.9Y-5.625
X5.9Y-5.725
X5.9Y-5.825
X5.9Y-5.925
X5.9Y-6.025
T5
X3.312Y-7.0472
X3.362Y-7.0472
X3.412Y-7.0472
X3.462Y-7.0472
X3.512Y-7.0472
X3.562Y-7.0472
X3.612Y-7.0472
X3.662Y-7.0472
X3.712Y-7.0472
X3.762Y-7.0472
X3.812Y-7.0472
X3.862Y-7.0472
X3.912Y-7.0472
X3.962Y-7.0472
X4.012Y-7.0472
X4.262Y-7.0472
X4.312Y-7.0472
X4.362Y-7.0472
X4.412Y-7.0472
X4.462Y-7.0472
X4.512Y-7.0472
X4.562Y-7.0472
T6
X5.9887Y-4.3726
X6.1809Y-4.3726
X7.255Y-5.7539
X7.255Y-5.9461
T7
X5.6632Y-3.6002
X5.6632Y-3.7002
X5.6632Y-3.8002
X5.6632Y-3.9002
X5.6632Y-4.0002
X5.6632Y-4.1002
X5.6632Y-4.2002
X5.6632Y-4.3002
X5.6632Y-4.4002
X5.6632Y-4.5002
X5.6632Y-4.6002
X5.6632Y-4.7002
X5.7632Y-3.6002
X5.7632Y-3.7002
X5.7632Y-3.8002
X5.7632Y-3.9002
X5.7632Y-4.0002
X5.7632Y-4.1002
X5.7632Y-4.2002
X5.7632Y-4.3002
X5.7632Y-4.4002
X5.7632Y-4.5002
X5.7632Y-4.6002
X5.7632Y-4.7002
X7.238Y-3.6002
X7.238Y-3.7002
X7.238Y-3.8002
X7.238Y-3.9002
X7.238Y-4.0002
X7.238Y-4.1002
X7.238Y-4.2002
X7.238Y-4.3002
X7.238Y-4.4002
X7.238Y-4.5002
X7.238Y-4.6002
X7.238Y-4.7002
X7.338Y-3.6002
X7.338Y-3.7002
X7.338Y-3.8002
X7.338Y-3.9002
X7.338Y-4.0002
X7.338Y-4.1002
X7.338Y-4.2002
X7.338Y-4.3002
X7.338Y-4.4002
X7.338Y-4.5002
X7.338Y-4.6002
X7.338Y-4.7002
T9
X3.075Y-7.3181
X3.125Y-7.2181
X3.175Y-7.3181
X3.225Y-7.2181
X3.275Y-7.3181
X3.325Y-7.2181
X3.375Y-7.3181
X3.425Y-7.2181
X3.925Y-7.3181
X3.975Y-7.2181
X4.025Y-7.3181
X4.075Y-7.2181
X4.125Y-7.3181
X4.175Y-7.2181
X4.225Y-7.3181
X4.275Y-7.2181
X5.0122Y-7.4856
X5.1106Y-7.4856
X5.1894Y-7.4856
X5.2878Y-7.4856
X5.6632Y-3.5002
X5.7632Y-3.5002
X6.0122Y-7.4856
X6.1106Y-7.4856
X6.1894Y-7.4856
X6.2878Y-7.4856
X7.238Y-3.5002
X7.338Y-3.5002
X7.725Y-3.6
X7.725Y-3.7
X7.825Y-3.6
X7.825Y-3.7
X7.925Y-3.6
X7.925Y-3.7
T10
X7.9Y-4.125
X7.9Y-4.225
X7.9Y-4.325
X7.9Y-4.425
X8.Y-4.125
X8.Y-4.225
X8.Y-4.325
X8.Y-4.425
X8.Y-4.625
X8.Y-4.725
X8.Y-4.825
X8.Y-4.925
X8.Y-5.025
X8.Y-5.125
X8.Y-5.225
X8.Y-5.325
X8.Y-5.425
X8.Y-5.525
X8.Y-5.625
X8.Y-5.725
X8.Y-5.825
X8.Y-5.925
X8.1Y-4.125
X8.1Y-4.225
X8.1Y-4.325
X8.1Y-4.425
X8.1Y-4.625
X8.1Y-4.725
X8.1Y-4.825
X8.1Y-4.925
X8.1Y-5.025
X8.1Y-5.125
X8.1Y-5.225
X8.1Y-5.325
X8.1Y-5.425
X8.1Y-5.525
X8.1Y-5.625
X8.1Y-5.725
X8.1Y-5.825
X8.1Y-5.925
X8.2Y-4.125
X8.2Y-4.225
X8.2Y-4.325
X8.2Y-4.425
X8.2Y-4.625
X8.2Y-4.725
X8.2Y-4.825
X8.2Y-4.925
X8.2Y-5.025
X8.2Y-5.125
X8.2Y-5.225
X8.2Y-5.325
X8.2Y-5.425
X8.2Y-5.525
X8.2Y-5.625
X8.2Y-5.725
X8.2Y-5.825
X8.2Y-5.925
T11
X7.6Y-3.3
X7.7Y-3.3
X7.8Y-3.3
X7.9Y-3.3
T12
X6.9909Y-7.349
X6.9909Y-7.475
X6.9909Y-7.601
X7.1091Y-7.349
X7.1091Y-7.475
X7.1091Y-7.601
T13
X3.2283Y-7.0315
X4.6457Y-7.0354
T15
X4.8902Y-7.5919
X5.4098Y-7.5919
X5.8902Y-7.5919
X6.4098Y-7.5919
T16
X2.6772Y-2.9921
X2.6772Y-7.6772
X8.1102Y-2.9921
X8.1102Y-7.6772
T8
X2.9469Y-7.7679G85X2.9469Y-7.7364
G05
X3.5531Y-7.7679G85X3.5531Y-7.7364
G05
X3.7969Y-7.7679G85X3.7969Y-7.7364
G05
X4.4031Y-7.7679G85X4.4031Y-7.7364
G05
X6.9535Y-7.7112G85X6.9102Y-7.7112
G05
X6.9969Y-7.2388G85X6.9063Y-7.2388
G05
X7.1937Y-7.2388G85X7.1031Y-7.2388
G05
X7.1898Y-7.7112G85X7.1465Y-7.7112
G05
T14
X7.708Y-7.45G85X7.648Y-7.45
G05
X7.708Y-7.686G85X7.648Y-7.686
G05
X7.875Y-7.598G85X7.875Y-7.538
G05
T17
X2.9232Y-3.2697G85X2.9232Y-3.128
G05
X2.9232Y-6.311G85X2.9232Y-6.1693
G05
X5.3445Y-3.2598G85X5.3445Y-3.1181
G05
X5.3445Y-6.311G85X5.3445Y-6.1693
G05
T0
M30
