M48
;DRILL file {Pcbnew (2013-03-19 BZR 4004)-stable} date 2014/12/12 17:07:45
;FORMAT={-:-/ absolute / inch / decimal}
FMAT,2
INCH,TZ
T1C0.012
T2C0.020
T3C0.028
T4C0.030
T5C0.032
T6C0.032
T7C0.039
T8C0.040
T9C0.043
T10C0.080
T11C0.083
T12C0.091
T13C0.126
%
G90
G05
M72
T1
X3.03Y-7.45
X3.305Y-7.23
X4.105Y-6.655
X4.145Y-6.78
X4.195Y-6.78
X4.225Y-6.6
X4.9325Y-5.83
X4.9325Y-5.965
X4.9675Y-5.83
X4.9675Y-5.965
X5.Y-5.83
X5.Y-5.9675
X5.01Y-6.9675
X5.0325Y-5.83
X5.0325Y-5.965
X5.0325Y-6.94
X5.0525Y-6.9125
X5.065Y-5.83
X5.065Y-5.9675
X5.0725Y-6.885
X5.0975Y-5.83
X5.0975Y-5.9675
X5.1325Y-5.83
X5.1325Y-5.9675
X5.1675Y-5.83
X5.1675Y-5.965
X5.6876Y-4.975
X5.82Y-5.83
X5.82Y-5.96
X5.86Y-5.83
X5.86Y-5.96
X5.8841Y-5.175
X5.935Y-5.65
X6.01Y-4.87
X6.01Y-5.095
X6.025Y-5.15
X6.04Y-4.93
X6.1Y-4.59
X6.13Y-5.58
X6.135Y-6.265
X6.14Y-5.65
X6.176Y-4.93
X6.2Y-5.145
X6.21Y-6.035
X6.234Y-5.062
X6.26Y-4.71
X6.26Y-5.15
X6.26Y-7.56
X6.2666Y-6.125
X6.27Y-6.02
X6.27Y-6.52
X6.31Y-5.136
X6.33Y-5.58
X6.355Y-7.3274
X6.365Y-5.48
X6.375Y-5.14
X6.378Y-4.988
X6.385Y-6.32
X6.386Y-4.906
X6.395Y-5.065
X6.42Y-4.83
X6.455Y-6.32
X6.485Y-4.89
X6.5Y-4.645
X6.515Y-6.325
X6.515Y-6.455
X6.525Y-5.57
X6.55Y-4.89
X6.58Y-7.14
X6.625Y-6.335
X6.625Y-6.445
X6.63Y-6.716
X6.655Y-5.9916
X6.695Y-5.105
X6.695Y-5.505
X6.7Y-5.005
X6.7Y-5.205
X6.7Y-5.305
X6.7Y-5.405
X6.71Y-4.92
X6.76Y-5.8
X6.785Y-6.15
X6.8Y-5.405
X6.825Y-5.78
X6.825Y-6.8084
X6.835Y-5.405
X6.84Y-4.95
X6.84Y-5.005
X6.85Y-6.305
X6.855Y-6.365
X6.855Y-7.585
X6.87Y-6.57
X6.875Y-5.205
X6.9Y-4.55
X6.906Y-7.514
X6.915Y-4.8
X6.92Y-5.755
X6.93Y-4.85
X6.9325Y-5.095
X6.94Y-4.75
X6.955Y-5.46
X6.965Y-5.155
X6.965Y-7.66
X7.02Y-6.8084
X7.035Y-5.31
X7.045Y-5.655
X7.11Y-5.455
X7.125Y-6.285
X7.16Y-5.605
X7.295Y-6.77
X7.38Y-6.645
X7.384Y-5.34
X7.405Y-7.11
X7.41Y-5.13
X7.425Y-6.02
X7.44Y-5.795
X7.45Y-7.67
X7.48Y-5.9
X7.49Y-6.21
X7.515Y-6.02
X7.625Y-5.9
X7.625Y-6.02
X7.8075Y-6.49
X7.895Y-6.49
T2
X2.5886Y-6.9587
X2.5886Y-7.0571
X2.5886Y-7.1555
X2.5886Y-7.2539
X2.5886Y-7.3425
X2.5886Y-7.4213
X2.5886Y-7.5
X2.7067Y-6.9587
X2.7067Y-7.0571
X2.7067Y-7.1583
X2.7067Y-7.2539
X2.7067Y-7.3425
X2.7067Y-7.4213
X2.7067Y-7.5
X2.7165Y-7.628
X2.7191Y-7.5591
X2.7657Y-7.2047
X2.7953Y-7.5591
X2.7953Y-7.628
X2.7953Y-7.6969
X2.8051Y-6.9587
X2.8051Y-7.0571
X2.8248Y-7.7362
X2.8248Y-7.7953
X2.8445Y-7.2047
X2.9134Y-7.2047
X2.9232Y-7.7362
X2.9232Y-7.7953
X2.955Y-6.77
X2.9823Y-7.2047
X3.0217Y-7.7362
X3.0217Y-7.7953
X3.0709Y-6.9488
X3.0709Y-7.0571
X3.1102Y-7.7362
X3.1102Y-7.7953
X3.1496Y-6.9488
X3.1496Y-7.0571
X3.1988Y-7.7362
X3.1988Y-7.7953
X3.2382Y-6.9488
X3.3169Y-6.9488
X3.3169Y-7.7362
X3.3169Y-7.7953
X3.3957Y-6.9488
X3.435Y-7.7362
X3.435Y-7.7953
X3.4744Y-6.9488
X3.5433Y-7.7362
X3.5433Y-7.7953
X3.6417Y-7.7362
X3.6417Y-7.7953
X3.7303Y-7.7362
X3.7303Y-7.7953
X3.8287Y-7.7362
X3.8287Y-7.7953
X3.9272Y-7.7362
X3.9272Y-7.7953
X4.0059Y-7.7362
X4.0059Y-7.7953
X4.1142Y-7.7362
X4.1142Y-7.7953
X4.2028Y-7.7362
X4.2028Y-7.7953
X4.3012Y-7.7362
X4.3012Y-7.7953
X4.3799Y-7.7362
X4.3799Y-7.7953
X4.4783Y-7.7362
X4.4783Y-7.7953
X4.5866Y-7.7362
X4.5866Y-7.7953
X4.685Y-7.7362
X4.685Y-7.7953
X4.7638Y-7.7362
X4.7638Y-7.7953
X4.8425Y-7.7362
X4.8425Y-7.7953
X4.9311Y-7.7362
X4.9311Y-7.7953
X5.0197Y-7.7362
X5.0197Y-7.7953
X5.1083Y-7.7362
X5.1083Y-7.7953
X5.1969Y-7.7362
X5.1969Y-7.7953
X5.2756Y-7.7362
X5.2756Y-7.7953
X5.3543Y-7.7362
X5.3543Y-7.7953
X5.4232Y-7.7362
X5.4232Y-7.7953
X5.502Y-7.7362
X5.502Y-7.7953
X5.5906Y-7.7362
X5.5906Y-7.7953
X5.6693Y-7.7362
X5.6693Y-7.7953
X5.748Y-7.7362
X5.748Y-7.7953
X5.785Y-5.39
X5.785Y-5.665
X5.8268Y-7.7362
X5.8268Y-7.7953
X5.9055Y-7.7362
X5.9055Y-7.7953
X5.9843Y-7.7362
X5.9843Y-7.7953
X6.063Y-7.7362
X6.063Y-7.7953
X6.1417Y-7.7362
X6.1417Y-7.7953
X6.2205Y-7.7362
X6.2205Y-7.7953
X6.255Y-7.635
X6.2992Y-7.7362
X6.2992Y-7.7953
X6.378Y-7.7362
X6.378Y-7.7953
X6.4567Y-7.7362
X6.4567Y-7.7953
X6.5354Y-7.7362
X6.5354Y-7.7953
X6.6142Y-7.7362
X6.6142Y-7.7953
X6.625Y-7.28
X6.63Y-7.2108
X6.66Y-7.28
X6.66Y-7.435
X6.66Y-7.47
X6.6929Y-7.7362
X6.6929Y-7.7953
X6.7016Y-7.28
X6.7717Y-7.7362
X6.7717Y-7.7953
X6.8504Y-7.7362
X6.8504Y-7.7953
X6.9291Y-7.7362
X6.9291Y-7.7953
X7.0079Y-7.7362
X7.0079Y-7.7953
X7.0472Y-7.6575
X7.0866Y-7.7362
X7.0866Y-7.7953
X7.1618Y-7.7432
X7.1654Y-7.7953
X7.2047Y-7.5591
X7.235Y-7.6108
X7.235Y-7.745
X7.2441Y-7.6772
X7.2441Y-7.7953
X7.2638Y-7.5591
X7.3Y-7.61
X7.3031Y-7.6772
X7.3031Y-7.7362
X7.3031Y-7.7953
X7.3228Y-7.5591
X7.3819Y-7.5591
X7.4409Y-7.5591
X7.5Y-7.3819
X7.5Y-7.4348
X7.5Y-7.5
X7.5Y-7.5591
X7.5591Y-7.4409
X7.5591Y-7.5
X7.5591Y-7.5591
X7.5626Y-7.3819
T3
X5.5736Y-6.7791
X5.5736Y-7.0791
X5.6736Y-6.7791
X5.6736Y-7.0791
X5.7736Y-6.7791
X5.7736Y-7.0791
X5.8736Y-6.7791
X5.8736Y-7.0791
X5.9736Y-6.7791
X5.9736Y-7.0791
X6.0736Y-6.7791
X6.0736Y-7.0791
X6.1736Y-6.7791
X6.1736Y-7.0791
X6.2736Y-6.7791
X6.2736Y-7.0791
X6.3736Y-6.7791
X6.3736Y-7.0791
X6.4736Y-6.7791
X6.4736Y-7.0791
T4
X3.312Y-7.0472
X3.362Y-7.0472
X3.412Y-7.0472
X3.462Y-7.0472
X3.512Y-7.0472
X3.562Y-7.0472
X3.612Y-7.0472
X3.662Y-7.0472
X3.712Y-7.0472
X3.762Y-7.0472
X3.812Y-7.0472
X3.862Y-7.0472
X3.912Y-7.0472
X3.962Y-7.0472
X4.012Y-7.0472
X4.262Y-7.0472
X4.312Y-7.0472
X4.362Y-7.0472
X4.412Y-7.0472
X4.462Y-7.0472
X4.512Y-7.0472
X4.562Y-7.0472
T5
X5.9039Y-6.575
X6.0961Y-6.575
T6
X5.7268Y-3.6026
X5.7268Y-3.7026
X5.7268Y-3.8026
X5.7268Y-3.9026
X5.7268Y-4.0026
X5.7268Y-4.1026
X5.7268Y-4.2026
X5.7268Y-4.3026
X5.7268Y-4.4026
X5.7268Y-4.5026
X5.7268Y-4.6026
X5.7268Y-4.7026
X5.8268Y-3.6026
X5.8268Y-3.7026
X5.8268Y-3.8026
X5.8268Y-3.9026
X5.8268Y-4.0026
X5.8268Y-4.1026
X5.8268Y-4.2026
X5.8268Y-4.3026
X5.8268Y-4.4026
X5.8268Y-4.5026
X5.8268Y-4.6026
X5.8268Y-4.7026
X7.3016Y-3.6026
X7.3016Y-3.7026
X7.3016Y-3.8026
X7.3016Y-3.9026
X7.3016Y-4.0026
X7.3016Y-4.1026
X7.3016Y-4.2026
X7.3016Y-4.3026
X7.3016Y-4.4026
X7.3016Y-4.5026
X7.3016Y-4.6026
X7.3016Y-4.7026
X7.4016Y-3.6026
X7.4016Y-3.7026
X7.4016Y-3.8026
X7.4016Y-3.9026
X7.4016Y-4.0026
X7.4016Y-4.1026
X7.4016Y-4.2026
X7.4016Y-4.3026
X7.4016Y-4.4026
X7.4016Y-4.5026
X7.4016Y-4.6026
X7.4016Y-4.7026
T7
X2.9372Y-7.3106
X3.0356Y-7.3106
X3.1144Y-7.3106
X3.2128Y-7.3106
X3.6372Y-7.3106
X3.7356Y-7.3106
X3.8144Y-7.3106
X3.9128Y-7.3106
X4.3372Y-7.3106
X4.4356Y-7.3106
X4.5144Y-7.3106
X4.6128Y-7.3106
X5.025Y-7.3181
X5.075Y-7.2181
X5.125Y-7.3181
X5.175Y-7.2181
X5.225Y-7.3181
X5.275Y-7.2181
X5.325Y-7.3181
X5.375Y-7.2181
X5.7268Y-3.5026
X5.75Y-7.3181
X5.8Y-7.2181
X5.8268Y-3.5026
X5.85Y-7.3181
X5.9Y-7.2181
X5.95Y-7.3181
X6.Y-7.2181
X6.05Y-7.3181
X6.1Y-7.2181
X7.3016Y-3.5026
X7.4016Y-3.5026
T8
X8.0096Y-3.3413
X8.0096Y-3.4413
X8.0096Y-3.5413
X8.0096Y-3.6413
X8.0096Y-3.7413
X8.0096Y-3.8413
X8.0096Y-3.9413
X8.0096Y-4.0413
X8.0096Y-4.1413
X8.0096Y-4.2413
X8.0096Y-4.3413
X8.0096Y-4.4413
X8.0096Y-4.5413
X8.0096Y-4.6413
X8.0096Y-4.7413
X8.0096Y-4.8413
X8.0096Y-4.9413
X8.0096Y-5.0413
X8.0096Y-5.1413
X8.0096Y-5.2413
X8.0096Y-5.3413
X8.0096Y-5.6413
X8.0096Y-5.7413
X8.0096Y-5.8413
X8.0096Y-5.9413
X8.0096Y-6.0413
X8.0096Y-6.1413
X8.0096Y-6.2413
X8.0096Y-6.3413
X8.01Y-5.44
X8.01Y-5.54
X8.01Y-6.44
X8.1096Y-3.3413
X8.1096Y-3.4413
X8.1096Y-3.5413
X8.1096Y-3.6413
X8.1096Y-3.7413
X8.1096Y-3.8413
X8.1096Y-3.9413
X8.1096Y-4.0413
X8.1096Y-4.1413
X8.1096Y-4.2413
X8.1096Y-4.3413
X8.1096Y-4.4413
X8.1096Y-4.5413
X8.1096Y-4.6413
X8.1096Y-4.7413
X8.1096Y-4.8413
X8.1096Y-4.9413
X8.1096Y-5.0413
X8.1096Y-5.1413
X8.1096Y-5.2413
X8.1096Y-5.3413
X8.1096Y-5.6413
X8.1096Y-5.7413
X8.1096Y-5.8413
X8.1096Y-5.9413
X8.1096Y-6.0413
X8.1096Y-6.1413
X8.1096Y-6.2413
X8.1096Y-6.3413
X8.11Y-5.44
X8.11Y-5.54
X8.11Y-6.44
X8.2096Y-3.3413
X8.2096Y-3.4413
X8.2096Y-3.5413
X8.2096Y-3.6413
X8.2096Y-3.7413
X8.2096Y-3.8413
X8.2096Y-3.9413
X8.2096Y-4.0413
X8.2096Y-4.1413
X8.2096Y-4.2413
X8.2096Y-4.3413
X8.2096Y-4.4413
X8.2096Y-4.5413
X8.2096Y-4.6413
X8.2096Y-4.7413
X8.2096Y-4.8413
X8.2096Y-4.9413
X8.2096Y-5.0413
X8.2096Y-5.1413
X8.2096Y-5.2413
X8.2096Y-5.3413
X8.2096Y-5.6413
X8.2096Y-5.7413
X8.2096Y-5.8413
X8.2096Y-5.9413
X8.2096Y-6.0413
X8.2096Y-6.1413
X8.2096Y-6.2413
X8.2096Y-6.3413
X8.21Y-5.44
X8.21Y-5.54
X8.21Y-6.44
T9
X7.7315Y-6.7004
X7.7315Y-6.8004
X7.7315Y-6.9004
X7.7315Y-7.0004
T11
X2.6378Y-2.9528
X2.6378Y-7.7165
X8.1496Y-2.9528
X8.1496Y-7.7165
T12
X2.8152Y-7.4169
X3.3348Y-7.4169
X3.5152Y-7.4169
X4.0348Y-7.4169
X4.2152Y-7.4169
X4.7348Y-7.4169
T13
X2.933Y-3.189
X2.933Y-6.24
X5.3345Y-6.24
X5.374Y-3.189
T10
X7.7889Y-7.3091G85X7.7289Y-7.3091
G05
X7.7889Y-7.5451G85X7.7289Y-7.5451
G05
X7.9559Y-7.4571G85X7.9559Y-7.3971
G05
T0
M30
