G04 (created by PCBNEW (2013-03-19 BZR 4004)-stable) date 2015/1/6 10:08:28*
%MOIN*%
G04 Gerber Fmt 3.4, Leading zero omitted, Abs format*
%FSLAX34Y34*%
G01*
G70*
G90*
G04 APERTURE LIST*
%ADD10C,0*%
%ADD11O,0.129X0.0645*%
%ADD12C,0.126*%
%ADD13O,0.141X0.0705*%
%ADD14C,0.052*%
%ADD15C,0.032*%
%ADD16C,0.001*%
G04 APERTURE END LIST*
G54D10*
G54D11*
X24559Y-14354D03*
X24559Y-15354D03*
X24559Y-16354D03*
G54D12*
X16929Y-11811D03*
X28740Y-11811D03*
X16929Y-18897D03*
X28740Y-18897D03*
G54D13*
X22145Y-25783D03*
X17225Y-25783D03*
X22145Y-23823D03*
X17225Y-23823D03*
G54D11*
X24559Y-23803D03*
X24559Y-24803D03*
X24559Y-25803D03*
G54D12*
X16929Y-21259D03*
X28740Y-21259D03*
X16929Y-28346D03*
X28740Y-28346D03*
G54D14*
X19185Y-15354D03*
X20185Y-15354D03*
G54D15*
X21400Y-16250D03*
G54D10*
G36*
X29746Y-19275D02*
X29696Y-19523D01*
X29564Y-19722D01*
X29525Y-19748D01*
X29525Y-18742D01*
X29525Y-11655D01*
X29406Y-11366D01*
X29185Y-11145D01*
X28896Y-11026D01*
X28584Y-11025D01*
X28296Y-11145D01*
X28075Y-11365D01*
X27955Y-11654D01*
X27955Y-11966D01*
X28074Y-12255D01*
X28294Y-12476D01*
X28583Y-12595D01*
X28895Y-12596D01*
X29184Y-12476D01*
X29405Y-12256D01*
X29525Y-11967D01*
X29525Y-11655D01*
X29525Y-18742D01*
X29406Y-18453D01*
X29185Y-18232D01*
X28896Y-18112D01*
X28584Y-18112D01*
X28296Y-18231D01*
X28075Y-18452D01*
X27955Y-18740D01*
X27955Y-19053D01*
X28074Y-19341D01*
X28294Y-19562D01*
X28583Y-19682D01*
X28895Y-19682D01*
X29184Y-19563D01*
X29405Y-19342D01*
X29525Y-19054D01*
X29525Y-18742D01*
X29525Y-19748D01*
X29367Y-19853D01*
X29116Y-19904D01*
X25374Y-19904D01*
X25374Y-16354D01*
X25374Y-15354D01*
X25338Y-15171D01*
X25328Y-15157D01*
X25328Y-14521D01*
X25328Y-14187D01*
X25286Y-14083D01*
X25152Y-13949D01*
X24976Y-13876D01*
X24654Y-13876D01*
X24654Y-14259D01*
X25309Y-14259D01*
X25328Y-14187D01*
X25328Y-14521D01*
X25309Y-14449D01*
X24654Y-14449D01*
X24654Y-14831D01*
X24976Y-14831D01*
X25152Y-14759D01*
X25286Y-14624D01*
X25328Y-14521D01*
X25328Y-15157D01*
X25234Y-15016D01*
X25079Y-14913D01*
X24897Y-14876D01*
X24464Y-14876D01*
X24464Y-14831D01*
X24464Y-14449D01*
X24464Y-14259D01*
X24464Y-13876D01*
X24141Y-13876D01*
X23966Y-13949D01*
X23831Y-14083D01*
X23789Y-14187D01*
X23808Y-14259D01*
X24464Y-14259D01*
X24464Y-14449D01*
X23808Y-14449D01*
X23789Y-14521D01*
X23831Y-14624D01*
X23966Y-14759D01*
X24141Y-14831D01*
X24464Y-14831D01*
X24464Y-14876D01*
X24220Y-14876D01*
X24038Y-14913D01*
X23883Y-15016D01*
X23779Y-15171D01*
X23743Y-15354D01*
X23779Y-15537D01*
X23883Y-15691D01*
X24038Y-15795D01*
X24220Y-15831D01*
X24897Y-15831D01*
X25079Y-15795D01*
X25234Y-15691D01*
X25338Y-15537D01*
X25374Y-15354D01*
X25374Y-16354D01*
X25338Y-16171D01*
X25234Y-16016D01*
X25079Y-15913D01*
X24897Y-15876D01*
X24220Y-15876D01*
X24038Y-15913D01*
X23883Y-16016D01*
X23779Y-16171D01*
X23743Y-16354D01*
X23779Y-16537D01*
X23883Y-16691D01*
X24038Y-16795D01*
X24220Y-16831D01*
X24897Y-16831D01*
X25079Y-16795D01*
X25234Y-16691D01*
X25338Y-16537D01*
X25374Y-16354D01*
X25374Y-19904D01*
X20600Y-19904D01*
X20600Y-15272D01*
X20537Y-15119D01*
X20420Y-15002D01*
X20267Y-14939D01*
X20102Y-14939D01*
X19950Y-15002D01*
X19833Y-15118D01*
X19770Y-15271D01*
X19769Y-15436D01*
X19833Y-15589D01*
X19949Y-15705D01*
X20102Y-15769D01*
X20267Y-15769D01*
X20419Y-15706D01*
X20536Y-15589D01*
X20599Y-15437D01*
X20600Y-15272D01*
X20600Y-19904D01*
X19600Y-19904D01*
X19600Y-15272D01*
X19537Y-15119D01*
X19420Y-15002D01*
X19267Y-14939D01*
X19102Y-14939D01*
X18950Y-15002D01*
X18833Y-15118D01*
X18770Y-15271D01*
X18769Y-15436D01*
X18833Y-15589D01*
X18949Y-15705D01*
X19102Y-15769D01*
X19267Y-15769D01*
X19419Y-15706D01*
X19536Y-15589D01*
X19599Y-15437D01*
X19600Y-15272D01*
X19600Y-19904D01*
X17714Y-19904D01*
X17714Y-18742D01*
X17714Y-11655D01*
X17595Y-11366D01*
X17374Y-11145D01*
X17085Y-11026D01*
X16773Y-11025D01*
X16485Y-11145D01*
X16264Y-11365D01*
X16144Y-11654D01*
X16143Y-11966D01*
X16263Y-12255D01*
X16483Y-12476D01*
X16772Y-12595D01*
X17084Y-12596D01*
X17373Y-12476D01*
X17594Y-12256D01*
X17713Y-11967D01*
X17714Y-11655D01*
X17714Y-18742D01*
X17595Y-18453D01*
X17374Y-18232D01*
X17085Y-18112D01*
X16773Y-18112D01*
X16485Y-18231D01*
X16264Y-18452D01*
X16144Y-18740D01*
X16143Y-19053D01*
X16263Y-19341D01*
X16483Y-19562D01*
X16772Y-19682D01*
X17084Y-19682D01*
X17373Y-19563D01*
X17594Y-19342D01*
X17713Y-19054D01*
X17714Y-18742D01*
X17714Y-19904D01*
X16551Y-19904D01*
X16302Y-19854D01*
X16104Y-19721D01*
X15972Y-19525D01*
X15922Y-19274D01*
X15922Y-11434D01*
X15972Y-11183D01*
X16104Y-10986D01*
X16302Y-10854D01*
X16551Y-10804D01*
X29116Y-10804D01*
X29367Y-10854D01*
X29564Y-10985D01*
X29696Y-11184D01*
X29746Y-11433D01*
X29746Y-19275D01*
X29746Y-19275D01*
G37*
G54D16*
X29746Y-19275D02*
X29696Y-19523D01*
X29564Y-19722D01*
X29525Y-19748D01*
X29525Y-18742D01*
X29525Y-11655D01*
X29406Y-11366D01*
X29185Y-11145D01*
X28896Y-11026D01*
X28584Y-11025D01*
X28296Y-11145D01*
X28075Y-11365D01*
X27955Y-11654D01*
X27955Y-11966D01*
X28074Y-12255D01*
X28294Y-12476D01*
X28583Y-12595D01*
X28895Y-12596D01*
X29184Y-12476D01*
X29405Y-12256D01*
X29525Y-11967D01*
X29525Y-11655D01*
X29525Y-18742D01*
X29406Y-18453D01*
X29185Y-18232D01*
X28896Y-18112D01*
X28584Y-18112D01*
X28296Y-18231D01*
X28075Y-18452D01*
X27955Y-18740D01*
X27955Y-19053D01*
X28074Y-19341D01*
X28294Y-19562D01*
X28583Y-19682D01*
X28895Y-19682D01*
X29184Y-19563D01*
X29405Y-19342D01*
X29525Y-19054D01*
X29525Y-18742D01*
X29525Y-19748D01*
X29367Y-19853D01*
X29116Y-19904D01*
X25374Y-19904D01*
X25374Y-16354D01*
X25374Y-15354D01*
X25338Y-15171D01*
X25328Y-15157D01*
X25328Y-14521D01*
X25328Y-14187D01*
X25286Y-14083D01*
X25152Y-13949D01*
X24976Y-13876D01*
X24654Y-13876D01*
X24654Y-14259D01*
X25309Y-14259D01*
X25328Y-14187D01*
X25328Y-14521D01*
X25309Y-14449D01*
X24654Y-14449D01*
X24654Y-14831D01*
X24976Y-14831D01*
X25152Y-14759D01*
X25286Y-14624D01*
X25328Y-14521D01*
X25328Y-15157D01*
X25234Y-15016D01*
X25079Y-14913D01*
X24897Y-14876D01*
X24464Y-14876D01*
X24464Y-14831D01*
X24464Y-14449D01*
X24464Y-14259D01*
X24464Y-13876D01*
X24141Y-13876D01*
X23966Y-13949D01*
X23831Y-14083D01*
X23789Y-14187D01*
X23808Y-14259D01*
X24464Y-14259D01*
X24464Y-14449D01*
X23808Y-14449D01*
X23789Y-14521D01*
X23831Y-14624D01*
X23966Y-14759D01*
X24141Y-14831D01*
X24464Y-14831D01*
X24464Y-14876D01*
X24220Y-14876D01*
X24038Y-14913D01*
X23883Y-15016D01*
X23779Y-15171D01*
X23743Y-15354D01*
X23779Y-15537D01*
X23883Y-15691D01*
X24038Y-15795D01*
X24220Y-15831D01*
X24897Y-15831D01*
X25079Y-15795D01*
X25234Y-15691D01*
X25338Y-15537D01*
X25374Y-15354D01*
X25374Y-16354D01*
X25338Y-16171D01*
X25234Y-16016D01*
X25079Y-15913D01*
X24897Y-15876D01*
X24220Y-15876D01*
X24038Y-15913D01*
X23883Y-16016D01*
X23779Y-16171D01*
X23743Y-16354D01*
X23779Y-16537D01*
X23883Y-16691D01*
X24038Y-16795D01*
X24220Y-16831D01*
X24897Y-16831D01*
X25079Y-16795D01*
X25234Y-16691D01*
X25338Y-16537D01*
X25374Y-16354D01*
X25374Y-19904D01*
X20600Y-19904D01*
X20600Y-15272D01*
X20537Y-15119D01*
X20420Y-15002D01*
X20267Y-14939D01*
X20102Y-14939D01*
X19950Y-15002D01*
X19833Y-15118D01*
X19770Y-15271D01*
X19769Y-15436D01*
X19833Y-15589D01*
X19949Y-15705D01*
X20102Y-15769D01*
X20267Y-15769D01*
X20419Y-15706D01*
X20536Y-15589D01*
X20599Y-15437D01*
X20600Y-15272D01*
X20600Y-19904D01*
X19600Y-19904D01*
X19600Y-15272D01*
X19537Y-15119D01*
X19420Y-15002D01*
X19267Y-14939D01*
X19102Y-14939D01*
X18950Y-15002D01*
X18833Y-15118D01*
X18770Y-15271D01*
X18769Y-15436D01*
X18833Y-15589D01*
X18949Y-15705D01*
X19102Y-15769D01*
X19267Y-15769D01*
X19419Y-15706D01*
X19536Y-15589D01*
X19599Y-15437D01*
X19600Y-15272D01*
X19600Y-19904D01*
X17714Y-19904D01*
X17714Y-18742D01*
X17714Y-11655D01*
X17595Y-11366D01*
X17374Y-11145D01*
X17085Y-11026D01*
X16773Y-11025D01*
X16485Y-11145D01*
X16264Y-11365D01*
X16144Y-11654D01*
X16143Y-11966D01*
X16263Y-12255D01*
X16483Y-12476D01*
X16772Y-12595D01*
X17084Y-12596D01*
X17373Y-12476D01*
X17594Y-12256D01*
X17713Y-11967D01*
X17714Y-11655D01*
X17714Y-18742D01*
X17595Y-18453D01*
X17374Y-18232D01*
X17085Y-18112D01*
X16773Y-18112D01*
X16485Y-18231D01*
X16264Y-18452D01*
X16144Y-18740D01*
X16143Y-19053D01*
X16263Y-19341D01*
X16483Y-19562D01*
X16772Y-19682D01*
X17084Y-19682D01*
X17373Y-19563D01*
X17594Y-19342D01*
X17713Y-19054D01*
X17714Y-18742D01*
X17714Y-19904D01*
X16551Y-19904D01*
X16302Y-19854D01*
X16104Y-19721D01*
X15972Y-19525D01*
X15922Y-19274D01*
X15922Y-11434D01*
X15972Y-11183D01*
X16104Y-10986D01*
X16302Y-10854D01*
X16551Y-10804D01*
X29116Y-10804D01*
X29367Y-10854D01*
X29564Y-10985D01*
X29696Y-11184D01*
X29746Y-11433D01*
X29746Y-19275D01*
G54D10*
G36*
X29746Y-28724D02*
X29696Y-28972D01*
X29564Y-29171D01*
X29525Y-29197D01*
X29525Y-28190D01*
X29525Y-21104D01*
X29406Y-20815D01*
X29185Y-20594D01*
X28896Y-20474D01*
X28584Y-20474D01*
X28296Y-20593D01*
X28075Y-20814D01*
X27955Y-21103D01*
X27955Y-21415D01*
X28074Y-21703D01*
X28294Y-21924D01*
X28583Y-22044D01*
X28895Y-22044D01*
X29184Y-21925D01*
X29405Y-21705D01*
X29525Y-21416D01*
X29525Y-21104D01*
X29525Y-28190D01*
X29406Y-27902D01*
X29185Y-27681D01*
X28896Y-27561D01*
X28584Y-27561D01*
X28296Y-27680D01*
X28075Y-27901D01*
X27955Y-28189D01*
X27955Y-28501D01*
X28074Y-28790D01*
X28294Y-29011D01*
X28583Y-29131D01*
X28895Y-29131D01*
X29184Y-29012D01*
X29405Y-28791D01*
X29525Y-28503D01*
X29525Y-28190D01*
X29525Y-29197D01*
X29367Y-29302D01*
X29116Y-29352D01*
X25374Y-29352D01*
X25374Y-25803D01*
X25374Y-24803D01*
X25338Y-24620D01*
X25328Y-24606D01*
X25328Y-23970D01*
X25328Y-23636D01*
X25286Y-23532D01*
X25152Y-23398D01*
X24976Y-23325D01*
X24654Y-23325D01*
X24654Y-23708D01*
X25309Y-23708D01*
X25328Y-23636D01*
X25328Y-23970D01*
X25309Y-23898D01*
X24654Y-23898D01*
X24654Y-24280D01*
X24976Y-24280D01*
X25152Y-24207D01*
X25286Y-24073D01*
X25328Y-23970D01*
X25328Y-24606D01*
X25234Y-24465D01*
X25079Y-24361D01*
X24897Y-24325D01*
X24464Y-24325D01*
X24464Y-24280D01*
X24464Y-23898D01*
X24464Y-23708D01*
X24464Y-23325D01*
X24141Y-23325D01*
X23966Y-23398D01*
X23831Y-23532D01*
X23789Y-23636D01*
X23808Y-23708D01*
X24464Y-23708D01*
X24464Y-23898D01*
X23808Y-23898D01*
X23789Y-23970D01*
X23831Y-24073D01*
X23966Y-24207D01*
X24141Y-24280D01*
X24464Y-24280D01*
X24464Y-24325D01*
X24220Y-24325D01*
X24038Y-24361D01*
X23883Y-24465D01*
X23779Y-24620D01*
X23743Y-24803D01*
X23779Y-24985D01*
X23883Y-25140D01*
X24038Y-25244D01*
X24220Y-25280D01*
X24897Y-25280D01*
X25079Y-25244D01*
X25234Y-25140D01*
X25338Y-24985D01*
X25374Y-24803D01*
X25374Y-25803D01*
X25338Y-25620D01*
X25234Y-25465D01*
X25079Y-25361D01*
X24897Y-25325D01*
X24220Y-25325D01*
X24038Y-25361D01*
X23883Y-25465D01*
X23779Y-25620D01*
X23743Y-25803D01*
X23779Y-25985D01*
X23883Y-26140D01*
X24038Y-26244D01*
X24220Y-26280D01*
X24897Y-26280D01*
X25079Y-26244D01*
X25234Y-26140D01*
X25338Y-25985D01*
X25374Y-25803D01*
X25374Y-29352D01*
X23021Y-29352D01*
X23021Y-25783D01*
X22983Y-25588D01*
X22975Y-25576D01*
X22975Y-23994D01*
X22975Y-23651D01*
X22923Y-23531D01*
X22779Y-23390D01*
X22592Y-23315D01*
X22240Y-23315D01*
X22240Y-23728D01*
X22956Y-23728D01*
X22975Y-23651D01*
X22975Y-23994D01*
X22956Y-23918D01*
X22240Y-23918D01*
X22240Y-24330D01*
X22592Y-24330D01*
X22779Y-24255D01*
X22923Y-24114D01*
X22975Y-23994D01*
X22975Y-25576D01*
X22873Y-25424D01*
X22708Y-25314D01*
X22514Y-25275D01*
X22050Y-25275D01*
X22050Y-24330D01*
X22050Y-23918D01*
X22050Y-23728D01*
X22050Y-23315D01*
X21697Y-23315D01*
X21510Y-23390D01*
X21366Y-23531D01*
X21315Y-23651D01*
X21333Y-23728D01*
X22050Y-23728D01*
X22050Y-23918D01*
X21333Y-23918D01*
X21315Y-23994D01*
X21366Y-24114D01*
X21510Y-24255D01*
X21697Y-24330D01*
X22050Y-24330D01*
X22050Y-25275D01*
X21775Y-25275D01*
X21581Y-25314D01*
X21416Y-25424D01*
X21306Y-25588D01*
X21268Y-25783D01*
X21306Y-25977D01*
X21416Y-26142D01*
X21581Y-26252D01*
X21775Y-26290D01*
X22514Y-26290D01*
X22708Y-26252D01*
X22873Y-26142D01*
X22983Y-25977D01*
X23021Y-25783D01*
X23021Y-29352D01*
X20147Y-29352D01*
X20147Y-26486D01*
X20147Y-22936D01*
X20076Y-22766D01*
X19947Y-22636D01*
X19777Y-22566D01*
X19593Y-22566D01*
X19423Y-22636D01*
X19293Y-22766D01*
X19223Y-22935D01*
X19222Y-23119D01*
X19293Y-23289D01*
X19422Y-23419D01*
X19592Y-23490D01*
X19776Y-23490D01*
X19946Y-23420D01*
X20076Y-23290D01*
X20146Y-23120D01*
X20147Y-22936D01*
X20147Y-26486D01*
X20076Y-26316D01*
X19947Y-26186D01*
X19777Y-26116D01*
X19593Y-26116D01*
X19423Y-26186D01*
X19293Y-26316D01*
X19223Y-26485D01*
X19222Y-26669D01*
X19293Y-26839D01*
X19422Y-26969D01*
X19592Y-27040D01*
X19776Y-27040D01*
X19946Y-26970D01*
X20076Y-26840D01*
X20146Y-26670D01*
X20147Y-26486D01*
X20147Y-29352D01*
X18101Y-29352D01*
X18101Y-25783D01*
X18063Y-25588D01*
X18055Y-25576D01*
X18055Y-23994D01*
X18055Y-23651D01*
X18003Y-23531D01*
X17859Y-23390D01*
X17714Y-23332D01*
X17714Y-21104D01*
X17595Y-20815D01*
X17374Y-20594D01*
X17085Y-20474D01*
X16773Y-20474D01*
X16485Y-20593D01*
X16264Y-20814D01*
X16144Y-21103D01*
X16143Y-21415D01*
X16263Y-21703D01*
X16483Y-21924D01*
X16772Y-22044D01*
X17084Y-22044D01*
X17373Y-21925D01*
X17594Y-21705D01*
X17713Y-21416D01*
X17714Y-21104D01*
X17714Y-23332D01*
X17672Y-23315D01*
X17320Y-23315D01*
X17320Y-23728D01*
X18036Y-23728D01*
X18055Y-23651D01*
X18055Y-23994D01*
X18036Y-23918D01*
X17320Y-23918D01*
X17320Y-24330D01*
X17672Y-24330D01*
X17859Y-24255D01*
X18003Y-24114D01*
X18055Y-23994D01*
X18055Y-25576D01*
X17953Y-25424D01*
X17788Y-25314D01*
X17594Y-25275D01*
X17130Y-25275D01*
X17130Y-24330D01*
X17130Y-23918D01*
X17130Y-23728D01*
X17130Y-23315D01*
X16777Y-23315D01*
X16590Y-23390D01*
X16446Y-23531D01*
X16395Y-23651D01*
X16413Y-23728D01*
X17130Y-23728D01*
X17130Y-23918D01*
X16413Y-23918D01*
X16395Y-23994D01*
X16446Y-24114D01*
X16590Y-24255D01*
X16777Y-24330D01*
X17130Y-24330D01*
X17130Y-25275D01*
X16855Y-25275D01*
X16661Y-25314D01*
X16496Y-25424D01*
X16386Y-25588D01*
X16348Y-25783D01*
X16386Y-25977D01*
X16496Y-26142D01*
X16661Y-26252D01*
X16855Y-26290D01*
X17594Y-26290D01*
X17788Y-26252D01*
X17953Y-26142D01*
X18063Y-25977D01*
X18101Y-25783D01*
X18101Y-29352D01*
X17714Y-29352D01*
X17714Y-28190D01*
X17595Y-27902D01*
X17374Y-27681D01*
X17085Y-27561D01*
X16773Y-27561D01*
X16485Y-27680D01*
X16264Y-27901D01*
X16144Y-28189D01*
X16143Y-28501D01*
X16263Y-28790D01*
X16483Y-29011D01*
X16772Y-29131D01*
X17084Y-29131D01*
X17373Y-29012D01*
X17594Y-28791D01*
X17713Y-28503D01*
X17714Y-28190D01*
X17714Y-29352D01*
X16551Y-29352D01*
X16302Y-29303D01*
X16104Y-29170D01*
X15972Y-28973D01*
X15922Y-28722D01*
X15922Y-20883D01*
X15972Y-20632D01*
X16104Y-20435D01*
X16302Y-20303D01*
X16551Y-20253D01*
X29116Y-20253D01*
X29367Y-20303D01*
X29564Y-20434D01*
X29696Y-20633D01*
X29746Y-20882D01*
X29746Y-28724D01*
X29746Y-28724D01*
G37*
G54D16*
X29746Y-28724D02*
X29696Y-28972D01*
X29564Y-29171D01*
X29525Y-29197D01*
X29525Y-28190D01*
X29525Y-21104D01*
X29406Y-20815D01*
X29185Y-20594D01*
X28896Y-20474D01*
X28584Y-20474D01*
X28296Y-20593D01*
X28075Y-20814D01*
X27955Y-21103D01*
X27955Y-21415D01*
X28074Y-21703D01*
X28294Y-21924D01*
X28583Y-22044D01*
X28895Y-22044D01*
X29184Y-21925D01*
X29405Y-21705D01*
X29525Y-21416D01*
X29525Y-21104D01*
X29525Y-28190D01*
X29406Y-27902D01*
X29185Y-27681D01*
X28896Y-27561D01*
X28584Y-27561D01*
X28296Y-27680D01*
X28075Y-27901D01*
X27955Y-28189D01*
X27955Y-28501D01*
X28074Y-28790D01*
X28294Y-29011D01*
X28583Y-29131D01*
X28895Y-29131D01*
X29184Y-29012D01*
X29405Y-28791D01*
X29525Y-28503D01*
X29525Y-28190D01*
X29525Y-29197D01*
X29367Y-29302D01*
X29116Y-29352D01*
X25374Y-29352D01*
X25374Y-25803D01*
X25374Y-24803D01*
X25338Y-24620D01*
X25328Y-24606D01*
X25328Y-23970D01*
X25328Y-23636D01*
X25286Y-23532D01*
X25152Y-23398D01*
X24976Y-23325D01*
X24654Y-23325D01*
X24654Y-23708D01*
X25309Y-23708D01*
X25328Y-23636D01*
X25328Y-23970D01*
X25309Y-23898D01*
X24654Y-23898D01*
X24654Y-24280D01*
X24976Y-24280D01*
X25152Y-24207D01*
X25286Y-24073D01*
X25328Y-23970D01*
X25328Y-24606D01*
X25234Y-24465D01*
X25079Y-24361D01*
X24897Y-24325D01*
X24464Y-24325D01*
X24464Y-24280D01*
X24464Y-23898D01*
X24464Y-23708D01*
X24464Y-23325D01*
X24141Y-23325D01*
X23966Y-23398D01*
X23831Y-23532D01*
X23789Y-23636D01*
X23808Y-23708D01*
X24464Y-23708D01*
X24464Y-23898D01*
X23808Y-23898D01*
X23789Y-23970D01*
X23831Y-24073D01*
X23966Y-24207D01*
X24141Y-24280D01*
X24464Y-24280D01*
X24464Y-24325D01*
X24220Y-24325D01*
X24038Y-24361D01*
X23883Y-24465D01*
X23779Y-24620D01*
X23743Y-24803D01*
X23779Y-24985D01*
X23883Y-25140D01*
X24038Y-25244D01*
X24220Y-25280D01*
X24897Y-25280D01*
X25079Y-25244D01*
X25234Y-25140D01*
X25338Y-24985D01*
X25374Y-24803D01*
X25374Y-25803D01*
X25338Y-25620D01*
X25234Y-25465D01*
X25079Y-25361D01*
X24897Y-25325D01*
X24220Y-25325D01*
X24038Y-25361D01*
X23883Y-25465D01*
X23779Y-25620D01*
X23743Y-25803D01*
X23779Y-25985D01*
X23883Y-26140D01*
X24038Y-26244D01*
X24220Y-26280D01*
X24897Y-26280D01*
X25079Y-26244D01*
X25234Y-26140D01*
X25338Y-25985D01*
X25374Y-25803D01*
X25374Y-29352D01*
X23021Y-29352D01*
X23021Y-25783D01*
X22983Y-25588D01*
X22975Y-25576D01*
X22975Y-23994D01*
X22975Y-23651D01*
X22923Y-23531D01*
X22779Y-23390D01*
X22592Y-23315D01*
X22240Y-23315D01*
X22240Y-23728D01*
X22956Y-23728D01*
X22975Y-23651D01*
X22975Y-23994D01*
X22956Y-23918D01*
X22240Y-23918D01*
X22240Y-24330D01*
X22592Y-24330D01*
X22779Y-24255D01*
X22923Y-24114D01*
X22975Y-23994D01*
X22975Y-25576D01*
X22873Y-25424D01*
X22708Y-25314D01*
X22514Y-25275D01*
X22050Y-25275D01*
X22050Y-24330D01*
X22050Y-23918D01*
X22050Y-23728D01*
X22050Y-23315D01*
X21697Y-23315D01*
X21510Y-23390D01*
X21366Y-23531D01*
X21315Y-23651D01*
X21333Y-23728D01*
X22050Y-23728D01*
X22050Y-23918D01*
X21333Y-23918D01*
X21315Y-23994D01*
X21366Y-24114D01*
X21510Y-24255D01*
X21697Y-24330D01*
X22050Y-24330D01*
X22050Y-25275D01*
X21775Y-25275D01*
X21581Y-25314D01*
X21416Y-25424D01*
X21306Y-25588D01*
X21268Y-25783D01*
X21306Y-25977D01*
X21416Y-26142D01*
X21581Y-26252D01*
X21775Y-26290D01*
X22514Y-26290D01*
X22708Y-26252D01*
X22873Y-26142D01*
X22983Y-25977D01*
X23021Y-25783D01*
X23021Y-29352D01*
X20147Y-29352D01*
X20147Y-26486D01*
X20147Y-22936D01*
X20076Y-22766D01*
X19947Y-22636D01*
X19777Y-22566D01*
X19593Y-22566D01*
X19423Y-22636D01*
X19293Y-22766D01*
X19223Y-22935D01*
X19222Y-23119D01*
X19293Y-23289D01*
X19422Y-23419D01*
X19592Y-23490D01*
X19776Y-23490D01*
X19946Y-23420D01*
X20076Y-23290D01*
X20146Y-23120D01*
X20147Y-22936D01*
X20147Y-26486D01*
X20076Y-26316D01*
X19947Y-26186D01*
X19777Y-26116D01*
X19593Y-26116D01*
X19423Y-26186D01*
X19293Y-26316D01*
X19223Y-26485D01*
X19222Y-26669D01*
X19293Y-26839D01*
X19422Y-26969D01*
X19592Y-27040D01*
X19776Y-27040D01*
X19946Y-26970D01*
X20076Y-26840D01*
X20146Y-26670D01*
X20147Y-26486D01*
X20147Y-29352D01*
X18101Y-29352D01*
X18101Y-25783D01*
X18063Y-25588D01*
X18055Y-25576D01*
X18055Y-23994D01*
X18055Y-23651D01*
X18003Y-23531D01*
X17859Y-23390D01*
X17714Y-23332D01*
X17714Y-21104D01*
X17595Y-20815D01*
X17374Y-20594D01*
X17085Y-20474D01*
X16773Y-20474D01*
X16485Y-20593D01*
X16264Y-20814D01*
X16144Y-21103D01*
X16143Y-21415D01*
X16263Y-21703D01*
X16483Y-21924D01*
X16772Y-22044D01*
X17084Y-22044D01*
X17373Y-21925D01*
X17594Y-21705D01*
X17713Y-21416D01*
X17714Y-21104D01*
X17714Y-23332D01*
X17672Y-23315D01*
X17320Y-23315D01*
X17320Y-23728D01*
X18036Y-23728D01*
X18055Y-23651D01*
X18055Y-23994D01*
X18036Y-23918D01*
X17320Y-23918D01*
X17320Y-24330D01*
X17672Y-24330D01*
X17859Y-24255D01*
X18003Y-24114D01*
X18055Y-23994D01*
X18055Y-25576D01*
X17953Y-25424D01*
X17788Y-25314D01*
X17594Y-25275D01*
X17130Y-25275D01*
X17130Y-24330D01*
X17130Y-23918D01*
X17130Y-23728D01*
X17130Y-23315D01*
X16777Y-23315D01*
X16590Y-23390D01*
X16446Y-23531D01*
X16395Y-23651D01*
X16413Y-23728D01*
X17130Y-23728D01*
X17130Y-23918D01*
X16413Y-23918D01*
X16395Y-23994D01*
X16446Y-24114D01*
X16590Y-24255D01*
X16777Y-24330D01*
X17130Y-24330D01*
X17130Y-25275D01*
X16855Y-25275D01*
X16661Y-25314D01*
X16496Y-25424D01*
X16386Y-25588D01*
X16348Y-25783D01*
X16386Y-25977D01*
X16496Y-26142D01*
X16661Y-26252D01*
X16855Y-26290D01*
X17594Y-26290D01*
X17788Y-26252D01*
X17953Y-26142D01*
X18063Y-25977D01*
X18101Y-25783D01*
X18101Y-29352D01*
X17714Y-29352D01*
X17714Y-28190D01*
X17595Y-27902D01*
X17374Y-27681D01*
X17085Y-27561D01*
X16773Y-27561D01*
X16485Y-27680D01*
X16264Y-27901D01*
X16144Y-28189D01*
X16143Y-28501D01*
X16263Y-28790D01*
X16483Y-29011D01*
X16772Y-29131D01*
X17084Y-29131D01*
X17373Y-29012D01*
X17594Y-28791D01*
X17713Y-28503D01*
X17714Y-28190D01*
X17714Y-29352D01*
X16551Y-29352D01*
X16302Y-29303D01*
X16104Y-29170D01*
X15972Y-28973D01*
X15922Y-28722D01*
X15922Y-20883D01*
X15972Y-20632D01*
X16104Y-20435D01*
X16302Y-20303D01*
X16551Y-20253D01*
X29116Y-20253D01*
X29367Y-20303D01*
X29564Y-20434D01*
X29696Y-20633D01*
X29746Y-20882D01*
X29746Y-28724D01*
M02*
