G04 (created by PCBNEW (2013-03-19 BZR 4004)-stable) date 2015/1/6 10:08:28*
%MOIN*%
G04 Gerber Fmt 3.4, Leading zero omitted, Abs format*
%FSLAX34Y34*%
G01*
G70*
G90*
G04 APERTURE LIST*
%ADD10C,0*%
%ADD11O,0.129X0.0645*%
%ADD12C,0.126*%
%ADD13R,0.0511X0.059*%
%ADD14O,0.141X0.0705*%
%ADD15R,0.0551X0.0708*%
%ADD16C,0.052*%
%ADD17C,0.032*%
%ADD18C,0.032*%
%ADD19C,0.016*%
G04 APERTURE END LIST*
G54D10*
G54D11*
X24559Y-14354D03*
X24559Y-15354D03*
X24559Y-16354D03*
G54D12*
X16929Y-11811D03*
X28740Y-11811D03*
X16929Y-18897D03*
X28740Y-18897D03*
G54D13*
X22126Y-14500D03*
X22874Y-14500D03*
X23126Y-27250D03*
X23874Y-27250D03*
G54D14*
X22145Y-25783D03*
X17225Y-25783D03*
X22145Y-23823D03*
X17225Y-23823D03*
G54D11*
X24559Y-23803D03*
X24559Y-24803D03*
X24559Y-25803D03*
G54D12*
X16929Y-21259D03*
X28740Y-21259D03*
X16929Y-28346D03*
X28740Y-28346D03*
G54D15*
X22831Y-28500D03*
X24169Y-28500D03*
G54D13*
X22874Y-16250D03*
X22126Y-16250D03*
G54D16*
X19185Y-15354D03*
X20185Y-15354D03*
G54D17*
X21400Y-16250D03*
G54D18*
X24169Y-28500D02*
X24169Y-27545D01*
X24169Y-27545D02*
X23874Y-27250D01*
X24559Y-24803D02*
X25753Y-24803D01*
X25750Y-28500D02*
X24169Y-28500D01*
X26000Y-28250D02*
X25750Y-28500D01*
X26000Y-25050D02*
X26000Y-28250D01*
X25753Y-24803D02*
X26000Y-25050D01*
X24559Y-15354D02*
X23104Y-15354D01*
X22874Y-15124D02*
X22874Y-14500D01*
X23104Y-15354D02*
X22874Y-15124D01*
X22145Y-23823D02*
X17225Y-23823D01*
X24559Y-23803D02*
X22165Y-23803D01*
X22165Y-23803D02*
X22145Y-23823D01*
X22126Y-16250D02*
X21400Y-16250D01*
G54D19*
X22126Y-14500D02*
X19450Y-14500D01*
X19185Y-14764D02*
X19185Y-15354D01*
X19450Y-14500D02*
X19185Y-14764D01*
X22874Y-16250D02*
X22978Y-16354D01*
X22978Y-16354D02*
X24559Y-16354D01*
X20185Y-15354D02*
X22604Y-15354D01*
X22874Y-15624D02*
X22874Y-16250D01*
X22604Y-15354D02*
X22874Y-15624D01*
X22145Y-25783D02*
X17225Y-25783D01*
X24559Y-25803D02*
X22165Y-25803D01*
X22165Y-25803D02*
X22145Y-25783D01*
X23126Y-27250D02*
X23126Y-26074D01*
X23396Y-25803D02*
X24559Y-25803D01*
X23126Y-26074D02*
X23396Y-25803D01*
X22831Y-28500D02*
X22831Y-27545D01*
X22831Y-27545D02*
X23126Y-27250D01*
M02*
