G04 (created by PCBNEW (2013-03-19 BZR 4004)-stable) date 2015/1/6 10:08:28*
%MOIN*%
G04 Gerber Fmt 3.4, Leading zero omitted, Abs format*
%FSLAX34Y34*%
G01*
G70*
G90*
G04 APERTURE LIST*
%ADD10C,0*%
%ADD11C,0.0026*%
%ADD12C,0.01*%
%ADD13C,0.005*%
%ADD14C,0.002*%
%ADD15C,0.006*%
%ADD16C,0.0001*%
%ADD17C,0.003*%
%ADD18C,0.001*%
%ADD19C,0.008*%
%ADD20C,0.004*%
G04 APERTURE END LIST*
G54D10*
G54D11*
X24559Y-14229D02*
X24559Y-14479D01*
X24559Y-14479D02*
X25059Y-14479D01*
X25059Y-14229D02*
X25059Y-14479D01*
X24559Y-14229D02*
X25059Y-14229D01*
X24559Y-15229D02*
X24559Y-15479D01*
X24559Y-15479D02*
X25059Y-15479D01*
X25059Y-15229D02*
X25059Y-15479D01*
X24559Y-15229D02*
X25059Y-15229D01*
X24559Y-16229D02*
X24559Y-16479D01*
X24559Y-16479D02*
X25059Y-16479D01*
X25059Y-16229D02*
X25059Y-16479D01*
X24559Y-16229D02*
X25059Y-16229D01*
G54D12*
X29871Y-17416D02*
X29871Y-16979D01*
X29871Y-16979D02*
X29871Y-13292D01*
X29871Y-13292D02*
X25309Y-13292D01*
X28559Y-14854D02*
X26309Y-14854D01*
X26309Y-14854D02*
X26309Y-15854D01*
X26309Y-15854D02*
X28559Y-15854D01*
X29871Y-13729D02*
X28559Y-13729D01*
X28559Y-13729D02*
X28559Y-14104D01*
X28559Y-14104D02*
X28559Y-14854D01*
X28559Y-15854D02*
X28559Y-16604D01*
X28559Y-16604D02*
X28559Y-16979D01*
X28559Y-16979D02*
X29871Y-16979D01*
X28559Y-14104D02*
X28809Y-14104D01*
X29309Y-14604D02*
X29309Y-16104D01*
X28809Y-16604D02*
X28559Y-16604D01*
X25309Y-13292D02*
X25309Y-17416D01*
X25309Y-17416D02*
X29871Y-17416D01*
X25309Y-13729D02*
X25059Y-13729D01*
X25059Y-13729D02*
X24434Y-13729D01*
X25059Y-13729D02*
X25059Y-14104D01*
G54D13*
X25059Y-14104D02*
X25059Y-14604D01*
G54D12*
X25059Y-14604D02*
X25059Y-15104D01*
G54D13*
X25059Y-15104D02*
X25059Y-15604D01*
G54D12*
X25059Y-15604D02*
X25059Y-15979D01*
X25059Y-14104D02*
X24534Y-14104D01*
X24434Y-14004D02*
X24434Y-13729D01*
X25059Y-14604D02*
X24534Y-14604D01*
X25059Y-15104D02*
X24534Y-15104D01*
X24434Y-15004D02*
X24434Y-14704D01*
X25059Y-15604D02*
X24534Y-15604D01*
X24434Y-15704D02*
X24434Y-15879D01*
X24534Y-15979D02*
X25059Y-15979D01*
X24434Y-16979D02*
X25059Y-16979D01*
X25059Y-16979D02*
X25309Y-16979D01*
G54D13*
X25059Y-15979D02*
X25059Y-16604D01*
G54D12*
X25059Y-16604D02*
X25059Y-16979D01*
X25059Y-16604D02*
X24534Y-16604D01*
X24434Y-16704D02*
X24434Y-16979D01*
G54D14*
X29871Y-13792D02*
X29121Y-13980D01*
X29121Y-13980D02*
X29871Y-14167D01*
X29871Y-14167D02*
X29871Y-13792D01*
G54D12*
X29309Y-14604D02*
G75*
G03X28809Y-14104I-500J0D01*
G74*
G01*
X28809Y-16604D02*
G75*
G03X29309Y-16104I0J500D01*
G74*
G01*
X24434Y-14004D02*
G75*
G03X24534Y-14104I100J0D01*
G74*
G01*
X24534Y-14604D02*
G75*
G03X24434Y-14704I0J-100D01*
G74*
G01*
X24434Y-15004D02*
G75*
G03X24534Y-15104I100J0D01*
G74*
G01*
X24534Y-15604D02*
G75*
G03X24434Y-15704I0J-100D01*
G74*
G01*
X24434Y-15879D02*
G75*
G03X24534Y-15979I100J0D01*
G74*
G01*
X24534Y-16604D02*
G75*
G03X24434Y-16704I0J-100D01*
G74*
G01*
G54D11*
X22660Y-14775D02*
X22915Y-14775D01*
X22915Y-14775D02*
X22915Y-14224D01*
X22660Y-14224D02*
X22915Y-14224D01*
X22660Y-14775D02*
X22660Y-14224D01*
X22080Y-14775D02*
X22336Y-14775D01*
X22336Y-14775D02*
X22336Y-14224D01*
X22080Y-14224D02*
X22336Y-14224D01*
X22080Y-14775D02*
X22080Y-14224D01*
X22422Y-14696D02*
X22578Y-14696D01*
X22578Y-14696D02*
X22578Y-14304D01*
X22422Y-14304D02*
X22578Y-14304D01*
X22422Y-14696D02*
X22422Y-14304D01*
G54D15*
X22339Y-14250D02*
X22661Y-14250D01*
X22339Y-14750D02*
X22661Y-14750D01*
G54D11*
X23660Y-27525D02*
X23915Y-27525D01*
X23915Y-27525D02*
X23915Y-26974D01*
X23660Y-26974D02*
X23915Y-26974D01*
X23660Y-27525D02*
X23660Y-26974D01*
X23080Y-27525D02*
X23336Y-27525D01*
X23336Y-27525D02*
X23336Y-26974D01*
X23080Y-26974D02*
X23336Y-26974D01*
X23080Y-27525D02*
X23080Y-26974D01*
X23422Y-27446D02*
X23578Y-27446D01*
X23578Y-27446D02*
X23578Y-27054D01*
X23422Y-27054D02*
X23578Y-27054D01*
X23422Y-27446D02*
X23422Y-27054D01*
G54D15*
X23339Y-27000D02*
X23661Y-27000D01*
X23339Y-27500D02*
X23661Y-27500D01*
G54D16*
G36*
X23352Y-12575D02*
X22727Y-12575D01*
X22727Y-11450D01*
X22977Y-11450D01*
X22977Y-12449D01*
X23352Y-12449D01*
X23352Y-12575D01*
X23352Y-12575D01*
X23352Y-12575D01*
G37*
G36*
X24099Y-11450D02*
X24098Y-11513D01*
X24096Y-11575D01*
X23909Y-11575D01*
X23723Y-11575D01*
X23723Y-11763D01*
X23723Y-11950D01*
X23848Y-11950D01*
X23972Y-11950D01*
X23972Y-12013D01*
X23972Y-12075D01*
X23848Y-12075D01*
X23723Y-12075D01*
X23723Y-12262D01*
X23723Y-12449D01*
X23909Y-12449D01*
X24097Y-12449D01*
X24097Y-12512D01*
X24097Y-12575D01*
X23785Y-12575D01*
X23473Y-12575D01*
X23473Y-12013D01*
X23473Y-11450D01*
X23787Y-11450D01*
X24099Y-11450D01*
X24099Y-11450D01*
X24099Y-11450D01*
G37*
G36*
X24971Y-12013D02*
X24971Y-12082D01*
X24971Y-12141D01*
X24971Y-12192D01*
X24971Y-12234D01*
X24971Y-12270D01*
X24970Y-12300D01*
X24970Y-12324D01*
X24969Y-12343D01*
X24968Y-12359D01*
X24967Y-12371D01*
X24966Y-12380D01*
X24965Y-12388D01*
X24963Y-12395D01*
X24962Y-12399D01*
X24954Y-12420D01*
X24943Y-12443D01*
X24936Y-12454D01*
X24920Y-12475D01*
X24900Y-12498D01*
X24876Y-12519D01*
X24854Y-12537D01*
X24834Y-12549D01*
X24823Y-12554D01*
X24813Y-12559D01*
X24802Y-12563D01*
X24790Y-12566D01*
X24776Y-12568D01*
X24760Y-12570D01*
X24739Y-12572D01*
X24720Y-12572D01*
X24720Y-12152D01*
X24720Y-12082D01*
X24720Y-12003D01*
X24720Y-12002D01*
X24719Y-11663D01*
X24705Y-11640D01*
X24690Y-11618D01*
X24673Y-11602D01*
X24652Y-11590D01*
X24627Y-11582D01*
X24594Y-11577D01*
X24554Y-11575D01*
X24540Y-11575D01*
X24471Y-11575D01*
X24471Y-12013D01*
X24471Y-12450D01*
X24550Y-12449D01*
X24580Y-12448D01*
X24603Y-12447D01*
X24619Y-12446D01*
X24631Y-12443D01*
X24641Y-12440D01*
X24651Y-12436D01*
X24654Y-12434D01*
X24678Y-12417D01*
X24699Y-12394D01*
X24713Y-12369D01*
X24716Y-12359D01*
X24717Y-12350D01*
X24718Y-12330D01*
X24719Y-12300D01*
X24720Y-12260D01*
X24720Y-12211D01*
X24720Y-12152D01*
X24720Y-12572D01*
X24714Y-12573D01*
X24683Y-12573D01*
X24646Y-12574D01*
X24601Y-12574D01*
X24548Y-12574D01*
X24490Y-12574D01*
X24221Y-12575D01*
X24221Y-12013D01*
X24221Y-11450D01*
X24495Y-11450D01*
X24769Y-11450D01*
X24802Y-11463D01*
X24837Y-11478D01*
X24868Y-11498D01*
X24898Y-11524D01*
X24904Y-11530D01*
X24927Y-11556D01*
X24943Y-11581D01*
X24956Y-11609D01*
X24961Y-11625D01*
X24963Y-11631D01*
X24965Y-11638D01*
X24966Y-11646D01*
X24967Y-11655D01*
X24968Y-11668D01*
X24969Y-11683D01*
X24970Y-11702D01*
X24970Y-11727D01*
X24971Y-11757D01*
X24971Y-11793D01*
X24971Y-11836D01*
X24971Y-11887D01*
X24971Y-11946D01*
X24971Y-12013D01*
X24971Y-12013D01*
X24971Y-12013D01*
G37*
G54D11*
X17285Y-23653D02*
X17085Y-23653D01*
X17085Y-23653D02*
X17085Y-24003D01*
X17285Y-24003D02*
X17085Y-24003D01*
X17285Y-23653D02*
X17285Y-24003D01*
X17285Y-25603D02*
X17085Y-25603D01*
X17085Y-25603D02*
X17085Y-25953D01*
X17285Y-25953D02*
X17085Y-25953D01*
X17285Y-25603D02*
X17285Y-25953D01*
X22285Y-25603D02*
X22085Y-25603D01*
X22085Y-25603D02*
X22085Y-25953D01*
X22285Y-25953D02*
X22085Y-25953D01*
X22285Y-25603D02*
X22285Y-25953D01*
X22285Y-23653D02*
X22085Y-23653D01*
X22085Y-23653D02*
X22085Y-24003D01*
X22285Y-24003D02*
X22085Y-24003D01*
X22285Y-23653D02*
X22285Y-24003D01*
X18785Y-27103D02*
X17935Y-27103D01*
X17935Y-27103D02*
X17935Y-27303D01*
X18785Y-27303D02*
X17935Y-27303D01*
X18785Y-27103D02*
X18785Y-27303D01*
X21435Y-27103D02*
X20585Y-27103D01*
X20585Y-27103D02*
X20585Y-27303D01*
X21435Y-27303D02*
X20585Y-27303D01*
X21435Y-27103D02*
X21435Y-27303D01*
X18785Y-22303D02*
X17935Y-22303D01*
X17935Y-22303D02*
X17935Y-22503D01*
X18785Y-22503D02*
X17935Y-22503D01*
X18785Y-22303D02*
X18785Y-22503D01*
X21435Y-22303D02*
X20585Y-22303D01*
X20585Y-22303D02*
X20585Y-22503D01*
X21435Y-22503D02*
X20585Y-22503D01*
X21435Y-22303D02*
X21435Y-22503D01*
G54D15*
X20435Y-25553D02*
X18935Y-25553D01*
X18935Y-24053D02*
X18935Y-25553D01*
X18935Y-24053D02*
X20435Y-24053D01*
X20435Y-25553D02*
X20435Y-24053D01*
G54D14*
X20335Y-25453D02*
X19035Y-25453D01*
X19035Y-24153D02*
X19035Y-25453D01*
X19035Y-24153D02*
X20335Y-24153D01*
X20335Y-25453D02*
X20335Y-24153D01*
G54D15*
X20085Y-27203D02*
X20085Y-27353D01*
X20085Y-27203D02*
X19285Y-27203D01*
X20085Y-27353D02*
X19285Y-27353D01*
X19285Y-27353D02*
X19285Y-27203D01*
X17285Y-26803D02*
X17685Y-27203D01*
X17685Y-27203D02*
X18985Y-27203D01*
X17285Y-26803D02*
X17285Y-26303D01*
X17285Y-25253D02*
X17285Y-26303D01*
X17285Y-25253D02*
X17285Y-24353D01*
X17285Y-23303D02*
X17285Y-24353D01*
X17685Y-22403D02*
X17285Y-22803D01*
X17285Y-22803D02*
X17285Y-23303D01*
X22085Y-25253D02*
X22085Y-26303D01*
X22085Y-25253D02*
X22085Y-24353D01*
X22085Y-23303D02*
X22085Y-24353D01*
X22085Y-23303D02*
X22085Y-22803D01*
X22085Y-22803D02*
X21685Y-22403D01*
X21685Y-22403D02*
X20385Y-22403D01*
X21685Y-27203D02*
X20385Y-27203D01*
X21685Y-27203D02*
X22085Y-26803D01*
X22085Y-26803D02*
X22085Y-26303D01*
X20085Y-22253D02*
X19285Y-22253D01*
X20085Y-22253D02*
X20085Y-22403D01*
X19285Y-22403D02*
X19285Y-22253D01*
X17685Y-27203D02*
X17785Y-27303D01*
X17785Y-27303D02*
X18985Y-27303D01*
X18985Y-27303D02*
X18985Y-27203D01*
X18985Y-27203D02*
X19285Y-27203D01*
X20385Y-27303D02*
X20385Y-27203D01*
X20385Y-27203D02*
X20085Y-27203D01*
X20385Y-27303D02*
X21585Y-27303D01*
X21685Y-27203D02*
X21585Y-27303D01*
X20085Y-22403D02*
X19285Y-22403D01*
X19285Y-22403D02*
X18985Y-22403D01*
X20385Y-22403D02*
X20385Y-22303D01*
X20385Y-22403D02*
X20085Y-22403D01*
X20385Y-22303D02*
X21585Y-22303D01*
X21585Y-22303D02*
X21685Y-22403D01*
X18985Y-22403D02*
X18985Y-22303D01*
X18985Y-22403D02*
X17685Y-22403D01*
X17785Y-22303D02*
X18985Y-22303D01*
X17685Y-22403D02*
X17785Y-22303D01*
X21685Y-25803D02*
X21485Y-25803D01*
X18535Y-25803D02*
X17685Y-25803D01*
X21685Y-23803D02*
X21485Y-23803D01*
X18535Y-23803D02*
X17685Y-23803D01*
X21485Y-25803D02*
X21485Y-25103D01*
X21485Y-25803D02*
X20835Y-25803D01*
X21485Y-25103D02*
X21685Y-24503D01*
X21485Y-24503D02*
X21485Y-23803D01*
X21485Y-23803D02*
X20835Y-23803D01*
G54D17*
X20674Y-24803D02*
G75*
G03X20674Y-24803I-989J0D01*
G74*
G01*
G54D18*
X19967Y-24803D02*
G75*
G03X19967Y-24803I-282J0D01*
G74*
G01*
X19897Y-24803D02*
G75*
G03X19897Y-24803I-212J0D01*
G74*
G01*
G54D17*
X21520Y-25803D02*
G75*
G03X21520Y-25803I-35J0D01*
G74*
G01*
X21520Y-23803D02*
G75*
G03X21520Y-23803I-35J0D01*
G74*
G01*
G54D13*
X19935Y-23033D02*
G75*
G03X19935Y-23033I-250J0D01*
G74*
G01*
X20039Y-23033D02*
X19331Y-23033D01*
X19685Y-22678D02*
X19685Y-23389D01*
X19935Y-26573D02*
G75*
G03X19935Y-26573I-250J0D01*
G74*
G01*
X20039Y-26573D02*
X19331Y-26573D01*
X19685Y-26217D02*
X19685Y-26928D01*
G54D11*
X24559Y-23678D02*
X24559Y-23928D01*
X24559Y-23928D02*
X25059Y-23928D01*
X25059Y-23678D02*
X25059Y-23928D01*
X24559Y-23678D02*
X25059Y-23678D01*
X24559Y-24678D02*
X24559Y-24928D01*
X24559Y-24928D02*
X25059Y-24928D01*
X25059Y-24678D02*
X25059Y-24928D01*
X24559Y-24678D02*
X25059Y-24678D01*
X24559Y-25678D02*
X24559Y-25928D01*
X24559Y-25928D02*
X25059Y-25928D01*
X25059Y-25678D02*
X25059Y-25928D01*
X24559Y-25678D02*
X25059Y-25678D01*
G54D12*
X29871Y-26865D02*
X29871Y-26428D01*
X29871Y-26428D02*
X29871Y-22741D01*
X29871Y-22741D02*
X25309Y-22741D01*
X28559Y-24303D02*
X26309Y-24303D01*
X26309Y-24303D02*
X26309Y-25303D01*
X26309Y-25303D02*
X28559Y-25303D01*
X29871Y-23178D02*
X28559Y-23178D01*
X28559Y-23178D02*
X28559Y-23553D01*
X28559Y-23553D02*
X28559Y-24303D01*
X28559Y-25303D02*
X28559Y-26053D01*
X28559Y-26053D02*
X28559Y-26428D01*
X28559Y-26428D02*
X29871Y-26428D01*
X28559Y-23553D02*
X28809Y-23553D01*
X29309Y-24053D02*
X29309Y-25553D01*
X28809Y-26053D02*
X28559Y-26053D01*
X25309Y-22741D02*
X25309Y-26865D01*
X25309Y-26865D02*
X29871Y-26865D01*
X25309Y-23178D02*
X25059Y-23178D01*
X25059Y-23178D02*
X24434Y-23178D01*
X25059Y-23178D02*
X25059Y-23553D01*
G54D13*
X25059Y-23553D02*
X25059Y-24053D01*
G54D12*
X25059Y-24053D02*
X25059Y-24553D01*
G54D13*
X25059Y-24553D02*
X25059Y-25053D01*
G54D12*
X25059Y-25053D02*
X25059Y-25428D01*
X25059Y-23553D02*
X24534Y-23553D01*
X24434Y-23453D02*
X24434Y-23178D01*
X25059Y-24053D02*
X24534Y-24053D01*
X25059Y-24553D02*
X24534Y-24553D01*
X24434Y-24453D02*
X24434Y-24153D01*
X25059Y-25053D02*
X24534Y-25053D01*
X24434Y-25153D02*
X24434Y-25328D01*
X24534Y-25428D02*
X25059Y-25428D01*
X24434Y-26428D02*
X25059Y-26428D01*
X25059Y-26428D02*
X25309Y-26428D01*
G54D13*
X25059Y-25428D02*
X25059Y-26053D01*
G54D12*
X25059Y-26053D02*
X25059Y-26428D01*
X25059Y-26053D02*
X24534Y-26053D01*
X24434Y-26153D02*
X24434Y-26428D01*
G54D14*
X29871Y-23241D02*
X29121Y-23429D01*
X29121Y-23429D02*
X29871Y-23616D01*
X29871Y-23616D02*
X29871Y-23241D01*
G54D12*
X29309Y-24053D02*
G75*
G03X28809Y-23553I-500J0D01*
G74*
G01*
X28809Y-26053D02*
G75*
G03X29309Y-25553I0J500D01*
G74*
G01*
X24434Y-23453D02*
G75*
G03X24534Y-23553I100J0D01*
G74*
G01*
X24534Y-24053D02*
G75*
G03X24434Y-24153I0J-100D01*
G74*
G01*
X24434Y-24453D02*
G75*
G03X24534Y-24553I100J0D01*
G74*
G01*
X24534Y-25053D02*
G75*
G03X24434Y-25153I0J-100D01*
G74*
G01*
X24434Y-25328D02*
G75*
G03X24534Y-25428I100J0D01*
G74*
G01*
X24534Y-26053D02*
G75*
G03X24434Y-26153I0J-100D01*
G74*
G01*
G54D11*
X24230Y-28160D02*
X24009Y-28160D01*
X24009Y-28160D02*
X24009Y-28840D01*
X24230Y-28840D02*
X24009Y-28840D01*
X24230Y-28160D02*
X24230Y-28840D01*
X22991Y-28160D02*
X22770Y-28160D01*
X22770Y-28160D02*
X22770Y-28840D01*
X22991Y-28840D02*
X22770Y-28840D01*
X22991Y-28160D02*
X22991Y-28840D01*
X23840Y-28190D02*
X23600Y-28190D01*
X23600Y-28190D02*
X23600Y-28810D01*
X23840Y-28810D02*
X23600Y-28810D01*
X23840Y-28190D02*
X23840Y-28810D01*
G54D15*
X22980Y-28810D02*
X24020Y-28810D01*
X22980Y-28190D02*
X24020Y-28190D01*
G54D19*
X23304Y-28696D02*
X23696Y-28500D01*
X23696Y-28500D02*
X23304Y-28304D01*
X23304Y-28304D02*
X23304Y-28696D01*
G54D11*
X22929Y-15965D02*
X22634Y-15965D01*
X22634Y-15965D02*
X22634Y-16535D01*
X22929Y-16535D02*
X22634Y-16535D01*
X22929Y-15965D02*
X22929Y-16535D01*
X22360Y-15965D02*
X22065Y-15965D01*
X22065Y-15965D02*
X22065Y-16535D01*
X22360Y-16535D02*
X22065Y-16535D01*
X22360Y-15965D02*
X22360Y-16535D01*
X22539Y-16093D02*
X22461Y-16093D01*
X22461Y-16093D02*
X22461Y-16407D01*
X22539Y-16407D02*
X22461Y-16407D01*
X22539Y-16093D02*
X22539Y-16407D01*
G54D20*
X22650Y-16509D02*
X22350Y-16509D01*
X22640Y-15991D02*
X22350Y-15991D01*
G54D19*
X20685Y-16104D02*
X20685Y-14604D01*
G54D17*
X20392Y-15354D02*
G75*
G03X20392Y-15354I-707J0D01*
G74*
G01*
G54D12*
X20684Y-14603D02*
G75*
G03X20684Y-16104I-999J-750D01*
G74*
G01*
G54D15*
X19685Y-14904D02*
G75*
G03X19235Y-15354I0J-450D01*
G74*
G01*
X19685Y-15804D02*
G75*
G03X20135Y-15354I0J450D01*
G74*
G01*
X19685Y-14704D02*
G75*
G03X19035Y-15354I0J-650D01*
G74*
G01*
X19685Y-16004D02*
G75*
G03X20335Y-15354I0J650D01*
G74*
G01*
X19685Y-14504D02*
G75*
G03X18835Y-15354I0J-850D01*
G74*
G01*
X19685Y-16204D02*
G75*
G03X20535Y-15354I0J850D01*
G74*
G01*
G54D16*
G36*
X26196Y-11800D02*
X26195Y-12061D01*
X26194Y-12110D01*
X26194Y-12153D01*
X26194Y-12190D01*
X26193Y-12222D01*
X26193Y-12249D01*
X26192Y-12272D01*
X26192Y-12292D01*
X26191Y-12307D01*
X26190Y-12320D01*
X26188Y-12331D01*
X26187Y-12341D01*
X26185Y-12349D01*
X26183Y-12356D01*
X26180Y-12363D01*
X26177Y-12370D01*
X26173Y-12378D01*
X26171Y-12382D01*
X26153Y-12414D01*
X26130Y-12445D01*
X26103Y-12474D01*
X26073Y-12498D01*
X26041Y-12519D01*
X26016Y-12530D01*
X26003Y-12535D01*
X25991Y-12539D01*
X25979Y-12542D01*
X25967Y-12544D01*
X25952Y-12546D01*
X25935Y-12548D01*
X25915Y-12549D01*
X25891Y-12549D01*
X25862Y-12549D01*
X25828Y-12549D01*
X25818Y-12550D01*
X25695Y-12550D01*
X25695Y-12175D01*
X25695Y-11800D01*
X25778Y-11800D01*
X25861Y-11800D01*
X25861Y-12134D01*
X25861Y-12467D01*
X25914Y-12466D01*
X25934Y-12465D01*
X25949Y-12464D01*
X25960Y-12464D01*
X25968Y-12462D01*
X25975Y-12460D01*
X25981Y-12457D01*
X25983Y-12456D01*
X25999Y-12445D01*
X26013Y-12430D01*
X26022Y-12413D01*
X26025Y-12407D01*
X26025Y-12401D01*
X26026Y-12389D01*
X26026Y-12370D01*
X26027Y-12344D01*
X26027Y-12312D01*
X26028Y-12275D01*
X26028Y-12231D01*
X26028Y-12181D01*
X26028Y-12125D01*
X26028Y-12098D01*
X26028Y-11800D01*
X26112Y-11800D01*
X26196Y-11800D01*
X26196Y-11800D01*
X26196Y-11800D01*
G37*
G36*
X26774Y-12261D02*
X26774Y-12295D01*
X26773Y-12322D01*
X26773Y-12347D01*
X26773Y-12366D01*
X26773Y-12383D01*
X26772Y-12395D01*
X26772Y-12406D01*
X26771Y-12414D01*
X26770Y-12420D01*
X26769Y-12425D01*
X26768Y-12430D01*
X26767Y-12432D01*
X26760Y-12453D01*
X26750Y-12471D01*
X26737Y-12488D01*
X26721Y-12503D01*
X26695Y-12525D01*
X26667Y-12539D01*
X26647Y-12546D01*
X26638Y-12547D01*
X26625Y-12548D01*
X26607Y-12548D01*
X26607Y-12192D01*
X26607Y-12168D01*
X26607Y-12149D01*
X26606Y-12135D01*
X26606Y-12124D01*
X26606Y-12118D01*
X26605Y-12114D01*
X26604Y-12112D01*
X26604Y-12112D01*
X26604Y-11949D01*
X26602Y-11942D01*
X26597Y-11931D01*
X26591Y-11919D01*
X26584Y-11910D01*
X26582Y-11908D01*
X26567Y-11895D01*
X26548Y-11888D01*
X26525Y-11886D01*
X26504Y-11888D01*
X26486Y-11894D01*
X26469Y-11906D01*
X26465Y-11911D01*
X26459Y-11916D01*
X26455Y-11921D01*
X26452Y-11925D01*
X26449Y-11931D01*
X26447Y-11938D01*
X26445Y-11947D01*
X26444Y-11959D01*
X26443Y-11974D01*
X26442Y-11993D01*
X26442Y-12016D01*
X26441Y-12045D01*
X26441Y-12079D01*
X26441Y-12097D01*
X26440Y-12249D01*
X26522Y-12102D01*
X26538Y-12073D01*
X26553Y-12046D01*
X26566Y-12021D01*
X26578Y-11999D01*
X26588Y-11980D01*
X26596Y-11965D01*
X26601Y-11955D01*
X26604Y-11950D01*
X26604Y-11949D01*
X26604Y-12112D01*
X26603Y-12113D01*
X26602Y-12114D01*
X26601Y-12115D01*
X26598Y-12120D01*
X26593Y-12130D01*
X26584Y-12145D01*
X26574Y-12164D01*
X26561Y-12186D01*
X26548Y-12210D01*
X26533Y-12237D01*
X26519Y-12262D01*
X26443Y-12397D01*
X26448Y-12414D01*
X26457Y-12433D01*
X26471Y-12448D01*
X26489Y-12459D01*
X26509Y-12465D01*
X26531Y-12465D01*
X26548Y-12462D01*
X26569Y-12452D01*
X26586Y-12437D01*
X26596Y-12423D01*
X26605Y-12408D01*
X26606Y-12257D01*
X26606Y-12221D01*
X26607Y-12192D01*
X26607Y-12548D01*
X26607Y-12549D01*
X26585Y-12549D01*
X26560Y-12549D01*
X26535Y-12549D01*
X26508Y-12549D01*
X26483Y-12549D01*
X26458Y-12548D01*
X26437Y-12548D01*
X26419Y-12547D01*
X26405Y-12546D01*
X26398Y-12545D01*
X26398Y-12545D01*
X26369Y-12534D01*
X26343Y-12517D01*
X26319Y-12495D01*
X26300Y-12470D01*
X26289Y-12451D01*
X26276Y-12425D01*
X26276Y-12175D01*
X26276Y-11925D01*
X26289Y-11899D01*
X26306Y-11870D01*
X26329Y-11845D01*
X26356Y-11824D01*
X26387Y-11808D01*
X26395Y-11806D01*
X26400Y-11804D01*
X26406Y-11803D01*
X26414Y-11802D01*
X26426Y-11802D01*
X26442Y-11801D01*
X26462Y-11801D01*
X26487Y-11801D01*
X26518Y-11800D01*
X26524Y-11800D01*
X26555Y-11800D01*
X26580Y-11801D01*
X26600Y-11801D01*
X26616Y-11801D01*
X26628Y-11801D01*
X26637Y-11802D01*
X26644Y-11803D01*
X26650Y-11804D01*
X26655Y-11806D01*
X26661Y-11808D01*
X26681Y-11816D01*
X26696Y-11825D01*
X26711Y-11837D01*
X26723Y-11848D01*
X26742Y-11869D01*
X26756Y-11890D01*
X26766Y-11913D01*
X26767Y-11917D01*
X26768Y-11921D01*
X26769Y-11925D01*
X26770Y-11931D01*
X26771Y-11937D01*
X26772Y-11946D01*
X26772Y-11956D01*
X26773Y-11969D01*
X26773Y-11986D01*
X26773Y-12006D01*
X26774Y-12030D01*
X26774Y-12059D01*
X26774Y-12094D01*
X26774Y-12134D01*
X26774Y-12175D01*
X26774Y-12221D01*
X26774Y-12261D01*
X26774Y-12261D01*
X26774Y-12261D01*
G37*
G36*
X27106Y-12550D02*
X27023Y-12550D01*
X26939Y-12550D01*
X26939Y-12259D01*
X26939Y-11967D01*
X26896Y-11967D01*
X26853Y-11967D01*
X26853Y-11926D01*
X26853Y-11885D01*
X26938Y-11843D01*
X27022Y-11800D01*
X27064Y-11800D01*
X27106Y-11800D01*
X27106Y-12175D01*
X27106Y-12550D01*
X27106Y-12550D01*
X27106Y-12550D01*
G37*
G36*
X26546Y-21250D02*
X26545Y-21511D01*
X26544Y-21560D01*
X26544Y-21603D01*
X26544Y-21640D01*
X26543Y-21672D01*
X26543Y-21699D01*
X26542Y-21722D01*
X26542Y-21742D01*
X26541Y-21757D01*
X26540Y-21770D01*
X26538Y-21781D01*
X26537Y-21791D01*
X26535Y-21799D01*
X26533Y-21806D01*
X26530Y-21813D01*
X26527Y-21820D01*
X26523Y-21828D01*
X26521Y-21832D01*
X26503Y-21864D01*
X26480Y-21895D01*
X26453Y-21924D01*
X26423Y-21948D01*
X26391Y-21969D01*
X26366Y-21980D01*
X26353Y-21985D01*
X26341Y-21989D01*
X26329Y-21992D01*
X26317Y-21994D01*
X26302Y-21996D01*
X26285Y-21998D01*
X26265Y-21999D01*
X26241Y-21999D01*
X26212Y-21999D01*
X26178Y-21999D01*
X26168Y-22000D01*
X26045Y-22000D01*
X26045Y-21625D01*
X26045Y-21250D01*
X26128Y-21250D01*
X26211Y-21250D01*
X26211Y-21584D01*
X26211Y-21917D01*
X26264Y-21916D01*
X26284Y-21915D01*
X26299Y-21914D01*
X26310Y-21914D01*
X26318Y-21912D01*
X26325Y-21910D01*
X26331Y-21907D01*
X26333Y-21906D01*
X26349Y-21895D01*
X26363Y-21880D01*
X26372Y-21863D01*
X26375Y-21857D01*
X26375Y-21851D01*
X26376Y-21839D01*
X26376Y-21820D01*
X26377Y-21794D01*
X26377Y-21762D01*
X26378Y-21725D01*
X26378Y-21681D01*
X26378Y-21631D01*
X26378Y-21575D01*
X26378Y-21548D01*
X26378Y-21250D01*
X26462Y-21250D01*
X26546Y-21250D01*
X26546Y-21250D01*
X26546Y-21250D01*
G37*
G36*
X27124Y-21711D02*
X27124Y-21745D01*
X27123Y-21772D01*
X27123Y-21797D01*
X27123Y-21816D01*
X27123Y-21833D01*
X27122Y-21845D01*
X27122Y-21856D01*
X27121Y-21864D01*
X27120Y-21870D01*
X27119Y-21875D01*
X27118Y-21880D01*
X27117Y-21882D01*
X27110Y-21903D01*
X27100Y-21921D01*
X27087Y-21938D01*
X27071Y-21953D01*
X27045Y-21975D01*
X27017Y-21989D01*
X26997Y-21996D01*
X26988Y-21997D01*
X26975Y-21998D01*
X26957Y-21998D01*
X26957Y-21642D01*
X26957Y-21618D01*
X26957Y-21599D01*
X26956Y-21585D01*
X26956Y-21574D01*
X26956Y-21568D01*
X26955Y-21564D01*
X26954Y-21562D01*
X26954Y-21562D01*
X26954Y-21399D01*
X26952Y-21392D01*
X26947Y-21381D01*
X26941Y-21369D01*
X26934Y-21360D01*
X26932Y-21358D01*
X26917Y-21345D01*
X26898Y-21338D01*
X26875Y-21336D01*
X26854Y-21338D01*
X26836Y-21344D01*
X26819Y-21356D01*
X26815Y-21361D01*
X26809Y-21366D01*
X26805Y-21371D01*
X26802Y-21375D01*
X26799Y-21381D01*
X26797Y-21388D01*
X26795Y-21397D01*
X26794Y-21409D01*
X26793Y-21424D01*
X26792Y-21443D01*
X26792Y-21466D01*
X26791Y-21495D01*
X26791Y-21529D01*
X26791Y-21547D01*
X26790Y-21699D01*
X26872Y-21552D01*
X26888Y-21523D01*
X26903Y-21496D01*
X26916Y-21471D01*
X26928Y-21449D01*
X26938Y-21430D01*
X26946Y-21415D01*
X26951Y-21405D01*
X26954Y-21400D01*
X26954Y-21399D01*
X26954Y-21562D01*
X26953Y-21563D01*
X26952Y-21564D01*
X26951Y-21565D01*
X26948Y-21570D01*
X26943Y-21580D01*
X26934Y-21595D01*
X26924Y-21614D01*
X26911Y-21636D01*
X26898Y-21660D01*
X26883Y-21687D01*
X26869Y-21712D01*
X26793Y-21847D01*
X26798Y-21864D01*
X26807Y-21883D01*
X26821Y-21898D01*
X26839Y-21909D01*
X26859Y-21915D01*
X26881Y-21915D01*
X26898Y-21912D01*
X26919Y-21902D01*
X26936Y-21887D01*
X26946Y-21873D01*
X26955Y-21858D01*
X26956Y-21707D01*
X26956Y-21671D01*
X26957Y-21642D01*
X26957Y-21998D01*
X26957Y-21999D01*
X26935Y-21999D01*
X26910Y-21999D01*
X26885Y-21999D01*
X26858Y-21999D01*
X26833Y-21999D01*
X26808Y-21998D01*
X26787Y-21998D01*
X26769Y-21997D01*
X26755Y-21996D01*
X26748Y-21995D01*
X26748Y-21995D01*
X26719Y-21984D01*
X26693Y-21967D01*
X26669Y-21945D01*
X26650Y-21920D01*
X26639Y-21901D01*
X26626Y-21875D01*
X26626Y-21625D01*
X26626Y-21375D01*
X26639Y-21349D01*
X26656Y-21320D01*
X26679Y-21295D01*
X26706Y-21274D01*
X26737Y-21258D01*
X26745Y-21256D01*
X26750Y-21254D01*
X26756Y-21253D01*
X26764Y-21252D01*
X26776Y-21252D01*
X26792Y-21251D01*
X26812Y-21251D01*
X26837Y-21251D01*
X26868Y-21250D01*
X26874Y-21250D01*
X26905Y-21250D01*
X26930Y-21251D01*
X26950Y-21251D01*
X26966Y-21251D01*
X26978Y-21251D01*
X26987Y-21252D01*
X26994Y-21253D01*
X27000Y-21254D01*
X27005Y-21256D01*
X27011Y-21258D01*
X27031Y-21266D01*
X27046Y-21275D01*
X27061Y-21287D01*
X27073Y-21298D01*
X27092Y-21319D01*
X27106Y-21340D01*
X27116Y-21363D01*
X27117Y-21367D01*
X27118Y-21371D01*
X27119Y-21375D01*
X27120Y-21381D01*
X27121Y-21387D01*
X27122Y-21396D01*
X27122Y-21406D01*
X27123Y-21419D01*
X27123Y-21436D01*
X27123Y-21456D01*
X27124Y-21480D01*
X27124Y-21509D01*
X27124Y-21544D01*
X27124Y-21584D01*
X27124Y-21625D01*
X27124Y-21671D01*
X27124Y-21711D01*
X27124Y-21711D01*
X27124Y-21711D01*
G37*
G36*
X27456Y-22000D02*
X27373Y-22000D01*
X27289Y-22000D01*
X27289Y-21709D01*
X27289Y-21417D01*
X27246Y-21417D01*
X27203Y-21417D01*
X27203Y-21376D01*
X27203Y-21335D01*
X27288Y-21293D01*
X27372Y-21250D01*
X27414Y-21250D01*
X27456Y-21250D01*
X27456Y-21625D01*
X27456Y-22000D01*
X27456Y-22000D01*
X27456Y-22000D01*
G37*
G36*
X21696Y-21723D02*
X21696Y-21757D01*
X21694Y-21790D01*
X21692Y-21820D01*
X21688Y-21843D01*
X21686Y-21849D01*
X21668Y-21891D01*
X21642Y-21929D01*
X21609Y-21963D01*
X21570Y-21991D01*
X21528Y-22011D01*
X21508Y-22018D01*
X21500Y-22019D01*
X21488Y-22020D01*
X21471Y-22022D01*
X21449Y-22022D01*
X21445Y-22022D01*
X21445Y-21674D01*
X21445Y-21247D01*
X21445Y-21213D01*
X21445Y-21201D01*
X21444Y-21169D01*
X21443Y-21146D01*
X21442Y-21129D01*
X21440Y-21116D01*
X21438Y-21107D01*
X21434Y-21099D01*
X21429Y-21090D01*
X21429Y-21089D01*
X21410Y-21065D01*
X21383Y-21044D01*
X21354Y-21031D01*
X21353Y-21031D01*
X21341Y-21029D01*
X21321Y-21027D01*
X21296Y-21026D01*
X21269Y-21025D01*
X21264Y-21025D01*
X21195Y-21025D01*
X21195Y-21213D01*
X21195Y-21401D01*
X21277Y-21400D01*
X21307Y-21399D01*
X21329Y-21398D01*
X21345Y-21397D01*
X21357Y-21395D01*
X21366Y-21392D01*
X21375Y-21388D01*
X21382Y-21384D01*
X21407Y-21364D01*
X21427Y-21339D01*
X21440Y-21311D01*
X21441Y-21309D01*
X21443Y-21296D01*
X21444Y-21275D01*
X21445Y-21247D01*
X21445Y-21674D01*
X21444Y-21640D01*
X21440Y-21611D01*
X21435Y-21589D01*
X21427Y-21572D01*
X21415Y-21558D01*
X21400Y-21547D01*
X21388Y-21540D01*
X21378Y-21536D01*
X21368Y-21532D01*
X21357Y-21530D01*
X21342Y-21528D01*
X21322Y-21527D01*
X21294Y-21526D01*
X21279Y-21526D01*
X21195Y-21524D01*
X21195Y-21712D01*
X21195Y-21900D01*
X21274Y-21899D01*
X21306Y-21898D01*
X21329Y-21897D01*
X21346Y-21895D01*
X21359Y-21892D01*
X21369Y-21889D01*
X21372Y-21887D01*
X21397Y-21871D01*
X21419Y-21850D01*
X21434Y-21828D01*
X21437Y-21821D01*
X21440Y-21811D01*
X21442Y-21797D01*
X21443Y-21778D01*
X21444Y-21752D01*
X21445Y-21719D01*
X21445Y-21674D01*
X21445Y-22022D01*
X21421Y-22023D01*
X21385Y-22024D01*
X21342Y-22024D01*
X21291Y-22024D01*
X21231Y-22024D01*
X21214Y-22024D01*
X20946Y-22025D01*
X20946Y-21463D01*
X20946Y-20900D01*
X21219Y-20900D01*
X21493Y-20900D01*
X21527Y-20913D01*
X21561Y-20928D01*
X21591Y-20947D01*
X21620Y-20973D01*
X21628Y-20981D01*
X21650Y-21006D01*
X21667Y-21031D01*
X21680Y-21056D01*
X21688Y-21084D01*
X21693Y-21117D01*
X21695Y-21157D01*
X21695Y-21185D01*
X21694Y-21232D01*
X21691Y-21271D01*
X21684Y-21304D01*
X21674Y-21331D01*
X21660Y-21356D01*
X21642Y-21379D01*
X21633Y-21388D01*
X21608Y-21408D01*
X21581Y-21425D01*
X21547Y-21440D01*
X21510Y-21452D01*
X21491Y-21458D01*
X21480Y-21462D01*
X21478Y-21464D01*
X21483Y-21465D01*
X21486Y-21465D01*
X21507Y-21468D01*
X21533Y-21475D01*
X21560Y-21484D01*
X21584Y-21495D01*
X21587Y-21497D01*
X21615Y-21519D01*
X21642Y-21548D01*
X21664Y-21582D01*
X21681Y-21620D01*
X21688Y-21641D01*
X21692Y-21662D01*
X21695Y-21690D01*
X21696Y-21723D01*
X21696Y-21723D01*
X21696Y-21723D01*
G37*
G36*
X22566Y-22025D02*
X22441Y-22025D01*
X22316Y-22025D01*
X22315Y-21973D01*
X22315Y-21922D01*
X22308Y-21946D01*
X22296Y-21970D01*
X22278Y-21992D01*
X22257Y-22009D01*
X22238Y-22018D01*
X22223Y-22021D01*
X22199Y-22023D01*
X22166Y-22024D01*
X22124Y-22024D01*
X22120Y-22024D01*
X22084Y-22024D01*
X22056Y-22023D01*
X22034Y-22022D01*
X22018Y-22020D01*
X22004Y-22018D01*
X21995Y-22015D01*
X21948Y-21995D01*
X21907Y-21967D01*
X21872Y-21931D01*
X21843Y-21888D01*
X21823Y-21844D01*
X21822Y-21838D01*
X21821Y-21830D01*
X21819Y-21820D01*
X21818Y-21805D01*
X21818Y-21787D01*
X21817Y-21763D01*
X21817Y-21733D01*
X21816Y-21697D01*
X21816Y-21654D01*
X21816Y-21604D01*
X21816Y-21544D01*
X21816Y-21487D01*
X21816Y-21150D01*
X21941Y-21150D01*
X22065Y-21150D01*
X22067Y-21479D01*
X22067Y-21545D01*
X22067Y-21601D01*
X22068Y-21649D01*
X22068Y-21689D01*
X22068Y-21722D01*
X22069Y-21749D01*
X22070Y-21770D01*
X22070Y-21787D01*
X22071Y-21800D01*
X22073Y-21809D01*
X22074Y-21816D01*
X22075Y-21821D01*
X22077Y-21825D01*
X22097Y-21854D01*
X22122Y-21876D01*
X22151Y-21890D01*
X22183Y-21897D01*
X22215Y-21895D01*
X22247Y-21885D01*
X22248Y-21884D01*
X22272Y-21867D01*
X22293Y-21845D01*
X22307Y-21820D01*
X22310Y-21811D01*
X22312Y-21801D01*
X22313Y-21782D01*
X22313Y-21754D01*
X22314Y-21716D01*
X22315Y-21670D01*
X22315Y-21616D01*
X22316Y-21553D01*
X22316Y-21481D01*
X22316Y-21472D01*
X22316Y-21150D01*
X22441Y-21150D01*
X22566Y-21150D01*
X22566Y-21588D01*
X22566Y-22025D01*
X22566Y-22025D01*
X22566Y-22025D01*
G37*
G36*
X23193Y-22025D02*
X23107Y-22024D01*
X23072Y-22024D01*
X23045Y-22023D01*
X23025Y-22022D01*
X23009Y-22019D01*
X22996Y-22016D01*
X22993Y-22015D01*
X22959Y-22002D01*
X22930Y-21986D01*
X22902Y-21965D01*
X22895Y-21958D01*
X22862Y-21921D01*
X22837Y-21880D01*
X22822Y-21840D01*
X22820Y-21832D01*
X22819Y-21822D01*
X22817Y-21811D01*
X22816Y-21796D01*
X22815Y-21778D01*
X22815Y-21755D01*
X22814Y-21726D01*
X22814Y-21691D01*
X22814Y-21649D01*
X22813Y-21598D01*
X22813Y-21542D01*
X22813Y-21275D01*
X22751Y-21275D01*
X22688Y-21275D01*
X22688Y-21213D01*
X22688Y-21150D01*
X22751Y-21150D01*
X22813Y-21150D01*
X22813Y-21025D01*
X22813Y-20900D01*
X22939Y-20900D01*
X23066Y-20900D01*
X23064Y-21025D01*
X23063Y-21150D01*
X23128Y-21150D01*
X23193Y-21150D01*
X23193Y-21213D01*
X23193Y-21275D01*
X23128Y-21275D01*
X23063Y-21275D01*
X23063Y-21519D01*
X23063Y-21569D01*
X23064Y-21616D01*
X23064Y-21660D01*
X23065Y-21700D01*
X23065Y-21735D01*
X23066Y-21763D01*
X23067Y-21783D01*
X23068Y-21794D01*
X23076Y-21825D01*
X23089Y-21850D01*
X23111Y-21870D01*
X23132Y-21883D01*
X23150Y-21891D01*
X23167Y-21897D01*
X23178Y-21899D01*
X23193Y-21899D01*
X23193Y-21962D01*
X23193Y-22025D01*
X23193Y-22025D01*
X23193Y-22025D01*
G37*
G36*
X23818Y-22025D02*
X23732Y-22024D01*
X23697Y-22024D01*
X23670Y-22023D01*
X23650Y-22022D01*
X23634Y-22019D01*
X23621Y-22016D01*
X23618Y-22015D01*
X23584Y-22002D01*
X23555Y-21986D01*
X23527Y-21965D01*
X23520Y-21958D01*
X23487Y-21921D01*
X23462Y-21880D01*
X23447Y-21840D01*
X23445Y-21832D01*
X23444Y-21822D01*
X23442Y-21811D01*
X23441Y-21796D01*
X23440Y-21778D01*
X23440Y-21755D01*
X23439Y-21726D01*
X23439Y-21691D01*
X23439Y-21649D01*
X23439Y-21598D01*
X23439Y-21542D01*
X23438Y-21275D01*
X23376Y-21275D01*
X23313Y-21275D01*
X23313Y-21213D01*
X23313Y-21150D01*
X23376Y-21150D01*
X23438Y-21150D01*
X23438Y-21025D01*
X23438Y-20900D01*
X23565Y-20900D01*
X23691Y-20900D01*
X23689Y-21025D01*
X23688Y-21150D01*
X23753Y-21150D01*
X23818Y-21150D01*
X23818Y-21213D01*
X23818Y-21275D01*
X23753Y-21275D01*
X23688Y-21275D01*
X23688Y-21519D01*
X23688Y-21569D01*
X23689Y-21616D01*
X23689Y-21660D01*
X23690Y-21700D01*
X23690Y-21735D01*
X23691Y-21763D01*
X23692Y-21783D01*
X23693Y-21794D01*
X23701Y-21825D01*
X23715Y-21850D01*
X23736Y-21870D01*
X23758Y-21883D01*
X23776Y-21891D01*
X23792Y-21897D01*
X23804Y-21899D01*
X23818Y-21899D01*
X23818Y-21962D01*
X23818Y-22025D01*
X23818Y-22025D01*
X23818Y-22025D01*
G37*
G36*
X24686Y-21588D02*
X24686Y-21646D01*
X24686Y-21694D01*
X24685Y-21735D01*
X24685Y-21769D01*
X24684Y-21797D01*
X24682Y-21819D01*
X24679Y-21838D01*
X24676Y-21853D01*
X24672Y-21866D01*
X24667Y-21878D01*
X24661Y-21889D01*
X24654Y-21901D01*
X24651Y-21904D01*
X24635Y-21925D01*
X24615Y-21948D01*
X24591Y-21969D01*
X24569Y-21987D01*
X24549Y-21999D01*
X24535Y-22006D01*
X24522Y-22011D01*
X24508Y-22015D01*
X24492Y-22018D01*
X24474Y-22021D01*
X24451Y-22022D01*
X24434Y-22023D01*
X24434Y-21812D01*
X24434Y-21588D01*
X24434Y-21533D01*
X24434Y-21487D01*
X24433Y-21449D01*
X24433Y-21418D01*
X24432Y-21394D01*
X24430Y-21375D01*
X24428Y-21360D01*
X24425Y-21349D01*
X24422Y-21340D01*
X24417Y-21332D01*
X24411Y-21325D01*
X24404Y-21318D01*
X24399Y-21314D01*
X24374Y-21294D01*
X24347Y-21282D01*
X24315Y-21278D01*
X24311Y-21278D01*
X24276Y-21283D01*
X24246Y-21297D01*
X24220Y-21319D01*
X24199Y-21348D01*
X24197Y-21353D01*
X24195Y-21358D01*
X24193Y-21365D01*
X24192Y-21373D01*
X24191Y-21385D01*
X24190Y-21401D01*
X24189Y-21421D01*
X24189Y-21448D01*
X24189Y-21481D01*
X24189Y-21523D01*
X24189Y-21573D01*
X24189Y-21588D01*
X24189Y-21642D01*
X24189Y-21687D01*
X24189Y-21724D01*
X24190Y-21754D01*
X24190Y-21778D01*
X24192Y-21797D01*
X24194Y-21812D01*
X24197Y-21823D01*
X24201Y-21832D01*
X24206Y-21840D01*
X24213Y-21848D01*
X24220Y-21855D01*
X24223Y-21859D01*
X24250Y-21881D01*
X24280Y-21894D01*
X24314Y-21898D01*
X24340Y-21894D01*
X24369Y-21883D01*
X24396Y-21864D01*
X24417Y-21840D01*
X24420Y-21836D01*
X24434Y-21812D01*
X24434Y-22023D01*
X24423Y-22023D01*
X24388Y-22024D01*
X24346Y-22024D01*
X24309Y-22024D01*
X24262Y-22024D01*
X24225Y-22024D01*
X24195Y-22023D01*
X24172Y-22023D01*
X24154Y-22022D01*
X24140Y-22020D01*
X24129Y-22019D01*
X24120Y-22016D01*
X24116Y-22015D01*
X24069Y-21995D01*
X24027Y-21967D01*
X23992Y-21931D01*
X23964Y-21888D01*
X23944Y-21844D01*
X23942Y-21837D01*
X23941Y-21828D01*
X23939Y-21816D01*
X23938Y-21799D01*
X23938Y-21777D01*
X23937Y-21750D01*
X23937Y-21716D01*
X23936Y-21673D01*
X23936Y-21624D01*
X23936Y-21588D01*
X23936Y-21352D01*
X23949Y-21321D01*
X23957Y-21301D01*
X23967Y-21281D01*
X23973Y-21269D01*
X23987Y-21249D01*
X24008Y-21227D01*
X24031Y-21206D01*
X24054Y-21188D01*
X24069Y-21179D01*
X24084Y-21172D01*
X24098Y-21166D01*
X24112Y-21161D01*
X24127Y-21157D01*
X24145Y-21154D01*
X24167Y-21153D01*
X24193Y-21151D01*
X24226Y-21151D01*
X24267Y-21151D01*
X24311Y-21151D01*
X24360Y-21151D01*
X24400Y-21151D01*
X24433Y-21152D01*
X24459Y-21153D01*
X24480Y-21155D01*
X24498Y-21157D01*
X24513Y-21161D01*
X24526Y-21166D01*
X24540Y-21171D01*
X24549Y-21176D01*
X24569Y-21188D01*
X24592Y-21206D01*
X24615Y-21228D01*
X24636Y-21250D01*
X24651Y-21271D01*
X24659Y-21283D01*
X24666Y-21294D01*
X24671Y-21306D01*
X24675Y-21318D01*
X24679Y-21332D01*
X24681Y-21350D01*
X24683Y-21371D01*
X24685Y-21398D01*
X24685Y-21430D01*
X24686Y-21469D01*
X24686Y-21515D01*
X24686Y-21571D01*
X24686Y-21588D01*
X24686Y-21588D01*
X24686Y-21588D01*
G37*
G36*
X25555Y-22025D02*
X25430Y-22025D01*
X25306Y-22025D01*
X25304Y-21693D01*
X25304Y-21627D01*
X25304Y-21569D01*
X25303Y-21520D01*
X25303Y-21478D01*
X25302Y-21444D01*
X25302Y-21415D01*
X25300Y-21392D01*
X25299Y-21374D01*
X25297Y-21360D01*
X25294Y-21349D01*
X25291Y-21341D01*
X25287Y-21334D01*
X25283Y-21328D01*
X25277Y-21322D01*
X25271Y-21316D01*
X25268Y-21314D01*
X25243Y-21294D01*
X25216Y-21282D01*
X25184Y-21278D01*
X25180Y-21278D01*
X25147Y-21282D01*
X25120Y-21293D01*
X25095Y-21314D01*
X25092Y-21316D01*
X25085Y-21323D01*
X25080Y-21329D01*
X25075Y-21335D01*
X25071Y-21342D01*
X25067Y-21350D01*
X25065Y-21360D01*
X25062Y-21373D01*
X25061Y-21390D01*
X25059Y-21412D01*
X25058Y-21439D01*
X25058Y-21471D01*
X25057Y-21511D01*
X25057Y-21557D01*
X25057Y-21613D01*
X25056Y-21676D01*
X25056Y-21696D01*
X25055Y-22025D01*
X24930Y-22025D01*
X24805Y-22025D01*
X24805Y-21588D01*
X24805Y-21150D01*
X24930Y-21150D01*
X25055Y-21150D01*
X25056Y-21202D01*
X25056Y-21253D01*
X25065Y-21230D01*
X25078Y-21201D01*
X25095Y-21181D01*
X25115Y-21166D01*
X25122Y-21162D01*
X25132Y-21158D01*
X25141Y-21155D01*
X25151Y-21153D01*
X25164Y-21152D01*
X25182Y-21151D01*
X25207Y-21151D01*
X25239Y-21151D01*
X25245Y-21151D01*
X25292Y-21151D01*
X25331Y-21153D01*
X25363Y-21157D01*
X25390Y-21164D01*
X25414Y-21173D01*
X25436Y-21186D01*
X25457Y-21202D01*
X25473Y-21216D01*
X25505Y-21250D01*
X25528Y-21285D01*
X25544Y-21322D01*
X25546Y-21326D01*
X25548Y-21332D01*
X25549Y-21339D01*
X25551Y-21348D01*
X25552Y-21358D01*
X25553Y-21371D01*
X25554Y-21389D01*
X25554Y-21410D01*
X25554Y-21436D01*
X25555Y-21469D01*
X25555Y-21508D01*
X25555Y-21555D01*
X25555Y-21610D01*
X25555Y-21673D01*
X25555Y-21690D01*
X25555Y-22025D01*
X25555Y-22025D01*
X25555Y-22025D01*
G37*
G54D13*
X27300Y-15171D02*
X27300Y-15385D01*
X27285Y-15428D01*
X27257Y-15457D01*
X27214Y-15471D01*
X27185Y-15471D01*
X27442Y-15471D02*
X27442Y-15171D01*
X27557Y-15171D01*
X27585Y-15185D01*
X27600Y-15200D01*
X27614Y-15228D01*
X27614Y-15271D01*
X27600Y-15300D01*
X27585Y-15314D01*
X27557Y-15328D01*
X27442Y-15328D01*
X27900Y-15471D02*
X27728Y-15471D01*
X27814Y-15471D02*
X27814Y-15171D01*
X27785Y-15214D01*
X27757Y-15242D01*
X27728Y-15257D01*
X22450Y-15371D02*
X22350Y-15228D01*
X22278Y-15371D02*
X22278Y-15071D01*
X22392Y-15071D01*
X22421Y-15085D01*
X22435Y-15100D01*
X22450Y-15128D01*
X22450Y-15171D01*
X22435Y-15200D01*
X22421Y-15214D01*
X22392Y-15228D01*
X22278Y-15228D01*
X22735Y-15371D02*
X22564Y-15371D01*
X22650Y-15371D02*
X22650Y-15071D01*
X22621Y-15114D01*
X22592Y-15142D01*
X22564Y-15157D01*
X24950Y-27371D02*
X24850Y-27228D01*
X24778Y-27371D02*
X24778Y-27071D01*
X24892Y-27071D01*
X24921Y-27085D01*
X24935Y-27100D01*
X24950Y-27128D01*
X24950Y-27171D01*
X24935Y-27200D01*
X24921Y-27214D01*
X24892Y-27228D01*
X24778Y-27228D01*
X25064Y-27100D02*
X25078Y-27085D01*
X25107Y-27071D01*
X25178Y-27071D01*
X25207Y-27085D01*
X25221Y-27100D01*
X25235Y-27128D01*
X25235Y-27157D01*
X25221Y-27200D01*
X25050Y-27371D01*
X25235Y-27371D01*
X18151Y-25002D02*
X18165Y-24960D01*
X18165Y-24888D01*
X18151Y-24860D01*
X18137Y-24845D01*
X18108Y-24831D01*
X18080Y-24831D01*
X18051Y-24845D01*
X18037Y-24860D01*
X18023Y-24888D01*
X18008Y-24945D01*
X17994Y-24974D01*
X17980Y-24988D01*
X17951Y-25002D01*
X17923Y-25002D01*
X17894Y-24988D01*
X17880Y-24974D01*
X17865Y-24945D01*
X17865Y-24874D01*
X17880Y-24831D01*
X18165Y-24545D02*
X18165Y-24717D01*
X18165Y-24631D02*
X17865Y-24631D01*
X17908Y-24660D01*
X17937Y-24688D01*
X17951Y-24717D01*
X27300Y-24721D02*
X27300Y-24935D01*
X27285Y-24978D01*
X27257Y-25007D01*
X27214Y-25021D01*
X27185Y-25021D01*
X27442Y-25021D02*
X27442Y-24721D01*
X27557Y-24721D01*
X27585Y-24735D01*
X27600Y-24750D01*
X27614Y-24778D01*
X27614Y-24821D01*
X27600Y-24850D01*
X27585Y-24864D01*
X27557Y-24878D01*
X27442Y-24878D01*
X27728Y-24750D02*
X27742Y-24735D01*
X27771Y-24721D01*
X27842Y-24721D01*
X27871Y-24735D01*
X27885Y-24750D01*
X27900Y-24778D01*
X27900Y-24807D01*
X27885Y-24850D01*
X27714Y-25021D01*
X27900Y-25021D01*
X24778Y-28621D02*
X24778Y-28321D01*
X24850Y-28321D01*
X24892Y-28335D01*
X24921Y-28364D01*
X24935Y-28392D01*
X24950Y-28450D01*
X24950Y-28492D01*
X24935Y-28550D01*
X24921Y-28578D01*
X24892Y-28607D01*
X24850Y-28621D01*
X24778Y-28621D01*
X25235Y-28621D02*
X25064Y-28621D01*
X25150Y-28621D02*
X25150Y-28321D01*
X25121Y-28364D01*
X25092Y-28392D01*
X25064Y-28407D01*
X22450Y-17092D02*
X22435Y-17107D01*
X22392Y-17121D01*
X22364Y-17121D01*
X22321Y-17107D01*
X22292Y-17078D01*
X22278Y-17050D01*
X22264Y-16992D01*
X22264Y-16950D01*
X22278Y-16892D01*
X22292Y-16864D01*
X22321Y-16835D01*
X22364Y-16821D01*
X22392Y-16821D01*
X22435Y-16835D01*
X22450Y-16850D01*
X22735Y-17121D02*
X22564Y-17121D01*
X22650Y-17121D02*
X22650Y-16821D01*
X22621Y-16864D01*
X22592Y-16892D01*
X22564Y-16907D01*
X19349Y-17050D02*
X19206Y-17050D01*
X19206Y-16750D01*
X19449Y-16893D02*
X19549Y-16893D01*
X19592Y-17050D02*
X19449Y-17050D01*
X19449Y-16750D01*
X19592Y-16750D01*
X19720Y-17050D02*
X19720Y-16750D01*
X19792Y-16750D01*
X19835Y-16764D01*
X19863Y-16793D01*
X19877Y-16821D01*
X19892Y-16879D01*
X19892Y-16921D01*
X19877Y-16979D01*
X19863Y-17007D01*
X19835Y-17036D01*
X19792Y-17050D01*
X19720Y-17050D01*
X20177Y-17050D02*
X20006Y-17050D01*
X20092Y-17050D02*
X20092Y-16750D01*
X20063Y-16793D01*
X20035Y-16821D01*
X20006Y-16836D01*
M02*
