M48
;DRILL file {Pcbnew (2013-03-19 BZR 4004)-stable} date 2015/1/6 10:08:30
;FORMAT={-:-/ absolute / inch / decimal}
FMAT,2
INCH,TZ
T1C0.020
T2C0.032
T3C0.043
T4C0.047
T5C0.126
%
G90
G05
M72
T1
X2.14Y-1.625
T2
X1.9185Y-1.5354
X2.0185Y-1.5354
T3
X2.4559Y-1.4354
X2.4559Y-1.5354
X2.4559Y-1.6354
X2.4559Y-2.3803
X2.4559Y-2.4803
X2.4559Y-2.5803
T4
X1.7225Y-2.3823
X1.7225Y-2.5783
X2.2145Y-2.3823
X2.2145Y-2.5783
T5
X1.6929Y-1.1811
X1.6929Y-1.8898
X1.6929Y-2.126
X1.6929Y-2.8346
X2.874Y-1.1811
X2.874Y-1.8898
X2.874Y-2.126
X2.874Y-2.8346
T0
M30
